<svg width="19" height="22" viewBox="0 0 19 22" fill="none" xmlns="http://www.w3.org/2000/svg">
                                <path d="M16.5939 0H2.40613C1.07942 0 0 1.07942 0 2.40613V17.7554C0 18.4417 0.558266 19 1.24455 19H6.69287C6.92201 19 7.10772 18.8143 7.10772 18.5851C7.10772 18.356 6.92201 18.1703 6.69287 18.1703H1.24455C1.01574 18.1703 0.829701 17.9843 0.829701 17.7554V2.40613C0.829701 1.53689 1.53689 0.829701 2.40613 0.829701H14.7784C14.411 1.25233 14.1877 1.80347 14.1877 2.40613V15.7753C14.1877 16.1581 13.8764 16.4694 13.4937 16.4694C13.1945 16.4694 12.9299 16.2787 12.8351 15.9949L12.2099 14.119C12.0334 13.5894 11.5397 13.2337 10.9816 13.2337C10.2676 13.2337 9.68676 13.8145 9.68676 14.5284V14.8515H7.53651C7.30737 14.8515 7.12166 15.0374 7.12166 15.2663C7.12166 15.4955 7.30737 15.6812 7.53651 15.6812H9.68676V17.7451C9.68676 18.3576 9.8062 18.9549 10.0418 19.5202L10.6521 20.985C10.7185 21.1443 10.8727 21.2404 11.0352 21.2404C11.0883 21.2404 11.1425 21.2301 11.1945 21.2084C11.4061 21.1203 11.5061 20.8774 11.418 20.6659L10.8077 19.2011C10.6145 18.7375 10.5165 18.2476 10.5165 17.7452V14.5285C10.5165 14.272 10.725 14.0634 10.9816 14.0634C11.182 14.0634 11.3595 14.1911 11.4228 14.3814L12.048 16.2573C12.2558 16.8804 12.8367 17.2991 13.4937 17.2991C14.3339 17.2991 15.0174 16.6156 15.0174 15.7753V8.66276L15.5718 9.21601C16.561 10.2032 17.1056 11.5166 17.1056 12.914V17.3239C17.1056 18.4662 16.8468 19.6155 16.3574 20.6476C16.2592 20.8545 16.3475 21.102 16.5545 21.2002C16.7614 21.2984 17.0089 21.2102 17.1071 21.0031C17.6488 19.8607 17.9353 18.5884 17.9353 17.3239V12.914C17.9353 11.2946 17.3041 9.77281 16.1579 8.62873L15.0174 7.49032V7.09395H17.7554C18.4417 7.09395 19 6.53568 19 5.84939V2.40613C19 1.07942 17.9207 0 16.5939 0V0ZM18.1703 5.84939C18.1703 6.07805 17.9843 6.26425 17.7554 6.26425H15.0174V2.40613C15.0174 1.53689 15.7246 0.829701 16.5939 0.829701C17.4631 0.829701 18.1703 1.53689 18.1703 2.40613V5.84939Z"
                                    fill="#4B4B4B" />
                                <path d="M8.50445 18.1704C8.39523 18.1704 8.28827 18.2148 8.21114 18.2919C8.134 18.3692 8.0896 18.4762 8.0896 18.5853C8.0896 18.6945 8.134 18.8014 8.21114 18.8786C8.28827 18.9557 8.39523 19.0001 8.50445 19.0001C8.61351 19.0001 8.72046 18.9557 8.79776 18.8786C8.8749 18.8014 8.9193 18.6945 8.9193 18.5853C8.9193 18.4762 8.8749 18.3692 8.79776 18.2919C8.72046 18.2148 8.61351 18.1704 8.50445 18.1704Z"
                                    fill="#4B4B4B" />
                                <path d="M5.71106 3.06994C5.71106 2.61247 5.33883 2.24023 4.88136 2.24023H3.05602C2.59839 2.24023 2.22632 2.61247 2.22632 3.06994V4.89528C2.22632 5.35275 2.59839 5.72498 3.05602 5.72498H4.88136C5.33883 5.72498 5.71106 5.35275 5.71106 4.89528V3.06994ZM4.88136 4.89528H3.05602V3.06994H4.88136L4.88185 4.89528C4.88185 4.89528 4.88169 4.89528 4.88136 4.89528Z"
                                    fill="#4B4B4B" />
                                <path d="M5.71106 8.04796C5.71106 7.59049 5.33883 7.21826 4.88136 7.21826H3.05602C2.59839 7.21826 2.22632 7.59049 2.22632 8.04796V9.87331C2.22632 10.3308 2.59839 10.703 3.05602 10.703H4.88136C5.33883 10.703 5.71106 10.3308 5.71106 9.87331V8.04796ZM4.88136 9.87331H3.05602V8.04796H4.88136L4.88185 9.87331C4.88185 9.87331 4.88169 9.87331 4.88136 9.87331Z"
                                    fill="#4B4B4B" />
                                <path d="M4.88136 12.1968H3.05602C2.59839 12.1968 2.22632 12.5688 2.22632 13.0265V14.8517C2.22632 15.3093 2.59839 15.6814 3.05602 15.6814H4.88136C5.33883 15.6814 5.71106 15.3093 5.71106 14.8517V13.0265C5.71106 12.5688 5.33883 12.1968 4.88136 12.1968ZM4.88136 14.8517H3.05602V13.0265H4.88136L4.88185 14.8517C4.88185 14.8517 4.88169 14.8517 4.88136 14.8517Z"
                                    fill="#4B4B4B" />
                                <path d="M12.2938 5.72521C12.5229 5.72521 12.7086 5.5395 12.7086 5.31036C12.7086 5.08122 12.5229 4.89551 12.2938 4.89551H9.43389C9.20475 4.89551 9.01904 5.08122 9.01904 5.31036C9.01904 5.5395 9.20475 5.72521 9.43389 5.72521H12.2938Z"
                                    fill="#4B4B4B" />
                                <path d="M7.53643 5.72521C7.64566 5.72521 7.75261 5.68081 7.82975 5.60367C7.90688 5.52653 7.95128 5.41942 7.95128 5.31036C7.95128 5.2013 7.90688 5.09418 7.82975 5.01705C7.75261 4.93991 7.64566 4.89551 7.53643 4.89551C7.42689 4.89551 7.32026 4.93991 7.24312 5.01705C7.16566 5.09418 7.12158 5.2013 7.12158 5.31036C7.12158 5.41942 7.16566 5.52653 7.24312 5.60367C7.32026 5.68081 7.42689 5.72521 7.53643 5.72521Z"
                                    fill="#4B4B4B" />
                                <path d="M7.53643 10.7032H12.2934C12.5226 10.7032 12.7083 10.5175 12.7083 10.2884C12.7083 10.0592 12.5226 9.87354 12.2934 9.87354H7.53643C7.30745 9.87354 7.12158 10.0592 7.12158 10.2884C7.12158 10.5175 7.30745 10.7032 7.53643 10.7032Z"
                                    fill="#4B4B4B" />
                            </svg>