<svg width="25" height="19" viewBox="0 0 25 19" fill="none" xmlns="http://www.w3.org/2000/svg">
                                <path d="M24.5968 14.25H24.1935V10.7955C24.193 10.3375 24.0229 9.89855 23.7205 9.57475C23.4182 9.25095 23.0082 9.06878 22.5806 9.06818V1.72727C22.5801 1.26936 22.41 0.830366 22.1076 0.506569C21.8053 0.182772 21.3953 0.000599836 20.9677 0H4.03226C3.60466 0.000599836 3.19474 0.182772 2.89238 0.506569C2.59003 0.830366 2.41991 1.26936 2.41935 1.72727V9.06818C1.99176 9.06878 1.58184 9.25095 1.27948 9.57475C0.977122 9.89855 0.807012 10.3375 0.806452 10.7955V14.25H0.403226C0.296284 14.25 0.193722 14.2955 0.118102 14.3765C0.0424826 14.4575 0 14.5673 0 14.6818V16.4091C0 16.5236 0.0424826 16.6335 0.118102 16.7144C0.193722 16.7954 0.296284 16.8409 0.403226 16.8409H0.806452V18.5682C0.806452 18.6827 0.848934 18.7925 0.924554 18.8735C1.00017 18.9545 1.10274 19 1.20968 19H2.41935C2.51255 19 2.60287 18.9655 2.67493 18.9022C2.74699 18.8389 2.79632 18.7508 2.81452 18.6529L3.15323 16.8409H21.8468L22.1855 18.6529C22.2037 18.7508 22.253 18.8389 22.3251 18.9022C22.3971 18.9655 22.4875 19 22.5806 19H23.7903C23.8973 19 23.9998 18.9545 24.0754 18.8735C24.1511 18.7925 24.1935 18.6827 24.1935 18.5682V16.8409H24.5968C24.7037 16.8409 24.8063 16.7954 24.8819 16.7144C24.9575 16.6335 25 16.5236 25 16.4091V14.6818C25 14.5673 24.9575 14.4575 24.8819 14.3765C24.8063 14.2955 24.7037 14.25 24.5968 14.25ZM3.22581 1.72727C3.22609 1.49831 3.31114 1.27882 3.46232 1.11692C3.6135 0.955023 3.81846 0.863936 4.03226 0.863636H20.9677C21.1815 0.863936 21.3865 0.955023 21.5377 1.11692C21.6889 1.27882 21.7739 1.49831 21.7742 1.72727V9.06818H20.9677V7.34091C20.9672 6.88299 20.7971 6.444 20.4947 6.12021C20.1924 5.79641 19.7824 5.61424 19.3548 5.61364H14.5161C14.0885 5.61424 13.6786 5.79641 13.3763 6.12021C13.0739 6.444 12.9038 6.88299 12.9032 7.34091V9.06818H12.0968V7.34091C12.0962 6.88299 11.9261 6.444 11.6237 6.12021C11.3214 5.79641 10.9115 5.61424 10.4839 5.61364H5.64516C5.21756 5.61424 4.80764 5.79641 4.50529 6.12021C4.20293 6.444 4.03282 6.88299 4.03226 7.34091V9.06818H3.22581V1.72727ZM20.1613 7.34091V9.06818H13.7097V7.34091C13.71 7.11195 13.795 6.89246 13.9462 6.73056C14.0974 6.56866 14.3023 6.47757 14.5161 6.47727H19.3548C19.5686 6.47757 19.7736 6.56866 19.9248 6.73056C20.076 6.89246 20.161 7.11195 20.1613 7.34091ZM11.2903 7.34091V9.06818H4.83871V7.34091C4.83899 7.11195 4.92405 6.89246 5.07522 6.73056C5.2264 6.56866 5.43136 6.47757 5.64516 6.47727H10.4839C10.6977 6.47757 10.9026 6.56866 11.0538 6.73056C11.205 6.89246 11.29 7.11195 11.2903 7.34091ZM1.6129 10.7955C1.61318 10.5665 1.69824 10.347 1.84942 10.1851C2.0006 10.0232 2.20556 9.93212 2.41935 9.93182H22.5806C22.7944 9.93212 22.9994 10.0232 23.1506 10.1851C23.3018 10.347 23.3868 10.5665 23.3871 10.7955V14.25H1.6129V10.7955ZM2.08871 18.1364H1.6129V16.8409H2.33065L2.08871 18.1364ZM23.3871 18.1364H22.9113L22.6694 16.8409H23.3871V18.1364ZM24.1935 15.9773H0.806452V15.1136H24.1935V15.9773Z"
                                    fill="#4B4B4B" />
                            </svg>