<svg width="17" height="25" viewBox="0 0 17 25" fill="none" xmlns="http://www.w3.org/2000/svg">
                                <path d="M15.1271 3.17218H12.2398V0.335582C12.2397 0.246527 12.2042 0.161172 12.1411 0.0982547C12.0781 0.0353374 11.9927 -7.59055e-08 11.9037 5.49508e-08H5.09635C5.0522 -2.51964e-05 5.00847 0.00865256 4.96768 0.0255371C4.92688 0.0424217 4.88981 0.067182 4.85859 0.0984022C4.82737 0.129622 4.80261 0.16669 4.78573 0.207486C4.76884 0.248282 4.76017 0.292006 4.76019 0.336158V3.17218H1.87288C1.37633 3.17274 0.900284 3.37024 0.549172 3.72135C0.19806 4.07246 0.000559261 4.54851 0 5.04506V22.7139C0.000355874 23.2106 0.197767 23.6868 0.548901 24.0381C0.900035 24.3894 1.3762 24.587 1.87288 24.5876H15.1271C15.6237 24.587 16.0997 24.3895 16.4508 24.0384C16.8019 23.6873 16.9994 23.2112 17 22.7147V5.04506C16.9994 4.54851 16.8019 4.07246 16.4508 3.72135C16.0997 3.37024 15.6237 3.17274 15.1271 3.17218ZM5.09635 5.7654H14.4068V21.9944H2.59322V5.7654H5.09635ZM5.43251 0.672316H11.5675V5.09308H5.43251V0.672316ZM16.3277 22.7139C16.3273 23.0322 16.2007 23.3374 15.9757 23.5625C15.7506 23.7875 15.4454 23.9141 15.1271 23.9145H1.87288C1.55458 23.9141 1.24942 23.7875 1.02435 23.5625C0.799274 23.3374 0.672672 23.0322 0.672316 22.7139V5.04506C0.672672 4.72676 0.799274 4.4216 1.02435 4.19653C1.24942 3.97145 1.55458 3.84485 1.87288 3.8445H4.76019V5.09308H2.25706C2.21291 5.09306 2.16919 5.10174 2.12839 5.11862C2.08759 5.13551 2.05053 5.16027 2.01931 5.19149C1.98809 5.22271 1.96333 5.25977 1.94644 5.30057C1.92956 5.34137 1.92088 5.38509 1.9209 5.42924V22.3297C1.92078 22.374 1.92938 22.4178 1.94622 22.4586C1.96306 22.4995 1.9878 22.5367 2.01903 22.568C2.05026 22.5993 2.08737 22.6241 2.12821 22.6411C2.16906 22.658 2.21285 22.6667 2.25706 22.6667H14.7429C14.7871 22.6667 14.8308 22.658 14.8716 22.6411C14.9124 22.6242 14.9495 22.5995 14.9807 22.5683C15.0119 22.537 15.0367 22.5 15.0536 22.4592C15.0704 22.4184 15.0791 22.3747 15.0791 22.3305V5.42924C15.0791 5.38509 15.0704 5.34137 15.0536 5.30057C15.0367 5.25977 15.0119 5.22271 14.9807 5.19149C14.9495 5.16027 14.9124 5.13551 14.8716 5.11862C14.8308 5.10174 14.7871 5.09306 14.7429 5.09308H12.2398V3.8445H15.1271C15.4454 3.84485 15.7506 3.97145 15.9757 4.19653C16.2007 4.4216 16.3273 4.72676 16.3277 5.04506V22.7139Z"
                                    fill="#4B4B4B" />
                                <path d="M7.43772 3.21914H8.16401V3.94544C8.16401 4.03459 8.19943 4.1201 8.26247 4.18314C8.32551 4.24618 8.41102 4.2816 8.50017 4.2816C8.58933 4.2816 8.67483 4.24618 8.73787 4.18314C8.80091 4.1201 8.83633 4.03459 8.83633 3.94544V3.21914H9.56262C9.65178 3.21914 9.73728 3.18373 9.80033 3.12068C9.86337 3.05764 9.89878 2.97214 9.89878 2.88299C9.89878 2.79383 9.86337 2.70833 9.80033 2.64529C9.73728 2.58224 9.65178 2.54683 9.56262 2.54683H8.83633V1.82053C8.83633 1.73138 8.80091 1.64588 8.73787 1.58283C8.67483 1.51979 8.58933 1.48438 8.50017 1.48438C8.41102 1.48438 8.32551 1.51979 8.26247 1.58283C8.19943 1.64588 8.16401 1.73138 8.16401 1.82053V2.54683H7.43772C7.34857 2.54683 7.26306 2.58224 7.20002 2.64529C7.13698 2.70833 7.10156 2.79383 7.10156 2.88299C7.10156 2.97214 7.13698 3.05764 7.20002 3.12068C7.26306 3.18373 7.34857 3.21914 7.43772 3.21914Z"
                                    fill="#4B4B4B" />
                                <path d="M4.89679 11.3745C4.96466 11.4317 5.0524 11.4598 5.14088 11.4526C5.22937 11.4454 5.31141 11.4035 5.36914 11.3361L7.24222 9.15394C7.27379 9.12092 7.2983 9.08182 7.31425 9.03902C7.33021 8.99622 7.33727 8.95061 7.33501 8.90499C7.33276 8.85937 7.32122 8.81468 7.30112 8.77367C7.28102 8.73265 7.25277 8.69616 7.21809 8.66642C7.18342 8.63669 7.14304 8.61433 7.09944 8.60072C7.05584 8.58711 7.00992 8.58253 6.96448 8.58725C6.91905 8.59198 6.87505 8.60592 6.83519 8.62821C6.79532 8.65051 6.76041 8.6807 6.7326 8.71693L5.0764 10.6457L4.39505 10.0694C4.36135 10.0409 4.32236 10.0193 4.2803 10.0058C4.23825 9.99237 4.19396 9.98733 4.14995 9.99098C4.10595 9.99464 4.06309 10.0069 4.02384 10.0271C3.98458 10.0474 3.94969 10.0751 3.92116 10.1088C3.89263 10.1425 3.87102 10.1815 3.85756 10.2236C3.8441 10.2656 3.83905 10.3099 3.84271 10.3539C3.84636 10.3979 3.85865 10.4408 3.87887 10.48C3.89909 10.5193 3.92684 10.5542 3.96054 10.5827L4.89679 11.3745Z"
                                    fill="#4B4B4B" />
                                <path d="M8.49998 9.60884H12.822C12.9112 9.60884 12.9967 9.57342 13.0597 9.51038C13.1228 9.44734 13.1582 9.36184 13.1582 9.27268C13.1582 9.18353 13.1228 9.09802 13.0597 9.03498C12.9967 8.97194 12.9112 8.93652 12.822 8.93652H8.49998C8.41082 8.93652 8.32532 8.97194 8.26228 9.03498C8.19923 9.09802 8.16382 9.18353 8.16382 9.27268C8.16382 9.36184 8.19923 9.44734 8.26228 9.51038C8.32532 9.57342 8.41082 9.60884 8.49998 9.60884Z"
                                    fill="#4B4B4B" />
                                <path d="M8.49998 11.1181H11.4294C11.5185 11.1181 11.604 11.0827 11.6671 11.0197C11.7301 10.9566 11.7655 10.8711 11.7655 10.782C11.7655 10.6928 11.7301 10.6073 11.6671 10.5443C11.604 10.4812 11.5185 10.4458 11.4294 10.4458H8.49998C8.41082 10.4458 8.32532 10.4812 8.26228 10.5443C8.19923 10.6073 8.16382 10.6928 8.16382 10.782C8.16382 10.8711 8.19923 10.9566 8.26228 11.0197C8.32532 11.0827 8.41082 11.1181 8.49998 11.1181Z"
                                    fill="#4B4B4B" />
                                <path d="M4.89679 15.2272C4.96464 15.2845 5.05239 15.3126 5.14089 15.3054C5.22939 15.2982 5.31144 15.2563 5.36914 15.1888L7.24222 13.0068C7.30029 12.9392 7.32912 12.8512 7.32235 12.7623C7.31557 12.6734 7.27376 12.5908 7.2061 12.5328C7.13845 12.4747 7.05049 12.4459 6.96158 12.4526C6.87268 12.4594 6.7901 12.5012 6.73202 12.5689L5.0764 14.4984L4.39505 13.9221C4.36135 13.8936 4.32236 13.872 4.2803 13.8585C4.23825 13.8451 4.19396 13.84 4.14995 13.8437C4.10595 13.8474 4.06309 13.8596 4.02384 13.8799C3.98458 13.9001 3.94969 13.9278 3.92116 13.9615C3.89263 13.9952 3.87102 14.0342 3.85756 14.0763C3.8441 14.1183 3.83905 14.1626 3.84271 14.2066C3.84636 14.2506 3.85865 14.2935 3.87887 14.3327C3.89909 14.372 3.92684 14.4069 3.96054 14.4354L4.89679 15.2272Z"
                                    fill="#4B4B4B" />
                                <path d="M8.49998 13.4609H12.822C12.9112 13.4609 12.9967 13.4255 13.0597 13.3624C13.1228 13.2994 13.1582 13.2139 13.1582 13.1247C13.1582 13.0356 13.1228 12.9501 13.0597 12.887C12.9967 12.824 12.9112 12.7886 12.822 12.7886H8.49998C8.41082 12.7886 8.32532 12.824 8.26228 12.887C8.19923 12.9501 8.16382 13.0356 8.16382 13.1247C8.16382 13.2139 8.19923 13.2994 8.26228 13.3624C8.32532 13.4255 8.41082 13.4609 8.49998 13.4609Z"
                                    fill="#4B4B4B" />
                                <path d="M8.49998 14.9702H11.4294C11.5185 14.9702 11.604 14.9348 11.6671 14.8717C11.7301 14.8087 11.7655 14.7232 11.7655 14.634C11.7655 14.5449 11.7301 14.4594 11.6671 14.3963C11.604 14.3333 11.5185 14.2979 11.4294 14.2979H8.49998C8.41082 14.2979 8.32532 14.3333 8.26228 14.3963C8.19923 14.4594 8.16382 14.5449 8.16382 14.634C8.16382 14.7232 8.19923 14.8087 8.26228 14.8717C8.32532 14.9348 8.41082 14.9702 8.49998 14.9702Z"
                                    fill="#4B4B4B" />
                                <path d="M4.89696 19.0793C4.96483 19.1365 5.05257 19.1646 5.14105 19.1574C5.22953 19.1502 5.31158 19.1083 5.36931 19.0408L7.24238 16.8589C7.30046 16.7912 7.32928 16.7033 7.32251 16.6144C7.31574 16.5255 7.27393 16.4429 7.20627 16.3848C7.13861 16.3267 7.05066 16.2979 6.96175 16.3047C6.87284 16.3115 6.79027 16.3533 6.73219 16.4209L5.07656 18.3505L4.39522 17.7742C4.36168 17.7447 4.32259 17.7221 4.28024 17.7079C4.23789 17.6936 4.19312 17.688 4.14855 17.6912C4.10399 17.6945 4.06052 17.7066 4.02069 17.7269C3.98086 17.7471 3.94547 17.7751 3.91659 17.8092C3.8877 17.8433 3.8659 17.8828 3.85247 17.9254C3.83903 17.968 3.83423 18.0129 3.83834 18.0574C3.84245 18.1019 3.85538 18.1451 3.8764 18.1846C3.89741 18.224 3.92607 18.2589 3.96071 18.2871L4.89696 19.0793Z"
                                    fill="#4B4B4B" />
                                <path d="M8.49998 17.3129H12.822C12.9112 17.3129 12.9967 17.2775 13.0597 17.2145C13.1228 17.1514 13.1582 17.0659 13.1582 16.9768C13.1582 16.8876 13.1228 16.8021 13.0597 16.7391C12.9967 16.676 12.9112 16.6406 12.822 16.6406H8.49998C8.41082 16.6406 8.32532 16.676 8.26228 16.7391C8.19923 16.8021 8.16382 16.8876 8.16382 16.9768C8.16382 17.0659 8.19923 17.1514 8.26228 17.2145C8.32532 17.2775 8.41082 17.3129 8.49998 17.3129Z"
                                    fill="#4B4B4B" />
                                <path d="M8.49998 18.8227H11.4294C11.5185 18.8227 11.604 18.7873 11.6671 18.7243C11.7301 18.6612 11.7655 18.5757 11.7655 18.4865C11.7655 18.3974 11.7301 18.3119 11.6671 18.2488C11.604 18.1858 11.5185 18.1504 11.4294 18.1504H8.49998C8.41082 18.1504 8.32532 18.1858 8.26228 18.2488C8.19923 18.3119 8.16382 18.3974 8.16382 18.4865C8.16382 18.5757 8.19923 18.6612 8.26228 18.7243C8.32532 18.7873 8.41082 18.8227 8.49998 18.8227Z"
                                    fill="#4B4B4B" />
                            </svg>