<svg width="26" height="22" viewBox="0 0 26 22" fill="none" xmlns="http://www.w3.org/2000/svg">
<path d="M25.3449 20.312H0.509957C0.228359 20.312 0 20.5902 0 20.9333C0 21.2765 0.228359 21.5546 0.509957 21.5546H25.3449C25.6265 21.5546 25.8548 21.2765 25.8548 20.9333C25.8548 20.5902 25.6265 20.312 25.3449 20.312Z" fill="#009AED"/>
<path d="M0.244701 10.6745L4.00324 13.8043C4.84967 14.5092 5.8447 14.8688 6.84396 14.8687C7.56733 14.8687 8.29295 14.6802 8.96558 14.2977L12.6686 12.1892C12.9238 12.0438 13.0339 11.674 12.9147 11.3633C12.7955 11.0524 12.492 10.9183 12.2368 11.0634L8.53401 13.1719C7.25723 13.8977 5.74173 13.747 4.57868 12.7785L1.47003 10.1898L2.86915 9.14429L6.4698 10.5994C6.59398 10.6496 6.72927 10.6397 6.84768 10.5717L11.138 8.10951C11.2978 8.01775 11.4073 7.83179 11.4273 7.61788C11.4473 7.40402 11.3751 7.19272 11.2363 7.05945L6.50223 2.51444L8.34338 1.36988L16.8589 4.65222C16.9812 4.69937 17.1135 4.68856 17.2296 4.62221L22.9269 1.36056C23.5699 1.03263 24.3483 1.39094 24.6653 2.16272C24.8274 2.55737 24.8512 3.00421 24.732 3.42098C24.613 3.83775 24.3666 4.17002 24.0382 4.35679L16.3846 8.71292C16.1294 8.85812 16.0192 9.22792 16.1384 9.53876C16.2576 9.84959 16.5611 9.98404 16.8163 9.83872L24.4698 5.48271C25.0496 5.15298 25.4848 4.56592 25.6952 3.82961C25.9057 3.09331 25.8638 2.30382 25.5774 1.60665C25.0223 0.255322 23.6502 -0.36598 22.5191 0.221647C22.5135 0.224567 22.5078 0.227674 22.5022 0.230843L16.9765 3.39433L8.4517 0.108322C8.32406 0.0591148 8.18545 0.0730319 8.06607 0.147277L5.32938 1.84859C5.17456 1.94483 5.07063 2.1306 5.05365 2.34134C5.03667 2.55209 5.10898 2.75892 5.24555 2.89002L9.9573 7.41359L6.59749 9.3418L2.96522 7.87392C2.82248 7.81632 2.66623 7.83825 2.53803 7.93399L0.265813 9.63195C0.118435 9.74205 0.0268979 9.93571 0.0226143 10.1462C0.0183816 10.3568 0.102015 10.5556 0.244701 10.6745Z" fill="#009AED"/>
<path d="M14.3086 9.87924C14.0537 10.0243 13.9436 10.3936 14.0626 10.7041C14.1817 11.0147 14.4848 11.1488 14.7397 11.0037C14.9946 10.8587 15.1047 10.4894 14.9856 10.1788C14.8666 9.86837 14.5634 9.73423 14.3086 9.87924Z" fill="#009AED"/>
</svg>
