<svg width="159" height="37" viewBox="0 0 159 37" fill="none" xmlns="http://www.w3.org/2000/svg">
<g clip-path="url(#clip0)">
<path d="M18.5629 14.7252V28.4316H13.1472V15.9832C13.1472 13.7843 12.4004 12.7225 10.5172 12.7225C8.94835 12.7225 7.18071 13.4698 5.49366 14.7655V28.4316H0V8.79797H5.06115V10.8785C7.25861 9.22806 9.65218 8.28723 12.1263 8.28723C16.1291 8.28455 18.5629 10.5237 18.5629 14.7252Z" fill="#DF0C30"/>
<path d="M54.6761 14.7252V28.4316H49.22V15.9052C49.22 13.8623 48.6317 12.7252 46.668 12.7252C44.9406 12.7252 43.3315 13.3919 41.6847 14.8461V28.4343H36.2287V15.9079C36.2287 13.865 35.6001 12.7279 33.639 12.7279C31.9922 12.7279 30.3831 13.4752 28.6558 14.9671V28.437H23.2024V8.79797H28.2662V11.271C30.4637 9.42429 32.8976 8.28723 35.4872 8.28723C38.0769 8.28723 39.9601 9.26838 40.9433 11.1554C43.1031 9.38934 45.6122 8.28723 48.2825 8.28723C52.1267 8.28455 54.6761 10.4861 54.6761 14.7252Z" fill="#DF0C30"/>
<path d="M77.2145 8.79541L70.3481 26.7033C69.7974 28.1952 68.935 28.6656 66.9337 28.6656C64.892 28.6656 64.0297 28.1549 63.4414 26.7033L56.5347 8.79541H62.0686L66.974 23.7975L71.9572 8.79541H77.2145Z" fill="#DF0C30"/>
<path d="M80.4546 3.2203C80.4546 1.25801 81.6715 0 83.595 0C85.5184 0 86.773 1.25801 86.773 3.2203C86.773 5.18259 85.5184 6.44061 83.595 6.44061C81.6688 6.44061 80.4546 5.18259 80.4546 3.2203ZM80.9247 8.79535H86.2223V28.429H80.9247V8.79535Z" fill="#DF0C30"/>
<path d="M107.751 16.4536V28.4316H103.041V25.8779C101.669 27.7246 99.5491 28.902 96.6828 28.902C92.6398 28.902 89.9319 26.5069 89.9319 22.8162C89.9319 17.9858 94.5229 16.3353 99.5089 16.3353C100.648 16.3353 101.784 16.4133 102.845 16.5719V16.2977C102.845 13.744 101.118 12.529 98.6841 12.529C96.8386 12.529 94.7593 13.1956 92.7204 14.7682L90.445 11.4296C92.5645 9.42697 95.8204 8.28723 99.079 8.28723C104.258 8.28723 107.751 11.1903 107.751 16.4536ZM102.845 19.7142C101.825 19.6362 100.844 19.5959 99.9011 19.5959C97.349 19.5959 95.2321 20.3405 95.2321 22.4614C95.2321 23.9157 96.2906 24.9344 97.9803 24.9344C100.884 24.9371 102.649 22.7356 102.845 19.7142Z" fill="#DF0C30"/>
<path d="M107.81 35.3024L108.594 30.7864C109.223 31.023 109.93 31.1789 110.596 31.1789C112.087 31.1789 112.793 30.394 112.793 28.7059V8.79536H118.169V28.8618C118.169 33.5363 116.009 36.1653 111.496 36.1653C110.085 36.1679 108.871 35.7755 107.81 35.3024ZM112.286 3.2203C112.286 1.25802 113.54 0 115.504 0C117.505 0 118.762 1.25802 118.762 3.2203C118.762 5.18259 117.508 6.44061 115.504 6.44061C113.54 6.44061 112.286 5.18259 112.286 3.2203Z" fill="#DF0C30"/>
<path d="M138.013 22.5394L140.17 25.9962C137.736 27.9209 134.636 28.902 131.732 28.902C125.61 28.902 121.881 24.6226 121.881 18.889C121.881 13.2333 125.57 8.28723 132.125 8.28723C136.479 8.28723 140.366 10.6823 140.366 15.1203C140.366 18.1041 138.639 20.7357 134.204 20.7357H126.905C127.415 23.1307 129.065 24.6226 132.084 24.6226C134.01 24.6226 136.248 23.8377 138.013 22.5394ZM126.789 17.1202H133.07C134.679 17.1202 135.542 16.217 135.542 14.9617C135.542 13.5478 134.207 12.3301 132.087 12.3301C129.615 12.3301 127.337 13.9806 126.789 17.1202Z" fill="#DF0C30"/>
<path d="M142.223 25.8779L144.342 22.499C146.421 24.1871 148.619 24.8162 150.19 24.8162C151.84 24.8162 153.25 24.1495 153.25 22.8915C153.25 21.3217 151.131 20.8889 149.011 20.1819C145.871 19.1201 143.321 17.7465 143.321 14.4483C143.321 10.4834 146.736 8.28186 151.249 8.28186C154.035 8.28186 156.743 9.18505 158.628 10.5587L156.587 13.8972C154.782 12.7978 153.017 12.2468 151.485 12.2468C149.72 12.2468 148.622 12.994 148.622 14.0128C148.622 15.3488 150.271 15.8192 152.076 16.4079C155.295 17.467 158.827 18.6067 158.827 22.5743C158.827 26.6978 154.865 28.859 150.43 28.859C147.324 28.8644 144.264 27.8429 142.223 25.8779Z" fill="#DF0C30"/>
</g>
<defs>
<clipPath id="clip0">
<rect width="158.824" height="36.1679" fill="white"/>
</clipPath>
</defs>
</svg>
