<svg width="13" height="13" viewBox="0 0 13 13" fill="none" xmlns="http://www.w3.org/2000/svg">
<circle cx="6.5" cy="6.5" r="6.25" fill="white" stroke="#E4E5E7" stroke-width="0.5"/>
<path d="M6.65968 6.02326C7.24381 6.02326 7.74954 5.81376 8.16289 5.40041C8.5761 4.98714 8.78567 4.48147 8.78567 3.89727C8.78567 3.31328 8.57617 2.80755 8.16282 2.39413C7.74948 1.98092 7.24374 1.77142 6.65968 1.77142C6.07549 1.77142 5.56982 1.98092 5.15654 2.3942C4.74326 2.80748 4.53369 3.31322 4.53369 3.89727C4.53369 4.48147 4.74326 4.9872 5.15654 5.40048C5.56995 5.81369 6.07569 6.02326 6.65968 6.02326ZM5.52234 2.75994C5.83945 2.44282 6.21145 2.28868 6.65968 2.28868C7.10784 2.28868 7.47991 2.44282 7.79709 2.75994C8.1142 3.07712 8.26841 3.44918 8.26841 3.89727C8.26841 4.3455 8.1142 4.7175 7.79709 5.03468C7.47991 5.35186 7.10784 5.50601 6.65968 5.50601C6.21159 5.50601 5.83959 5.35179 5.52234 5.03468C5.20516 4.71757 5.05095 4.3455 5.05095 3.89727C5.05095 3.44918 5.20516 3.07712 5.52234 2.75994Z" fill="#DF0C30"/>
<path d="M10.3795 8.55873C10.3676 8.38674 10.3435 8.19913 10.308 8.00101C10.2721 7.80141 10.226 7.61271 10.1708 7.44025C10.1137 7.262 10.0362 7.08597 9.94021 6.91727C9.84074 6.74219 9.72384 6.58972 9.59266 6.46427C9.45548 6.33302 9.28753 6.22749 9.09332 6.15052C8.89977 6.07395 8.68529 6.03516 8.45585 6.03516C8.36575 6.03516 8.27861 6.07213 8.11032 6.1817C8.00675 6.24924 7.8856 6.32736 7.75038 6.41376C7.63475 6.48743 7.47812 6.55646 7.28464 6.61895C7.09588 6.68003 6.90423 6.71101 6.715 6.71101C6.5259 6.71101 6.33424 6.68003 6.14535 6.61895C5.95208 6.55652 5.79537 6.4875 5.67995 6.41383C5.546 6.32823 5.42479 6.25012 5.31967 6.18163C5.15152 6.07207 5.06437 6.0351 4.97427 6.0351C4.74477 6.0351 4.53035 6.07395 4.33688 6.15059C4.1428 6.22742 3.97478 6.33295 3.83747 6.46433C3.70629 6.58986 3.58938 6.74225 3.48998 6.91727C3.39416 7.08597 3.31658 7.26193 3.25947 7.44032C3.20432 7.61278 3.15819 7.80141 3.12236 8.00101C3.08681 8.19886 3.06277 8.38654 3.05085 8.55894C3.03913 8.72749 3.0332 8.90292 3.0332 9.08016C3.0332 9.54092 3.17967 9.91392 3.4685 10.189C3.75376 10.4605 4.13115 10.5981 4.59022 10.5981H8.84031C9.29925 10.5981 9.67663 10.4605 9.96196 10.189C10.2509 9.91413 10.3973 9.54098 10.3973 9.0801C10.3973 8.90225 10.3913 8.72682 10.3795 8.55873ZM9.60532 9.81426C9.41683 9.99366 9.16658 10.0809 8.84024 10.0809H4.59022C4.26381 10.0809 4.01357 9.99366 3.82515 9.81433C3.64029 9.63836 3.55046 9.39815 3.55046 9.08016C3.55046 8.91477 3.55591 8.75147 3.56682 8.5947C3.57746 8.44089 3.59921 8.27193 3.63147 8.09239C3.66332 7.91508 3.70386 7.74868 3.75208 7.59803C3.79834 7.45359 3.86144 7.31055 3.93969 7.17277C4.01438 7.04145 4.10031 6.92879 4.19512 6.83801C4.28381 6.7531 4.3956 6.6836 4.52732 6.63148C4.64914 6.58326 4.78605 6.55686 4.93467 6.55289C4.95279 6.56252 4.98505 6.5809 5.0373 6.61498C5.14364 6.68427 5.2662 6.76333 5.40169 6.84987C5.55442 6.94724 5.7512 7.03519 5.98629 7.11108C6.22663 7.1888 6.47176 7.22826 6.71506 7.22826C6.95837 7.22826 7.20356 7.1888 7.44377 7.11115C7.67906 7.03512 7.87577 6.94724 8.0287 6.84973C8.16736 6.76111 8.28649 6.68434 8.39282 6.61498C8.44508 6.58097 8.47734 6.56252 8.49545 6.55289C8.64414 6.55686 8.78105 6.58326 8.90294 6.63148C9.03459 6.6836 9.14638 6.75316 9.23507 6.83801C9.32989 6.92872 9.41582 7.04139 9.4905 7.17284C9.56882 7.31055 9.63198 7.45365 9.67818 7.59797C9.72646 7.74881 9.76707 7.91515 9.79886 8.09232C9.83105 8.27219 9.85287 8.44122 9.86351 8.59476V8.5949C9.87448 8.75106 9.88 8.9143 9.88007 9.08016C9.88 9.39822 9.79017 9.63836 9.60532 9.81426Z" fill="#DF0C30"/>
</svg>
