<svg width="492" height="326" viewBox="0 0 492 326" fill="none" xmlns="http://www.w3.org/2000/svg">
<g clip-path="url(#clip0_324_25811)">
<path d="M42.261 325.101C42.261 325.101 -16.3174 265.085 20.9866 194.512C58.2906 123.938 108.35 159.454 105.955 77.2957C103.561 -4.86083 221.14 -11.8781 258.557 11.9553C295.974 35.7906 295.74 64.4812 373.004 55.0143C450.268 45.5473 464.999 124.686 444.887 165.008C416.348 222.218 524.021 212.818 456.139 325.242L42.261 325.101Z" fill="#F6F7F9"/>
<path d="M405.071 126.286C405.071 132.125 404.545 137.848 403.533 143.401C401.103 156.73 395.893 169.088 388.519 179.857C371.389 204.884 342.586 221.309 309.945 221.309C271.116 221.309 237.72 198.074 222.939 164.756C220.988 160.367 219.361 155.801 218.094 151.09C215.954 143.185 214.815 134.865 214.815 126.286C214.815 119.347 215.561 112.578 216.974 106.065C216.987 105.988 217.007 105.917 217.022 105.842C220.974 87.831 230.042 71.7381 242.627 59.148C246.195 55.5742 250.047 52.2842 254.153 49.3127C256.108 47.8951 258.125 46.5484 260.189 45.2842C274.661 36.387 291.701 31.2593 309.947 31.2593C312.367 31.2593 314.763 31.3494 317.135 31.5298C320.486 31.7772 323.784 32.1973 327.023 32.7863C340.67 35.2552 353.296 40.6361 364.249 48.2576H364.254C371.078 53.0017 377.246 58.6147 382.604 64.9433C385.417 68.2659 388.008 71.7822 390.349 75.475C391.805 77.7732 393.168 80.1346 394.43 82.5613C397.462 88.3911 399.901 94.5778 401.681 101.039C403.888 109.075 405.071 117.544 405.071 126.286Z" fill="#DCE8FF"/>
<path opacity="0.7" d="M277.624 83.7487C273.827 89.755 279.208 100.183 267.82 97.3382C256.432 94.4933 249.471 93.2291 248.839 99.5462C248.203 105.869 257.381 105.869 257.381 112.505C257.381 119.14 253.267 121.335 246.942 118.183C240.612 115.031 238.795 110.446 231.44 113.291C224.085 116.136 219.814 114.239 218.153 108.551C217.859 107.551 217.45 106.74 216.972 106.063C216.985 105.986 217.004 105.915 217.02 105.84C220.972 87.829 230.04 71.7361 242.625 59.146C246.193 55.5722 250.045 52.2822 254.151 49.3107C256.106 47.8931 258.122 46.5464 260.187 45.2822C263.152 45.3916 266.697 46.5138 269.72 50.2507C276.362 58.4708 280.791 54.3598 279.21 63.8402C277.626 73.3206 280.159 74.5867 285.536 74.2683C290.913 73.9498 297.243 73.9498 297.873 78.0608C298.503 82.1699 281.421 77.7424 277.624 83.7487Z" fill="#9FBDFF"/>
<path opacity="0.7" d="M317.01 140.627C317.01 140.627 308.627 143.313 306.413 137.468C304.199 131.623 306.73 130.358 299.296 128.62C291.862 126.882 291.23 121.826 286.485 122.459C281.74 123.09 284.113 124.987 278.577 129.094C273.04 133.201 267.98 131.306 268.137 138.889C268.295 146.473 276.52 147.658 278.181 152.636C279.842 157.612 276.994 159.745 280.553 163.538C284.111 167.331 290.754 165.671 287.67 170.885C284.586 176.099 279.84 180.128 282.212 188.187C284.584 196.244 282.925 196.719 286.957 202.407C290.99 208.095 298.82 209.99 300.007 206.2C301.193 202.407 294.549 197.431 296.684 193.639C298.82 189.846 302.378 192.453 303.801 186.765C305.224 181.077 310.999 181.077 311.473 177.127C311.948 173.178 304.514 167.173 307.36 164.645C310.208 162.117 315.902 169.228 320.33 162.907C324.759 156.586 321.753 151.531 326.341 145.527C330.929 139.522 320.175 137.151 317.01 140.627Z" fill="#9FBDFF"/>
<path opacity="0.7" d="M405.07 126.286C405.07 132.126 404.544 137.848 403.532 143.402C401.103 156.73 395.893 169.088 388.518 179.858C386.003 180.682 383.437 180.663 380.912 179.654C369.049 174.914 377.827 162.117 382.573 155.717C387.318 149.318 375.218 152.163 366.439 146.237C357.661 140.311 367.388 124.433 358.372 127.04C349.355 129.647 338.442 132.966 333.222 124.195C328.002 115.426 337.967 114.005 333.46 106.658C328.953 99.3105 336.07 95.0441 345.086 94.3343C354.103 93.6226 352.916 87.2249 364.068 86.2754C375.219 85.3277 374.981 99.5464 387.318 98.5988C399.655 97.6511 399.1 100.494 399.1 100.494C399.987 100.471 400.851 100.655 401.677 101.035C403.887 109.075 405.07 117.544 405.07 126.286Z" fill="#9FBDFF"/>
<path opacity="0.7" d="M394.426 82.5593C384.167 87.545 380.047 73.9843 371.279 78.0608C362.439 82.1698 363.985 74.2682 357.029 69.2115C350.068 64.1586 336.151 73.3206 336.783 65.4189C337.414 57.5212 347.854 59.7311 350.068 53.4121C352.284 47.0931 362.405 48.6719 362.405 48.6719C362.979 48.4532 363.595 48.3112 364.246 48.2556C364.246 48.2556 364.246 48.2518 364.252 48.2556C371.075 52.9997 377.244 58.6127 382.602 64.9413C385.415 68.2638 388.006 71.7801 390.347 75.4729C391.802 77.7711 393.164 80.1326 394.426 82.5593Z" fill="#9FBDFF"/>
<path opacity="0.7" d="M307.995 55.3078C307.995 55.3078 313.372 47.5577 304.832 45.271C296.29 42.9844 296.45 45.977 289.805 45.271C283.162 44.5651 280.553 49.6986 285.534 55.3078C290.516 60.917 294.55 71.6808 299.058 65.943C303.565 60.2053 302.695 55.8602 307.995 55.3078Z" fill="#9FBDFF"/>
<path d="M467.148 280.455C470.931 268.408 451.53 260.548 451.53 260.548C451.53 260.548 428.256 271.005 424.555 269.246C420.855 267.487 442.705 256.426 442.705 256.426C436.475 251.547 414.354 248.881 414.354 248.881C414.354 248.881 402.018 270.533 398.864 267.918C395.711 265.304 410.767 249.303 410.767 249.303C403.11 247.129 392.323 250.792 392.323 250.792C377.027 258.204 382.91 284.852 373.075 290.327C373.075 290.327 371.074 291.22 368.368 293.181L370.12 294.299C370.563 293.921 371.011 293.569 371.464 293.244C371.466 293.24 371.468 293.239 371.472 293.239C371.479 293.235 371.485 293.229 371.491 293.225C371.785 293.031 372.201 292.757 372.716 292.425C372.716 292.425 372.718 292.425 372.718 292.423C372.718 292.421 372.72 292.423 372.72 292.421C373.924 291.715 374.78 291.174 375.366 290.762C375.368 290.76 375.37 290.76 375.372 290.758C379.076 288.496 386.287 285.412 386.239 285.774C385.133 294.108 399.444 304.743 408.893 308.361C418.341 311.979 416.204 307.302 414.149 300.613C412.094 293.923 402.025 288.917 400.197 285.642C398.371 282.367 403.398 283.467 408.693 287.447C413.989 291.428 413.215 298.767 421.665 305.364C430.115 311.96 447.777 299.431 447.777 299.431C440.334 297.394 431.384 286.864 432.325 284.451C433.265 282.037 449.621 292.774 452.603 293.774C455.584 294.767 463.365 292.502 467.148 280.455Z" fill="#DFEBFD"/>
<path d="M24.4948 238.252C26.3 222.155 53.1473 222.966 53.1473 222.966C53.1473 222.966 75.042 247.277 80.2962 247.128C85.5524 246.978 65.6396 222.692 65.6396 222.692C75.4798 220.189 102.825 228.503 102.825 228.503C102.825 228.503 106.08 260.297 111.136 258.858C116.193 257.422 106.815 230.853 106.815 230.853C116.93 232.263 127.69 242.138 127.69 242.138C141.799 258.751 121.082 286.983 129.785 298.495C129.785 298.495 131.669 300.578 133.83 304.279L131.195 304.684C130.87 304.01 130.528 303.366 130.164 302.75C130.164 302.744 130.16 302.742 130.156 302.738C130.15 302.729 130.144 302.721 130.14 302.712C129.897 302.332 129.549 301.793 129.117 301.139L129.115 301.137C129.115 301.135 129.113 301.135 129.113 301.133C128.065 299.683 127.342 298.603 126.868 297.816C126.866 297.814 126.864 297.81 126.864 297.808C123.69 293.237 116.826 285.888 116.694 286.339C113.673 296.69 91.3635 301.772 78.3988 301.131C65.4341 300.49 70.3658 296.107 76.2461 289.318C82.1264 282.529 96.5391 281.861 100.38 278.965C104.221 276.066 97.7508 274.756 89.4719 276.689C81.193 278.623 78.2951 287.637 64.9598 291.008C51.6245 294.378 37.3904 270.537 37.3904 270.537C47.1825 271.995 63.145 264.266 63.2929 260.948C63.4407 257.629 38.677 261.771 34.6615 261.4C30.6478 261.032 22.6896 254.347 24.4948 238.252Z" fill="#DFEBFD"/>
<path opacity="0.5" d="M394.839 249.596C394.839 249.596 401.793 224.817 417.095 211.765C419.128 210.031 422.224 211.819 421.757 214.449C421.75 214.493 421.742 214.537 421.732 214.581C420.862 219.058 403.398 235.802 394.839 249.596Z" fill="#C5DDFF"/>
<path opacity="0.5" d="M392.137 256.579C392.137 256.579 409.964 227.029 434.184 216.501C435.661 215.859 437.434 216.452 438.131 217.902C438.584 218.846 438.64 220.221 437.656 222.199C435.035 227.478 407.537 242.338 392.137 256.579Z" fill="#C5DDFF"/>
<path opacity="0.5" d="M99.4852 222.468C99.4852 222.468 92.5314 197.688 77.2295 184.636C75.1958 182.902 72.1001 184.69 72.5668 187.32C72.5745 187.364 72.5821 187.408 72.5917 187.452C73.4617 191.93 90.9259 208.671 99.4852 222.468Z" fill="#C5DDFF"/>
<path opacity="0.5" d="M102.185 229.45C102.185 229.45 84.3578 199.9 60.1376 189.373C58.6608 188.73 56.8882 189.323 56.1911 190.773C55.7379 191.717 55.6822 193.092 56.6655 195.07C59.2868 200.349 86.7871 215.207 102.185 229.45Z" fill="#C5DDFF"/>
<path d="M307.658 93.9086L307.583 310.661C307.581 317.782 301.801 323.552 294.674 323.551L181.245 323.512C174.116 323.51 168.34 317.736 168.342 310.615L168.417 93.8625C168.419 86.7436 174.199 80.9732 181.328 80.9771L294.757 81.0154C301.883 81.0173 307.66 86.7915 307.658 93.9086Z" fill="#C2CFFF"/>
<path d="M294.672 325.17L181.243 325.131C173.233 325.129 166.719 318.617 166.721 310.615L166.796 93.8624C166.798 85.861 173.317 79.354 181.327 79.356L294.757 79.3943C302.767 79.3962 309.281 85.909 309.277 93.9104L309.202 310.663C309.2 318.664 302.682 325.171 294.672 325.17ZM181.327 82.5922C175.103 82.5903 170.039 87.6451 170.037 93.8624L169.962 310.615C169.96 316.832 175.021 321.891 181.245 321.893L294.674 321.931C300.898 321.933 305.962 316.879 305.964 310.661L306.039 93.9084C306.041 87.6911 300.981 82.6325 294.757 82.6306L181.327 82.5922Z" fill="#163560"/>
<path d="M189.581 101.566L187.674 102.932L185.758 101.58C186.182 100.983 186.885 100.588 187.674 100.588C188.46 100.59 189.157 100.973 189.581 101.566Z" fill="white"/>
<path d="M187.677 97.2578C185.76 97.2578 184.065 98.2093 183.037 99.6653L184.247 100.515C185.007 99.439 186.263 98.7388 187.677 98.7388C189.081 98.7388 190.325 99.4313 191.086 100.492L192.292 99.6289C191.258 98.192 189.574 97.2578 187.677 97.2578Z" fill="white"/>
<path d="M187.678 90.9253C183.623 90.9234 180.035 92.9357 177.859 96.0146L179.069 96.8644C180.976 94.1711 184.126 92.4043 187.677 92.4062C191.199 92.4082 194.325 94.1462 196.238 96.8069L197.438 95.9436C195.262 92.9069 191.7 90.9272 187.678 90.9253Z" fill="white"/>
<path d="M187.677 94.3896C184.792 94.3896 182.232 95.815 180.675 97.9999L181.885 98.8498C183.175 97.0485 185.29 95.8706 187.677 95.8706C190.043 95.8706 192.142 97.0312 193.436 98.8095L194.636 97.952C193.077 95.7939 190.538 94.3916 187.677 94.3896Z" fill="white"/>
<path d="M213.141 58.4268C213.141 58.4268 204.87 54.4578 194.183 56.637C194.183 56.637 206.406 55.8025 213.656 63.5526C213.656 63.5526 218.724 55.7872 227.104 54.007C227.102 54.0089 220.859 53.2646 213.141 58.4268Z" fill="#9FC1F4"/>
<path d="M189.83 54.686C189.83 54.686 183.451 51.5783 175.176 53.2166C175.176 53.2166 184.634 52.6276 190.205 58.6531C190.205 58.6531 194.161 52.6718 200.648 51.3308C200.648 51.3328 195.822 50.7285 189.83 54.686Z" fill="#9FC1F4"/>
<path d="M169.253 51.8527C169.253 51.8527 163.331 49.2726 155.868 51.0797C155.868 51.0797 164.449 50.18 169.747 55.4458C169.747 55.4458 173.113 49.8519 178.965 48.3844C178.963 48.3863 174.55 48.0237 169.253 51.8527Z" fill="#9FC1F4"/>
<path d="M157.717 45.9074C157.717 45.9074 153.562 44.5397 148.642 46.2297C148.642 46.2297 154.37 45.0826 158.276 48.2996C158.276 48.2996 160.193 44.3152 164.045 42.957C164.047 42.9589 161.047 42.9916 157.717 45.9074Z" fill="#9FC1F4"/>
<path d="M199.012 31.29C199.012 31.29 194.933 29.7073 189.933 31.1384C189.933 31.1384 195.713 30.2905 199.446 33.7071C199.446 33.7071 201.568 29.8282 205.488 28.6714C205.488 28.6753 202.492 28.5525 199.012 31.29Z" fill="#9FC1F4"/>
<path d="M219.121 45.3707C219.121 45.3707 213.429 42.5028 205.976 43.8763C205.976 43.8763 214.477 43.46 219.409 48.9388C219.409 48.9388 223.033 43.6116 228.876 42.4874C228.878 42.4874 224.55 41.8889 219.121 45.3707Z" fill="#9FC1F4"/>
<path d="M211.186 36.4734C211.186 36.4734 205.826 34.0218 198.989 35.5507C198.989 35.5507 206.83 34.8697 211.578 39.7595C211.578 39.7595 214.74 34.7124 220.1 33.4693C220.098 33.4693 216.079 33.0665 211.186 36.4734Z" fill="#9FC1F4"/>
<path d="M360.185 117.747C360.185 127.251 376.207 142.444 376.207 142.444C376.207 142.444 392.229 127.253 392.229 117.747C392.229 108.244 385.056 100.536 376.207 100.536C367.357 100.536 360.185 108.242 360.185 117.747ZM366.766 116.738C366.766 111.544 371.006 107.308 376.207 107.308C381.432 107.308 385.647 111.544 385.647 116.738C385.647 121.958 381.432 126.169 376.207 126.169C371.004 126.169 366.766 121.958 366.766 116.738Z" fill="#F21037"/>
<path d="M305.475 57.2529C305.475 66.3823 320.865 80.9751 320.865 80.9751C320.865 80.9751 336.255 66.3823 336.255 57.2529C336.255 48.1236 329.365 40.7207 320.865 40.7207C312.365 40.7226 305.475 48.1236 305.475 57.2529ZM311.797 56.2842C311.797 51.2926 315.87 47.2258 320.865 47.2258C325.885 47.2258 329.933 51.2926 329.933 56.2842C329.933 61.2987 325.885 65.3425 320.865 65.3425C315.868 65.3425 311.797 61.2987 311.797 56.2842Z" fill="#F21037"/>
<path d="M401.32 318.906H363.357C359.718 318.906 356.767 315.958 356.767 312.322V311.461H407.416V312.817C407.414 316.18 404.687 318.906 401.32 318.906Z" fill="#163560"/>
<path d="M409.151 248.964V309.343C409.151 310.07 409.071 310.78 408.915 311.463H401.825C400.724 311.463 399.697 311.784 398.833 312.336C398.297 312.676 397.827 313.105 397.439 313.604C396.699 314.548 396.261 315.735 396.261 317.024V318.906H368.487V317.024C368.487 315.083 367.494 313.374 365.984 312.378C365.558 312.096 365.089 311.872 364.59 311.716C364.064 311.551 363.503 311.463 362.923 311.463H355.261C355.107 310.78 355.024 310.07 355.024 309.343V248.964C355.024 243.681 359.307 239.401 364.59 239.401H399.582C404.871 239.399 409.151 243.681 409.151 248.964Z" fill="#F21037"/>
<path d="M392.281 239.366C379.746 234.43 371.003 239.288 370.916 239.337L370.465 238.551C370.559 238.497 372.792 237.231 376.654 236.59C380.201 236.001 385.849 235.858 392.615 238.522L392.281 239.366Z" fill="#163560"/>
<path d="M363.853 316.111H360.187V321.099H363.853V316.111Z" fill="#163560"/>
<path d="M359.41 321.855C359.41 320.414 360.578 319.248 362.018 319.248C363.458 319.248 364.626 320.416 364.626 321.855C364.626 323.293 363.458 324.462 362.018 324.462C360.578 324.462 359.41 323.295 359.41 321.855Z" fill="#1F4777"/>
<path d="M360.437 321.855C360.437 320.98 361.145 320.272 362.019 320.272C362.893 320.272 363.601 320.98 363.601 321.855C363.601 322.729 362.893 323.437 362.019 323.437C361.145 323.437 360.437 322.729 360.437 321.855Z" fill="#163560"/>
<path d="M401.556 316.111H397.89V321.099H401.556V316.111Z" fill="#163560"/>
<path d="M397.114 321.855C397.114 320.414 398.282 319.248 399.722 319.248C401.163 319.248 402.33 320.416 402.33 321.855C402.33 323.293 401.163 324.462 399.722 324.462C398.282 324.462 397.114 323.295 397.114 321.855Z" fill="#1F4777"/>
<path d="M398.14 321.855C398.14 320.98 398.848 320.272 399.722 320.272C400.596 320.272 401.306 320.98 401.306 321.855C401.306 322.729 400.598 323.437 399.722 323.437C398.848 323.437 398.14 322.729 398.14 321.855Z" fill="#163560"/>
<path d="M365.988 239.399V312.378C365.562 312.096 365.093 311.872 364.594 311.716V239.399H365.988Z" fill="#B50A27"/>
<path d="M377.149 239.399H375.755V318.906H377.149V239.399Z" fill="#B50A27"/>
<path d="M387.566 239.399H386.172V318.906H387.566V239.399Z" fill="#B50A27"/>
<path d="M398.835 239.399V312.336C398.299 312.676 397.828 313.105 397.44 313.604V239.401H398.835V239.399Z" fill="#B50A27"/>
<path d="M324.797 208.138C324.797 208.034 326.323 204.88 325.838 204.639C325.352 204.397 324.482 204.433 324.382 204.986C324.278 205.538 324.797 208.138 324.797 208.138Z" fill="#FFB27D"/>
<path d="M325.373 210.02C325.375 209.711 325.016 204.99 324.219 204.05C323.422 203.11 321.796 201.775 321.283 201.815C320.77 201.855 318.769 204.512 319.37 206.549C319.971 208.585 322.512 211.341 322.512 211.341L325.373 210.02Z" fill="#FFB27D"/>
<path d="M328.411 204.301L323.772 205.69C323.618 205.736 323.455 205.649 323.409 205.494L320.757 196.656C320.71 196.503 320.797 196.34 320.952 196.294L325.592 194.905C325.746 194.859 325.909 194.945 325.955 195.101L328.607 203.938C328.651 204.092 328.565 204.255 328.411 204.301Z" fill="#F1A34F"/>
<path d="M327.205 204.662L322.996 205.922C322.723 206.005 322.435 205.849 322.352 205.577L319.829 197.169C319.746 196.896 319.902 196.609 320.174 196.526L324.384 195.266C324.657 195.183 324.945 195.339 325.027 195.611L327.551 204.019C327.633 204.293 327.478 204.579 327.205 204.662Z" fill="#D86713"/>
<path d="M320.803 202.158C320.803 202.158 322.735 199.188 323.207 199.353C323.881 199.589 321.456 203.357 321.456 203.357C321.456 203.357 323.253 200.541 323.534 200.752C324.173 201.235 323.155 203.004 322.145 204.36C322.145 204.36 323.952 202.707 324.012 203.004C324.217 204.047 322.028 206.574 322.028 206.574L320.803 203.781V202.158Z" fill="#FFB27D"/>
<path d="M319.354 204.916C319.448 204.554 319.918 197.462 320.12 198.133C320.321 198.807 320.802 202.524 320.802 202.524L319.354 204.916Z" fill="#FFB27D"/>
<path d="M350.191 202.964C350.191 202.964 349.989 210.675 347.762 216.899C346.003 221.813 342.982 225.8 337.799 224.328C337.269 224.177 336.756 224.016 336.259 223.841C336.255 223.839 336.253 223.839 336.253 223.839C325.723 220.175 322.316 211.788 322.316 211.788C323.1 210.497 325.372 210.021 325.372 210.021C327.492 210.134 336.81 214.088 337.405 214.209C339.56 214.643 341.302 202.81 342.702 198.713C344.101 194.613 349.834 192.779 349.834 192.779L350.191 202.964Z" fill="#739AF0"/>
<path d="M347.966 211.341L347.764 216.897C346.005 221.811 342.984 225.798 337.801 224.326C337.271 224.175 336.758 224.014 336.261 223.839C336.426 223.86 339.598 224.288 340.925 222.962C342.289 221.598 342.147 217.077 344.661 214.063C347.174 211.051 347.966 211.341 347.966 211.341Z" fill="#5283DB"/>
<path d="M348.255 312.955C348.255 312.955 350.846 315.317 350.341 316.995C349.836 318.674 347.496 319.792 347.18 321.845C346.863 323.896 345.599 325.016 344.462 325.016C343.325 325.016 339.039 325.016 339.039 325.016C339.039 325.016 338.202 323.571 340.224 323.138C342.246 322.702 343.008 320.291 342.882 318.054C342.755 315.816 343.072 312.833 343.072 312.833L347.37 311.839L348.255 312.955Z" fill="#133054"/>
<path d="M319.705 324.586H335.675C336.301 324.586 336.816 324.091 336.833 323.466C336.858 322.531 336.781 321.171 336.263 320.024C335.41 318.137 334.872 317.805 338.471 312.312C337.388 313.425 334.469 312.917 332.005 312.585C331.704 313.074 327.133 320.126 326.125 320.849C325.013 321.649 320.047 321.365 319.705 324.586Z" fill="#163560"/>
<path d="M344.587 236.12C344.587 236.12 333.007 257.945 329.861 269.964C327.419 279.292 342.325 315.384 342.325 315.384C342.325 315.384 343.542 315.303 345.53 314.523C347.481 313.757 348.224 311.701 348.224 311.701C348.224 311.701 347.341 285.893 344.324 273.409C343.646 270.606 347.604 261.567 354.285 256.616C360.966 251.665 363.747 235.735 359.77 234.658C355.795 233.582 344.587 236.12 344.587 236.12Z" fill="#163560"/>
<path d="M354.501 229.924C354.501 229.924 342.329 274.498 338.636 284.508C334.943 294.518 329.088 315.762 329.088 315.762C329.088 315.762 332.79 317.498 337.532 316.677C337.532 316.677 355.33 290.63 356.106 279.116C356.465 273.794 374.367 252.698 372.372 238.944L354.501 229.924Z" fill="#1C468A"/>
<path d="M372.343 243.832C372.343 243.832 369.753 245.136 365.174 245.52H365.171C359.928 245.959 352.075 245.188 342.512 239.868C342.512 239.868 339.844 237.672 343.122 228.335C345.604 221.266 346.811 206.361 349.84 192.777C349.84 192.777 359.663 189.698 367.542 192.359C373.563 194.392 372.964 203.623 374.075 213.236C374.179 214.134 374.298 215.034 374.438 215.931C376.078 226.454 372.343 243.832 372.343 243.832Z" fill="#739AF0"/>
<path d="M346.373 172.667C346.373 172.667 353.077 161.766 358.268 167.377C358.268 167.377 361.661 168.242 363.607 173.521C365.591 178.906 362.501 183.663 360.438 182.894C359.115 182.401 358.497 184.68 358.497 184.68L346.373 172.667Z" fill="#233862"/>
<path d="M357.241 166.517C357.241 166.517 357.702 162.003 364.304 162.443C364.304 162.443 361.182 162.498 360.512 163.799C360.512 163.799 362.782 162.337 364.437 163.049C366.092 163.761 366.795 166.855 366.705 167.841C366.615 168.827 365.343 171.904 364.232 172.065C363.12 172.226 361.66 171.44 361.66 171.44L357.241 166.517Z" fill="#233862"/>
<path d="M360.567 192.083C359.947 190.431 359.023 188.699 358.282 183.425L357.887 183.563L351.223 185.908C351.223 185.908 351.689 188.043 351.987 190.072C352.11 190.903 352.196 192.384 352.252 193.679C352.31 195.002 353.614 195.127 354.937 195.066C358.461 194.907 360.402 193.592 360.567 192.083Z" fill="#FFB27D"/>
<path d="M351.221 185.912C351.221 185.912 351.687 188.047 351.985 190.076C355.809 189.416 357.333 185.626 357.885 183.567L351.221 185.912Z" fill="#E8945B"/>
<path d="M358.485 182.718C358.485 182.718 360.039 179.253 360.129 176.468C360.194 174.48 358.168 167.438 351.09 169.514C351.09 169.514 349.02 170.022 347.239 171.638C345.822 172.923 343.888 175.534 347.326 181.438L348.29 183.462L358.485 182.718Z" fill="#233862"/>
<path d="M350.216 188.02C350.216 188.02 359.318 186.861 358.51 181.21C357.701 175.559 358.331 171.601 352.484 172.102C346.636 172.602 345.818 174.92 345.63 176.873C345.441 178.826 347.827 188.175 350.216 188.02Z" fill="#FFB27D"/>
<path d="M348.328 172.558C348.328 172.558 351.771 178.831 355.729 179.261C359.687 179.692 361.195 178.432 361.195 178.432C361.195 178.432 357.932 176.531 356.74 172.564C356.74 172.564 349.749 169.132 348.328 172.558Z" fill="#233862"/>
<path d="M349.024 173.007C349.024 173.007 347.38 174.754 347.136 176.258C346.892 177.762 347.115 180.755 346.235 180.778C346.235 180.778 343.712 176.54 345.45 173.688C347.289 170.665 349.024 173.007 349.024 173.007Z" fill="#233862"/>
<path d="M348.71 173.281C348.71 173.281 351.483 179.969 356.62 181.499C356.62 181.499 351.189 177.927 350.12 173.402C349.048 168.879 348.71 173.281 348.71 173.281Z" fill="#233862"/>
<path d="M372.343 243.832C372.343 243.832 369.752 245.136 365.174 245.52H365.17C365.17 245.52 361.408 240.809 365.606 235.527C369.804 230.246 365.278 220.503 368.512 215.205C370.762 211.518 372.952 212.375 374.075 213.236C374.179 214.134 374.298 215.034 374.438 215.932C376.078 226.454 372.343 243.832 372.343 243.832Z" fill="#5283DB"/>
<path d="M388.858 236C388.858 236 389.417 237.298 390.197 237.385C391.47 237.527 393.894 238.591 394.274 238.818C395.305 239.43 395.236 242.167 394.205 242.424C393.173 242.681 392.657 240.385 389.434 239.769C388.342 239.56 386.748 240.316 386.103 237.699L388.858 236Z" fill="#FFB27D"/>
<path d="M367.538 192.359C376.912 195.803 377.259 212.392 381.438 219.697C385.748 227.231 389.946 237.149 389.946 237.149C389.946 237.149 389.871 237.446 388.263 237.906C387.132 238.23 385.949 238.092 385.949 238.092C385.949 238.092 377.092 230.089 374.686 226.931C372.28 223.774 366.607 209.127 366.607 209.127C366.607 209.127 363.818 190.992 367.538 192.359Z" fill="#739AF0"/>
<path d="M386.333 238.347C386.333 238.347 386.562 239.462 387.942 240.363C389.323 241.265 390.433 242.167 390.568 241.608C390.702 241.05 389.799 240.45 389.584 239.418C389.367 238.387 386.333 238.347 386.333 238.347Z" fill="#FFB27D"/>
<path d="M305.998 183.105H169.96V281.478H305.998V183.105Z" fill="#F29704"/>
<path d="M182.144 119.106C182.144 119.106 185.293 112.1 192.827 112.877C192.827 112.877 203.762 101.198 215.424 111.319C215.424 111.319 227.821 108.812 237 113.491C243.12 116.61 245.143 119.882 245.143 119.882L182.144 119.106Z" fill="#EBF3FA"/>
<path d="M226.511 102.543C226.55 102.541 226.59 102.541 226.628 102.539C227.107 102.531 227.566 102.359 227.917 102.038C229.501 100.592 234.327 96.9931 239.524 101.127C239.931 101.451 240.455 101.586 240.97 101.509C242.977 101.215 248.222 100.742 252.327 102.938C252.439 102.998 252.548 103.057 252.656 103.118C254.365 104.076 253.647 106.686 251.688 106.662L226.567 106.335C224.105 106.305 224.049 102.635 226.511 102.543Z" fill="#EBF3FA"/>
<path d="M289.262 267.044H262.259C257.6 267.044 253.812 263.259 253.812 258.605V201.64C253.812 196.987 257.6 193.202 262.259 193.202H289.262C293.921 193.202 297.71 196.987 297.71 201.64V258.605C297.71 263.259 293.921 267.044 289.262 267.044ZM262.259 194.061C258.077 194.061 254.674 197.46 254.674 201.638V258.603C254.674 262.782 258.077 266.181 262.259 266.181H289.262C293.445 266.181 296.848 262.782 296.848 258.603V201.638C296.848 197.46 293.445 194.061 289.262 194.061H262.259Z" fill="#FFE3CA"/>
<path d="M241.565 230.333H202.551C199.118 230.333 196.335 227.553 196.335 224.123V199.839C196.335 196.409 199.118 193.629 202.551 193.629H241.565C244.998 193.629 247.781 196.409 247.781 199.839V224.123C247.781 227.553 244.998 230.333 241.565 230.333Z" fill="#FFE3CA"/>
<path d="M242.141 267.044H201.978C198.63 267.044 195.905 264.324 195.905 260.978V242.021C195.905 238.678 198.628 235.956 201.978 235.956H242.141C245.488 235.956 248.213 238.676 248.213 242.021V260.978C248.212 264.324 245.488 267.044 242.141 267.044ZM201.978 236.817C199.105 236.817 196.768 239.152 196.768 242.021V260.978C196.768 263.848 199.105 266.183 201.978 266.183H242.141C245.014 266.183 247.351 263.848 247.351 260.978V242.021C247.351 239.152 245.014 236.817 242.141 236.817H201.978Z" fill="#FFE3CA"/>
<path d="M264.535 214.058C264.535 220.716 275.762 231.361 275.762 231.361C275.762 231.361 286.989 220.716 286.989 214.058C286.989 207.399 281.963 201.999 275.762 201.999C269.561 201.999 264.535 207.399 264.535 214.058ZM269.146 213.35C269.146 209.709 272.117 206.741 275.76 206.741C279.422 206.741 282.374 209.709 282.374 213.35C282.374 217.006 279.42 219.957 275.76 219.957C272.117 219.958 269.146 217.008 269.146 213.35Z" fill="#FFE3CA"/>
<path d="M242.541 217.931L242.009 217.936C241.99 217.936 241.972 217.938 241.955 217.944L237.88 219.057C237.83 219.07 237.776 219.066 237.73 219.043L232.003 216.841C231.857 216.77 232.743 216.339 232.875 216.243C234.308 215.201 238.85 212.665 240.557 211.537C240.83 211.357 240.755 210.936 240.436 210.864C240.282 210.827 240.121 210.837 239.973 210.89L231.631 213.916L230.509 213.206C230.346 213.102 230.129 213.152 230.025 213.315L229.476 214.184C229.374 214.343 229.42 214.556 229.576 214.662L228.501 215.051C228.449 215.07 228.393 215.069 228.343 215.047L223.21 212.861C222.755 212.667 222.248 212.636 221.773 212.774C221.581 212.83 221.374 212.891 221.182 212.947C220.784 213.064 220.565 213.49 220.7 213.881L220.767 214.079C220.988 214.721 221.483 215.232 222.119 215.471L226.282 217.037C226.365 217.067 226.421 217.146 226.423 217.234L226.459 219.032L226.221 218.88C226.058 218.777 225.841 218.827 225.737 218.99L225.188 219.859C225.084 220.022 225.134 220.238 225.297 220.342L226.501 221.106L226.559 223.91C226.563 224.137 226.636 224.357 226.764 224.543C226.93 224.779 227.104 225.042 227.164 225.015C227.362 224.927 229.248 220.609 229.889 218.909C229.925 218.813 230.744 219.116 230.84 219.153L236.514 220.887C236.587 220.914 236.639 220.979 236.651 221.056L236.902 222.709C236.931 222.895 237.021 223.064 237.16 223.191L237.165 223.197C237.263 223.287 237.419 223.268 237.49 223.156L238.809 221.136C238.848 221.077 238.913 221.042 238.982 221.038L239.591 221.019C239.781 221.014 239.869 220.781 239.733 220.649L239.585 220.507L242.666 218.324C242.84 218.197 242.752 217.927 242.541 217.931Z" fill="#F29704"/>
<path d="M234.361 259.887C229.731 259.887 225.965 256.125 225.965 251.5C225.965 246.875 229.731 243.113 234.361 243.113C238.991 243.113 242.757 246.875 242.757 251.5C242.757 256.125 238.991 259.887 234.361 259.887ZM234.361 244.032C230.238 244.032 226.885 247.381 226.885 251.5C226.885 255.618 230.24 258.968 234.361 258.968C238.484 258.968 241.837 255.616 241.837 251.5C241.839 247.381 238.484 244.032 234.361 244.032Z" fill="#FFE3CA"/>
<path d="M234.365 252.626H234.25C234.091 252.626 233.958 252.495 233.958 252.334V247.661C233.958 247.5 234.089 247.37 234.25 247.37H234.365C234.526 247.37 234.657 247.5 234.657 247.661V252.334C234.657 252.493 234.525 252.626 234.365 252.626Z" fill="#FFE3CA"/>
<path d="M234.208 252.473L234.198 252.463C234.133 252.398 234.133 252.29 234.198 252.225L238.867 247.562C238.932 247.496 239.04 247.496 239.105 247.562L239.115 247.571C239.18 247.636 239.18 247.744 239.115 247.809L234.446 252.473C234.379 252.538 234.273 252.538 234.208 252.473Z" fill="#FFE3CA"/>
<path d="M233.849 252.306C233.849 252.052 234.054 251.847 234.308 251.847C234.561 251.847 234.767 252.052 234.767 252.306C234.767 252.559 234.561 252.764 234.308 252.764C234.054 252.764 233.849 252.559 233.849 252.306Z" fill="#FFE3CA"/>
<path d="M220.335 241.453H201.874V243.366H220.335V241.453Z" fill="#FFE3CA"/>
<path d="M220.335 245.819H201.874V247.745H220.335V245.819Z" fill="#FFE3CA"/>
<path d="M212.943 250.199H201.874V252.125H212.943V250.199Z" fill="#FFE3CA"/>
<path d="M284.991 241.536H266.53V243.448H284.991V241.536Z" fill="#FFE3CA"/>
<path d="M284.991 245.9H266.53V247.826H284.991V245.9Z" fill="#FFE3CA"/>
<path d="M277.6 250.279H266.53V252.205H277.6V250.279Z" fill="#FFE3CA"/>
<path d="M221.479 202.072H203.019V203.984H221.479V202.072Z" fill="#F29704"/>
<path d="M221.479 206.438H203.019V208.364H221.479V206.438Z" fill="#F29704"/>
<path d="M214.088 210.817H203.019V212.743H214.088V210.817Z" fill="#F29704"/>
<path d="M376.205 96.6783C375.984 96.6783 375.796 96.5095 375.777 96.287C375.777 96.2793 375.707 95.5273 375.565 94.196C375.54 93.9601 375.711 93.7471 375.947 93.7222C376.184 93.6953 376.397 93.868 376.422 94.1039C376.564 95.441 376.635 96.1988 376.635 96.2064C376.656 96.4424 376.481 96.6534 376.245 96.6745C376.232 96.6783 376.218 96.6783 376.205 96.6783ZM375.763 92.5021C375.546 92.5021 375.36 92.3391 375.335 92.1204C375.264 91.4912 375.183 90.7986 375.091 90.0486C375.062 89.8126 375.231 89.5978 375.467 89.569C375.702 89.5421 375.919 89.709 375.947 89.945C376.038 90.697 376.118 91.3914 376.191 92.0225C376.218 92.2585 376.049 92.4714 375.811 92.4983C375.796 92.5002 375.778 92.5021 375.763 92.5021ZM375.264 88.3566C375.051 88.3566 374.864 88.1974 374.837 87.9806C374.755 87.3226 374.665 86.6339 374.57 85.9146C374.54 85.6786 374.705 85.4618 374.941 85.4311C375.177 85.4004 375.394 85.5654 375.425 85.8014C375.521 86.5207 375.609 87.2133 375.692 87.8713C375.723 88.1072 375.554 88.3221 375.318 88.3528C375.3 88.3547 375.281 88.3566 375.264 88.3566ZM374.718 84.2226C374.507 84.2226 374.321 84.0672 374.292 83.8504C374.2 83.1828 374.104 82.4942 374.002 81.7882C373.967 81.5523 374.133 81.3355 374.367 81.301C374.603 81.2664 374.82 81.4314 374.855 81.6654C374.956 82.3733 375.053 83.062 375.145 83.7315C375.177 83.9674 375.012 84.1842 374.776 84.2168C374.757 84.2207 374.738 84.2226 374.718 84.2226ZM374.127 80.0962C373.918 80.0962 373.733 79.9428 373.701 79.7298C373.601 79.0565 373.497 78.3717 373.388 77.6715C373.351 77.4355 373.512 77.2168 373.749 77.1804C373.981 77.1458 374.204 77.3051 374.24 77.541C374.348 78.2412 374.453 78.9299 374.553 79.6032C374.588 79.8392 374.426 80.0579 374.19 80.0924C374.169 80.0943 374.148 80.0962 374.127 80.0962ZM373.489 75.9776C373.282 75.9776 373.098 75.826 373.065 75.615C372.957 74.9398 372.844 74.2549 372.729 73.5624C372.69 73.3284 372.848 73.1058 373.084 73.0675C373.316 73.0291 373.541 73.1864 373.58 73.4224C373.695 74.1168 373.808 74.8036 373.916 75.4807C373.954 75.7148 373.793 75.9373 373.558 75.9737C373.535 75.9776 373.512 75.9776 373.489 75.9776ZM372.806 71.8704C372.6 71.8704 372.418 71.7227 372.381 71.5136C372.264 70.8384 372.145 70.1535 372.02 69.4648C371.978 69.2308 372.133 69.0064 372.368 68.9661C372.602 68.9258 372.827 69.0792 372.867 69.3133C372.99 70.0039 373.111 70.6887 373.228 71.3678C373.268 71.6019 373.111 71.8244 372.877 71.8647C372.854 71.8666 372.831 71.8704 372.806 71.8704ZM372.07 67.769C371.867 67.769 371.686 67.6251 371.648 67.416C371.523 66.7389 371.392 66.0579 371.262 65.373C371.217 65.139 371.369 64.9145 371.603 64.8685C371.838 64.8225 372.062 64.9759 372.109 65.21C372.241 65.8967 372.37 66.5797 372.496 67.2587C372.541 67.4928 372.385 67.7172 372.151 67.7614C372.124 67.7671 372.097 67.769 372.07 67.769ZM371.283 63.681C371.081 63.681 370.901 63.5391 370.86 63.3358C370.726 62.6586 370.588 61.9795 370.445 61.2985C370.397 61.0664 370.547 60.8381 370.78 60.7901C371.014 60.7402 371.24 60.8918 371.289 61.1239C371.431 61.8068 371.569 62.4879 371.705 63.1669C371.751 63.401 371.6 63.6273 371.367 63.6734C371.338 63.6772 371.31 63.681 371.283 63.681ZM370.436 59.6027C370.236 59.6027 370.059 59.4646 370.015 59.2631C369.869 58.5898 369.721 57.9145 369.57 57.2393C369.518 57.0072 369.664 56.777 369.896 56.7252C370.129 56.6734 370.359 56.8192 370.411 57.0513C370.563 57.7285 370.712 58.4075 370.858 59.0828C370.908 59.3149 370.76 59.5451 370.528 59.595C370.495 59.6008 370.465 59.6027 370.436 59.6027ZM369.524 55.5454C369.328 55.5454 369.151 55.4111 369.105 55.2135C368.948 54.5383 368.786 53.8611 368.623 53.1858C368.567 52.9556 368.709 52.7216 368.94 52.666C369.172 52.6084 369.405 52.7523 369.46 52.9825C369.625 53.6597 369.787 54.3388 369.944 55.0178C369.998 55.25 369.854 55.4802 369.622 55.5358C369.589 55.5416 369.556 55.5454 369.524 55.5454ZM368.538 51.4939C368.346 51.4939 368.17 51.3634 368.122 51.1697C367.951 50.4983 367.778 49.8268 367.599 49.1593C367.538 48.9291 367.676 48.6931 367.907 48.6336C368.137 48.5722 368.373 48.7104 368.433 48.9406C368.611 49.612 368.784 50.2853 368.957 50.9606C369.015 51.1908 368.876 51.4248 368.646 51.4843C368.61 51.49 368.573 51.4939 368.538 51.4939ZM367.471 47.4692C367.283 47.4692 367.108 47.3445 367.056 47.1527C366.87 46.4832 366.681 45.8175 366.489 45.1557C366.422 44.9274 366.555 44.6876 366.783 44.6224C367.012 44.5553 367.252 44.6876 367.317 44.9159C367.511 45.5816 367.701 46.2511 367.887 46.9244C367.951 47.1527 367.816 47.3905 367.588 47.4539C367.548 47.4654 367.509 47.4692 367.471 47.4692ZM366.309 43.4714C366.124 43.4714 365.954 43.3525 365.896 43.1664C365.692 42.5026 365.485 41.8351 365.276 41.1847C365.203 40.9584 365.328 40.7167 365.554 40.6438C365.781 40.5709 366.023 40.6956 366.096 40.9219C366.305 41.5761 366.514 42.2475 366.72 42.9151C366.789 43.1434 366.66 43.3831 366.434 43.4522C366.393 43.4656 366.351 43.4714 366.309 43.4714ZM365.036 39.5062C364.855 39.5062 364.688 39.393 364.627 39.2127C364.404 38.5528 364.173 37.8948 363.945 37.2541C363.864 37.0296 363.981 36.7841 364.206 36.7035C364.431 36.6229 364.677 36.74 364.757 36.9644C364.988 37.609 365.22 38.2727 365.445 38.9384C365.521 39.1628 365.401 39.4084 365.174 39.4851C365.128 39.5004 365.082 39.5062 365.036 39.5062ZM322.733 38.1212C322.681 38.1212 322.627 38.1116 322.575 38.0905C322.354 38.0041 322.245 37.7548 322.331 37.5322C322.479 37.1524 322.629 36.7783 322.779 36.41C322.867 36.1894 323.119 36.0839 323.34 36.1721C323.56 36.2623 323.666 36.5117 323.578 36.7323C323.43 37.0968 323.282 37.4689 323.134 37.8449C323.067 38.0176 322.906 38.1212 322.733 38.1212ZM363.63 35.589C363.457 35.589 363.292 35.4834 363.227 35.3108C362.977 34.6547 362.722 34.0063 362.468 33.3829C362.378 33.1623 362.485 32.911 362.704 32.8227C362.925 32.7326 363.177 32.84 363.265 33.0587C363.52 33.6879 363.78 34.344 364.031 35.0058C364.116 35.2283 364.004 35.4777 363.782 35.5621C363.732 35.5794 363.68 35.589 363.63 35.589ZM323.979 35.0863C323.921 35.0863 323.864 35.0748 323.81 35.0518C323.591 34.9578 323.489 34.7046 323.583 34.4859C323.864 33.8356 324.148 33.193 324.43 32.5772C324.53 32.3604 324.786 32.2664 325.001 32.3642C325.218 32.464 325.312 32.7191 325.214 32.9359C324.933 33.5459 324.651 34.1828 324.375 34.8255C324.304 34.9885 324.146 35.0863 323.979 35.0863ZM362.059 31.7331C361.892 31.7331 361.734 31.6372 361.663 31.4741C361.381 30.8276 361.093 30.1927 360.809 29.5903C360.707 29.3755 360.799 29.1184 361.014 29.0167C361.229 28.9151 361.487 29.0071 361.588 29.222C361.877 29.832 362.167 30.4747 362.453 31.1288C362.549 31.3475 362.449 31.6007 362.23 31.6947C362.174 31.7216 362.117 31.7331 362.059 31.7331ZM325.713 31.3091C325.65 31.3091 325.585 31.2957 325.523 31.265C325.31 31.1595 325.222 30.9025 325.325 30.6895C325.638 30.0526 325.959 29.4253 326.276 28.8268C326.387 28.6177 326.648 28.5372 326.858 28.6484C327.067 28.7597 327.148 29.0206 327.036 29.2297C326.723 29.8205 326.406 30.4382 326.097 31.0674C326.024 31.2209 325.873 31.3091 325.713 31.3091ZM360.281 27.9674C360.123 27.9674 359.973 27.8811 359.897 27.7334C359.576 27.108 359.247 26.496 358.919 25.9148C358.802 25.7076 358.877 25.4448 359.084 25.3278C359.292 25.2108 359.555 25.2837 359.672 25.4908C360.006 26.0817 360.338 26.7032 360.665 27.3382C360.774 27.5492 360.69 27.8101 360.478 27.9175C360.415 27.9521 360.348 27.9674 360.281 27.9674ZM327.664 27.6413C327.591 27.6413 327.516 27.6221 327.449 27.5837C327.244 27.4648 327.173 27.202 327.292 26.9948C327.649 26.3771 328.014 25.7728 328.377 25.2012C328.504 24.9997 328.77 24.9403 328.972 25.0669C329.174 25.1935 329.233 25.4601 329.105 25.6616C328.749 26.2236 328.39 26.8164 328.039 27.4245C327.958 27.5626 327.812 27.6413 327.664 27.6413ZM358.234 24.3456C358.089 24.3456 357.949 24.2746 357.869 24.1442C357.494 23.5476 357.11 22.9721 356.728 22.4349C356.59 22.2412 356.636 21.9726 356.83 21.8345C357.024 21.6964 357.293 21.7424 357.431 21.9362C357.823 22.4867 358.214 23.0757 358.598 23.6876C358.725 23.889 358.664 24.1557 358.462 24.2804C358.391 24.3245 358.312 24.3456 358.234 24.3456ZM329.894 24.1346C329.808 24.1346 329.721 24.1096 329.646 24.0559C329.452 23.9197 329.404 23.6512 329.543 23.4555C329.957 22.8666 330.382 22.3006 330.802 21.7712C330.95 21.5851 331.221 21.5544 331.407 21.7021C331.593 21.8498 331.624 22.1203 331.476 22.3064C331.065 22.8224 330.653 23.3749 330.247 23.9504C330.161 24.0713 330.028 24.1346 329.894 24.1346ZM355.82 20.9636C355.695 20.9636 355.572 20.9099 355.487 20.8063C355.04 20.2615 354.581 19.7531 354.126 19.2908C353.959 19.122 353.961 18.8496 354.13 18.6827C354.299 18.5158 354.573 18.5177 354.738 18.6865C355.211 19.1661 355.687 19.6955 356.15 20.2595C356.302 20.4437 356.275 20.7142 356.09 20.8657C356.012 20.931 355.916 20.9636 355.82 20.9636ZM332.486 20.8887C332.383 20.8887 332.279 20.8523 332.197 20.7756C332.022 20.6144 332.008 20.342 332.17 20.1675C332.659 19.6342 333.161 19.1296 333.662 18.6692C333.837 18.5081 334.109 18.5196 334.271 18.6942C334.432 18.8687 334.42 19.1411 334.246 19.3023C333.764 19.7473 333.278 20.2327 332.805 20.7487C332.719 20.8427 332.602 20.8887 332.486 20.8887ZM335.55 18.088C335.419 18.088 335.288 18.0285 335.204 17.9153C335.062 17.7254 335.1 17.4549 335.29 17.313C335.872 16.8775 336.471 16.4843 337.069 16.1428C337.276 16.0239 337.539 16.0967 337.656 16.302C337.775 16.5092 337.702 16.772 337.497 16.889C336.928 17.2132 336.36 17.5873 335.805 18.0017C335.728 18.0592 335.638 18.088 335.55 18.088ZM352.901 18.0266C352.804 18.0266 352.71 17.9959 352.63 17.9307C352.09 17.4952 351.537 17.1115 350.988 16.7873C350.782 16.6665 350.715 16.4037 350.836 16.1984C350.957 15.9932 351.22 15.926 351.426 16.0469C352.011 16.3922 352.599 16.8008 353.171 17.2612C353.356 17.4108 353.386 17.6813 353.237 17.8674C353.15 17.971 353.025 18.0266 352.901 18.0266ZM339.154 16.045C338.983 16.045 338.82 15.9414 338.753 15.7725C338.664 15.5519 338.774 15.3006 338.995 15.2143C339.663 14.9496 340.353 14.7366 341.042 14.5813C341.272 14.5275 341.505 14.6733 341.557 14.9055C341.608 15.1376 341.463 15.3678 341.23 15.4196C340.583 15.5654 339.938 15.7649 339.31 16.0143C339.26 16.0354 339.206 16.045 339.154 16.045ZM349.342 15.9625C349.292 15.9625 349.244 15.9548 349.194 15.9356C348.873 15.8186 348.549 15.7188 348.224 15.6402C347.894 15.5577 347.566 15.4848 347.249 15.4234C347.014 15.3774 346.863 15.151 346.909 14.917C346.955 14.6829 347.182 14.5314 347.416 14.5774C347.746 14.6426 348.088 14.7194 348.432 14.8038C348.785 14.8901 349.14 14.9995 349.488 15.1261C349.711 15.2066 349.828 15.4541 349.745 15.6786C349.684 15.8531 349.517 15.9625 349.342 15.9625ZM345.273 15.1472C345.261 15.1472 345.25 15.1472 345.24 15.1453C344.554 15.0935 343.878 15.0896 343.222 15.1318C342.983 15.1472 342.778 14.9688 342.763 14.7309C342.747 14.493 342.926 14.2878 343.164 14.2724C343.861 14.2264 344.577 14.2302 345.303 14.2858C345.541 14.3031 345.718 14.5103 345.701 14.7482C345.686 14.9745 345.495 15.1472 345.273 15.1472Z" fill="#F21037"/>
<path d="M491.401 326L0.597248 325.831C0.268858 325.831 0 325.563 0 325.233V324.928C0 324.6 0.268858 324.329 0.599169 324.331L491.403 324.5C491.731 324.5 492 324.768 492 325.098V325.405C492 325.731 491.731 326 491.401 326Z" fill="#2E3552"/>
<path d="M170.018 144.152C170.018 144.152 175.89 143.745 177.171 148.349C177.171 148.349 181.694 139.145 191.246 139.903C200.798 140.66 202.563 146.273 202.563 146.273C202.563 146.273 208.036 144.395 212.582 146.899C217.127 149.402 216.835 153.993 216.835 153.993C216.835 153.993 221.003 148.15 229.379 150.237C229.379 150.237 227.709 141.788 237.781 139.857C247.854 137.925 252.132 141.263 252.132 141.263C252.132 141.263 263.54 133.923 273.639 143.123C273.639 143.123 281.038 141.689 284.657 146.241C284.657 146.241 292.069 137.292 306.015 138.865V183.105H169.96L170.018 144.152Z" fill="#D7E2FF"/>
<path d="M170.016 166.228C170.016 166.228 179.892 163.732 188.709 169.544C188.709 169.544 190.858 166.987 196.454 167.62C202.05 168.253 203.592 173.417 203.592 173.417C203.592 173.417 223.175 166.958 232.869 183.105H169.96L170.016 166.228Z" fill="#EBF3FA"/>
<path d="M244.924 183.105C244.924 183.105 245.423 173.205 255.772 170.838C255.772 170.838 250.412 168.47 253.114 162.585C255.816 156.701 262.378 156.27 262.378 156.27C262.378 156.27 263.064 145.625 281.671 147.463C286.894 147.979 292.425 151.104 293.289 156.558C293.289 156.558 295.308 153.243 299.487 153.465C299.487 153.465 300.003 147.413 306.014 147.465V183.105H244.924Z" fill="#EBF3FA"/>
<path d="M297.28 97.9692L289.47 124.997L289.224 124.966L262.542 121.728C262.542 121.728 274.9 119.161 276.185 117.678C277.394 116.282 290.227 99.7207 293.981 97.95C294.212 97.8407 294.407 97.7889 294.565 97.7985C297.28 97.9692 297.28 97.9692 297.28 97.9692Z" fill="#739AF0"/>
<path d="M289.224 124.966L262.542 121.728C262.542 121.728 274.9 119.161 276.185 117.678C277.394 116.282 290.227 99.7208 293.981 97.9502C290.659 102.771 282.956 114.356 283.282 117.724C283.592 120.934 287.35 123.75 289.224 124.966Z" fill="#2B478B"/>
<path d="M292.106 133.105C291.196 133.416 288.473 134.274 284.738 135.359C273.999 138.479 254.899 143.487 246.47 142.87C238.909 142.315 198.92 139.265 171.259 136.842C177.951 125.1 186.298 118.614 193.935 115.058C226.161 117.695 268.307 121.26 273.671 122.294C282.491 123.997 294.194 125.382 294.194 125.382C294.194 125.382 294.273 125.739 294.35 126.307C294.597 128.148 294.807 132.177 292.106 133.105Z" fill="#E58638"/>
<path d="M294.486 128.262C294.484 128.327 294.484 128.398 294.482 128.465C294.459 129.93 294.159 131.565 293.122 132.507C293.088 132.539 293.051 132.57 293.013 132.601C292.94 132.66 292.861 132.72 292.782 132.772C292.782 132.772 292.782 132.772 292.781 132.772V132.773C292.742 132.798 292.7 132.823 292.656 132.85C292.615 132.873 292.573 132.898 292.527 132.921C292.527 132.921 292.527 132.921 292.525 132.921C292.483 132.944 292.439 132.965 292.391 132.986C292.345 133.007 292.299 133.029 292.249 133.048C292.203 133.067 292.153 133.084 292.103 133.102C292.087 133.107 292.074 133.111 292.058 133.115V133.117C292.043 133.121 292.028 133.126 292.012 133.132C291.997 133.138 291.98 133.142 291.964 133.148V133.149C291.947 133.153 291.93 133.159 291.913 133.165V133.167C291.895 133.171 291.876 133.176 291.859 133.184C291.84 133.19 291.82 133.195 291.803 133.201C291.803 133.201 291.803 133.201 291.801 133.201V133.203C291.782 133.209 291.763 133.215 291.744 133.222C291.722 133.228 291.703 133.236 291.682 133.242H291.68C291.659 133.249 291.64 133.255 291.617 133.263C291.596 133.27 291.573 133.276 291.551 133.284C291.505 133.299 291.457 133.314 291.409 133.33H291.407C291.384 133.337 291.359 133.345 291.336 133.353H291.334V133.355C291.31 133.362 291.285 133.37 291.26 133.378C291.24 133.384 291.223 133.389 291.204 133.395C291.002 133.46 290.778 133.533 290.532 133.61C290.486 133.623 290.441 133.637 290.392 133.652C289.746 133.855 288.963 134.097 288.062 134.368C287.97 134.394 287.876 134.423 287.78 134.452C287.622 134.5 287.461 134.548 287.298 134.598C287.263 134.607 287.229 134.619 287.19 134.628C287.142 134.644 287.088 134.659 287.039 134.675C286.989 134.69 286.939 134.703 286.885 134.719C286.833 134.734 286.781 134.749 286.729 134.765C286.679 134.78 286.626 134.795 286.572 134.811C286.52 134.826 286.466 134.841 286.414 134.857C286.361 134.872 286.307 134.889 286.253 134.905C286.199 134.92 286.144 134.935 286.092 134.951C286.09 134.951 286.09 134.953 286.09 134.953C286.036 134.968 285.98 134.983 285.927 134.999C285.888 135.01 285.85 135.022 285.808 135.035C285.792 135.037 285.777 135.043 285.761 135.049C285.706 135.064 285.65 135.079 285.594 135.095C285.316 135.177 285.03 135.262 284.738 135.344C284.571 135.394 284.4 135.442 284.227 135.494C284.079 135.536 283.931 135.578 283.781 135.622C283.67 135.655 283.557 135.687 283.442 135.72C282.998 135.847 282.543 135.975 282.076 136.108C281.98 136.134 281.888 136.159 281.796 136.186C281.633 136.232 281.469 136.276 281.306 136.324C281.158 136.367 281.01 136.407 280.859 136.451C280.692 136.497 280.524 136.543 280.357 136.591C274.777 138.139 268.011 139.873 261.737 141.134C261.518 141.178 261.297 141.22 261.078 141.266C260.969 141.287 260.861 141.308 260.752 141.329C260.533 141.371 260.316 141.412 260.099 141.454C259.45 141.579 258.807 141.696 258.173 141.807C257.962 141.843 257.752 141.88 257.543 141.916C257.437 141.934 257.334 141.951 257.23 141.968C257.022 142.003 256.815 142.035 256.61 142.072C256.404 142.104 256.199 142.135 255.995 142.166C255.793 142.196 255.592 142.227 255.39 142.256C255.19 142.286 254.989 142.315 254.793 142.342C254.593 142.369 254.397 142.396 254.203 142.423C254.007 142.448 253.813 142.473 253.621 142.498C253.527 142.509 253.429 142.521 253.335 142.532C252.955 142.578 252.579 142.62 252.214 142.661C252.122 142.67 252.029 142.68 251.939 142.687C251.757 142.705 251.578 142.722 251.398 142.739C251.04 142.77 250.693 142.799 250.351 142.82C250.096 142.839 249.844 142.852 249.596 142.864C249.431 142.873 249.268 142.879 249.108 142.885C248.868 142.895 248.632 142.9 248.404 142.902C248.096 142.908 247.797 142.906 247.511 142.9C247.365 142.898 247.225 142.893 247.084 142.887C247.015 142.885 246.946 142.883 246.877 142.877C246.739 142.872 246.606 142.864 246.474 142.854C246.428 142.85 246.378 142.847 246.326 142.843C246.314 142.843 246.303 142.841 246.291 142.841C246.26 142.837 246.228 142.835 246.195 142.833C246.07 142.824 245.942 142.816 245.801 142.804C245.765 142.803 245.729 142.799 245.688 142.797C245.642 142.793 245.596 142.789 245.546 142.785C245.475 142.781 245.398 142.776 245.323 142.77C245.283 142.766 245.243 142.764 245.2 142.76C245.16 142.758 245.118 142.755 245.076 142.751C244.991 142.745 244.905 142.739 244.818 142.732C244.732 142.726 244.642 142.718 244.551 142.712C244.505 142.709 244.459 142.707 244.411 142.703C244.296 142.693 244.181 142.686 244.06 142.676C244.004 142.672 243.946 142.668 243.891 142.662C243.772 142.655 243.651 142.645 243.526 142.636C243.474 142.632 243.422 142.63 243.366 142.624C243.213 142.613 243.059 142.601 242.898 142.59C242.454 142.557 241.982 142.521 241.481 142.482C241.421 142.476 241.358 142.473 241.294 142.467C241.169 142.459 241.045 142.45 240.914 142.44C240.724 142.425 240.528 142.411 240.328 142.396C240.248 142.388 240.165 142.382 240.086 142.377C239.898 142.363 239.706 142.348 239.514 142.334C239.445 142.329 239.372 142.323 239.303 142.319C239.17 142.308 239.038 142.298 238.901 142.288L238.46 142.254C238.381 142.248 238.302 142.242 238.224 142.237C238.151 142.231 238.076 142.225 238.003 142.219C237.884 142.212 237.766 142.202 237.646 142.192C236.958 142.141 236.242 142.085 235.497 142.029C235.387 142.02 235.281 142.012 235.17 142.004C235.005 141.991 234.838 141.978 234.671 141.966C234.283 141.935 233.885 141.907 233.484 141.876C233.453 141.872 233.423 141.87 233.392 141.868C233.042 141.841 232.691 141.815 232.334 141.788C232.316 141.786 232.299 141.784 232.284 141.784C230.154 141.619 227.857 141.441 225.434 141.253C225.311 141.243 225.19 141.233 225.065 141.224C224.575 141.187 224.078 141.149 223.578 141.109C223.264 141.084 222.949 141.059 222.632 141.034C222.614 141.034 222.597 141.032 222.58 141.03C222.219 141.003 221.854 140.974 221.489 140.946C221.445 140.944 221.401 140.938 221.353 140.936C220.711 140.886 220.06 140.834 219.402 140.783C219.233 140.769 219.064 140.756 218.897 140.742C218.845 140.738 218.795 140.735 218.741 140.731C218.167 140.687 217.585 140.641 217.001 140.593C216.746 140.573 216.492 140.554 216.235 140.533C216.064 140.52 215.895 140.506 215.726 140.495C215.38 140.466 215.037 140.439 214.689 140.412C214.168 140.372 213.648 140.332 213.124 140.288C213.078 140.286 213.032 140.28 212.984 140.278C212.767 140.259 212.551 140.243 212.336 140.226C212.321 140.224 212.306 140.224 212.29 140.222C211.647 140.172 211.002 140.119 210.351 140.069C210.333 140.067 210.316 140.065 210.297 140.063C210.23 140.057 210.162 140.054 210.095 140.048C209.713 140.019 209.329 139.988 208.945 139.958C208.657 139.935 208.365 139.914 208.075 139.889C207.894 139.875 207.714 139.862 207.533 139.846C206.779 139.789 206.024 139.726 205.264 139.666L205.244 139.664C203.986 139.561 202.721 139.461 201.448 139.357C201.273 139.344 201.1 139.33 200.925 139.315L200.889 139.313C200.33 139.269 199.775 139.223 199.214 139.177C199.041 139.163 198.87 139.15 198.698 139.135C198.218 139.096 197.736 139.058 197.255 139.018C196.278 138.937 195.299 138.857 194.323 138.778C193.705 138.728 193.086 138.678 192.47 138.626C192.082 138.594 191.694 138.561 191.308 138.53C190.382 138.456 189.462 138.379 188.542 138.304C188.498 138.3 188.456 138.296 188.41 138.293C187.834 138.245 187.256 138.199 186.684 138.149C185.865 138.082 185.047 138.011 184.235 137.943C183.909 137.917 183.584 137.89 183.259 137.863C183.16 137.855 183.062 137.846 182.964 137.838C182.307 137.784 181.656 137.727 181.005 137.673C180.909 137.665 180.813 137.658 180.719 137.65C180.273 137.612 179.83 137.575 179.388 137.535C177.514 137.376 175.672 137.218 173.872 137.063C173.655 137.046 173.44 137.026 173.223 137.007C173.091 136.996 172.96 136.984 172.83 136.975C172.653 136.957 172.478 136.944 172.302 136.929C171.952 136.898 171.604 136.869 171.259 136.838C164.553 136.251 158.571 135.699 153.952 135.231C153.482 135.185 153.023 135.139 152.583 135.091C151.486 134.976 150.482 134.868 149.577 134.763C147.019 134.475 145.276 134.231 144.584 134.059C140.849 133.117 134.617 130.642 130.798 128.072C128.495 126.52 127.07 124.935 127.598 123.627C128.27 121.964 129.732 120.958 131.234 120.22C132.534 119.577 133.865 119.136 134.734 118.631C134.784 118.603 134.832 118.574 134.882 118.545C135.044 118.445 135.184 118.34 135.305 118.231C135.324 118.211 135.343 118.196 135.366 118.173C135.706 117.866 136.263 117.35 137.07 116.746C137.607 116.343 138.253 115.902 139.019 115.453C139.025 115.449 139.027 115.449 139.03 115.445C142.372 113.49 147.962 111.422 156.475 112.036C156.475 112.036 173.139 113.35 193.929 115.054C193.931 115.054 193.931 115.054 193.931 115.054C196.003 115.223 198.116 115.397 200.257 115.574C200.259 115.574 200.259 115.574 200.259 115.574C200.971 115.631 201.69 115.691 202.41 115.75C203.489 115.838 204.576 115.93 205.665 116.019C205.665 116.019 205.665 116.019 205.667 116.019C207.484 116.17 209.312 116.32 211.148 116.473C211.514 116.504 211.883 116.535 212.25 116.564C212.985 116.625 213.719 116.688 214.455 116.748C215.928 116.872 217.399 116.995 218.872 117.12C219.605 117.181 220.337 117.245 221.07 117.304C223.688 117.525 226.29 117.745 228.856 117.966H228.867C236.278 118.601 243.388 119.22 249.692 119.792C249.694 119.792 249.694 119.792 249.694 119.792C250.028 119.821 250.359 119.852 250.687 119.88C254.388 120.218 257.794 120.534 260.796 120.826C262.233 120.968 263.579 121.1 264.819 121.227C269.313 121.684 272.447 122.052 273.671 122.288C276.849 122.902 280.4 123.475 283.641 123.955C283.908 123.995 284.175 124.034 284.436 124.072C284.45 124.076 284.463 124.076 284.477 124.078C284.878 124.137 285.274 124.195 285.663 124.25C285.675 124.252 285.687 124.254 285.698 124.256C286.147 124.319 286.587 124.383 287.015 124.442C287.642 124.528 288.243 124.611 288.811 124.688C289.057 124.72 289.295 124.753 289.529 124.784C292.329 125.156 294.192 125.376 294.192 125.376C294.192 125.376 294.204 125.426 294.221 125.52C294.223 125.528 294.225 125.536 294.227 125.543C294.23 125.568 294.236 125.595 294.242 125.626C294.252 125.685 294.265 125.756 294.277 125.835C294.294 125.938 294.313 126.059 294.33 126.196C294.33 126.196 294.33 126.197 294.332 126.197C294.336 126.23 294.342 126.265 294.346 126.301C294.361 126.414 294.376 126.533 294.39 126.664C294.399 126.752 294.409 126.848 294.419 126.942C294.423 126.994 294.428 127.049 294.432 127.103C294.438 127.162 294.442 127.224 294.446 127.283C294.451 127.37 294.457 127.46 294.463 127.55C294.465 127.586 294.467 127.623 294.467 127.661C294.471 127.724 294.472 127.792 294.474 127.855C294.476 127.889 294.476 127.922 294.476 127.955C294.478 128.02 294.48 128.089 294.48 128.154C294.484 128.191 294.484 128.227 294.486 128.262Z" fill="#D7E2FF"/>
<path d="M294.486 128.261C294.484 128.327 294.484 128.398 294.482 128.465C294.459 129.93 294.16 131.565 293.123 132.507C293.088 132.539 293.052 132.57 293.013 132.601C292.94 132.66 292.862 132.72 292.783 132.771C292.783 132.771 292.783 132.771 292.781 132.771V132.773C292.743 132.798 292.7 132.823 292.656 132.85C292.616 132.873 292.574 132.898 292.527 132.921C292.527 132.921 292.527 132.921 292.526 132.921C292.483 132.944 292.439 132.965 292.391 132.986C292.345 133.007 292.299 133.029 292.249 133.048C292.203 133.067 292.153 133.084 292.103 133.101C292.088 133.107 292.074 133.111 292.059 133.115V133.117C292.044 133.121 292.028 133.126 292.013 133.132C291.997 133.138 291.98 133.142 291.965 133.147V133.149C291.947 133.153 291.93 133.159 291.913 133.165V133.167C291.896 133.171 291.876 133.176 291.859 133.184C291.84 133.19 291.821 133.195 291.803 133.201C291.803 133.201 291.803 133.201 291.802 133.201V133.203C291.782 133.209 291.763 133.215 291.744 133.222C291.723 133.228 291.704 133.236 291.682 133.241H291.681C291.659 133.249 291.64 133.255 291.617 133.263C291.596 133.27 291.573 133.276 291.552 133.284C291.506 133.299 291.458 133.314 291.41 133.33H291.408C291.385 133.337 291.36 133.345 291.337 133.353H291.335V133.355C291.31 133.362 291.285 133.37 291.26 133.378C291.241 133.383 291.223 133.389 291.204 133.395C291.003 133.46 290.778 133.533 290.532 133.61C290.486 133.623 290.442 133.637 290.392 133.652C289.747 133.855 288.963 134.097 288.062 134.368C287.97 134.394 287.876 134.423 287.78 134.452C287.623 134.5 287.461 134.548 287.298 134.598C287.264 134.607 287.229 134.619 287.191 134.628C287.143 134.644 287.089 134.659 287.039 134.674C286.989 134.69 286.939 134.703 286.885 134.719C286.833 134.734 286.782 134.749 286.73 134.765C286.68 134.78 286.626 134.795 286.572 134.811C286.52 134.826 286.467 134.841 286.415 134.857C286.361 134.872 286.307 134.889 286.253 134.905C286.2 134.92 286.144 134.935 286.092 134.951C286.09 134.951 286.09 134.953 286.09 134.953C286.036 134.968 285.981 134.983 285.927 134.999C285.889 135.01 285.85 135.022 285.808 135.035C285.793 135.037 285.777 135.043 285.762 135.049C285.706 135.064 285.65 135.079 285.595 135.095C285.316 135.177 285.03 135.262 284.738 135.344C284.571 135.394 284.4 135.442 284.227 135.494C284.08 135.536 283.932 135.578 283.782 135.622C283.67 135.655 283.557 135.687 283.442 135.72C282.998 135.847 282.543 135.975 282.077 136.107C281.981 136.134 281.888 136.159 281.796 136.186C281.633 136.232 281.47 136.276 281.306 136.324C281.159 136.366 281.011 136.407 280.859 136.451C280.692 136.497 280.525 136.543 280.358 136.591C274.777 138.139 268.011 139.873 261.737 141.134C261.519 141.178 261.298 141.22 261.079 141.266C260.969 141.287 260.862 141.308 260.752 141.329C260.533 141.371 260.316 141.412 260.099 141.454C259.45 141.579 258.807 141.696 258.173 141.807C257.962 141.843 257.753 141.88 257.543 141.916C257.438 141.933 257.334 141.951 257.23 141.968C257.023 142.003 256.815 142.035 256.61 142.072C256.404 142.104 256.199 142.135 255.995 142.166C255.794 142.196 255.592 142.227 255.391 142.256C255.191 142.286 254.989 142.315 254.793 142.342C254.594 142.369 254.398 142.396 254.204 142.423C254.008 142.448 253.814 142.473 253.622 142.497C253.528 142.509 253.43 142.52 253.336 142.532C252.955 142.578 252.579 142.62 252.214 142.661C252.122 142.67 252.03 142.68 251.94 142.687C251.757 142.705 251.578 142.722 251.398 142.739C251.041 142.77 250.693 142.799 250.351 142.82C250.096 142.839 249.844 142.852 249.597 142.864C249.431 142.873 249.268 142.879 249.109 142.885C248.869 142.895 248.633 142.9 248.404 142.902C248.097 142.908 247.797 142.906 247.511 142.9C247.365 142.898 247.225 142.893 247.085 142.887C247.016 142.885 246.946 142.883 246.877 142.877C246.739 142.872 246.607 142.864 246.474 142.854C246.428 142.85 246.378 142.847 246.326 142.843C246.315 142.843 246.303 142.841 246.292 142.841C246.261 142.837 246.228 142.835 246.196 142.833C246.071 142.824 245.942 142.816 245.802 142.804C245.765 142.802 245.729 142.799 245.689 142.797C245.643 142.793 245.596 142.789 245.546 142.785C245.475 142.781 245.399 142.776 245.324 142.77C245.283 142.766 245.243 142.764 245.201 142.76C245.161 142.758 245.118 142.755 245.076 142.751C244.992 142.745 244.905 142.739 244.819 142.731C244.732 142.726 244.642 142.718 244.552 142.712C244.506 142.708 244.46 142.707 244.412 142.703C244.296 142.693 244.181 142.685 244.06 142.676C244.004 142.672 243.947 142.668 243.891 142.662C243.772 142.655 243.651 142.645 243.526 142.636C243.474 142.632 243.423 142.63 243.367 142.624C243.213 142.613 243.06 142.601 242.898 142.59C242.455 142.557 241.982 142.52 241.481 142.482C241.421 142.476 241.358 142.473 241.295 142.467C241.17 142.459 241.045 142.45 240.914 142.44C240.724 142.425 240.528 142.411 240.329 142.396C240.248 142.388 240.166 142.382 240.087 142.377C239.899 142.363 239.707 142.348 239.514 142.334C239.445 142.329 239.372 142.323 239.303 142.319C239.171 142.308 239.038 142.298 238.902 142.288L238.46 142.254C238.381 142.248 238.303 142.242 238.224 142.237C238.151 142.231 238.076 142.225 238.003 142.219C237.884 142.212 237.767 142.202 237.646 142.192C236.958 142.141 236.242 142.085 235.497 142.029C235.388 142.02 235.282 142.012 235.171 142.004C235.005 141.991 234.838 141.978 234.671 141.966C234.283 141.935 233.886 141.907 233.484 141.876C233.454 141.872 233.423 141.87 233.392 141.868C233.043 141.841 232.691 141.815 232.334 141.788C232.317 141.786 232.3 141.784 232.284 141.784C230.154 141.619 227.858 141.44 225.434 141.252C225.311 141.243 225.19 141.233 225.065 141.224C224.576 141.187 224.078 141.149 223.579 141.109C223.264 141.084 222.949 141.059 222.632 141.034C222.615 141.034 222.598 141.032 222.58 141.03C222.219 141.003 221.854 140.974 221.489 140.946C221.445 140.944 221.401 140.938 221.353 140.936C220.712 140.886 220.061 140.834 219.402 140.782C219.233 140.769 219.064 140.756 218.897 140.742C218.845 140.738 218.795 140.735 218.741 140.731C218.167 140.687 217.585 140.641 217.001 140.593C216.746 140.573 216.493 140.554 216.235 140.533C216.064 140.52 215.895 140.506 215.726 140.495C215.381 140.466 215.037 140.439 214.689 140.412C214.169 140.372 213.648 140.332 213.124 140.288C213.078 140.286 213.032 140.28 212.984 140.278C212.767 140.259 212.552 140.243 212.337 140.226C212.321 140.224 212.306 140.224 212.291 140.222C211.647 140.172 211.002 140.119 210.351 140.069C210.334 140.067 210.317 140.065 210.297 140.063C210.23 140.057 210.163 140.053 210.096 140.048C224.689 131.92 228.858 117.964 228.858 117.964H228.87C236.281 118.599 243.39 119.218 249.695 119.79C249.696 119.79 249.696 119.79 249.696 119.79C250.031 119.819 250.361 119.85 250.689 119.878C254.39 120.216 257.797 120.533 260.798 120.824C262.235 120.966 263.581 121.098 264.822 121.225C269.315 121.682 272.45 122.05 273.673 122.286C276.851 122.9 280.402 123.473 283.644 123.953C283.911 123.993 284.177 124.032 284.439 124.07C284.452 124.074 284.466 124.074 284.479 124.076C284.88 124.135 285.276 124.193 285.666 124.248C285.677 124.25 285.689 124.252 285.7 124.254C286.15 124.317 286.59 124.381 287.018 124.44C287.644 124.526 288.245 124.609 288.813 124.686C289.059 124.718 289.297 124.751 289.532 124.782C292.332 125.154 294.194 125.374 294.194 125.374C294.194 125.374 294.206 125.424 294.223 125.518C294.225 125.526 294.227 125.534 294.229 125.541C294.233 125.566 294.239 125.593 294.244 125.624C294.254 125.683 294.267 125.754 294.279 125.833C294.296 125.936 294.315 126.057 294.333 126.194C294.333 126.194 294.333 126.195 294.335 126.195C294.338 126.228 294.344 126.263 294.348 126.299C294.363 126.412 294.379 126.531 294.392 126.662C294.402 126.75 294.411 126.846 294.421 126.94C294.425 126.992 294.431 127.047 294.434 127.101C294.44 127.16 294.444 127.222 294.448 127.281C294.454 127.368 294.459 127.458 294.465 127.548C294.467 127.584 294.469 127.621 294.469 127.659C294.473 127.722 294.475 127.79 294.477 127.853C294.479 127.887 294.479 127.92 294.479 127.953C294.481 128.018 294.482 128.087 294.482 128.152C294.484 128.191 294.484 128.227 294.486 128.261Z" fill="#F29704"/>
<path opacity="0.5" d="M292.106 133.104C291.196 133.416 288.473 134.272 284.739 135.358C283.491 130.144 279.474 127.966 279.474 127.966L294.349 126.307C294.597 128.147 294.806 132.177 292.106 133.104Z" fill="#E27727"/>
<path d="M212.57 126.223C212.084 126.18 211.727 125.701 211.777 125.158L211.871 124.11C211.921 123.566 212.359 123.155 212.845 123.197C213.331 123.24 213.688 123.719 213.638 124.262L213.544 125.309C213.494 125.854 213.056 126.265 212.57 126.223Z" fill="#2B478B"/>
<path d="M208.013 125.829C207.527 125.787 207.17 125.307 207.22 124.764L207.314 123.717C207.364 123.172 207.801 122.762 208.287 122.804C208.773 122.846 209.13 123.326 209.08 123.868L208.986 124.916C208.936 125.461 208.499 125.871 208.013 125.829Z" fill="#2B478B"/>
<path d="M203.458 125.438C202.972 125.396 202.615 124.916 202.665 124.373L202.759 123.326C202.809 122.781 203.247 122.37 203.733 122.413C204.218 122.455 204.576 122.934 204.526 123.477L204.432 124.525C204.382 125.068 203.944 125.478 203.458 125.438Z" fill="#2B478B"/>
<path d="M198.9 125.044C198.414 125.002 198.057 124.523 198.107 123.98L198.201 122.932C198.251 122.389 198.689 121.977 199.175 122.019C199.661 122.061 200.018 122.541 199.968 123.084L199.874 124.131C199.824 124.674 199.386 125.085 198.9 125.044Z" fill="#2B478B"/>
<path d="M194.346 124.651C193.86 124.609 193.503 124.129 193.553 123.587L193.647 122.539C193.697 121.996 194.134 121.584 194.62 121.626C195.106 121.668 195.463 122.148 195.413 122.691L195.319 123.738C195.269 124.283 194.832 124.693 194.346 124.651Z" fill="#2B478B"/>
<path d="M189.788 124.258C189.302 124.216 188.945 123.736 188.995 123.193L189.089 122.146C189.139 121.603 189.577 121.191 190.063 121.233C190.548 121.275 190.906 121.755 190.856 122.298L190.762 123.345C190.712 123.89 190.274 124.3 189.788 124.258Z" fill="#2B478B"/>
<path d="M185.233 123.865C184.747 123.822 184.39 123.343 184.44 122.8L184.534 121.753C184.584 121.21 185.022 120.797 185.508 120.839C185.994 120.882 186.351 121.361 186.301 121.904L186.207 122.951C186.157 123.496 185.719 123.907 185.233 123.865Z" fill="#2B478B"/>
<path d="M180.676 123.472C180.19 123.429 179.833 122.95 179.883 122.407L179.977 121.359C180.027 120.815 180.464 120.404 180.95 120.446C181.436 120.489 181.793 120.968 181.743 121.511L181.649 122.558C181.599 123.103 181.162 123.514 180.676 123.472Z" fill="#2B478B"/>
<path d="M176.121 123.078C175.635 123.036 175.278 122.556 175.328 122.013L175.422 120.966C175.472 120.423 175.91 120.011 176.396 120.053C176.882 120.095 177.239 120.575 177.189 121.117L177.095 122.165C177.045 122.71 176.607 123.12 176.121 123.078Z" fill="#2B478B"/>
<path d="M171.654 122.693C171.168 122.651 170.811 122.171 170.861 121.628L170.955 120.581C171.005 120.038 171.443 119.625 171.929 119.668C172.415 119.71 172.772 120.189 172.722 120.732L172.628 121.78C172.578 122.324 172.14 122.735 171.654 122.693Z" fill="#2B478B"/>
<path d="M167.099 122.301C166.613 122.259 166.256 121.779 166.305 121.236L166.4 120.189C166.449 119.646 166.887 119.234 167.373 119.276C167.859 119.318 168.216 119.798 168.166 120.341L168.072 121.388C168.022 121.931 167.584 122.341 167.099 122.301Z" fill="#2B478B"/>
<path d="M162.541 121.908C162.055 121.866 161.698 121.386 161.748 120.843L161.842 119.796C161.892 119.251 162.33 118.841 162.816 118.883C163.301 118.925 163.659 119.405 163.609 119.948L163.515 120.995C163.465 121.538 163.027 121.95 162.541 121.908Z" fill="#2B478B"/>
<path d="M156.897 121.367C156.412 121.325 156.054 120.845 156.104 120.302L156.198 119.255C156.248 118.712 156.686 118.3 157.172 118.342C157.658 118.384 158.015 118.864 157.965 119.407L157.871 120.454C157.821 120.999 157.383 121.409 156.897 121.367Z" fill="#2B478B"/>
<path d="M262.282 131.041C261.796 130.999 261.439 130.52 261.489 129.977L261.585 128.929C261.635 128.386 262.073 127.974 262.559 128.016C263.045 128.058 263.402 128.538 263.352 129.081L263.258 130.128C263.206 130.673 262.768 131.084 262.282 131.041Z" fill="#2B478B"/>
<path d="M257.727 130.648C257.241 130.606 256.883 130.126 256.933 129.583L257.027 128.536C257.077 127.993 257.515 127.58 258.001 127.623C258.487 127.665 258.844 128.144 258.794 128.687L258.7 129.735C258.65 130.279 258.212 130.69 257.727 130.648Z" fill="#2B478B"/>
<path d="M253.17 130.257C252.684 130.214 252.327 129.735 252.377 129.192L252.471 128.145C252.521 127.602 252.959 127.189 253.444 127.231C253.93 127.274 254.288 127.753 254.238 128.296L254.143 129.344C254.094 129.886 253.656 130.297 253.17 130.257Z" fill="#2B478B"/>
<path d="M139.844 115.501L136.739 118.428L134.886 118.549C135.047 118.448 135.189 118.344 135.308 118.235C135.329 118.215 135.349 118.198 135.372 118.177C135.712 117.868 136.27 117.354 137.075 116.75C137.613 116.347 138.258 115.906 139.024 115.455C139.028 115.453 139.032 115.451 139.036 115.447L139.844 115.501Z" fill="#2B478B"/>
<path d="M140.521 115.608L137.488 118.565L140.932 119.294L142.019 115.921L140.521 115.608Z" fill="#2B478B"/>
<path d="M142.343 116.025L141.542 119.194L144.094 118.469L144.257 116.261L142.343 116.025Z" fill="#2B478B"/>
<path d="M204.48 140.313C205.819 139.789 206.17 137.464 205.062 136.465C203.956 135.467 202.441 134.464 200.736 134.341C197.233 134.088 198.654 141.213 199.816 141.36C200.501 141.449 202.698 141.009 204.48 140.313Z" fill="#2B478B"/>
<path d="M279.175 126.553C279.315 126.363 292.355 122.069 300.877 123.936L292.67 129.098L279.474 127.964C279.474 127.966 278.472 127.5 279.175 126.553Z" fill="#355DAF"/>
<path d="M272.877 96.4922C272.877 96.4922 264.149 115.762 262.487 118.685C260.826 121.611 257.193 123.477 257.193 123.477L257.172 123.485L234.044 132.871C234.044 132.871 205.198 130.598 198.92 129.906C198.92 129.906 198.92 129.906 198.918 129.906C198.35 129.842 197.965 129.791 197.806 129.758C195.899 129.351 195.006 128.469 195.373 127.773C195.74 127.078 240.09 121.764 245 121.218C245.046 121.212 245.094 121.206 245.14 121.202C249.92 120.64 250.364 119.015 250.364 119.015L268.662 98.0652C268.896 97.6777 269.28 97.3861 269.722 97.1674C271.041 96.5152 272.877 96.4922 272.877 96.4922Z" fill="#D7E2FF"/>
<path d="M269.726 97.1694C264.803 103.139 251.183 119.604 249.889 120.725C248.498 121.931 208.7 128.321 198.923 129.908C198.923 129.908 198.923 129.908 198.921 129.908C198.352 129.844 197.968 129.793 197.809 129.76C195.902 129.353 195.009 128.471 195.376 127.775C195.743 127.08 240.093 121.766 245.003 121.22C249.914 120.673 250.367 119.017 250.367 119.017L268.664 98.0672C268.899 97.6816 269.283 97.39 269.726 97.1694Z" fill="#739AF0"/>
<path d="M272.877 96.4922C272.877 96.4922 264.149 115.762 262.488 118.685C260.827 121.611 257.193 123.477 257.193 123.477L257.172 123.485C252.148 123.364 247.914 122.207 245.141 121.204C249.921 120.642 250.364 119.017 250.364 119.017L268.662 98.0671C268.896 97.6796 269.28 97.388 269.722 97.1694C271.041 96.5152 272.877 96.4922 272.877 96.4922Z" fill="#D7E2FF"/>
<path d="M201.528 132.661L200.651 142.381C200.651 142.381 196.933 143.718 191.118 143.407C187.559 143.217 185.187 142.438 183.883 141.863C183.058 141.498 182.66 141.215 182.66 141.215L183.58 131.026C183.908 130.748 184.364 130.545 184.919 130.405C189.514 129.227 200.814 132.271 200.814 132.271L201.528 132.661Z" fill="#E9F0FF"/>
<path d="M184.921 130.401L183.885 141.861C183.06 141.497 182.662 141.213 182.662 141.213L183.582 131.024C183.908 130.746 184.366 130.543 184.921 130.401Z" fill="#F29704"/>
<path d="M127.809 307.546L196.141 289.325C197.587 288.94 198.549 287.787 198.277 286.762L159.964 142.881C159.692 141.857 158.284 141.335 156.838 141.721L88.5059 159.941C87.0599 160.327 86.0978 161.48 86.3705 162.504L124.683 306.385C124.955 307.409 126.363 307.931 127.809 307.546Z" fill="#FFE3CA"/>
<path d="M127.809 307.545L133.426 306.047L94.1232 158.443L88.5059 159.941C87.0599 160.327 86.0978 161.48 86.3705 162.504L124.683 306.385C124.955 307.409 126.363 307.931 127.809 307.545Z" fill="#F2BE8F"/>
<path opacity="0.5" d="M147.819 206.805L136.315 163.614L127.545 165.945L139.048 209.136L147.819 206.805Z" fill="#EABC92"/>
<path opacity="0.5" d="M172.14 219.907L155.767 158.429L146.996 160.76L163.369 222.238L172.14 219.907Z" fill="#EABC92"/>
<path d="M152.953 192.097L144.767 161.358L142.812 161.877L150.999 192.616L152.953 192.097Z" fill="#F2BE8F"/>
<path d="M133.632 197.248L125.445 166.509L123.491 167.029L131.678 197.768L133.632 197.248Z" fill="#F2BE8F"/>
<path d="M109.936 169.855L110.12 170.36C110.126 170.377 110.136 170.394 110.145 170.409L112.573 173.916C112.601 173.958 112.615 174.012 112.609 174.064L112.43 180.254C112.413 180.417 111.703 179.719 111.568 179.625C110.095 178.612 106.151 175.14 104.503 173.893C104.24 173.694 103.865 173.907 103.902 174.235C103.919 174.394 103.983 174.543 104.084 174.666L109.771 181.591L109.469 182.898C109.425 183.088 109.546 183.278 109.734 183.322L110.746 183.554C110.933 183.596 111.121 183.481 111.169 183.299L111.9 184.191C111.935 184.233 111.952 184.287 111.948 184.342L111.585 189.963C111.553 190.46 111.695 190.955 111.985 191.36C112.102 191.525 112.231 191.701 112.348 191.864C112.594 192.204 113.072 192.269 113.402 192.01L113.567 191.879C114.107 191.454 114.428 190.811 114.443 190.124L114.539 185.637C114.541 185.549 114.597 185.47 114.679 185.438L116.381 184.799L116.317 185.075C116.273 185.265 116.394 185.455 116.582 185.499L117.596 185.731C117.786 185.775 117.977 185.654 118.021 185.464L118.343 184.062L120.999 183.067C121.214 182.986 121.399 182.844 121.533 182.658C121.704 182.422 121.896 182.169 121.848 182.119C121.696 181.96 116.945 181.614 115.109 181.574C115.006 181.572 115.021 180.692 115.023 180.588L114.771 174.605C114.773 174.526 114.818 174.455 114.887 174.417L116.381 173.623C116.548 173.534 116.68 173.39 116.755 173.216L116.759 173.208C116.813 173.085 116.742 172.944 116.611 172.913L114.241 172.335C114.172 172.318 114.117 172.27 114.092 172.203L113.869 171.629C113.8 171.451 113.548 171.443 113.469 171.618L113.383 171.808L110.268 169.609C110.093 169.481 109.865 169.655 109.936 169.855Z" fill="#F2BE8F"/>
<path d="M176.922 324.416H87.0732V200.217H177.085C180.488 200.217 183.246 202.972 183.246 206.371V318.098C183.244 321.588 180.413 324.416 176.922 324.416Z" fill="#739AF0"/>
<path d="M142.452 300.531H127.999C127.535 300.531 127.156 300.153 127.156 299.688C127.156 299.224 127.533 298.846 127.999 298.846H142.452C142.917 298.846 143.295 299.222 143.295 299.688C143.295 300.153 142.917 300.531 142.452 300.531Z" fill="#AEC3FF"/>
<path d="M152.75 304.544H117.7C117.236 304.544 116.857 304.168 116.857 303.702C116.857 303.237 117.234 302.859 117.7 302.859H152.75C153.215 302.859 153.593 303.235 153.593 303.702C153.593 304.168 153.217 304.544 152.75 304.544Z" fill="#AEC3FF"/>
<path d="M135.226 288.261C126.069 288.261 117.46 284.698 110.984 278.23C104.509 271.763 100.944 263.163 100.944 254.015C100.944 244.866 104.511 236.268 110.984 229.8C117.46 223.331 126.067 219.771 135.226 219.771C144.382 219.771 152.991 223.333 159.467 229.8C165.943 236.268 169.507 244.866 169.507 254.015C169.507 263.163 165.941 271.761 159.467 278.23C152.991 284.7 144.382 288.261 135.226 288.261ZM135.226 220.15C126.169 220.15 117.656 223.672 111.251 230.07C104.847 236.468 101.321 244.972 101.321 254.019C101.321 263.065 104.847 271.569 111.251 277.967C117.656 284.365 126.169 287.887 135.226 287.887C144.282 287.887 152.795 284.365 159.2 277.967C165.603 271.569 169.13 263.065 169.13 254.019C169.13 244.972 165.605 236.468 159.2 230.07C152.795 223.672 144.282 220.15 135.226 220.15Z" fill="#AEC3FF"/>
<path d="M162.713 254.019C162.713 255.707 162.561 257.358 162.269 258.964C161.566 262.816 160.061 266.386 157.931 269.498C152.982 276.73 144.659 281.476 135.226 281.476C124.007 281.476 114.357 274.762 110.086 265.133C109.523 263.865 109.053 262.546 108.686 261.186C108.068 258.901 107.739 256.497 107.739 254.019C107.739 252.014 107.954 250.057 108.363 248.175C108.367 248.154 108.373 248.133 108.377 248.11C109.519 242.906 112.139 238.256 115.776 234.619C116.807 233.586 117.921 232.635 119.106 231.777C119.671 231.369 120.255 230.979 120.85 230.613C125.033 228.042 129.956 226.56 135.228 226.56C135.927 226.56 136.62 226.585 137.306 226.638C138.274 226.709 139.226 226.832 140.163 227.001C144.106 227.714 147.755 229.268 150.92 231.471H150.922C152.894 232.842 154.676 234.463 156.224 236.291C157.036 237.252 157.785 238.267 158.461 239.336C158.882 239.999 159.275 240.682 159.64 241.383C160.516 243.067 161.221 244.855 161.735 246.721C162.371 249.044 162.713 251.492 162.713 254.019Z" fill="#AEC3FF"/>
<path d="M125.887 241.726C124.79 243.462 126.344 246.474 123.054 245.653C119.763 244.831 117.752 244.465 117.57 246.291C117.385 248.118 120.037 248.118 120.037 250.036C120.037 251.954 118.849 252.587 117.02 251.676C115.192 250.765 114.666 249.441 112.54 250.262C110.414 251.083 109.181 250.537 108.701 248.893C108.617 248.603 108.498 248.369 108.359 248.173C108.363 248.152 108.369 248.131 108.373 248.108C109.515 242.904 112.135 238.253 115.772 234.616C116.803 233.584 117.917 232.633 119.102 231.775C119.667 231.367 120.251 230.977 120.846 230.611C121.702 230.642 122.728 230.968 123.6 232.046C125.52 234.421 126.799 233.233 126.342 235.973C125.885 238.712 126.617 239.078 128.17 238.986C129.724 238.894 131.552 238.894 131.735 240.082C131.919 241.271 126.984 239.991 125.887 241.726Z" fill="#94B0ED"/>
<path d="M137.267 258.162C137.267 258.162 134.846 258.939 134.204 257.249C133.565 255.559 134.296 255.194 132.147 254.692C129.999 254.189 129.816 252.729 128.445 252.912C127.074 253.094 127.759 253.643 126.16 254.83C124.56 256.017 123.097 255.469 123.143 257.66C123.189 259.85 125.564 260.194 126.044 261.632C126.525 263.071 125.701 263.687 126.73 264.782C127.759 265.878 129.678 265.398 128.787 266.906C127.896 268.412 126.525 269.576 127.21 271.905C127.896 274.234 127.416 274.37 128.581 276.014C129.747 277.658 132.009 278.205 132.351 277.11C132.693 276.014 130.774 274.575 131.391 273.48C132.007 272.385 133.037 273.137 133.448 271.495C133.859 269.851 135.527 269.851 135.664 268.709C135.8 267.568 133.653 265.834 134.475 265.103C135.297 264.372 136.943 266.426 138.224 264.6C139.503 262.774 138.635 261.314 139.96 259.578C141.289 257.844 138.181 257.159 137.267 258.162Z" fill="#94B0ED"/>
<path d="M162.713 254.018C162.713 255.706 162.561 257.358 162.269 258.964C161.566 262.816 160.061 266.386 157.931 269.497C157.205 269.735 156.462 269.729 155.734 269.438C152.306 268.068 154.843 264.37 156.214 262.52C157.585 260.671 154.088 261.494 151.553 259.781C149.017 258.07 151.828 253.481 149.222 254.233C146.616 254.987 143.463 255.944 141.955 253.412C140.448 250.878 143.326 250.467 142.024 248.344C140.722 246.22 142.779 244.989 145.383 244.783C147.989 244.578 147.645 242.729 150.868 242.455C154.09 242.18 154.021 246.289 157.585 246.015C161.15 245.741 160.99 246.564 160.99 246.564C161.248 246.556 161.495 246.61 161.735 246.719C162.371 249.044 162.713 251.492 162.713 254.018Z" fill="#94B0ED"/>
<path d="M159.638 241.382C156.673 242.823 155.484 238.904 152.949 240.081C150.395 241.269 150.843 238.986 148.832 237.524C146.821 236.065 142.798 238.712 142.981 236.429C143.163 234.148 146.18 234.785 146.82 232.961C147.459 231.134 150.384 231.591 150.384 231.591C150.549 231.528 150.728 231.487 150.916 231.47C150.916 231.47 150.916 231.468 150.918 231.47C152.89 232.842 154.672 234.463 156.22 236.291C157.032 237.252 157.781 238.267 158.457 239.335C158.88 239.999 159.273 240.682 159.638 241.382Z" fill="#94B0ED"/>
<path d="M134.663 233.508C134.663 233.508 136.217 231.269 133.749 230.607C131.281 229.947 131.327 230.81 129.407 230.607C127.487 230.404 126.734 231.887 128.172 233.508C129.612 235.129 130.778 238.238 132.08 236.581C133.382 234.923 133.131 233.669 134.663 233.508Z" fill="#94B0ED"/>
</g>
<defs>
<clipPath id="clip0_324_25811">
<rect width="492" height="326" fill="white"/>
</clipPath>
</defs>
</svg>
