<svg width="22" height="24" viewBox="0 0 22 24" fill="none" xmlns="http://www.w3.org/2000/svg">
<path d="M14.0938 6.875H15.4688V7.5625H14.0938V6.875Z" fill="#83898F"/>
<path d="M13.4062 16.8438H14.0938V17.5312H13.4062V16.8438Z" fill="#83898F"/>
<path d="M14.7812 16.8438H15.4688V17.5312H14.7812V16.8438Z" fill="#83898F"/>
<path d="M16.8437 9.28602V9.02344C16.8439 8.8704 16.7984 8.72079 16.7131 8.59375C16.7984 8.46671 16.8439 8.3171 16.8437 8.16406V6.70312C16.8434 6.38415 16.7165 6.07834 16.4909 5.85279C16.2654 5.62724 15.9596 5.50036 15.6406 5.5H14.0937V3.37859C14.2041 3.41768 14.3204 3.4376 14.4375 3.4375H14.7812C15.0546 3.43718 15.3168 3.32843 15.5101 3.1351C15.7034 2.94177 15.8122 2.67966 15.8125 2.40625V1.71875C15.8122 1.44534 15.7034 1.18323 15.5101 0.989898C15.3168 0.79657 15.0546 0.687818 14.7812 0.6875H8.93749V1.375H14.7812C14.8724 1.3751 14.9597 1.41135 15.0242 1.4758C15.0886 1.54024 15.1249 1.62761 15.125 1.71875V2.40625C15.1249 2.49739 15.0886 2.58476 15.0242 2.6492C14.9597 2.71365 14.8724 2.7499 14.7812 2.75H14.4375C14.3463 2.7499 14.259 2.71365 14.1945 2.6492C14.1301 2.58476 14.0938 2.49739 14.0937 2.40625C14.0937 2.31508 14.0575 2.22765 13.9931 2.16318C13.9286 2.09872 13.8412 2.0625 13.75 2.0625H8.24999C8.15882 2.0625 8.07138 2.09872 8.00692 2.16318C7.94245 2.22765 7.90624 2.31508 7.90624 2.40625C7.90613 2.49739 7.86988 2.58476 7.80544 2.6492C7.741 2.71365 7.65362 2.7499 7.56249 2.75H7.21874C7.1276 2.7499 7.04022 2.71365 6.97578 2.6492C6.91134 2.58476 6.87509 2.49739 6.87499 2.40625V1.71875C6.87509 1.62761 6.91134 1.54024 6.97578 1.4758C7.04022 1.41135 7.1276 1.3751 7.21874 1.375H8.24999V0.6875H7.21874C6.94533 0.687818 6.68321 0.79657 6.48988 0.989898C6.29656 1.18323 6.1878 1.44534 6.18749 1.71875V2.40625C6.1878 2.67966 6.29656 2.94177 6.48988 3.1351C6.68321 3.32843 6.94533 3.43718 7.21874 3.4375H7.56249C7.67959 3.4376 7.79585 3.41768 7.90624 3.37859V5.5H6.35936C6.04038 5.50036 5.73457 5.62724 5.50902 5.85279C5.28347 6.07834 5.1566 6.38415 5.15624 6.70312V8.16406C5.15606 8.3171 5.20154 8.46671 5.28686 8.59375C5.20154 8.72079 5.15606 8.8704 5.15624 9.02344V10.5703C5.15606 10.7233 5.20154 10.873 5.28686 11C5.20154 11.127 5.15606 11.2767 5.15624 11.4297V12.9766C5.15606 13.1296 5.20154 13.2792 5.28686 13.4062C5.20154 13.5333 5.15606 13.6829 5.15624 13.8359V15.3828C5.15606 15.5358 5.20154 15.6855 5.28686 15.8125C5.20154 15.9395 5.15606 16.0892 5.15624 16.2422V18.7344C5.1566 19.0236 5.26097 19.303 5.4503 19.5217C5.63963 19.7403 5.90129 19.8836 6.18749 19.9253V19.9375C6.18749 20.3022 6.33235 20.6519 6.59021 20.9098C6.84808 21.1676 7.19781 21.3125 7.56249 21.3125C7.92716 21.3125 8.27689 21.1676 8.53476 20.9098C8.79262 20.6519 8.93749 20.3022 8.93749 19.9375H13.0625C13.0625 20.3022 13.2074 20.6519 13.4652 20.9098C13.7231 21.1676 14.0728 21.3125 14.4375 21.3125C14.8022 21.3125 15.1519 21.1676 15.4098 20.9098C15.6676 20.6519 15.8125 20.3022 15.8125 19.9375C15.8125 19.9332 15.8125 19.9293 15.8125 19.9253C16.0987 19.8836 16.3603 19.7403 16.5497 19.5217C16.739 19.303 16.8434 19.0236 16.8437 18.7344V18.2188H16.1562V18.7344C16.1561 18.8711 16.1017 19.0021 16.005 19.0988C15.9084 19.1955 15.7773 19.2499 15.6406 19.25H15.6277C15.5071 19.041 15.3336 18.8674 15.1246 18.7467C14.9157 18.626 14.6786 18.5625 14.4373 18.5625C14.196 18.5625 13.9589 18.626 13.7499 18.7467C13.5409 18.8674 13.3674 19.041 13.2468 19.25H8.75293C8.63233 19.041 8.45882 18.8674 8.24985 18.7467C8.04087 18.626 7.80381 18.5625 7.56249 18.5625C7.32117 18.5625 7.0841 18.626 6.87513 18.7467C6.66615 18.8674 6.49264 19.041 6.37204 19.25H6.35936C6.22265 19.2499 6.09159 19.1955 5.99492 19.0988C5.89826 19.0021 5.84388 18.8711 5.84374 18.7344V16.2422C5.84374 16.2194 5.85279 16.1975 5.86891 16.1814C5.88502 16.1653 5.90688 16.1562 5.92967 16.1562H16.0703C16.0931 16.1562 16.1149 16.1653 16.1311 16.1814C16.1472 16.1975 16.1562 16.2194 16.1562 16.2422V17.5312H16.8437V16.2422C16.8439 16.0892 16.7984 15.9395 16.7131 15.8125C16.7984 15.6855 16.8439 15.5358 16.8437 15.3828V15.1202C17.0327 15.0989 17.2072 15.0087 17.334 14.867C17.4608 14.7252 17.531 14.5417 17.5312 14.3516V10.0547C17.531 9.8645 17.4608 9.68105 17.334 9.53929C17.2072 9.39754 17.0327 9.30739 16.8437 9.28602ZM14.4375 19.25C14.5735 19.25 14.7064 19.2903 14.8194 19.3659C14.9325 19.4414 15.0206 19.5488 15.0727 19.6744C15.1247 19.8 15.1383 19.9383 15.1118 20.0716C15.0852 20.205 15.0198 20.3275 14.9236 20.4236C14.8275 20.5198 14.705 20.5853 14.5716 20.6118C14.4382 20.6383 14.3 20.6247 14.1744 20.5727C14.0488 20.5206 13.9414 20.4325 13.8658 20.3195C13.7903 20.2064 13.75 20.0735 13.75 19.9375C13.7502 19.7552 13.8227 19.5805 13.9516 19.4516C14.0805 19.3227 14.2552 19.2502 14.4375 19.25V19.25ZM7.56249 19.25C7.69846 19.25 7.83138 19.2903 7.94444 19.3659C8.0575 19.4414 8.14562 19.5488 8.19765 19.6744C8.24969 19.8 8.2633 19.9383 8.23678 20.0716C8.21025 20.205 8.14477 20.3275 8.04862 20.4236C7.95247 20.5198 7.82997 20.5853 7.69661 20.6118C7.56325 20.6383 7.42501 20.6247 7.29939 20.5727C7.17377 20.5206 7.06639 20.4325 6.99085 20.3195C6.91531 20.2064 6.87499 20.0735 6.87499 19.9375C6.8752 19.7552 6.9477 19.5805 7.07659 19.4516C7.20547 19.3227 7.38022 19.2502 7.56249 19.25ZM13.0625 2.75H13.4062V5.5H13.0625V2.75ZM9.62499 2.75H12.375V5.5H9.62499V2.75ZM8.59374 2.75H8.93749V5.5H8.59374V2.75ZM8.59374 8.73615V11.6016C8.59374 11.6244 8.58468 11.6462 8.56856 11.6623C8.55245 11.6784 8.53059 11.6875 8.5078 11.6875H7.30467C7.28188 11.6875 7.26002 11.6784 7.24391 11.6623C7.22779 11.6462 7.21874 11.6244 7.21874 11.6016V8.73615L7.90624 8.04865L8.59374 8.73615ZM5.84374 6.70312C5.84388 6.56642 5.89826 6.43535 5.99492 6.33869C6.09159 6.24202 6.22265 6.18765 6.35936 6.1875H8.00124C7.73996 6.54592 7.58898 6.97281 7.56682 7.4158L6.73263 8.25H5.92967C5.90688 8.25 5.88502 8.24095 5.86891 8.22483C5.85279 8.20871 5.84374 8.18685 5.84374 8.16406V6.70312ZM5.84374 9.02344C5.84374 9.00065 5.85279 8.97879 5.86891 8.96267C5.88502 8.94655 5.90688 8.9375 5.92967 8.9375H6.53124V10.6562H5.92967C5.90688 10.6562 5.88502 10.6472 5.86891 10.6311C5.85279 10.615 5.84374 10.5931 5.84374 10.5703V9.02344ZM5.84374 11.4297C5.84374 11.4069 5.85279 11.385 5.86891 11.3689C5.88502 11.3528 5.90688 11.3438 5.92967 11.3438H6.53124V11.6016C6.53147 11.8066 6.61304 12.0032 6.75803 12.1482C6.90303 12.2932 7.09962 12.3748 7.30467 12.375H8.5078C8.71285 12.3748 8.90944 12.2932 9.05444 12.1482C9.19943 12.0032 9.281 11.8066 9.28124 11.6016V11.3438H15.8125V13.0625H5.92967C5.90688 13.0625 5.88502 13.0534 5.86891 13.0373C5.85279 13.0212 5.84374 12.9994 5.84374 12.9766V11.4297ZM16.1562 15.3828C16.1562 15.4056 16.1472 15.4275 16.1311 15.4436C16.1149 15.4597 16.0931 15.4688 16.0703 15.4688H5.92967C5.90688 15.4688 5.88502 15.4597 5.86891 15.4436C5.85279 15.4275 5.84374 15.4056 5.84374 15.3828V13.8359C5.84374 13.8131 5.85279 13.7913 5.86891 13.7752C5.88502 13.7591 5.90688 13.75 5.92967 13.75H15.8125V14.7812C15.8125 14.8724 15.8487 14.9599 15.9132 15.0243C15.9776 15.0888 16.0651 15.125 16.1562 15.125V15.3828ZM16.1562 9.28125C16.0651 9.28125 15.9776 9.31747 15.9132 9.38193C15.8487 9.4464 15.8125 9.53383 15.8125 9.625V10.6562H9.28124V8.9375H16.0703C16.0931 8.9375 16.1149 8.94655 16.1311 8.96267C16.1472 8.97879 16.1562 9.00065 16.1562 9.02344V9.28125ZM16.1562 8.16406C16.1562 8.18685 16.1472 8.20871 16.1311 8.22483C16.1149 8.24095 16.0931 8.25 16.0703 8.25H9.07984L8.2551 7.42521C8.30692 6.73127 8.74735 6.1875 9.28124 6.1875H15.6406C15.7773 6.18765 15.9084 6.24202 16.005 6.33869C16.1017 6.43535 16.1561 6.56642 16.1562 6.70312V8.16406ZM16.8437 14.3516C16.8437 14.3744 16.8347 14.3962 16.8186 14.4123C16.8024 14.4284 16.7806 14.4375 16.7578 14.4375H16.5V9.96875H16.7578C16.7806 9.96875 16.8024 9.9778 16.8186 9.99392C16.8347 10.01 16.8437 10.0319 16.8437 10.0547V14.3516Z" fill="#83898F"/>
<path d="M17.7457 18.8565L20.746 15.8628C20.8774 15.7314 20.9512 15.5532 20.9512 15.3673C20.9512 15.1815 20.8774 15.0033 20.746 14.8719C20.6146 14.7404 20.4364 14.6666 20.2506 14.6666C20.0648 14.6666 19.8866 14.7404 19.7552 14.8719L16.7619 17.8726L13.7686 14.8719C13.6372 14.7404 13.459 14.6666 13.2732 14.6666C13.0874 14.6666 12.9092 14.7404 12.7778 14.8719C12.6464 15.0033 12.5726 15.1815 12.5726 15.3673C12.5726 15.5532 12.6464 15.7314 12.7778 15.8628L15.7781 18.8565L12.7778 21.8502C12.7124 21.9151 12.6605 21.9923 12.6251 22.0773C12.5897 22.1624 12.5714 22.2536 12.5714 22.3457C12.5714 22.4378 12.5897 22.529 12.6251 22.6141C12.6605 22.6991 12.7124 22.7763 12.7778 22.8412C12.8427 22.9066 12.9199 22.9585 13.0049 22.9939C13.0899 23.0293 13.1811 23.0476 13.2732 23.0476C13.3653 23.0476 13.4565 23.0293 13.5415 22.9939C13.6266 22.9585 13.7037 22.9066 13.7686 22.8412L16.7619 19.8405L19.7552 22.8412C19.8201 22.9066 19.8972 22.9585 19.9823 22.9939C20.0673 23.0293 20.1585 23.0476 20.2506 23.0476C20.3427 23.0476 20.4339 23.0293 20.5189 22.9939C20.604 22.9585 20.6811 22.9066 20.746 22.8412C20.8114 22.7763 20.8633 22.6991 20.8987 22.6141C20.9341 22.529 20.9524 22.4378 20.9524 22.3457C20.9524 22.2536 20.9341 22.1624 20.8987 22.0773C20.8633 21.9923 20.8114 21.9151 20.746 21.8502L17.7457 18.8565Z" fill="#DF0C30"/>
</svg>
