<?xml version="1.0" encoding="utf-8"?>
<!-- Generator: Adobe Illustrator 25.0.0, SVG Export Plug-In . SVG Version: 6.00 Build 0)  -->
<svg version="1.1" id="Capa_1" xmlns="http://www.w3.org/2000/svg" xmlns:xlink="http://www.w3.org/1999/xlink" x="0px" y="0px"
	 viewBox="0 0 15 10" style="enable-background:new 0 0 15 10;" xml:space="preserve">
<style type="text/css">
	.st0{fill:#54D834;}
</style>
<path class="st0" d="M13.67,2.54h-3.8V2.52c0-0.63-0.25-1.23-0.69-1.68C8.73,0.4,8.13,0.15,7.5,0.15c-1.31,0-2.37,1.06-2.37,2.37
	v0.01h-3.8C0.6,2.54,0,3.13,0,3.87v4.64c0,0.74,0.6,1.33,1.33,1.33h12.33c0.74,0,1.33-0.6,1.33-1.33V3.87
	C15,3.13,14.4,2.54,13.67,2.54z M5.72,2.52c0-0.98,0.8-1.78,1.78-1.78c0.48,0,0.92,0.19,1.26,0.52C9.1,1.6,9.28,2.05,9.28,2.52v0.01
	H5.72V2.52z M2.44,9.26H1.33c-0.41,0-0.75-0.33-0.75-0.75V3.87c0-0.41,0.33-0.75,0.75-0.75h1.11V9.26z M3.68,9.26H3.03V3.12h0.65
	V9.26z M10.73,9.26H4.27V6.49h6.46V9.26z M10.73,5.9H4.27V3.12h6.46V5.9z M11.97,9.26h-0.65V3.12h0.65V9.26z M14.41,8.51
	c0,0.41-0.33,0.75-0.75,0.75h-1.11V3.12h1.11c0.41,0,0.75,0.33,0.75,0.75V8.51z"/>
<path class="st0" d="M7.04,3.5H5.33c-0.16,0-0.29,0.13-0.29,0.29c0,0.16,0.13,0.29,0.29,0.29h1.71c0.16,0,0.29-0.13,0.29-0.29
	C7.33,3.63,7.2,3.5,7.04,3.5z"/>
<path class="st0" d="M8.05,4.09c0.16,0,0.29-0.13,0.29-0.29c0-0.16-0.13-0.29-0.29-0.29c-0.16,0-0.29,0.13-0.29,0.29
	C7.76,3.96,7.89,4.09,8.05,4.09z"/>
</svg>
