<svg width="22" height="20" viewBox="0 0 22 20" fill="none" xmlns="http://www.w3.org/2000/svg">
<path d="M18.2208 6.71404H13.1604V6.69795C13.1604 5.85377 12.8316 5.06002 12.2346 4.46303C11.6377 3.86627 10.8441 3.5376 10 3.5376C8.25734 3.5376 6.83961 4.95533 6.83961 6.69799V6.71408H1.77922C0.798164 6.71404 0 7.51205 0 8.49287V14.6831C0 15.6642 0.798164 16.4623 1.77922 16.4623H18.2208C19.2019 16.4623 20 15.6641 20 14.6831V8.49287C20 7.51205 19.2018 6.71404 18.2208 6.71404ZM7.62391 6.69799C7.62391 5.38783 8.68984 4.32189 10 4.32189C10.6346 4.32189 11.2312 4.569 11.68 5.01764C12.1289 5.4665 12.3761 6.0633 12.3761 6.69799V6.71408H7.62391V6.69799ZM3.25492 15.678H1.77922C1.23063 15.678 0.784336 15.2317 0.784336 14.6831V8.49287C0.784336 7.94451 1.23066 7.49838 1.77922 7.49838H3.25492V15.678ZM4.9059 15.678H4.03922V7.49838H4.9059V15.678ZM14.3102 15.678H5.6902V11.9803H14.3102V15.678ZM14.3102 11.196H5.6902V7.49838H14.3102V11.196ZM15.9608 15.678H15.0945V7.49838H15.9608V15.678ZM19.2157 14.6831C19.2157 15.2317 18.7694 15.678 18.2208 15.678H16.7451V7.49838H18.2208C18.7694 7.49838 19.2157 7.94455 19.2157 8.49287V14.6831Z" fill="#83898F"/>
<path d="M9.38197 8.00098H7.10748C6.89088 8.00098 6.71533 8.1766 6.71533 8.39312C6.71533 8.60965 6.89092 8.78527 7.10748 8.78527H9.38197C9.59857 8.78527 9.77412 8.60965 9.77412 8.39312C9.77412 8.1766 9.59857 8.00098 9.38197 8.00098Z" fill="#83898F"/>
<path d="M10.7353 8.78527C10.9519 8.78527 11.1274 8.6097 11.1274 8.39312C11.1274 8.17655 10.9519 8.00098 10.7353 8.00098C10.5187 8.00098 10.3431 8.17655 10.3431 8.39312C10.3431 8.6097 10.5187 8.78527 10.7353 8.78527Z" fill="#83898F"/>
<path d="M18.1743 14.1899L21.1746 11.1962C21.3059 11.0648 21.3798 10.8865 21.3798 10.7007C21.3798 10.5149 21.3059 10.3366 21.1746 10.2052C21.0432 10.0738 20.865 10 20.6792 10C20.4934 10 20.3152 10.0738 20.1838 10.2052L17.1905 13.2059L14.1972 10.2052C14.0658 10.0738 13.8876 10 13.7018 10C13.516 10 13.3378 10.0738 13.2064 10.2052C13.075 10.3366 13.0012 10.5149 13.0012 10.7007C13.0012 10.8865 13.075 11.0648 13.2064 11.1962L16.2067 14.1899L13.2064 17.1836C13.141 17.2485 13.0891 17.3257 13.0537 17.4107C13.0182 17.4957 13 17.5869 13 17.6791C13 17.7712 13.0182 17.8624 13.0537 17.9474C13.0891 18.0325 13.141 18.1097 13.2064 18.1745C13.2713 18.2399 13.3484 18.2919 13.4335 18.3273C13.5185 18.3627 13.6097 18.381 13.7018 18.381C13.7939 18.381 13.8851 18.3627 13.9701 18.3273C14.0551 18.2919 14.1323 18.2399 14.1972 18.1745L17.1905 15.1738L20.1838 18.1745C20.2486 18.2399 20.3258 18.2919 20.4108 18.3273C20.4959 18.3627 20.5871 18.381 20.6792 18.381C20.7713 18.381 20.8625 18.3627 20.9475 18.3273C21.0325 18.2919 21.1097 18.2399 21.1746 18.1745C21.24 18.1097 21.2919 18.0325 21.3273 17.9474C21.3627 17.8624 21.381 17.7712 21.381 17.6791C21.381 17.5869 21.3627 17.4957 21.3273 17.4107C21.2919 17.3257 21.24 17.2485 21.1746 17.1836L18.1743 14.1899Z" fill="#DF0C30"/>
</svg>
