<?xml version="1.0" encoding="utf-8"?>
<!-- Generator: Adobe Illustrator 25.0.0, SVG Export Plug-In . SVG Version: 6.00 Build 0)  -->
<svg version="1.1" id="Capa_1" xmlns="http://www.w3.org/2000/svg" xmlns:xlink="http://www.w3.org/1999/xlink" x="0px" y="0px"
	 viewBox="0 0 15 10" style="enable-background:new 0 0 15 10;" xml:space="preserve">
<style type="text/css">
	.st0{fill:#B50A27;}
</style>
<path class="st0" d="M13.7,2.5H9.9v0c0-0.6-0.2-1.2-0.7-1.7C8.7,0.4,8.1,0.2,7.5,0.2c-1.3,0-2.4,1.1-2.4,2.4v0H1.3
	C0.6,2.5,0,3.1,0,3.9v4.6c0,0.7,0.6,1.3,1.3,1.3h12.3c0.7,0,1.3-0.6,1.3-1.3V3.9C15,3.1,14.4,2.5,13.7,2.5z M5.7,2.5
	c0-1,0.8-1.8,1.8-1.8c0.5,0,0.9,0.2,1.3,0.5C9.1,1.6,9.3,2,9.3,2.5v0L5.7,2.5L5.7,2.5z M2.4,9.3H1.3c-0.4,0-0.8-0.3-0.8-0.8V3.9
	c0-0.4,0.3-0.8,0.8-0.8h1.1V9.3z M3.7,9.3H3V3.1h0.6C3.7,3.1,3.7,9.3,3.7,9.3z M10.7,9.3H4.3V6.5h6.5V9.3z M10.7,5.9H4.3V3.1h6.5
	V5.9z M12,9.3h-0.6V3.1H12V9.3z M14.4,8.5c0,0.4-0.3,0.8-0.8,0.8h-1.1V3.1h1.1c0.4,0,0.8,0.3,0.8,0.8V8.5z"/>
<path class="st0" d="M7,3.5H5.3C5.2,3.5,5,3.6,5,3.8C5,4,5.2,4.1,5.3,4.1H7c0.2,0,0.3-0.1,0.3-0.3S7.2,3.5,7,3.5z"/>
<path class="st0" d="M8.1,4.1c0.2,0,0.3-0.1,0.3-0.3c0-0.2-0.1-0.3-0.3-0.3S7.8,3.6,7.8,3.8S7.9,4.1,8.1,4.1z"/>
</svg>
