<svg width="20" height="20" viewBox="0 0 20 20" fill="none" xmlns="http://www.w3.org/2000/svg">
<path d="M12.8125 6.25H14.0625V6.875H12.8125V6.25Z" fill="#007BBE"/>
<path d="M12.1875 15.3125H12.8125V15.9375H12.1875V15.3125Z" fill="#007BBE"/>
<path d="M13.4375 15.3125H14.0625V15.9375H13.4375V15.3125Z" fill="#007BBE"/>
<path d="M15.3125 8.44184V8.20312C15.3127 8.064 15.2713 7.928 15.1937 7.8125C15.2713 7.697 15.3127 7.561 15.3125 7.42188V6.09375C15.3122 5.80377 15.1968 5.52576 14.9918 5.32072C14.7867 5.11567 14.5087 5.00033 14.2188 5H12.8125V3.07145C12.9129 3.10698 13.0185 3.12509 13.125 3.125H13.4375C13.6861 3.12471 13.9243 3.02585 14.1001 2.85009C14.2758 2.67434 14.3747 2.43605 14.375 2.1875V1.5625C14.3747 1.31395 14.2758 1.07566 14.1001 0.899907C13.9243 0.724154 13.6861 0.625289 13.4375 0.625H8.125V1.25H13.4375C13.5204 1.25009 13.5998 1.28305 13.6584 1.34163C13.717 1.40022 13.7499 1.47965 13.75 1.5625V2.1875C13.7499 2.27035 13.717 2.34978 13.6584 2.40837C13.5998 2.46695 13.5204 2.49991 13.4375 2.5H13.125C13.0421 2.49991 12.9627 2.46695 12.9041 2.40837C12.8455 2.34978 12.8126 2.27035 12.8125 2.1875C12.8125 2.10462 12.7796 2.02513 12.721 1.96653C12.6624 1.90792 12.5829 1.875 12.5 1.875H7.5C7.41712 1.875 7.33763 1.90792 7.27903 1.96653C7.22042 2.02513 7.1875 2.10462 7.1875 2.1875C7.18741 2.27035 7.15445 2.34978 7.09587 2.40837C7.03728 2.46695 6.95785 2.49991 6.875 2.5H6.5625C6.47965 2.49991 6.40022 2.46695 6.34163 2.40837C6.28305 2.34978 6.25009 2.27035 6.25 2.1875V1.5625C6.25009 1.47965 6.28305 1.40022 6.34163 1.34163C6.40022 1.28305 6.47965 1.25009 6.5625 1.25H7.5V0.625H6.5625C6.31395 0.625289 6.07566 0.724154 5.89991 0.899907C5.72416 1.07566 5.62529 1.31395 5.625 1.5625V2.1875C5.62529 2.43605 5.72416 2.67434 5.89991 2.85009C6.07566 3.02585 6.31395 3.12471 6.5625 3.125H6.875C6.98146 3.12509 7.08715 3.10698 7.1875 3.07145V5H5.78125C5.49127 5.00033 5.21326 5.11567 5.00822 5.32072C4.80317 5.52576 4.68783 5.80377 4.6875 6.09375V7.42188C4.68734 7.561 4.72869 7.697 4.80625 7.8125C4.72869 7.928 4.68734 8.064 4.6875 8.20312V9.60938C4.68734 9.7485 4.72869 9.88451 4.80625 10C4.72869 10.1155 4.68734 10.2515 4.6875 10.3906V11.7969C4.68734 11.936 4.72869 12.072 4.80625 12.1875C4.72869 12.303 4.68734 12.439 4.6875 12.5781V13.9844C4.68734 14.1235 4.72869 14.2595 4.80625 14.375C4.72869 14.4905 4.68734 14.6265 4.6875 14.7656V17.0312C4.68783 17.2942 4.78272 17.5482 4.95483 17.747C5.12695 17.9457 5.36482 18.076 5.625 18.1139V18.125C5.625 18.4565 5.7567 18.7745 5.99112 19.0089C6.22554 19.2433 6.54348 19.375 6.875 19.375C7.20652 19.375 7.52446 19.2433 7.75888 19.0089C7.9933 18.7745 8.125 18.4565 8.125 18.125H11.875C11.875 18.4565 12.0067 18.7745 12.2411 19.0089C12.4755 19.2433 12.7935 19.375 13.125 19.375C13.4565 19.375 13.7745 19.2433 14.0089 19.0089C14.2433 18.7745 14.375 18.4565 14.375 18.125C14.375 18.1211 14.375 18.1176 14.375 18.1139C14.6352 18.076 14.873 17.9457 15.0452 17.747C15.2173 17.5482 15.3122 17.2942 15.3125 17.0312V16.5625H14.6875V17.0312C14.6874 17.1555 14.6379 17.2747 14.5501 17.3626C14.4622 17.4504 14.343 17.4999 14.2188 17.5H14.207C14.0974 17.31 13.9397 17.1522 13.7497 17.0425C13.5597 16.9327 13.3442 16.875 13.1248 16.875C12.9054 16.875 12.6899 16.9327 12.4999 17.0425C12.31 17.1522 12.1522 17.31 12.0426 17.5H7.95723C7.84759 17.31 7.68985 17.1522 7.49987 17.0425C7.3099 16.9327 7.09438 16.875 6.875 16.875C6.65562 16.875 6.4401 16.9327 6.25013 17.0425C6.06015 17.1522 5.90241 17.31 5.79277 17.5H5.78125C5.65697 17.4999 5.53782 17.4504 5.44994 17.3626C5.36206 17.2747 5.31263 17.1555 5.3125 17.0312V14.7656C5.3125 14.7449 5.32073 14.725 5.33538 14.7104C5.35003 14.6957 5.36991 14.6875 5.39063 14.6875H14.6094C14.6301 14.6875 14.65 14.6957 14.6646 14.7104C14.6793 14.725 14.6875 14.7449 14.6875 14.7656V15.9375H15.3125V14.7656C15.3127 14.6265 15.2713 14.4905 15.1937 14.375C15.2713 14.2595 15.3127 14.1235 15.3125 13.9844V13.7457C15.4843 13.7262 15.643 13.6443 15.7582 13.5154C15.8735 13.3865 15.9373 13.2198 15.9375 13.0469V9.14062C15.9373 8.96773 15.8735 8.80096 15.7582 8.67209C15.643 8.54322 15.4843 8.46126 15.3125 8.44184ZM13.125 17.5C13.2486 17.5 13.3695 17.5367 13.4722 17.6053C13.575 17.674 13.6551 17.7716 13.7024 17.8858C13.7497 18 13.7621 18.1257 13.738 18.2469C13.7139 18.3682 13.6544 18.4795 13.5669 18.5669C13.4795 18.6544 13.3682 18.7139 13.2469 18.738C13.1257 18.7621 13 18.7497 12.8858 18.7024C12.7716 18.6551 12.674 18.575 12.6053 18.4722C12.5367 18.3695 12.5 18.2486 12.5 18.125C12.5002 17.9593 12.5661 17.8004 12.6833 17.6833C12.8004 17.5661 12.9593 17.5002 13.125 17.5ZM6.875 17.5C6.99861 17.5 7.11945 17.5367 7.22223 17.6053C7.32501 17.674 7.40512 17.7716 7.45243 17.8858C7.49973 18 7.51211 18.1257 7.48799 18.2469C7.46388 18.3682 7.40435 18.4795 7.31694 18.5669C7.22953 18.6544 7.11817 18.7139 6.99693 18.738C6.87569 18.7621 6.75003 18.7497 6.63582 18.7024C6.52162 18.6551 6.42401 18.575 6.35533 18.4722C6.28666 18.3695 6.25 18.2486 6.25 18.125C6.2502 17.9593 6.31611 17.8004 6.43328 17.6833C6.55044 17.5661 6.7093 17.5002 6.875 17.5ZM11.875 2.5H12.1875V5H11.875V2.5ZM8.75 2.5H11.25V5H8.75V2.5ZM7.8125 2.5H8.125V5H7.8125V2.5ZM7.8125 7.94195V10.5469C7.8125 10.5676 7.80427 10.5875 7.78962 10.6021C7.77497 10.6168 7.7551 10.625 7.73438 10.625H6.64063C6.61991 10.625 6.60003 10.6168 6.58538 10.6021C6.57073 10.5875 6.5625 10.5676 6.5625 10.5469V7.94195L7.1875 7.31695L7.8125 7.94195ZM5.3125 6.09375C5.31263 5.96947 5.36206 5.85032 5.44994 5.76244C5.53782 5.67456 5.65697 5.62513 5.78125 5.625H7.27387C7.03634 5.95084 6.89909 6.33892 6.87895 6.74164L6.12059 7.5H5.39063C5.36991 7.5 5.35003 7.49177 5.33538 7.47712C5.32073 7.46247 5.3125 7.4426 5.3125 7.42188V6.09375ZM5.3125 8.20312C5.3125 8.1824 5.32073 8.16253 5.33538 8.14788C5.35003 8.13323 5.36991 8.125 5.39063 8.125H5.9375V9.6875H5.39063C5.36991 9.6875 5.35003 9.67927 5.33538 9.66462C5.32073 9.64997 5.3125 9.6301 5.3125 9.60938V8.20312ZM5.3125 10.3906C5.3125 10.3699 5.32073 10.35 5.33538 10.3354C5.35003 10.3207 5.36991 10.3125 5.39063 10.3125H5.9375V10.5469C5.93772 10.7333 6.01187 10.912 6.14368 11.0438C6.2755 11.1756 6.45421 11.2498 6.64063 11.25H7.73438C7.92079 11.2498 8.09951 11.1756 8.23132 11.0438C8.36313 10.912 8.43728 10.7333 8.4375 10.5469V10.3125H14.375V11.875H5.39063C5.36991 11.875 5.35003 11.8668 5.33538 11.8521C5.32073 11.8375 5.3125 11.8176 5.3125 11.7969V10.3906ZM14.6875 13.9844C14.6875 14.0051 14.6793 14.025 14.6646 14.0396C14.65 14.0543 14.6301 14.0625 14.6094 14.0625H5.39063C5.36991 14.0625 5.35003 14.0543 5.33538 14.0396C5.32073 14.025 5.3125 14.0051 5.3125 13.9844V12.5781C5.3125 12.5574 5.32073 12.5375 5.33538 12.5229C5.35003 12.5082 5.36991 12.5 5.39063 12.5H14.375V13.4375C14.375 13.5204 14.4079 13.5999 14.4665 13.6585C14.5251 13.7171 14.6046 13.75 14.6875 13.75V13.9844ZM14.6875 8.4375C14.6046 8.4375 14.5251 8.47042 14.4665 8.52903C14.4079 8.58763 14.375 8.66712 14.375 8.75V9.6875H8.4375V8.125H14.6094C14.6301 8.125 14.65 8.13323 14.6646 8.14788C14.6793 8.16253 14.6875 8.1824 14.6875 8.20312V8.4375ZM14.6875 7.42188C14.6875 7.4426 14.6793 7.46247 14.6646 7.47712C14.65 7.49177 14.6301 7.5 14.6094 7.5H8.25441L7.50465 6.7502C7.55176 6.11934 7.95215 5.625 8.4375 5.625H14.2188C14.343 5.62513 14.4622 5.67456 14.5501 5.76244C14.6379 5.85032 14.6874 5.96947 14.6875 6.09375V7.42188ZM15.3125 13.0469C15.3125 13.0676 15.3043 13.0875 15.2896 13.1021C15.275 13.1168 15.2551 13.125 15.2344 13.125H15V9.0625H15.2344C15.2551 9.0625 15.275 9.07073 15.2896 9.08538C15.3043 9.10003 15.3125 9.1199 15.3125 9.14062V13.0469Z" fill="#007BBE"/>
</svg>
