<svg width="56" height="53" viewBox="0 0 56 53" fill="none" xmlns="http://www.w3.org/2000/svg">
<path d="M29.0425 42.6133C29.0425 43.2066 28.5616 43.6875 27.9683 43.6875C27.3749 43.6875 26.894 43.2066 26.894 42.6133C26.894 42.0199 27.3749 41.5391 27.9683 41.5391C28.5616 41.5391 29.0425 42.0199 29.0425 42.6133Z" fill="#F29704"/>
<path d="M51.9233 32.9453C51.9233 29.3912 49.0322 26.5 45.478 26.5C41.9239 26.5 39.0327 29.3912 39.0327 32.9453C39.0327 36.4995 41.9239 39.3906 45.478 39.3906C49.0322 39.3906 51.9233 36.4995 51.9233 32.9453ZM45.478 37.2422C43.1089 37.2422 41.1812 35.3145 41.1812 32.9453C41.1812 30.5762 43.1089 28.6484 45.478 28.6484C47.8472 28.6484 49.7749 30.5762 49.7749 32.9453C49.7749 35.3145 47.8472 37.2422 45.478 37.2422Z" fill="#F29704"/>
<path d="M45.478 39.3906C42.7711 39.3906 40.0717 40.5144 38.2329 42.3363C35.8126 39.1556 32.0805 37.2422 27.9683 37.2422C24.0302 37.2422 20.2142 39.039 17.704 42.3363C15.8648 40.5148 13.1659 39.3906 10.4585 39.3906C5.04334 39.3906 0.468262 43.818 0.468262 49.0586V51.207C0.468262 51.8004 0.949142 52.2812 1.54248 52.2812H54.394C54.9874 52.2812 55.4683 51.8004 55.4683 51.207V49.0586C55.4683 43.818 50.8932 39.3906 45.478 39.3906ZM2.6167 49.0586C2.6167 44.9824 6.20778 41.5391 10.4585 41.5391C12.7844 41.5391 15.0911 42.5696 16.519 44.2078C15.5749 46.0315 15.0776 48.0641 15.0776 50.1328H2.6167V49.0586ZM27.9683 39.3906C33.9457 39.3906 38.7104 44.2406 38.7104 50.1328H17.2261C17.2261 44.1621 22.0882 39.3906 27.9683 39.3906ZM53.3198 50.1328H40.8589C40.8589 48.0641 40.3616 46.0315 39.4175 44.2078C40.8455 42.5696 43.1521 41.5391 45.478 41.5391C49.7287 41.5391 53.3198 44.9824 53.3198 49.0586V50.1328Z" fill="#F29704"/>
<path d="M16.9038 32.9453C16.9038 29.3912 14.0126 26.5 10.4585 26.5C6.90434 26.5 4.01318 29.3912 4.01318 32.9453C4.01318 36.4995 6.90434 39.3906 10.4585 39.3906C14.0126 39.3906 16.9038 36.4995 16.9038 32.9453ZM10.4585 37.2422C8.08934 37.2422 6.16162 35.3145 6.16162 32.9453C6.16162 30.5762 8.08934 28.6484 10.4585 28.6484C12.8277 28.6484 14.7554 30.5762 14.7554 32.9453C14.7554 35.3145 12.8277 37.2422 10.4585 37.2422Z" fill="#F29704"/>
<path d="M36.562 28.6484C36.562 23.9097 32.707 20.0547 27.9683 20.0547C23.2295 20.0547 19.3745 23.9097 19.3745 28.6484C19.3745 33.3872 23.2295 37.2422 27.9683 37.2422C32.707 37.2422 36.562 33.3872 36.562 28.6484ZM27.9683 35.0938C24.4141 35.0938 21.5229 32.2026 21.5229 28.6484C21.5229 25.0943 24.4141 22.2031 27.9683 22.2031C31.5224 22.2031 34.4136 25.0943 34.4136 28.6484C34.4136 32.2026 31.5224 35.0938 27.9683 35.0938Z" fill="#F29704"/>
<path d="M36.4696 6.96642C36.3433 6.57744 36.0072 6.2942 35.6022 6.23545L30.9688 5.5628L28.8942 1.32132C28.7142 0.952476 28.3399 0.71875 27.9295 0.71875C27.5192 0.71875 27.1449 0.952476 26.9644 1.3209L24.8903 5.5628L20.2568 6.23503C19.8519 6.29378 19.5158 6.57744 19.3895 6.96642C19.2632 7.35541 19.3685 7.78216 19.6614 8.0675L23.0167 11.3376L22.2248 15.9555C22.1556 16.3583 22.3214 16.7657 22.6524 17.0058C22.9814 17.2449 23.4195 17.2789 23.7837 17.0876L27.9295 14.9077L32.077 17.0876C32.4387 17.2781 32.8772 17.2462 33.2083 17.0058C33.539 16.7653 33.7047 16.3583 33.6355 15.955L32.8428 11.3376L36.1977 8.0675C36.4906 7.78216 36.5959 7.35541 36.4696 6.96642ZM30.9382 10.1933C30.6852 10.44 30.5693 10.7958 30.6294 11.1441L31.1493 14.1733L28.4293 12.7433C28.1163 12.5788 27.7424 12.5788 27.4294 12.7433L24.7102 14.1733L25.2297 11.1441C25.2893 10.7954 25.1735 10.44 24.9205 10.1933L22.72 8.04861L25.7601 7.60718C26.1118 7.5564 26.4151 7.33485 26.5708 7.01594L27.9295 4.23808L29.2878 7.01594C29.4439 7.33527 29.7473 7.5564 30.0985 7.60718L33.1391 8.04861L30.9382 10.1933Z" fill="#F29704"/>
<path d="M52.526 15.0176C52.3997 14.6286 52.0635 14.3454 51.6586 14.2866L48.5195 13.8305L47.1158 10.9855C46.935 10.6188 46.562 10.3867 46.1528 10.3867C46.1528 10.3867 46.1528 10.3867 46.1524 10.3867C45.7437 10.3867 45.3702 10.6188 45.1894 10.9855L43.7849 13.8305L40.6454 14.2866C40.2409 14.3454 39.9047 14.6286 39.7784 15.0176C39.6517 15.4066 39.757 15.8333 40.0499 16.1187L42.3213 18.3338L41.785 21.46C41.7162 21.8628 41.8816 22.2698 42.2126 22.5103C42.5433 22.7507 42.9818 22.7826 43.3435 22.5925L46.1524 21.1167L48.9605 22.5925C49.3222 22.7826 49.7611 22.7507 50.0918 22.5103C50.4224 22.2703 50.5878 21.8628 50.5189 21.46L49.9827 18.3338L52.2545 16.1187C52.5474 15.8333 52.6523 15.4066 52.526 15.0176ZM48.0789 17.19C47.8254 17.4367 47.71 17.7921 47.77 18.1404L48.0336 19.6779L46.6526 18.9524C46.3396 18.7879 45.9657 18.7879 45.6531 18.9524L44.2708 19.6783L44.5348 18.1404C44.5944 17.7921 44.479 17.4367 44.226 17.19L43.1081 16.0998L44.6527 15.8757C45.0027 15.8249 45.3052 15.6051 45.4617 15.2883L46.1524 13.8888L46.8427 15.2878C46.9992 15.6051 47.3017 15.8249 47.6517 15.8757L49.1963 16.0998L48.0789 17.19Z" fill="#F29704"/>
<path d="M16.0025 15.0176C15.8762 14.6286 15.5401 14.3454 15.1352 14.2866L11.996 13.8305L10.5924 10.9855C10.4116 10.6188 10.0385 10.3867 9.6294 10.3867C9.22027 10.3867 8.84681 10.6188 8.66596 10.9855L7.2615 13.8305L4.12192 14.2866C3.71741 14.3454 3.3813 14.6286 3.255 15.0176C3.12827 15.4066 3.2336 15.8333 3.52649 16.1187L5.79787 18.3338L5.26202 21.46C5.19279 21.8628 5.35854 22.2698 5.68919 22.5103C6.01985 22.7507 6.45835 22.7826 6.82048 22.5925L9.62898 21.1167L12.4371 22.5925C12.8013 22.7839 13.2394 22.7495 13.5683 22.5103C13.899 22.2703 14.0647 21.8628 13.9955 21.46L13.4592 18.3338L15.731 16.1187C16.0239 15.8333 16.1288 15.4066 16.0025 15.0176ZM11.555 17.19C11.302 17.4367 11.1866 17.7921 11.2462 18.1404L11.5101 19.6779L10.1287 18.9524C9.81612 18.7879 9.44225 18.7879 9.12963 18.9524L7.74699 19.6783L8.01093 18.1404C8.07094 17.7921 7.95512 17.4367 7.7021 17.19L6.58424 16.0998L8.12927 15.8757C8.47881 15.825 8.78135 15.6051 8.93787 15.2883L9.62856 13.8888L10.3188 15.2878C10.4753 15.6051 10.7779 15.825 11.1278 15.8757L12.6725 16.0998L11.555 17.19Z" fill="#F29704"/>
<path d="M32.6755 42.9457C32.1795 42.6197 31.5135 42.7577 31.1879 43.2537C30.8619 43.7493 30.9999 44.4152 31.4959 44.7413C32.4892 45.3938 33.2831 46.3035 33.7916 47.3718C34.0459 47.9069 34.6863 48.1355 35.223 47.88C35.7588 47.6253 35.9862 46.9841 35.7315 46.4487C35.0543 45.0254 33.9973 43.8139 32.6755 42.9457Z" fill="#F29704"/>
</svg>
