<svg width="35" height="35" viewBox="0 0 35 35" fill="none" xmlns="http://www.w3.org/2000/svg">
<g clip-path="url(#clip0)">
<path d="M27.2373 34.9913C25.8169 34.9913 24.1719 34.5421 22.2819 33.6452C20.1731 32.6448 19.1567 32.6798 18.4844 32.7119C17.9433 32.7279 17.379 32.7542 16.8219 32.1971C16.6265 32.0017 15.7383 30.9371 17.484 29.1915C18.3546 28.3208 19.549 28.07 20.5858 28.0554L14.5396 22.0092C14.1386 21.6096 13.9169 21.0744 13.9183 20.5071C13.9198 19.9398 14.1415 19.4075 14.544 19.0065C14.9465 18.6054 15.4788 18.3823 16.0461 18.3808H16.049C16.6148 18.3808 17.1471 18.601 17.5481 19.0035L20.0594 21.5163C20.16 21.315 20.2942 21.1298 20.4575 20.9679C21.0336 20.3904 21.859 20.2125 22.5896 20.44C22.6917 20.1513 22.8594 19.8785 23.0898 19.6481C23.8817 18.8548 25.1475 18.8198 25.9788 19.5388C26.0779 19.3375 26.2121 19.1508 26.3783 18.9846C27.2081 18.1548 28.5542 18.1533 29.3825 18.9802L33.32 22.9177C35.7919 25.3881 35.5163 28.9698 32.6477 31.8398C32.6419 31.8456 32.6361 31.8515 32.6288 31.8588L30.9998 33.4863C29.9848 34.4896 28.7365 34.9913 27.2373 34.9913ZM18.8796 31.2448C19.6758 31.2448 20.8994 31.376 22.9075 32.3269C27.2606 34.3933 29.0252 33.39 29.976 32.4523L31.6181 30.8102C31.6225 30.8044 31.6283 30.8 31.6327 30.7956C33.371 29.0369 34.5625 26.2208 32.3021 23.9604L28.3529 20.0113C28.0948 19.7531 27.6719 19.756 27.4108 20.0156C27.1513 20.2752 27.1483 20.6967 27.405 20.9563L27.4065 20.9577L28.3908 21.9421C28.5338 22.085 28.6038 22.2717 28.6038 22.4583C28.6038 22.645 28.5323 22.8317 28.3908 22.9746C28.1065 23.259 27.6442 23.259 27.3598 22.9746L25.0629 20.6777C24.8048 20.4196 24.3819 20.421 24.1208 20.6821C23.8598 20.9431 23.8583 21.3646 24.1179 21.6242L25.7586 23.2648C25.9015 23.4077 25.9715 23.5944 25.9715 23.781C25.9715 23.9677 25.9 24.1544 25.7586 24.2973C25.4742 24.5817 25.0119 24.5817 24.7275 24.2973L22.4306 22.0004C22.1725 21.7423 21.751 21.7452 21.4885 22.0048C21.3617 22.1317 21.2917 22.3008 21.2917 22.4788C21.2917 22.6552 21.3602 22.8215 21.4842 22.9454L23.1248 24.586C23.2677 24.729 23.3377 24.9156 23.3377 25.1023C23.3377 25.289 23.2663 25.4756 23.1248 25.6185C22.8404 25.9029 22.3781 25.9029 22.0938 25.6185L16.5156 20.0419C16.3902 19.9165 16.224 19.8465 16.0475 19.8465C15.8696 19.8479 15.7019 19.9179 15.575 20.0448C15.4481 20.1717 15.3781 20.3394 15.3767 20.5173C15.3767 20.6938 15.4452 20.86 15.5706 20.9854L23.1175 28.5323C23.3538 28.7671 23.399 29.1331 23.2283 29.419C23.0577 29.7048 22.7121 29.839 22.3956 29.7471C22.3679 29.7398 19.7561 28.9902 18.5136 30.2298C17.9492 30.7956 17.8661 31.1427 17.8806 31.22C17.9419 31.2623 17.9565 31.2783 18.4261 31.2594C18.5617 31.2506 18.7119 31.2448 18.8796 31.2448ZM26.8975 19.5008H26.9121H26.8975Z" fill="#4B4B4B"/>
<path d="M26.9792 11.6667H5.10417C2.28958 11.6667 0 9.37712 0 6.56254C0 3.74796 2.28958 1.45837 5.10417 1.45837H26.9792C29.7938 1.45837 32.0833 3.74796 32.0833 6.56254C32.0833 9.37712 29.7938 11.6667 26.9792 11.6667ZM5.10417 2.91671C3.09458 2.91671 1.45833 4.5515 1.45833 6.56254C1.45833 8.57358 3.09458 10.2084 5.10417 10.2084H26.9792C28.9888 10.2084 30.625 8.57358 30.625 6.56254C30.625 4.5515 28.9888 2.91671 26.9792 2.91671H5.10417Z" fill="#B50A27"/>
<path d="M6.5625 8.75C5.35646 8.75 4.375 7.76854 4.375 6.5625C4.375 5.35646 5.35646 4.375 6.5625 4.375C7.76854 4.375 8.75 5.35646 8.75 6.5625C8.75 7.76854 7.76854 8.75 6.5625 8.75ZM6.5625 5.83333C6.16 5.83333 5.83333 6.16146 5.83333 6.5625C5.83333 6.96354 6.16 7.29167 6.5625 7.29167C6.965 7.29167 7.29167 6.96354 7.29167 6.5625C7.29167 6.16146 6.965 5.83333 6.5625 5.83333Z" fill="#B50A27"/>
<path d="M13.8542 8.75C12.6481 8.75 11.6667 7.76854 11.6667 6.5625C11.6667 5.35646 12.6481 4.375 13.8542 4.375C15.0602 4.375 16.0417 5.35646 16.0417 6.5625C16.0417 7.76854 15.0602 8.75 13.8542 8.75ZM13.8542 5.83333C13.4517 5.83333 13.125 6.16146 13.125 6.5625C13.125 6.96354 13.4517 7.29167 13.8542 7.29167C14.2567 7.29167 14.5834 6.96354 14.5834 6.5625C14.5834 6.16146 14.2567 5.83333 13.8542 5.83333Z" fill="#B50A27"/>
<path d="M10.9375 20.4167H5.10417C2.28958 20.4167 0 18.1271 0 15.3125C0 13.9505 0.530833 12.67 1.49625 11.7046C2.46167 10.7392 3.74354 10.2084 5.10417 10.2084H26.9792C29.7938 10.2084 32.0833 12.498 32.0833 15.3125C32.0833 15.715 31.7567 16.0417 31.3542 16.0417C30.9517 16.0417 30.625 15.715 30.625 15.3125C30.625 13.3015 28.9888 11.6667 26.9792 11.6667H5.10417C4.13292 11.6667 3.21854 12.0473 2.52729 12.7357C1.83604 13.424 1.45833 14.3413 1.45833 15.3125C1.45833 17.3236 3.09458 18.9584 5.10417 18.9584H10.9375C11.34 18.9584 11.6667 19.285 11.6667 19.6875C11.6667 20.09 11.34 20.4167 10.9375 20.4167Z" fill="#B50A27"/>
<path d="M6.5625 17.5C5.35646 17.5 4.375 16.5185 4.375 15.3125C4.375 14.1065 5.35646 13.125 6.5625 13.125C7.76854 13.125 8.75 14.1065 8.75 15.3125C8.75 16.5185 7.76854 17.5 6.5625 17.5ZM6.5625 14.5833C6.16 14.5833 5.83333 14.9115 5.83333 15.3125C5.83333 15.7135 6.16 16.0417 6.5625 16.0417C6.965 16.0417 7.29167 15.7135 7.29167 15.3125C7.29167 14.9115 6.965 14.5833 6.5625 14.5833Z" fill="#B50A27"/>
<path d="M13.8542 17.5C12.6481 17.5 11.6667 16.5185 11.6667 15.3125C11.6667 14.1065 12.6481 13.125 13.8542 13.125C15.0602 13.125 16.0417 14.1065 16.0417 15.3125C16.0417 16.5185 15.0602 17.5 13.8542 17.5ZM13.8542 14.5833C13.4517 14.5833 13.125 14.9115 13.125 15.3125C13.125 15.7135 13.4517 16.0417 13.8542 16.0417C14.2567 16.0417 14.5834 15.7135 14.5834 15.3125C14.5834 14.9115 14.2567 14.5833 13.8542 14.5833Z" fill="#B50A27"/>
<path d="M13.8542 29.1666H5.10417C2.28958 29.1666 0 26.8771 0 24.0625C0 22.7004 0.530833 21.42 1.49625 20.4546C2.46167 19.4891 3.74354 18.9583 5.10417 18.9583H10.9375C11.34 18.9583 11.6667 19.285 11.6667 19.6875C11.6667 20.09 11.34 20.4166 10.9375 20.4166H5.10417C4.13292 20.4166 3.21854 20.7973 2.52729 21.4856C1.83604 22.1739 1.45833 23.0912 1.45833 24.0625C1.45833 26.0735 3.09458 27.7083 5.10417 27.7083H13.8542C14.2567 27.7083 14.5833 28.035 14.5833 28.4375C14.5833 28.84 14.2567 29.1666 13.8542 29.1666Z" fill="#B50A27"/>
<path d="M6.5625 26.25C5.35646 26.25 4.375 25.2685 4.375 24.0625C4.375 22.8565 5.35646 21.875 6.5625 21.875C7.76854 21.875 8.75 22.8565 8.75 24.0625C8.75 25.2685 7.76854 26.25 6.5625 26.25ZM6.5625 23.3333C6.16 23.3333 5.83333 23.6615 5.83333 24.0625C5.83333 24.4635 6.16 24.7917 6.5625 24.7917C6.965 24.7917 7.29167 24.4635 7.29167 24.0625C7.29167 23.6615 6.965 23.3333 6.5625 23.3333Z" fill="#B50A27"/>
</g>
<defs>
<clipPath id="clip0">
<rect width="35" height="35" fill="white"/>
</clipPath>
</defs>
</svg>
