<svg width="468" height="380" viewBox="0 0 468 380" fill="none" xmlns="http://www.w3.org/2000/svg">
<g clip-path="url(#clip0)">
<path d="M0 182.328C0 118.897 80.8139 -16.6535 195.749 1.68693C278.348 14.868 244.038 106.426 397.23 140.532C516.522 167.094 482.323 336.984 314.797 346.204C128.959 356.423 0 301.247 0 182.328Z" fill="#F3F5F4"/>
<path d="M397.174 225.577C343.908 269.281 379.792 344.285 400.788 337.35C419.534 331.159 374.205 232.767 307.237 240.533C196.98 253.326 165.918 304.342 90.7909 284.393C15.1318 264.299 0.443437 180.231 73.8854 132.244C147.072 84.4346 30.6738 2.61852 21.5171 29.014C16.2958 44.0702 74.0739 81.0173 115.301 45.8677C156.528 10.718 211.125 6.21338 245.413 70.1662C279.7 134.119 349.672 96.251 394.358 87.4525C439.044 78.654 511.655 131.656 397.174 225.577Z" stroke="#70927F" stroke-width="0.25" stroke-miterlimit="10"/>
<path d="M193.421 321.683H131.353V330.804H193.421V321.683Z" fill="#86593E"/>
<path d="M217.133 375.562H209.407L173.002 274.074H180.728L217.133 375.562Z" fill="#B58E67"/>
<path d="M154.799 375.562H162.526L171.627 274.074H163.9L154.799 375.562Z" fill="#B58E67"/>
<path d="M109.293 375.562H117.03L153.424 274.074H145.698L109.293 375.562Z" fill="#B58E67"/>
<path d="M183.245 202.266H119.081C117.718 202.266 116.609 203.375 116.609 204.74V271.034C116.609 273.209 118.372 274.973 120.545 274.973H189.253V208.279C189.253 204.962 186.57 202.266 183.245 202.266Z" fill="#FFB84F"/>
<path d="M209.129 284.659H148.225V274.973H209.129C211.801 274.973 213.963 277.136 213.963 279.81C213.974 282.495 211.801 284.659 209.129 284.659Z" fill="#FFB84F"/>
<path d="M121.831 264.576V206.371C121.831 204.107 120.001 202.277 117.74 202.277C115.478 202.277 113.649 204.107 113.649 206.371V265.342C113.649 276.016 122.296 284.659 132.949 284.659H147.128C149.799 284.659 151.961 282.495 151.961 279.821C151.961 277.147 149.799 274.984 147.128 274.984H132.229C126.486 274.984 121.831 270.324 121.831 264.576Z" fill="#FFD788"/>
<path d="M187.524 274.074H154.888C139.623 274.074 128.77 259.195 133.415 244.638L138.803 227.763L186.67 221.971L187.524 274.074Z" fill="#B7C9B9"/>
<path d="M192.39 159.028L206.147 208.091H192.39L177.924 183.559L192.39 159.028Z" fill="#EFEBDF"/>
<path d="M205.516 205.838L240.801 212.673L239.848 215.613C239.848 215.613 208.531 223.08 192.39 208.091L205.516 205.838Z" fill="#5F281C"/>
<path d="M240.801 212.662L255.977 211.286L251.776 215.081C248.439 218.088 243.439 218.309 239.848 215.613L240.801 212.662Z" fill="#5F281C"/>
<path d="M255.988 211.286L258.749 217.488C258.749 217.488 254.747 218.398 254.813 212.34L255.988 211.286Z" fill="#5F281C"/>
<path d="M252.629 212.096L255.124 218.653C255.124 218.642 250.501 219.164 252.629 212.096Z" fill="#5F281C"/>
<path d="M255.988 211.286L261.143 215.369C261.143 215.369 257.662 217.211 255.622 212.085L255.988 211.286Z" fill="#5F281C"/>
<path d="M248.65 215.691H184.553V220.251H248.65V215.691Z" fill="white"/>
<path d="M192.39 159.028L177.17 152.881H159.189L136.208 159.716L146.54 203.408L137.118 226.986H181.615L178.201 202.31L178.345 201.877C179.165 199.392 180.994 197.417 183.333 196.23C187.313 194.222 189.619 191.526 189.94 188.652C190.084 187.376 189.974 185.911 189.685 184.358C188.388 177.357 188.743 170.145 190.96 163.366L192.39 159.028Z" fill="white"/>
<path d="M184.143 197.572C186.626 196.319 188.832 193.6 189.519 190.349C189.519 190.349 184.065 195.254 165.142 193.489C143.314 191.459 156.927 207.602 149.134 226.986H181.626L178.212 202.31L178.356 201.877C179.176 199.403 181.815 198.749 184.143 197.572Z" fill="#EFEBDF"/>
<path d="M174.398 164.919L159.189 152.881L167.248 136.56H180.917L174.398 164.919Z" fill="#B14330"/>
<path d="M177.591 151.028L170.153 141.741L180.917 136.56L177.591 151.028Z" fill="#5F281C"/>
<path d="M166.483 103.052C166.483 103.052 170.053 100.112 174.52 100.112C178.422 100.112 188.433 104.228 192.157 113.648C195.882 123.057 197.29 131.023 193.565 141.697L177.125 136.571L166.483 103.052Z" fill="#422E2D"/>
<path d="M191.858 126.752C192.612 135.24 189.818 145.636 181.338 146.379C172.857 147.122 160.209 137.037 159.466 128.56C158.712 120.072 157.981 105.981 169.476 104.961C186.182 103.474 191.104 118.264 191.858 126.752Z" fill="#B14330"/>
<path d="M185.162 119.917C185.162 119.917 187.524 118.685 189.43 120.339" stroke="#422E2D" stroke-miterlimit="10"/>
<path d="M158.391 127.229C158.391 127.229 178.334 127.007 182.735 109.576C182.735 109.576 185.772 110.098 189.951 114.802C189.951 114.802 187.945 104.506 171.328 104.506C154.378 104.495 158.391 127.229 158.391 127.229Z" fill="#422E2D"/>
<path d="M182.424 108.267C182.424 108.267 185.706 121.837 164.432 126.363" stroke="#422E2D" stroke-miterlimit="10"/>
<path d="M166.483 124.067C166.483 124.067 163.202 134.441 168.146 144.293C168.146 144.293 151.939 146.412 141.252 134.441C140.986 123.634 146.385 113.138 153.169 106.159C158.845 100.323 174.964 98.4144 179.054 109.565C179.054 109.576 167.947 109.243 166.483 124.067Z" fill="#422E2D"/>
<path d="M195.151 142.418C195.151 142.418 202.711 121.248 186.204 107.058" stroke="#422E2D" stroke-miterlimit="10"/>
<path d="M139.59 132.876C139.59 132.876 141.241 100.112 169.343 102.52" stroke="#422E2D" stroke-miterlimit="10"/>
<path d="M186.526 134.441C186.526 134.441 182.58 134.829 176.726 134.441C176.726 134.441 179.708 138.102 184.12 137.725C185.129 137.647 186.526 134.441 186.526 134.441Z" fill="white"/>
<path d="M176.726 128.56C177.388 128.56 177.924 127.592 177.924 126.397C177.924 125.202 177.388 124.233 176.726 124.233C176.065 124.233 175.529 125.202 175.529 126.397C175.529 127.592 176.065 128.56 176.726 128.56Z" fill="#422E2D"/>
<path d="M187.391 127.229C188.052 127.229 188.588 126.26 188.588 125.065C188.588 123.87 188.052 122.902 187.391 122.902C186.729 122.902 186.193 123.87 186.193 125.065C186.193 126.26 186.729 127.229 187.391 127.229Z" fill="#422E2D"/>
<path d="M183.622 126.397C183.622 126.397 184.531 130.014 188.787 129.736C188.787 129.736 183.4 136.637 183.622 126.397Z" fill="#9A2532"/>
<path d="M164.181 136.889C166.729 135.925 167.789 132.48 166.548 129.196C165.307 125.912 162.236 124.031 159.687 124.995C157.139 125.96 156.079 129.404 157.319 132.689C158.56 135.973 161.632 137.854 164.181 136.889Z" fill="#B14330"/>
<path d="M161.417 113.471H159.012V126.352H161.417V113.471Z" fill="#709480"/>
<path d="M159.81 113.471H157.404V126.352H159.81V113.471Z" fill="#B4C6B6"/>
<path d="M162.781 116.378V110.142C162.781 107.479 164.355 104.828 166.638 103.452C167.836 102.731 171.206 100.623 171.206 100.623C171.206 100.623 165.353 100.623 162.747 101.632L162.06 101.899C159.311 102.953 157.493 105.604 157.493 108.556V116.389H162.781V116.378Z" fill="#709480"/>
<path d="M161.184 116.378V110.142C161.184 107.479 162.67 105.038 165.042 103.807L171.217 100.623L169.332 100.467C166.55 100.234 163.756 100.634 161.151 101.632L160.464 101.898C157.715 102.952 155.897 105.604 155.897 108.556V116.389H161.184V116.378Z" fill="#B4C6B6"/>
<path d="M159.677 136.138C163.436 136.138 166.483 133.088 166.483 129.326C166.483 125.563 163.436 122.513 159.677 122.513C155.918 122.513 152.87 125.563 152.87 129.326C152.87 133.088 155.918 136.138 159.677 136.138Z" fill="#B4C6B6"/>
<path d="M158.335 136.138C162.094 136.138 165.142 133.088 165.142 129.326C165.142 125.563 162.094 122.513 158.335 122.513C154.576 122.513 151.529 125.563 151.529 129.326C151.529 133.088 154.576 136.138 158.335 136.138Z" fill="#F1EADF"/>
<path d="M158.335 133.598C160.692 133.598 162.603 131.685 162.603 129.326C162.603 126.967 160.692 125.054 158.335 125.054C155.978 125.054 154.067 126.967 154.067 129.326C154.067 131.685 155.978 133.598 158.335 133.598Z" fill="#B4C6B6"/>
<path d="M158.335 131.268C159.407 131.268 160.275 130.398 160.275 129.326C160.275 128.254 159.407 127.384 158.335 127.384C157.264 127.384 156.395 128.254 156.395 129.326C156.395 130.398 157.264 131.268 158.335 131.268Z" fill="#F1EADF"/>
<path d="M182.546 142.962L166.35 141.098L157.892 129.659L158.79 128.993L166.949 140.055L182.679 141.863L182.546 142.962Z" fill="#F1EADF"/>
<path d="M182.901 143.528H178.921C178.522 143.528 178.212 143.206 178.212 142.818V141.253C178.212 140.854 178.533 140.543 178.921 140.543H182.901C183.3 140.543 183.61 140.865 183.61 141.253V142.818C183.622 143.206 183.3 143.528 182.901 143.528Z" fill="#B4C6B6"/>
<path d="M147.704 186.033L144.6 195.187L142.76 188.863L147.704 186.033Z" fill="#EFEBDF"/>
<path d="M136.22 159.716L116.609 208.679H132.805L147.704 186.033L136.22 159.716Z" fill="white"/>
<path d="M222.587 220.251H208.542C208.542 216.368 211.69 213.217 215.57 213.217C219.45 213.217 222.587 216.368 222.587 220.251Z" fill="#B7C9B9"/>
<path d="M135.122 205.162L203.31 212.673L202.356 215.613C202.356 215.613 149.145 233.809 116.62 208.679L135.122 205.162Z" fill="#B1432D"/>
<path d="M203.31 212.662L218.486 211.286L214.284 215.081C210.948 218.088 205.948 218.309 202.356 215.613L203.31 212.662Z" fill="#B1432D"/>
<path d="M218.486 211.286L221.246 217.488C221.246 217.488 217.244 218.398 217.311 212.34L218.486 211.286Z" fill="#B1432D"/>
<path d="M215.127 212.096L217.621 218.653C217.632 218.642 213.009 219.164 215.127 212.096Z" fill="#B1432D"/>
<path d="M218.486 211.286L223.641 215.369C223.641 215.369 220.16 217.211 218.12 212.085L218.486 211.286Z" fill="#B1432D"/>
<path d="M281.651 200.357H219.195C215.282 200.357 212.178 197.073 212.4 193.157L214.839 152.559C215.038 148.953 218.02 146.124 221.634 146.124H284.09C288.003 146.124 291.107 149.408 290.886 153.325L288.447 193.922C288.247 197.528 285.265 200.357 281.651 200.357Z" fill="#70927F"/>
<path d="M285.565 200.357H223.108C219.195 200.357 216.091 197.073 216.313 193.157L218.752 152.559C218.951 148.953 221.933 146.124 225.547 146.124H288.003C291.917 146.124 295.021 149.408 294.799 153.325L292.36 193.922C292.16 197.528 289.178 200.357 285.565 200.357Z" fill="#A5BBAA"/>
<path d="M263.881 185.013H244.393L252.574 214.959C252.84 215.946 252.108 216.911 251.088 216.911H232.077V220.329H254.015H267.029C270.289 220.329 272.661 217.222 271.807 214.071L263.881 185.013ZM262.385 209.566C259.946 209.566 257.973 207.591 257.973 205.15C257.973 202.71 259.946 200.735 262.385 200.735C264.823 200.735 266.797 202.71 266.797 205.15C266.786 207.591 264.812 209.566 262.385 209.566Z" fill="#70927F"/>
<path d="M260.367 173.263H249.204C246.543 173.263 244.382 175.426 244.382 178.089V185.013H265.178V178.089C265.189 175.426 263.028 173.263 260.367 173.263Z" fill="#70927F"/>
<path d="M263.571 173.263H252.408C249.747 173.263 247.585 175.426 247.585 178.089V185.013H268.382V178.089C268.393 175.426 266.231 173.263 263.571 173.263Z" fill="#E3E3E3"/>
<path d="M276.286 213.794L268.448 185.002H247.585L248.76 189.318H248.749L256.11 216.357C256.631 218.287 255.257 220.173 253.294 220.318H253.993H257.197H266.93H271.297C274.712 220.318 277.184 217.089 276.286 213.794ZM263.981 209.566C261.542 209.566 259.569 207.591 259.569 205.15C259.569 202.71 261.542 200.735 263.981 200.735C266.42 200.735 268.393 202.71 268.393 205.15C268.393 207.591 266.42 209.566 263.981 209.566Z" fill="#E3E3E3"/>
<path d="M263.571 173.263H252.408C249.747 173.263 247.585 175.426 247.585 178.089V185.013H268.382V178.089C268.393 175.426 266.231 173.263 263.571 173.263Z" fill="#A5BBAA"/>
<path d="M276.286 213.794L268.448 185.002H247.585L248.76 189.318H248.749L256.11 216.357C256.631 218.287 255.257 220.173 253.294 220.318H253.993H257.197H266.93H271.297C274.712 220.318 277.184 217.089 276.286 213.794ZM263.981 209.566C261.542 209.566 259.569 207.591 259.569 205.15C259.569 202.71 261.542 200.735 263.981 200.735C266.42 200.735 268.393 202.71 268.393 205.15C268.393 207.591 266.42 209.566 263.981 209.566Z" fill="#A5BBAA"/>
<path d="M276.286 213.794L268.448 185.002H268.382V178.078C268.382 175.415 266.22 173.252 263.56 173.252H252.396" stroke="#F3F5F4" stroke-miterlimit="10" stroke-linecap="round" stroke-linejoin="round"/>
<path d="M268.46 185.013L276.297 213.805C277.195 217.089 274.723 220.329 271.32 220.329" stroke="#F3F5F4" stroke-miterlimit="10" stroke-linecap="round" stroke-linejoin="round"/>
<path d="M224.616 182.328C224.605 182.328 224.594 182.328 224.583 182.328C224.317 182.316 224.106 182.083 224.117 181.806L225.459 157.807C225.47 157.541 225.702 157.319 225.98 157.341C226.246 157.352 226.456 157.585 226.445 157.863L225.104 181.862C225.093 182.128 224.871 182.328 224.616 182.328Z" fill="#D1CEC7"/>
<path d="M227.809 182.328C227.798 182.328 227.786 182.328 227.775 182.328C227.509 182.316 227.299 182.083 227.31 181.806L228.651 157.807C228.662 157.541 228.895 157.319 229.172 157.341C229.438 157.352 229.649 157.585 229.638 157.863L228.296 181.862C228.285 182.128 228.075 182.328 227.809 182.328Z" fill="#D1CEC7"/>
<path d="M231.012 182.328C231.001 182.328 230.99 182.328 230.979 182.328C230.713 182.316 230.502 182.083 230.514 181.806L231.855 157.807C231.866 157.541 232.088 157.319 232.376 157.341C232.642 157.352 232.853 157.585 232.842 157.863L231.5 181.862C231.478 182.128 231.267 182.328 231.012 182.328Z" fill="#D1CEC7"/>
<path d="M234.205 182.328C234.194 182.328 234.183 182.328 234.172 182.328C233.906 182.316 233.695 182.083 233.706 181.806L235.048 157.807C235.059 157.541 235.291 157.319 235.569 157.341C235.835 157.352 236.045 157.585 236.034 157.863L234.693 181.862C234.682 182.128 234.46 182.328 234.205 182.328Z" fill="#D1CEC7"/>
<path d="M237.398 182.328C237.387 182.328 237.376 182.328 237.364 182.328C237.098 182.316 236.888 182.083 236.899 181.806L238.24 157.807C238.251 157.541 238.484 157.319 238.761 157.341C239.027 157.352 239.238 157.585 239.227 157.863L237.885 181.862C237.874 182.128 237.653 182.328 237.398 182.328Z" fill="#D1CEC7"/>
<path d="M274.479 182.328C274.468 182.328 274.457 182.328 274.446 182.328C274.18 182.316 273.969 182.083 273.98 181.806L275.321 157.807C275.333 157.541 275.565 157.319 275.843 157.341C276.109 157.352 276.319 157.585 276.308 157.863L274.967 181.862C274.956 182.128 274.734 182.328 274.479 182.328Z" fill="#D1CEC7"/>
<path d="M277.672 182.328C277.661 182.328 277.649 182.328 277.638 182.328C277.372 182.316 277.162 182.083 277.173 181.806L278.514 157.807C278.525 157.541 278.758 157.319 279.035 157.341C279.301 157.352 279.512 157.585 279.501 157.863L278.159 181.862C278.148 182.128 277.927 182.328 277.672 182.328Z" fill="#D1CEC7"/>
<path d="M280.864 182.328C280.853 182.328 280.842 182.328 280.831 182.328C280.565 182.316 280.354 182.083 280.365 181.806L281.707 157.807C281.718 157.541 281.951 157.319 282.228 157.341C282.494 157.352 282.704 157.585 282.693 157.863L281.352 181.862C281.341 182.128 281.13 182.328 280.864 182.328Z" fill="#D1CEC7"/>
<path d="M284.068 182.328C284.057 182.328 284.046 182.328 284.035 182.328C283.769 182.316 283.558 182.083 283.569 181.806L284.911 157.807C284.922 157.541 285.154 157.319 285.432 157.341C285.698 157.352 285.908 157.585 285.897 157.863L284.556 181.862C284.545 182.128 284.323 182.328 284.068 182.328Z" fill="#D1CEC7"/>
<path d="M287.261 182.328C287.25 182.328 287.239 182.328 287.227 182.328C286.961 182.316 286.751 182.083 286.762 181.806L288.103 157.807C288.114 157.541 288.358 157.319 288.624 157.341C288.89 157.352 289.101 157.585 289.09 157.863L287.748 181.862C287.737 182.128 287.516 182.328 287.261 182.328Z" fill="#D1CEC7"/>
<path d="M218.419 239.257H196.592L185.828 355.946H189.198C214.517 288.143 221.789 257.642 223.873 245.759C224.483 242.375 221.867 239.257 218.419 239.257Z" fill="#B7C9B9"/>
<path d="M186.238 351.507C186.238 351.507 210.415 289.141 204.185 247.002C203.786 244.317 196.592 239.257 196.592 239.257L186.238 351.507Z" fill="#A5BBAA"/>
<path d="M197.29 239.257H178.755L135.244 351.507L137.971 355.957C169.332 307.715 197.966 264.898 203.897 248.755C205.582 244.15 202.19 239.257 197.29 239.257Z" fill="#B7C9B9"/>
<path d="M171.627 258.74C161.029 261.337 149.877 257.653 147.704 251.007C145.232 243.473 151.529 239.268 151.529 239.268L146.884 226.786L138.791 227.763L133.404 244.638C128.759 259.195 139.612 274.074 154.877 274.074H165.264L135.244 351.507C180.274 279.788 171.627 258.74 171.627 258.74Z" fill="#A5BBAA"/>
<path d="M138.282 229.382H186.737L186.947 239.257H135.122L138.282 229.382Z" fill="#70927F"/>
<path d="M189.209 355.946V369.859L197.9 370.802H186.548L185.828 362.292L181.826 357.033L186.238 351.507L189.209 355.946Z" fill="#B1432D"/>
<path d="M197.9 370.802L196.547 375.562H187.568C186.027 375.562 184.774 374.308 184.774 372.766V363.39L180.185 357.421L186.249 351.507L186.548 370.802H197.9Z" fill="#E8DFCF"/>
<path d="M180.185 357.421V375.562L183.333 359.429L180.185 357.421Z" fill="#E8DFCF"/>
<path d="M138.204 355.946V369.859L146.906 370.802H135.543L134.834 362.292L130.821 357.033L135.244 351.507L138.204 355.946Z" fill="#B1432D"/>
<path d="M146.906 370.802L145.554 375.562H136.574C135.033 375.562 133.781 374.308 133.781 372.766V363.39L129.191 357.421L135.255 351.507L135.554 370.802H146.906Z" fill="#E8DFCF"/>
<path d="M129.18 357.421V375.562L132.34 359.429L129.18 357.421Z" fill="#E8DFCF"/>
<path d="M127.074 375.562H98.6949C94.2053 375.562 90.5581 371.912 90.5581 367.418V229.382H135.211V367.418C135.211 371.923 131.575 375.562 127.074 375.562Z" fill="#E8DFCF"/>
<path d="M120.7 375.562H92.3207C87.831 375.562 84.1839 371.912 84.1839 367.418V229.382H128.837V367.418C128.837 371.923 125.201 375.562 120.7 375.562Z" fill="#A5BBAA"/>
<path d="M300.042 375.562H271.663C267.174 375.562 263.526 371.912 263.526 367.418V229.382H308.179V367.418C308.168 371.923 304.532 375.562 300.042 375.562Z" fill="#E8DFCF"/>
<path d="M293.668 375.562H265.289C260.799 375.562 257.152 371.912 257.152 367.418V229.382H301.805V367.418C301.805 371.923 298.158 375.562 293.668 375.562Z" fill="#A5BBAA"/>
<path d="M70.8923 234.32H297.393C300.242 234.32 302.548 232.012 302.548 229.16V225.41C302.548 222.559 300.242 220.251 297.393 220.251H70.8923C68.0433 220.251 65.7375 222.559 65.7375 225.41V229.16C65.7375 232.012 68.0433 234.32 70.8923 234.32Z" fill="#A5BBAA"/>
<path d="M173.489 234.32H331.536C334.385 234.32 336.691 232.012 336.691 229.16V225.41C336.691 222.559 334.385 220.251 331.536 220.251H173.489C170.64 220.251 168.335 222.559 168.335 225.41V229.16C168.323 232.012 170.64 234.32 173.489 234.32Z" fill="#E8DFCF"/>
<path d="M128.848 234.32H84.195V242.552H128.848V234.32Z" fill="#70927F"/>
<path d="M301.805 234.32H257.152V242.552H301.805V234.32Z" fill="#70927F"/>
<path d="M316.682 84.8229L305.286 75.6915H233.119C228.308 75.6915 224.417 71.786 224.417 66.9818V55.0323C224.417 50.2169 228.319 46.3225 233.119 46.3225H307.98C312.791 46.3225 316.682 50.228 316.682 55.0323V84.8229Z" fill="white" stroke="#70927F" stroke-width="0.25" stroke-miterlimit="10"/>
<path d="M234.704 53.5898H285.243" stroke="#70927F" stroke-width="0.25" stroke-miterlimit="10"/>
<path d="M234.704 60.3025H285.243" stroke="#70927F" stroke-width="0.25" stroke-miterlimit="10"/>
<path d="M234.704 67.0261H285.243" stroke="#70927F" stroke-width="0.25" stroke-miterlimit="10"/>
<path d="M204.629 125.675L216.025 116.544H288.192C293.003 116.544 296.894 112.639 296.894 107.834V95.8848C296.894 91.0695 292.992 87.175 288.192 87.175H213.331C208.52 87.175 204.629 91.0806 204.629 95.8848V125.675Z" fill="white" stroke="#70927F" stroke-width="0.25" stroke-miterlimit="10"/>
<path d="M286.596 94.4313H236.056" stroke="#70927F" stroke-width="0.25" stroke-miterlimit="10"/>
<path d="M286.596 101.155H236.056" stroke="#70927F" stroke-width="0.25" stroke-miterlimit="10"/>
<path d="M286.596 107.879H236.056" stroke="#70927F" stroke-width="0.25" stroke-miterlimit="10"/>
<path d="M76.3242 274.396C69.8946 274.396 64.6733 279.611 64.6733 286.057V361.36C64.6733 363.047 66.0368 364.411 67.7218 364.411H84.9266C86.6117 364.411 87.9752 363.047 87.9752 361.36V286.057C87.9641 279.622 82.7539 274.396 76.3242 274.396Z" fill="#E8DFCF"/>
<path d="M86.6227 320.485H78.9515C75.781 320.485 73.2092 317.911 73.2092 314.738C73.2092 311.565 75.781 308.991 78.9515 308.991H86.6227C90.8907 308.991 94.3605 305.518 94.3605 301.246V293.202C94.3605 290.029 96.9323 287.455 100.103 287.455C103.273 287.455 105.845 290.029 105.845 293.202V301.246C105.845 311.853 97.2316 320.485 86.6227 320.485Z" fill="#E8DFCF"/>
<path d="M74.4618 335.63H66.4248C55.827 335.63 47.2024 326.998 47.2024 316.391V308.713C47.2024 305.54 49.7742 302.966 52.9447 302.966C56.1152 302.966 58.6871 305.54 58.6871 308.713V316.391C58.6871 320.663 62.1568 324.136 66.4248 324.136H74.4618C77.6323 324.136 80.2042 326.71 80.2042 329.883C80.2042 333.056 77.6323 335.63 74.4618 335.63Z" fill="#E8DFCF"/>
<path d="M70.6373 287.477H69.684V291.471H70.6373V287.477Z" fill="#F3F5F4"/>
<path d="M82.8426 281.486H81.8892V285.48H82.8426V281.486Z" fill="#F3F5F4"/>
<path d="M76.0471 304.719H75.0937V308.713H76.0471V304.719Z" fill="#F3F5F4"/>
<path d="M79.4393 292.614H78.4859V296.608H79.4393V292.614Z" fill="#F3F5F4"/>
<path d="M84.6606 326.821H83.7072V330.815H84.6606V326.821Z" fill="#F3F5F4"/>
<path d="M97.7083 291.205H96.7549V295.199H97.7083V291.205Z" fill="#F3F5F4"/>
<path d="M70.6373 317.401H69.684V321.395H70.6373V317.401Z" fill="#F3F5F4"/>
<path d="M71.635 334.476H70.6817V338.471H71.635V334.476Z" fill="#F3F5F4"/>
<path d="M80.6255 316.491H79.6721V320.485H80.6255V316.491Z" fill="#F3F5F4"/>
<path d="M51.5147 317.301H50.5613V321.295H51.5147V317.301Z" fill="#F3F5F4"/>
<path d="M56.1041 309.845H55.1508V313.839H56.1041V309.845Z" fill="#F3F5F4"/>
<path d="M58.2104 321.295H57.257V325.29H58.2104V321.295Z" fill="#F3F5F4"/>
<path d="M85.5031 301.246H84.5497V305.24H85.5031V301.246Z" fill="#F3F5F4"/>
<path d="M99.7037 306.716H98.7504V310.71H99.7037V306.716Z" fill="#F3F5F4"/>
<path d="M96.0566 342.287H56.991C55.9378 342.287 55.1175 343.219 55.2616 344.262L59.3079 374.586C59.718 377.681 62.3675 380 65.4825 380H88.2412C91.4117 380 94.0833 377.614 94.4381 374.452L97.797 344.229C97.9079 343.197 97.0986 342.287 96.0566 342.287Z" fill="#F3F5F4"/>
<path d="M95.979 360.572L96.6552 354.426H56.6252L57.4455 360.572H95.979Z" fill="#70927F"/>
<path d="M57.3679 195.731C62.7189 195.731 67.0567 191.389 67.0567 186.033C67.0567 180.678 62.7189 176.336 57.3679 176.336C52.0169 176.336 47.6791 180.678 47.6791 186.033C47.6791 191.389 52.0169 195.731 57.3679 195.731Z" fill="#F3F5F4" stroke="#70927F" stroke-width="0.25" stroke-miterlimit="10"/>
<path d="M359.705 218.376C365.056 218.376 369.394 214.034 369.394 208.679C369.394 203.323 365.056 198.982 359.705 198.982C354.354 198.982 350.016 203.323 350.016 208.679C350.016 214.034 354.354 218.376 359.705 218.376Z" fill="#F3F5F4" stroke="#70927F" stroke-width="0.25" stroke-miterlimit="10"/>
<path d="M348.63 275.073C351.306 275.073 353.475 272.902 353.475 270.224C353.475 267.546 351.306 265.375 348.63 265.375C345.955 265.375 343.786 267.546 343.786 270.224C343.786 272.902 345.955 275.073 348.63 275.073Z" fill="#F3F5F4" stroke="#70927F" stroke-width="0.25" stroke-miterlimit="10"/>
<path d="M156.351 75.6028L142.871 83.8243V67.3923L156.351 75.6028Z" fill="#F3F5F4" stroke="#70927F" stroke-width="0.25" stroke-miterlimit="10"/>
<path d="M415.998 265.375L402.506 273.586V257.154L415.998 265.375Z" fill="#F3F5F4" stroke="#70927F" stroke-width="0.25" stroke-miterlimit="10"/>
<path d="M430.797 235.407H366.8C362.886 235.407 359.716 232.234 359.716 228.317V215.647C359.716 211.73 362.886 208.557 366.8 208.557H430.797C434.71 208.557 437.88 211.73 437.88 215.647V228.317C437.88 232.223 434.71 235.407 430.797 235.407Z" fill="white" stroke="#70927F" stroke-width="0.25" stroke-miterlimit="10"/>
<path d="M424.068 215.258H373.529" stroke="#70927F" stroke-width="0.25" stroke-miterlimit="10"/>
<path d="M424.068 221.971H373.529" stroke="#70927F" stroke-width="0.25" stroke-miterlimit="10"/>
<path d="M424.068 228.695H373.529" stroke="#70927F" stroke-width="0.25" stroke-miterlimit="10"/>
<path d="M114.847 149.297H50.8496C46.9363 149.297 43.7659 146.124 43.7659 142.207V129.537C43.7659 125.62 46.9363 122.447 50.8496 122.447H114.847C118.76 122.447 121.93 125.62 121.93 129.537V142.207C121.93 146.124 118.76 149.297 114.847 149.297Z" fill="white" stroke="#70927F" stroke-width="0.25" stroke-miterlimit="10"/>
<path d="M108.118 129.148H57.5785" stroke="#70927F" stroke-width="0.25" stroke-miterlimit="10"/>
<path d="M108.118 135.872H57.5785" stroke="#70927F" stroke-width="0.25" stroke-miterlimit="10"/>
<path d="M108.118 142.596H57.5785" stroke="#70927F" stroke-width="0.25" stroke-miterlimit="10"/>
</g>
<defs>
<clipPath id="clip0">
<rect width="468" height="380" fill="white"/>
</clipPath>
</defs>
</svg>
