<svg width="24" height="24" viewBox="0 0 24 24" fill="none" xmlns="http://www.w3.org/2000/svg">
<path d="M15 9H20.5C21.163 9 21.7989 9.26339 22.2678 9.73223C22.7366 10.2011 23 10.837 23 11.5C23 12.163 22.7366 12.7989 22.2678 13.2678C21.7989 13.7366 21.163 14 20.5 14H16.48C16.3302 14.0001 16.1823 14.0338 16.0473 14.0987C15.9123 14.1637 15.7936 14.2581 15.7 14.375L12.3 18.625C12.2064 18.7419 12.0877 18.8363 11.9527 18.9013C11.8177 18.9662 11.6698 18.9999 11.52 19H9.476C9.31267 18.9999 9.15185 18.9598 9.0076 18.8832C8.86335 18.8066 8.74006 18.6958 8.64851 18.5605C8.55696 18.4253 8.49993 18.2697 8.48241 18.1073C8.46489 17.9449 8.48741 17.7807 8.548 17.629L9.45 15.371C9.51057 15.2194 9.5331 15.0553 9.51563 14.893C9.49816 14.7307 9.44122 14.5751 9.34978 14.4399C9.25834 14.3046 9.13518 14.1938 8.99107 14.1172C8.84695 14.0405 8.68625 14.0003 8.523 14H4.659C4.46333 14 4.27197 13.9426 4.10861 13.8348C3.94526 13.7271 3.8171 13.5738 3.74 13.394L1.597 8.394C1.53177 8.24183 1.50534 8.07584 1.52009 7.91093C1.53483 7.74602 1.5903 7.58736 1.68149 7.44917C1.77269 7.31099 1.89677 7.19761 2.0426 7.11921C2.18843 7.04082 2.35144 6.99985 2.517 7H4.382C4.56767 7.0001 4.74963 7.05188 4.90753 7.14955C5.06542 7.24722 5.19301 7.38692 5.276 7.553L5.724 8.447C5.80699 8.61308 5.93458 8.75278 6.09248 8.85045C6.25037 8.94812 6.43234 8.9999 6.618 9H10M15 9L12.3 5.4C12.2069 5.2758 12.0861 5.175 11.9472 5.10557C11.8084 5.03614 11.6552 5 11.5 5H9.618C9.44761 5.00009 9.28007 5.04372 9.13127 5.12674C8.98248 5.20977 8.85737 5.32944 8.76781 5.47439C8.67825 5.61935 8.62722 5.78479 8.61955 5.95501C8.61188 6.12522 8.64784 6.29458 8.724 6.447L10 9M15 9H10" stroke="#505457" stroke-width="1.25" stroke-linecap="round" stroke-linejoin="round"/>
</svg>
