<svg xmlns="http://www.w3.org/2000/svg" width="58.035" height="59.846" viewBox="0 0 58.035 59.846"><g transform="translate(-379.744 -86.017)"><g transform="translate(379.744 91.953)"><path d="M435.905,107.72l6.982,4.825.692,1.035c.259-.3.653-.9.653-.9-.051-.264-.7-3.55-.9-4.4-1.886-8.055-3.579-8.055-11.715-8.055s-9.83,0-11.716,8.055c-.25,1.07-.852,4.147-.9,4.4,0,0,.394.6.653.9l.737-1.189.374-.031a53.407,53.407,0,0,0,14.862-4.5Z" transform="translate(-402.599 -100.225)" fill="#b50a27"/><path d="M438.189,181.97c2.369.022,7.692-4.559,7.692-4.559v-1.429c-2.872,1.969-5.324,3.7-7.694,3.675h-.079c-2.407,0-4.882-1.769-7.806-3.816v1.428s5.4,4.7,7.806,4.7Z" transform="translate(-409.18 -144.25)" fill="#b50a27"/><path d="M435.98,191.876c-2.208-2.935-7.153-5.492-17.456-8.986v1.939c-.011,6.006-4.971,9.147-9.869,9.147h-.01c-4.9,0-9.854-3.155-9.854-9.167v-1.849c-10.164,3.458-15.05,6-17.252,8.922-.328.5-.907,1.36-1.794,10.38h58.035C436.892,193.242,436.313,192.384,435.98,191.876Z" transform="translate(-379.744 -148.353)" fill="#b50a27"/></g><path d="M441.647,106.262a4.614,4.614,0,0,0-1.016-3.043,4.535,4.535,0,0,1-1.009-2.477c-.565-10.321-5.695-14.725-17.153-14.725-13.567,0-16.669,5.886-17.153,14.724a4.359,4.359,0,0,1-1.05,2.474,4.2,4.2,0,0,0-.982,3.225c.311,5.5,2.236,6.874,2.818,7.164a1.16,1.16,0,0,0,1.124.065.721.721,0,0,0,.317-.567,8.033,8.033,0,0,1-1.413-4.077c-.253-2.889.445-5.055,1.848-5.89.2-.995.6-3.006.8-3.87,2.152-9.191,5-9.629,13.682-9.629s11.529.438,13.681,9.629c.163.7.592,2.832.8,3.87,1.4.836,2.1,3,1.85,5.891a6.728,6.728,0,0,1-2.717,5.365c-2.975,2.449-4.934,3.594-10.535,3.759a1.986,1.986,0,1,0,.435,1.655c6.034-.245,8.244-1.7,11.433-4.348a14.391,14.391,0,0,0,2.609-2.51c1.063-1.428,1.387-4.389,1.622-6.545Z" transform="translate(-13.698 0)" fill="#b50a27"/></g></svg>