<svg width="28" height="28" viewBox="0 0 28 28" fill="none" xmlns="http://www.w3.org/2000/svg">
<g clip-path="url(#clip0_8654_25930)">
<path d="M14 26.25C10.7511 26.25 7.63526 24.9594 5.33794 22.6621C3.04062 20.3647 1.75 17.2489 1.75 14C1.75 10.7511 3.04062 7.63526 5.33794 5.33794C7.63526 3.04062 10.7511 1.75 14 1.75C17.2489 1.75 20.3647 3.04062 22.6621 5.33794C24.9594 7.63526 26.25 10.7511 26.25 14C26.25 17.2489 24.9594 20.3647 22.6621 22.6621C20.3647 24.9594 17.2489 26.25 14 26.25ZM14 28C17.713 28 21.274 26.525 23.8995 23.8995C26.525 21.274 28 17.713 28 14C28 10.287 26.525 6.72601 23.8995 4.10051C21.274 1.475 17.713 0 14 0C10.287 0 6.72601 1.475 4.10051 4.10051C1.475 6.72601 0 10.287 0 14C0 17.713 1.475 21.274 4.10051 23.8995C6.72601 26.525 10.287 28 14 28Z" fill="#B50A27"/>
<path d="M9.1963 10.1255C9.1939 10.182 9.20309 10.2384 9.2233 10.2913C9.24351 10.3441 9.27431 10.3922 9.31382 10.4327C9.35332 10.4732 9.40069 10.5052 9.45301 10.5267C9.50532 10.5482 9.56149 10.5588 9.61804 10.5577H11.0618C11.3033 10.5577 11.4958 10.36 11.5273 10.1202C11.6848 8.97225 12.4723 8.13575 13.8758 8.13575C15.0763 8.13575 16.1753 8.736 16.1753 10.1797C16.1753 11.291 15.5208 11.802 14.4865 12.579C13.3088 13.4348 12.376 14.434 12.4425 16.0563L12.4478 16.436C12.4496 16.5508 12.4965 16.6603 12.5784 16.7408C12.6602 16.8214 12.7705 16.8665 12.8853 16.8665H14.3045C14.4206 16.8665 14.5319 16.8204 14.6139 16.7384C14.696 16.6563 14.742 16.545 14.742 16.429V16.2452C14.742 14.9888 15.2198 14.623 16.5095 13.6447C17.5753 12.8345 18.6865 11.935 18.6865 10.0468C18.6865 7.4025 16.4535 6.125 14.0088 6.125C11.7915 6.125 9.36254 7.1575 9.1963 10.1255ZM11.921 20.2107C11.921 21.1435 12.6648 21.833 13.6885 21.833C14.7543 21.833 15.4875 21.1435 15.4875 20.2107C15.4875 19.2448 14.7525 18.5658 13.6868 18.5658C12.6648 18.5658 11.921 19.2448 11.921 20.2107Z" fill="#B50A27"/>
</g>
<defs>
<clipPath id="clip0_8654_25930">
<rect width="28" height="28" fill="white"/>
</clipPath>
</defs>
</svg>
