<svg width="26" height="19" viewBox="0 0 26 19" fill="none" xmlns="http://www.w3.org/2000/svg">
<path d="M22.8655 1.8V9.66H3.13428V1.8C3.13428 1.3584 3.49268 1 3.93428 1H22.0655C22.5071 1 22.8655 1.3584 22.8655 1.8Z" stroke="#7F8A8E" stroke-miterlimit="10"/>
<path d="M12.236 6.94722V9.66002H4.96484V6.94722C4.96484 6.50562 5.32244 6.14722 5.76484 6.14722H11.436C11.8776 6.14722 12.236 6.50562 12.236 6.94722Z" stroke="#7F8A8E" stroke-miterlimit="10"/>
<path d="M21.0358 6.94722V9.66002H13.7646V6.94722C13.7646 6.50562 14.1222 6.14722 14.5646 6.14722H20.2358C20.6774 6.14722 21.0358 6.50562 21.0358 6.94722Z" stroke="#7F8A8E" stroke-miterlimit="10"/>
<path d="M24.2544 10.4599V14.0071C24.2544 14.1175 24.232 14.2223 24.1912 14.3175H1.80881C1.76801 14.2223 1.74561 14.1175 1.74561 14.0071V10.4599C1.74561 10.0183 2.10401 9.65991 2.54561 9.65991H23.4544C23.8968 9.65991 24.2544 10.0183 24.2544 10.4599Z" stroke="#7F8A8E" stroke-miterlimit="10"/>
<path d="M25 14.5576V15.6296C25 15.7624 24.8928 15.8696 24.76 15.8696H1.24C1.108 15.8696 1 15.7624 1 15.6296V14.5576C1 14.4248 1.108 14.3176 1.24 14.3176H24.76C24.8928 14.3176 25 14.4248 25 14.5576Z" stroke="#7F8A8E" stroke-miterlimit="10"/>
<path d="M3.6344 15.8695L3.1344 17.8119C3.1344 18.0327 2.9552 18.2119 2.7344 18.2119H2.14561C1.92481 18.2119 1.74561 18.0327 1.74561 17.8119V15.8695H3.6344Z" stroke="#7F8A8E" stroke-miterlimit="10"/>
<path d="M24.2542 15.8695V17.8119C24.2542 18.0327 24.075 18.2119 23.8542 18.2119H23.2654C23.0446 18.2119 22.8654 18.0327 22.8654 17.8119L22.3662 15.8695H24.2542Z" stroke="#7F8A8E" stroke-miterlimit="10"/>
</svg>
