<svg width="40" height="41" viewBox="0 0 40 41" fill="none" xmlns="http://www.w3.org/2000/svg">
<path fill-rule="evenodd" clip-rule="evenodd" d="M20 34.5C27.732 34.5 34 28.232 34 20.5C34 12.768 27.732 6.5 20 6.5C12.268 6.5 6 12.768 6 20.5C6 28.232 12.268 34.5 20 34.5ZM26.4874 18.2374C27.1709 17.554 27.1709 16.446 26.4874 15.7626C25.804 15.0791 24.696 15.0791 24.0126 15.7626L18.25 21.5251L15.9874 19.2626C15.304 18.5791 14.196 18.5791 13.5126 19.2626C12.8291 19.946 12.8291 21.054 13.5126 21.7374L17.0126 25.2374C17.696 25.9209 18.804 25.9209 19.4874 25.2374L26.4874 18.2374Z" fill="#22C55E"/>
</svg>
