<svg width="19" height="22" viewBox="0 0 19 22" fill="none" xmlns="http://www.w3.org/2000/svg">
    <path
        d="M9.54686 7.57031C9.02008 7.57031 8.64551 7.79274 8.64551 8.1205V12.5804C8.64551 12.8613 9.02012 13.1423 9.54686 13.1423C10.0502 13.1423 10.4599 12.8613 10.4599 12.5804V8.1205C10.4599 7.79274 10.0502 7.57031 9.54686 7.57031Z"
        fill="white" />
    <path
        d="M9.5468 4.81982C9.00833 4.81982 8.58691 5.20611 8.58691 5.65093C8.58691 6.09575 9.00833 6.49376 9.5468 6.49376C10.0736 6.49376 10.495 6.09575 10.495 5.65093C10.495 5.20615 10.0735 4.81982 9.5468 4.81982Z"
        fill="white" />
    <path
        d="M9.54663 0C4.50979 0 0.434082 4.07364 0.434082 9.10728C0.434082 13.2175 3.14022 16.6303 6.78871 17.7894L8.86107 20.8441C9.01524 21.0713 9.27201 21.2074 9.54663 21.2074C9.82124 21.2074 10.078 21.0713 10.2322 20.8441L12.3045 17.7894C15.9546 16.6298 18.6592 13.2157 18.6592 9.10728C18.6592 4.07045 14.5802 0 9.54663 0ZM11.5615 16.2824C11.3729 16.3352 11.209 16.4531 11.0991 16.6151L9.54663 18.9034L7.99422 16.6152C7.88421 16.4531 7.72039 16.3352 7.53172 16.2825C4.42608 15.4141 2.09091 12.558 2.09091 9.10728C2.09091 4.99906 5.43554 1.65683 9.54663 1.65683C13.6577 1.65683 17.0023 4.99906 17.0023 9.10728C17.0023 12.5614 14.6637 15.415 11.5615 16.2824Z"
        fill="white" />
</svg>