<svg width="32" height="32" viewBox="0 0 32 32" fill="none" xmlns="http://www.w3.org/2000/svg">
<path d="M29.3709 16.576C30.1296 16.576 30.7384 15.9579 30.7384 15.2086C30.7384 7.36903 24.36 1 16.5298 1C15.7712 1 15.1624 1.61817 15.1624 2.36747C15.1624 3.12613 15.7805 3.73494 16.5298 3.73494C22.852 3.73494 28.0034 8.88636 28.0034 15.2086C27.9941 15.9579 28.6122 16.576 29.3709 16.576ZM16.5205 2.86388C16.2395 2.86388 16.0147 2.63909 16.0147 2.3581C16.0147 2.07712 16.2395 1.85233 16.5205 1.85233C23.8823 1.85233 29.8673 7.83734 29.8673 15.1992C29.8673 15.4802 29.6425 15.705 29.3615 15.705C29.0806 15.705 28.8558 15.4802 28.8558 15.1992C28.8651 8.39931 23.3297 2.86388 16.5205 2.86388Z" fill="#4B4B4B"/>
<path d="M16.3706 5.5708C15.612 5.5708 15.0032 6.18897 15.0032 6.93827C15.0032 7.69693 15.6213 8.30574 16.3706 8.30574C20.2576 8.30574 23.414 11.4622 23.414 15.3491C23.414 16.1078 24.0322 16.7166 24.7815 16.7166C25.5402 16.7166 26.149 16.0984 26.149 15.3491C26.149 9.96356 21.7656 5.5708 16.3706 5.5708ZM24.7815 15.8549C24.5005 15.8549 24.2757 15.6301 24.2757 15.3491C24.2757 10.9845 20.7259 7.44404 16.3706 7.44404C16.0897 7.44404 15.8649 7.21926 15.8649 6.93827C15.8649 6.65728 16.0897 6.43249 16.3706 6.43249C21.2879 6.43249 25.2873 10.4319 25.2873 15.3491C25.2873 15.6301 25.0625 15.8549 24.7815 15.8549Z" fill="#4B4B4B"/>
<path d="M21.7374 30.9715C21.9622 30.9902 22.1776 30.9996 22.4024 30.9996C23.5826 30.9996 24.6971 30.7092 25.5776 30.166C26.0084 29.9225 26.3924 29.6134 26.7109 29.2481L27.5819 28.2834C29.3053 26.3727 29.1555 23.4129 27.2541 21.6895L25.7836 20.3595C24.9219 19.5821 23.8074 19.1513 22.6553 19.1513C21.3347 19.1513 20.0796 19.7133 19.1898 20.6874L18.3187 21.6521C17.9816 22.0174 17.7193 22.4295 17.5133 22.8791C14.0852 21.4273 11.266 18.8422 9.5145 15.5547C10.142 15.2924 10.704 14.8897 11.163 14.3839L12.034 13.4192C12.8676 12.4919 13.2985 11.3024 13.2329 10.0567C13.1673 8.81099 12.6241 7.66831 11.7062 6.82535L10.2357 5.49535C9.37401 4.71796 8.26879 4.28711 7.10738 4.28711C5.78674 4.28711 4.53167 4.84908 3.64188 5.82317L2.77082 6.78789C2.64906 6.91902 2.53667 7.06888 2.42427 7.21874C1.45018 8.08979 0.682155 9.98177 1.13173 12.3233C3.06117 22.3826 11.5376 30.0536 21.7374 30.9715ZM3.3047 8.17409C3.32343 8.15536 3.35153 8.13663 3.37026 8.11789L3.40772 8.07106C3.42646 8.05233 3.44519 8.0336 3.45456 8.0055C3.53885 7.88374 3.63251 7.77134 3.72618 7.66831L4.59723 6.70359C5.23414 6.00113 6.14266 5.59838 7.09802 5.59838C7.93161 5.59838 8.7371 5.90747 9.35527 6.46944L10.8258 7.79944C11.4908 8.39888 11.8842 9.23247 11.931 10.1316C11.9778 11.0308 11.6687 11.8925 11.0693 12.5575L10.1982 13.5222C9.78612 13.9811 9.26161 14.309 8.67154 14.4869L8.40929 14.5619C8.22196 14.618 8.0721 14.7492 7.99717 14.9271C7.92224 15.1051 7.92224 15.3018 8.0159 15.4704L8.13767 15.7139C10.0765 19.6102 13.3827 22.6355 17.429 24.2372L17.6631 24.3308C17.8317 24.3964 18.0097 24.387 18.1783 24.3121C18.3375 24.2372 18.4592 24.0967 18.5154 23.9281L18.5904 23.6939C18.7402 23.2537 18.9744 22.8603 19.2835 22.5138L20.1545 21.5491C20.7914 20.8466 21.7 20.4438 22.6553 20.4438C23.4889 20.4438 24.2944 20.7529 24.9126 21.3149L26.3831 22.6449C27.7599 23.8906 27.8629 26.0261 26.6266 27.4029L25.7555 28.3677C25.5214 28.6299 25.2404 28.8547 24.9126 29.042C24.0883 29.5478 23.0019 29.7726 21.8592 29.6696C12.2213 28.8079 4.22259 21.5771 2.40554 12.0798C2.02152 10.1035 2.73336 8.66113 3.3047 8.17409Z" fill="#4B4B4B"/>
</svg>
