<?xml version="1.0" encoding="utf-8"?>
<!-- Generator: Adobe Illustrator 26.0.0, SVG Export Plug-In . SVG Version: 6.00 Build 0)  -->
<svg version="1.1" id="Capa_1" xmlns="http://www.w3.org/2000/svg" xmlns:xlink="http://www.w3.org/1999/xlink" x="0px" y="0px"
	 viewBox="0 0 24 24" style="enable-background:new 0 0 24 24;" xml:space="preserve">
<style type="text/css">
	.st0{fill:#FFFFFF;}
</style>
<g transform="translate(-379.744 -86.017)">
	<g transform="translate(379.744 91.953)">
		<path class="st0" d="M13.59-0.05l2.59,1.79l0.26,0.38c0.1-0.11,0.24-0.33,0.24-0.33c-0.02-0.1-0.26-1.32-0.33-1.63
			c-0.7-2.98-1.33-2.98-4.34-2.98s-3.64,0-4.34,2.98C7.57,0.56,7.34,1.7,7.33,1.79c0,0,0.15,0.22,0.24,0.33l0.27-0.44l0.14-0.01
			c1.91-0.28,3.76-0.85,5.51-1.67L13.59-0.05z"/>
		<path class="st0" d="M12,11.15c0.88,0.01,2.85-1.69,2.85-1.69V8.93c-1.06,0.73-1.97,1.37-2.85,1.36h-0.03
			c-0.89,0-1.81-0.66-2.89-1.41v0.53c0,0,2,1.74,2.89,1.74L12,11.15z"/>
		<path class="st0" d="M22.09,13.3c-0.82-1.09-2.65-2.04-6.47-3.33v0.72c0,2.23-1.84,3.39-3.66,3.39h0c-1.82,0-3.65-1.17-3.65-3.4
			V10c-3.77,1.28-5.58,2.22-6.39,3.31c-0.12,0.19-0.34,0.5-0.66,3.85h21.5C22.42,13.81,22.21,13.49,22.09,13.3z"/>
	</g>
	<path class="st0" d="M398.85,94.43c0.01-0.41-0.12-0.81-0.38-1.13c-0.21-0.26-0.34-0.58-0.37-0.92c-0.21-3.82-2.11-5.46-6.36-5.46
		c-5.03,0-6.18,2.18-6.36,5.46c-0.03,0.34-0.17,0.66-0.39,0.92c-0.28,0.33-0.41,0.76-0.36,1.19c0.12,2.04,0.83,2.55,1.04,2.65
		c0.13,0.08,0.28,0.09,0.42,0.02c0.07-0.05,0.11-0.13,0.12-0.21c-0.31-0.45-0.49-0.97-0.52-1.51c-0.09-1.07,0.16-1.87,0.68-2.18
		c0.07-0.37,0.22-1.11,0.3-1.43c0.8-3.41,1.85-3.57,5.07-3.57c3.22,0,4.27,0.16,5.07,3.57c0.06,0.26,0.22,1.05,0.3,1.43
		c0.52,0.31,0.78,1.11,0.69,2.18c0,0.78-0.38,1.52-1.01,1.99c-1.1,0.91-1.83,1.33-3.9,1.39c-0.26-0.31-0.73-0.35-1.04-0.09
		c-0.31,0.26-0.35,0.73-0.09,1.04c0.26,0.31,0.73,0.35,1.04,0.09c0.13-0.11,0.22-0.26,0.25-0.42c2.24-0.09,3.05-0.63,4.24-1.61
		c0.36-0.27,0.68-0.58,0.97-0.93c0.39-0.53,0.51-1.63,0.6-2.43L398.85,94.43z"/>
</g>
</svg>
