<svg width="17" height="21" viewBox="0 0 17 21" fill="none" xmlns="http://www.w3.org/2000/svg">
    <path
        d="M8.36853 9.89982C9.71651 9.89982 10.8836 9.41636 11.8375 8.46248C12.791 7.50876 13.2747 6.34183 13.2747 4.9937C13.2747 3.64603 12.7912 2.47894 11.8373 1.52492C10.8834 0.571354 9.71636 0.0878906 8.36853 0.0878906C7.02039 0.0878906 5.85346 0.571354 4.89974 1.52507C3.94602 2.47879 3.4624 3.64588 3.4624 4.9937C3.4624 6.34183 3.94602 7.50892 4.89974 8.46264C5.85377 9.4162 7.02086 9.89982 8.36853 9.89982ZM5.7439 2.36907C6.4757 1.63727 7.33416 1.28155 8.36853 1.28155C9.40275 1.28155 10.2614 1.63727 10.9933 2.36907C11.7251 3.10103 12.081 3.95964 12.081 4.9937C12.081 6.02807 11.7251 6.88653 10.9933 7.61848C10.2614 8.35044 9.40275 8.70616 8.36853 8.70616C7.33447 8.70616 6.47601 8.35028 5.7439 7.61848C5.01194 6.88668 4.65607 6.02807 4.65607 4.9937C4.65607 3.95964 5.01194 3.10103 5.7439 2.36907Z"
        fill="white" />
    <path
        d="M16.9529 15.751C16.9254 15.3541 16.8698 14.9212 16.7879 14.464C16.7052 14.0034 16.5988 13.5679 16.4713 13.1699C16.3396 12.7586 16.1607 12.3523 15.9392 11.963C15.7097 11.559 15.4399 11.2072 15.1372 10.9176C14.8206 10.6148 14.4331 10.3712 13.9849 10.1936C13.5382 10.0169 13.0433 9.9274 12.5138 9.9274C12.3059 9.9274 12.1048 10.0127 11.7164 10.2656C11.4774 10.4214 11.1978 10.6017 10.8858 10.8011C10.619 10.9711 10.2575 11.1304 9.81101 11.2746C9.37541 11.4156 8.93313 11.487 8.49644 11.487C8.06007 11.487 7.61779 11.4156 7.18188 11.2746C6.73586 11.1305 6.37424 10.9713 6.10787 10.8012C5.79877 10.6037 5.51904 10.4235 5.27646 10.2654C4.88841 10.0126 4.68732 9.92725 4.47939 9.92725C3.94977 9.92725 3.45496 10.0169 3.00848 10.1938C2.5606 10.3711 2.17287 10.6146 1.856 10.9178C1.55327 11.2075 1.28349 11.5591 1.05411 11.963C0.832969 12.3523 0.653943 12.7584 0.52216 13.1701C0.394883 13.5681 0.288431 14.0034 0.205756 14.464C0.123702 14.9205 0.0682227 15.3537 0.0407161 15.7515C0.0136756 16.1405 0 16.5453 0 16.9543C0 18.0176 0.338005 18.8784 1.00454 19.5132C1.66283 20.1397 2.53372 20.4573 3.59311 20.4573H13.401C14.4601 20.4573 15.331 20.1397 15.9894 19.5132C16.6561 18.8789 16.9941 18.0178 16.9941 16.9542C16.994 16.5437 16.9801 16.1389 16.9529 15.751ZM15.1664 18.6484C14.7314 19.0624 14.154 19.2636 13.4009 19.2636H3.59311C2.83987 19.2636 2.26238 19.0624 1.82756 18.6485C1.40097 18.2425 1.19366 17.6881 1.19366 16.9543C1.19366 16.5727 1.20625 16.1958 1.23143 15.834C1.25598 15.4791 1.30618 15.0892 1.38062 14.6749C1.45412 14.2657 1.54768 13.8817 1.65895 13.534C1.76571 13.2007 1.91132 12.8706 2.0919 12.5526C2.26425 12.2496 2.46254 11.9896 2.68135 11.7801C2.88602 11.5842 3.14399 11.4238 3.44797 11.3035C3.72909 11.1922 4.04503 11.1313 4.38801 11.1222C4.42981 11.1444 4.50425 11.1868 4.62485 11.2654C4.87023 11.4253 5.15307 11.6078 5.46574 11.8075C5.8182 12.0322 6.27229 12.2352 6.81481 12.4103C7.36945 12.5896 7.93512 12.6807 8.4966 12.6807C9.05808 12.6807 9.62391 12.5896 10.1782 12.4105C10.7212 12.235 11.1752 12.0322 11.5281 11.8072C11.8481 11.6027 12.123 11.4255 12.3684 11.2654C12.4889 11.187 12.5634 11.1444 12.6052 11.1222C12.9483 11.1313 13.2643 11.1922 13.5455 11.3035C13.8494 11.4238 14.1073 11.5843 14.312 11.7801C14.5308 11.9895 14.7291 12.2495 14.9015 12.5528C15.0822 12.8706 15.228 13.2008 15.3346 13.5339C15.446 13.882 15.5397 14.2658 15.613 14.6747C15.6873 15.0898 15.7377 15.4798 15.7622 15.8342V15.8345C15.7876 16.1949 15.8003 16.5716 15.8005 16.9543C15.8003 17.6883 15.593 18.2425 15.1664 18.6484Z"
        fill="white" />
</svg>