<svg width="17" height="21" viewBox="0 0 17 21" fill="none" xmlns="http://www.w3.org/2000/svg">
  <path
    d="M8.36902 9.81193C9.717 9.81193 10.8841 9.32846 11.838 8.37459C12.7915 7.42087 13.2751 6.25394 13.2751 4.90581C13.2751 3.55814 12.7917 2.39105 11.8378 1.43703C10.8839 0.483463 9.71684 0 8.36902 0C7.02088 0 5.85395 0.483463 4.90023 1.43718C3.94651 2.3909 3.46289 3.55799 3.46289 4.90581C3.46289 6.25394 3.94651 7.42103 4.90023 8.37475C5.85426 9.32831 7.02135 9.81193 8.36902 9.81193ZM5.74439 2.28118C6.47619 1.54938 7.33464 1.19366 8.36902 1.19366C9.40324 1.19366 10.2618 1.54938 10.9938 2.28118C11.7256 3.01314 12.0815 3.87175 12.0815 4.90581C12.0815 5.94018 11.7256 6.79864 10.9938 7.53059C10.2618 8.26254 9.40324 8.61827 8.36902 8.61827C7.33496 8.61827 6.4765 8.26239 5.74439 7.53059C5.01243 6.79879 4.65655 5.94018 4.65655 4.90581C4.65655 3.87175 5.01243 3.01314 5.74439 2.28118Z"
    fill="#009AED" />
  <path
    d="M16.9529 15.6626C16.9254 15.2657 16.8698 14.8328 16.7879 14.3756C16.7052 13.915 16.5988 13.4795 16.4713 13.0815C16.3396 12.6702 16.1607 12.264 15.9392 11.8747C15.7097 11.4706 15.4399 11.1188 15.1372 10.8293C14.8206 10.5264 14.4331 10.2829 13.9849 10.1052C13.5382 9.92854 13.0433 9.83902 12.5138 9.83902C12.3059 9.83902 12.1048 9.92434 11.7164 10.1772C11.4774 10.3331 11.1978 10.5133 10.8858 10.7127C10.619 10.8827 10.2575 11.042 9.81101 11.1862C9.37541 11.3272 8.93313 11.3987 8.49644 11.3987C8.06007 11.3987 7.61779 11.3272 7.18188 11.1862C6.73586 11.0422 6.37424 10.8829 6.10787 10.7129C5.79877 10.5153 5.51904 10.3351 5.27646 10.177C4.88841 9.92418 4.68732 9.83887 4.47939 9.83887C3.94977 9.83887 3.45496 9.92854 3.00848 10.1054C2.5606 10.2827 2.17287 10.5262 1.856 10.8294C1.55327 11.1191 1.28349 11.4708 1.05411 11.8747C0.832969 12.264 0.653943 12.67 0.52216 13.0817C0.394883 13.4797 0.288431 13.915 0.205756 14.3756C0.123702 14.8322 0.0682227 15.2653 0.0407161 15.6631C0.0136756 16.0521 0 16.4569 0 16.8659C0 17.9292 0.338005 18.79 1.00454 19.4248C1.66283 20.0513 2.53372 20.3689 3.59311 20.3689H13.401C14.4601 20.3689 15.331 20.0513 15.9894 19.4248C16.6561 18.7905 16.9941 17.9294 16.9941 16.8658C16.994 16.4554 16.9801 16.0505 16.9529 15.6626ZM15.1664 18.56C14.7314 18.974 14.154 19.1753 13.4009 19.1753H3.59311C2.83987 19.1753 2.26238 18.974 1.82756 18.5602C1.40097 18.1541 1.19366 17.5998 1.19366 16.8659C1.19366 16.4843 1.20625 16.1074 1.23143 15.7456C1.25598 15.3907 1.30618 15.0008 1.38062 14.5865C1.45412 14.1773 1.54768 13.7933 1.65895 13.4456C1.76571 13.1123 1.91132 12.7822 2.0919 12.4643C2.26425 12.1612 2.46254 11.9012 2.68135 11.6918C2.88602 11.4958 3.14399 11.3354 3.44797 11.2151C3.72909 11.1039 4.04503 11.0429 4.38801 11.0338C4.42981 11.056 4.50425 11.0984 4.62485 11.1771C4.87023 11.337 5.15307 11.5194 5.46574 11.7191C5.8182 11.9438 6.27229 12.1468 6.81481 12.3219C7.36945 12.5013 7.93512 12.5923 8.4966 12.5923C9.05808 12.5923 9.62391 12.5013 10.1782 12.3221C10.7212 12.1466 11.1752 11.9438 11.5281 11.7188C11.8481 11.5143 12.123 11.3371 12.3684 11.1771C12.4889 11.0986 12.5634 11.056 12.6052 11.0338C12.9483 11.0429 13.2643 11.1039 13.5455 11.2151C13.8494 11.3354 14.1073 11.4959 14.312 11.6918C14.5308 11.9011 14.7291 12.1611 14.9015 12.4644C15.0822 12.7822 15.228 13.1125 15.3346 13.4455C15.446 13.7936 15.5397 14.1774 15.613 14.5863C15.6873 15.0014 15.7377 15.3915 15.7622 15.7458V15.7461C15.7876 16.1065 15.8003 16.4832 15.8005 16.8659C15.8003 17.5999 15.593 18.1541 15.1664 18.56Z"
    fill="#009AED" />
</svg>