<svg xmlns="http://www.w3.org/2000/svg" width="75.385" height="53.589" viewBox="0 0 75.385 53.589"><g transform="translate(-78.962 -674.029)"><path d="M127.108,771.055l-1.723,2.21h-17.46l-1.723-2.21H78.962V775.5a2.941,2.941,0,0,0,2.938,2.938h69.509a2.941,2.941,0,0,0,2.938-2.938v-4.442Z" transform="translate(0 -50.817)" fill="#b50a27"/><path d="M150.677,674.029H92.709a4.131,4.131,0,0,0-4.127,4.127v37.453h3.429V683.47h59.364v32.139H154.8V678.156A4.131,4.131,0,0,0,150.677,674.029ZM124.033,681.2h-4.68V677.3h4.68Z" transform="translate(-5.038)" fill="#b50a27"/><path d="M159.018,722.2l-17.342-17.848v25.065l4.892-4.976v-4.991l4.985,11.712,2.878-1.42-3.256-7.541Z" transform="translate(-32.846 -15.88)" fill="#b50a27"/></g></svg>