<svg id="Grupo_22" data-name="Grupo 22" xmlns="http://www.w3.org/2000/svg" xmlns:xlink="http://www.w3.org/1999/xlink" width="24.283" height="24.318" viewBox="0 0 24.283 24.318">
  <defs>
    <clipPath id="clip-path">
      <rect id="Rectángulo_24" data-name="Rectángulo 24" width="24.283" height="24.318" fill="none"/>
    </clipPath>
  </defs>
  <g id="Grupo_22-2" data-name="Grupo 22" clip-path="url(#clip-path)">
    <path id="Trazado_40" data-name="Trazado 40" d="M11.279,0c3.817,0,6.507.96,8.8,2.95A11.758,11.758,0,0,1,24.257,11.4a11.73,11.73,0,0,1-3.24,9.039,11.859,11.859,0,0,1-9.4,3.872,11.649,11.649,0,0,1-7.544-3.079,11.826,11.826,0,0,1-4.015-7.9A11.787,11.787,0,0,1,3.145,4a11.46,11.46,0,0,1,8.134-4m.754,22.111a9.9,9.9,0,0,0,7.122-2.923,9.612,9.612,0,0,0,2.926-7.043A9.63,9.63,0,0,0,19.25,5.183a9.686,9.686,0,0,0-7.465-2.978A9.51,9.51,0,0,0,4.851,5.393a9.672,9.672,0,0,0-2.624,7.193,9.666,9.666,0,0,0,3.213,6.9,9.677,9.677,0,0,0,6.593,2.631" transform="translate(0.001 -0.001)" fill="#fff"/>
    <path id="Trazado_41" data-name="Trazado 41" d="M101.215,161.924c-1.44,0-2.88-.016-4.319.008a1.154,1.154,0,0,1-1.168-.851,1.1,1.1,0,0,1,.925-1.346c.214-.021.43-.013.646-.013h8.25a1.143,1.143,0,0,1,1.121.7,1.11,1.11,0,0,1-1.059,1.506c-1.465-.007-2.931,0-4.4,0" transform="translate(-89.078 -148.68)" fill="#fff"/>
  </g>
</svg>
