<svg width="40" height="40" viewBox="0 0 40 40" fill="none" xmlns="http://www.w3.org/2000/svg">
<path d="M10.5687 7.32778C10.7448 7.12045 10.9633 6.95399 11.2093 6.83987C11.4553 6.72574 11.7229 6.66665 11.9938 6.66667H28.0063C28.2771 6.66665 28.5447 6.72574 28.7907 6.83987C29.0367 6.95399 29.2552 7.12045 29.4312 7.32778L34.3231 13.0776C34.7599 13.591 35 14.2449 35 14.9211V15.4028C35.0001 16.3377 34.7102 17.2494 34.1709 18.0102C33.6316 18.7711 32.8698 19.3432 31.9919 19.6466C31.114 19.95 30.164 19.9695 29.2746 19.7024C28.3852 19.4353 27.6009 18.8949 27.0312 18.1568C26.6153 18.6966 26.0822 19.1333 25.4728 19.4335C24.8634 19.7338 24.194 19.8895 23.5156 19.8889C22.8373 19.8897 22.1677 19.734 21.5583 19.4337C20.949 19.1335 20.4159 18.6967 20 18.1568C19.5841 18.6967 19.051 19.1335 18.4417 19.4337C17.8323 19.734 17.1627 19.8897 16.4844 19.8889C15.806 19.8897 15.1365 19.734 14.5271 19.4337C13.9177 19.1335 13.3846 18.6967 12.9688 18.1568C12.3991 18.8949 11.6148 19.4353 10.7254 19.7024C9.83599 19.9695 8.88597 19.95 8.00811 19.6466C7.13025 19.3432 6.36842 18.7711 5.82909 18.0102C5.28977 17.2494 4.9999 16.3377 5 15.4028V14.9211C5.00002 14.2449 5.24011 13.591 5.67687 13.0776L10.5706 7.32589L10.5687 7.32778ZM13.9062 15.4028C13.9062 16.0916 14.1779 16.7522 14.6614 17.2393C15.1449 17.7264 15.8006 18 16.4844 18C17.1681 18 17.8239 17.7264 18.3074 17.2393C18.7909 16.7522 19.0625 16.0916 19.0625 15.4028C19.0625 15.1523 19.1613 14.9121 19.3371 14.735C19.5129 14.5578 19.7514 14.4583 20 14.4583C20.2486 14.4583 20.4871 14.5578 20.6629 14.735C20.8387 14.9121 20.9375 15.1523 20.9375 15.4028C20.9375 16.0916 21.2091 16.7522 21.6926 17.2393C22.1761 17.7264 22.8319 18 23.5156 18C24.1994 18 24.8551 17.7264 25.3386 17.2393C25.8221 16.7522 26.0938 16.0916 26.0938 15.4028C26.0938 15.1523 26.1925 14.9121 26.3683 14.735C26.5442 14.5578 26.7826 14.4583 27.0312 14.4583C27.2799 14.4583 27.5183 14.5578 27.6942 14.735C27.87 14.9121 27.9688 15.1523 27.9688 15.4028C27.9688 16.0916 28.2404 16.7522 28.7239 17.2393C29.2074 17.7264 29.8631 18 30.5469 18C31.2306 18 31.8864 17.7264 32.3699 17.2393C32.8534 16.7522 33.125 16.0916 33.125 15.4028V14.9211C33.125 14.696 33.0452 14.4783 32.9 14.3072L28.0063 8.55556H11.9938L7.1 14.3072C6.95478 14.4783 6.87498 14.696 6.875 14.9211V15.4028C6.875 16.0916 7.14662 16.7522 7.63012 17.2393C8.11361 17.7264 8.76936 18 9.45312 18C10.1369 18 10.7926 17.7264 11.2761 17.2393C11.7596 16.7522 12.0312 16.0916 12.0312 15.4028C12.0312 15.1523 12.13 14.9121 12.3058 14.735C12.4817 14.5578 12.7201 14.4583 12.9688 14.4583C13.2174 14.4583 13.4558 14.5578 13.6317 14.735C13.8075 14.9121 13.9062 15.1523 13.9062 15.4028ZM7.8125 20.8333C8.06114 20.8333 8.2996 20.9328 8.47541 21.11C8.65123 21.2871 8.75 21.5273 8.75 21.7778V33.1111H31.25V21.7778C31.25 21.5273 31.3488 21.2871 31.5246 21.11C31.7004 20.9328 31.9389 20.8333 32.1875 20.8333C32.4361 20.8333 32.6746 20.9328 32.8504 21.11C33.0262 21.2871 33.125 21.5273 33.125 21.7778V33.1111H34.0625C34.3111 33.1111 34.5496 33.2106 34.7254 33.3877C34.9012 33.5649 35 33.8051 35 34.0556C35 34.306 34.9012 34.5463 34.7254 34.7234C34.5496 34.9005 34.3111 35 34.0625 35H5.9375C5.68886 35 5.4504 34.9005 5.27459 34.7234C5.09877 34.5463 5 34.306 5 34.0556C5 33.8051 5.09877 33.5649 5.27459 33.3877C5.4504 33.2106 5.68886 33.1111 5.9375 33.1111H6.875V21.7778C6.875 21.5273 6.97377 21.2871 7.14959 21.11C7.3254 20.9328 7.56386 20.8333 7.8125 20.8333ZM11.5625 21.7778C11.8111 21.7778 12.0496 21.8773 12.2254 22.0544C12.4012 22.2315 12.5 22.4717 12.5 22.7222V29.3333H27.5V22.7222C27.5 22.4717 27.5988 22.2315 27.7746 22.0544C27.9504 21.8773 28.1889 21.7778 28.4375 21.7778C28.6861 21.7778 28.9246 21.8773 29.1004 22.0544C29.2762 22.2315 29.375 22.4717 29.375 22.7222V29.3333C29.375 29.8343 29.1775 30.3147 28.8258 30.669C28.4742 31.0232 27.9973 31.2222 27.5 31.2222H12.5C12.0027 31.2222 11.5258 31.0232 11.1742 30.669C10.8225 30.3147 10.625 29.8343 10.625 29.3333V22.7222C10.625 22.4717 10.7238 22.2315 10.8996 22.0544C11.0754 21.8773 11.3139 21.7778 11.5625 21.7778Z" fill="#B50A27"/>
</svg>
