<svg xmlns="http://www.w3.org/2000/svg" xmlns:xlink="http://www.w3.org/1999/xlink" width="80.102" height="80.103" viewBox="0 0 80.102 80.103">
  <defs>
    <clipPath id="clip-path">
      <rect id="Rect치ngulo_10" data-name="Rect치ngulo 10" width="80.102" height="80.103" fill="none"/>
    </clipPath>
  </defs>
  <g id="Grupo_16" data-name="Grupo 16" transform="translate(-1103 -1036)">
    <g id="Grupo_15" data-name="Grupo 15" transform="translate(1103 1036)">
      <g id="Grupo_14" data-name="Grupo 14" clip-path="url(#clip-path)">
        <path id="Trazado_55" data-name="Trazado 55" d="M20.651,0h23.78c1.342.365,2.717.64,4.019,1.114A16.482,16.482,0,0,1,56.492,7.4,16.807,16.807,0,0,1,59.414,17c.056,4.473-.061,8.948-.125,13.421a5.336,5.336,0,0,1-1.583,3.608,6.257,6.257,0,0,1-5.031,2.121c-1.045-.048-1.049-.008-1.046,1.064A14.383,14.383,0,0,1,50.285,43.5a15,15,0,0,1-6.522,6.691,22.814,22.814,0,0,1,9.978,6.959c2.56-1.52,5.01-3,7.484-4.431a2.481,2.481,0,0,0,1.242-1.742,10,10,0,0,1,1.11-3.014c.76-1.208,2.132-1.447,3.541-1.522,0-.849-.006-1.677,0-2.506a2.455,2.455,0,0,1,2.452-2.471c1.017,0,2.034-.014,3.05.009a2.071,2.071,0,0,1,.879.2,2.747,2.747,0,0,1,1.432,2.666c.014,3.858.005,7.717.005,11.575v1.038h2.72a2.233,2.233,0,0,1,2.275,1.862,17.08,17.08,0,0,1,.15,3.159,2.714,2.714,0,0,1-3.009,2.658,20.964,20.964,0,0,0-2.1-.012v5.173h2.441v2.5H74.936v7.786H67.178V72.436c-.766,0-1.468.033-2.163-.021-.2-.015-.519-.277-.533-.447-.06-.715-.025-1.438-.025-2.192.761,0,1.439.041,2.107-.024.217-.021.576-.317.582-.5.047-1.527.027-3.057.027-4.642-1,0-1.938-.032-2.87.018a1.554,1.554,0,0,0-.929.382c-1.57,1.525-3.054,3.144-4.667,4.621-2.733,2.5-5.875,3.5-9.5,2.192-.9-.324-1.751-.756-2.722-1.181V80.1h-.923q-15.525,0-31.049-.013a11.19,11.19,0,0,1-2.106-.3,15.018,15.018,0,0,1-8.778-5.2A14,14,0,0,1,.942,69.956C.579,68.869.311,67.751,0,66.647V52.254c.049-.051.136-.1.142-.154a13.058,13.058,0,0,1,1.453-4.752,14.994,14.994,0,0,1,8.7-7.663c.892-.3,1.806-.539,2.611-.777-.042-.934-.08-1.769-.111-2.45-1.164-.221-2.259-.338-3.3-.645a6.411,6.411,0,0,1-4.347-5.991c.058-5.135.039-10.271,0-15.405A11.535,11.535,0,0,1,12.5,3.408c1.331-.544,2.953-.338,4.019-1.563a1.862,1.862,0,0,1,.671-.49C18.336.886,19.5.449,20.651,0M46.808,60.882c.741-.423,1.485-.842,2.222-1.271s1.474-.871,2.136-1.263A17.671,17.671,0,0,0,38.54,51.764a6.249,6.249,0,0,1-3.993,4.631,6.534,6.534,0,0,1-6.23-.8c0,.38.021.616,0,.846a1.621,1.621,0,0,0,.736,1.674,4.67,4.67,0,0,1,1.912,4.218,6.432,6.432,0,0,1-1.926,4.434,1.776,1.776,0,0,0-.614,1.492c.048,1.223-.011,2.45.02,3.675a2.787,2.787,0,0,1-2.985,3.016,10.058,10.058,0,0,0-1.8,0,2.678,2.678,0,0,1-2.626-1.183L18.042,74.9v2.572H43.888V72.348c-.333,0-.616,0-.9,0-2.372-.008-4.744.012-7.115-.037a2.2,2.2,0,0,1-2.21-1.943,16.1,16.1,0,0,1-.167-3A2.665,2.665,0,0,1,36.284,64.6c2.294.02,4.588.006,6.882,0,.249,0,.5-.021.786-.035V56.986h2.56v3.855l.058.175.237-.135M31.037,18.145V18.1c-3.8,0-7.61.048-11.413-.017a3.953,3.953,0,0,0-4.15,4.141c.075,5.054.023,10.11.023,15.165a8.722,8.722,0,0,0,.008,1.56,12.072,12.072,0,0,0,4.542,7.781,10.562,10.562,0,0,0,5.972,2.359c3.694.137,7.4.033,11.1.014a15.528,15.528,0,0,0,2.065-.14,11.344,11.344,0,0,0,5.934-2.8,11.132,11.132,0,0,0,3.946-8.384c.109-4.6,0-9.206-.107-13.808a6.126,6.126,0,0,0-5.96-5.8c-3.983-.1-7.971-.024-11.956-.024m25.782,6.417c0-2.886.011-5.6-.009-8.3a9.416,9.416,0,0,0-.185-1.836,14.407,14.407,0,0,0-4.776-8.359,14.023,14.023,0,0,0-9.18-3.447c-6.855-.077-13.712-.059-20.567.014a7.724,7.724,0,0,0-3.344.812,6.434,6.434,0,0,0,2.754,12.041c6.856.011,13.712-.016,20.567.03a9.252,9.252,0,0,1,5.214,1.357c.54.36,1.056.757,1.655,1.189A9.146,9.146,0,0,0,46.6,13.2a9.4,9.4,0,0,0-7-2.865c-2.024-.035-4.049-.007-6.092-.007V7.838a1.276,1.276,0,0,1,.31-.077c2.644.069,5.29.1,7.931.232a9.542,9.542,0,0,1,5.681,2.468,11.713,11.713,0,0,1,4.236,9.625c-.019,1.06,0,2.12,0,3.272a7.239,7.239,0,0,1,5.153,1.2M49.288,62.44c-.98.551-1.848,1.03-2.7,1.53-.079.046-.114.224-.115.34-.008,1.136-.005,2.271-.005,3.373.949.467,1.84.861,2.688,1.333a6.674,6.674,0,0,0,7.787-1.2c1.67-1.531,3.226-3.186,4.814-4.8a1,1,0,0,0,.192-.632c.019-1.068-.084-2.147.031-3.2.148-1.357,1.112-2.288,2.865-2.377.77-.039,1.544-.007,2.375-.007V51.667c1.257,0,2.453.011,3.648,0a1.254,1.254,0,0,0,1.415-1.27c0-.8-.5-1.276-1.4-1.284q-2.072-.019-4.144,0c-.94.008-1.287.292-1.5,1.191s-.381,1.828-.643,2.721a1.833,1.833,0,0,1-.634,1c-2.442,1.514-4.918,2.972-7.379,4.453a27.44,27.44,0,0,0-2.811,1.756,5.723,5.723,0,0,0-2.186,4.379c-.641,0-1.238-.017-1.834,0-.62.023-.972-.078-.647-.827a5.706,5.706,0,0,0,.181-1.351M11.245,60.894c-.259.92-.539,1.682-.681,2.467-.41,2.272-.519,4.48.986,6.511a6.214,6.214,0,0,0,7.021,2.106,10.867,10.867,0,0,0,3.577-2.541c1.451-1.234,2.8-2.6,4.294-3.767a4.406,4.406,0,0,0,1.88-3.789,2.5,2.5,0,0,0-2.377-2.438A2.476,2.476,0,0,0,23.337,61.3c-.138.751-.092,1.535-.2,2.293a1.1,1.1,0,0,1-.454.739c-2.426,1.257-4.878,2.467-7.311,3.711-.481.246-.738.16-.944-.336-.232-.558-.525-1.09-.818-1.688l3.6-1.814-5.959-3.314m.4-5.72L4.264,47.795a13.665,13.665,0,0,0-1.7,6.619c.093,3.385.02,6.775.027,10.163a17.184,17.184,0,0,0,.09,2.027c.025.2.3.535.468.54,1.531.042,3.063.025,4.529.025a17.568,17.568,0,0,1,3.963-11.993m1.819-49.3c-.331.1-.544.166-.752.241a1.477,1.477,0,0,0-.262.139,8.884,8.884,0,0,0-4.694,8.121c.029,3.334.006,6.668.006,10.137a7.035,7.035,0,0,1,5.082-1.173c-.22-3.133.812-5.568,3.54-7.132A9.084,9.084,0,0,1,13.46,5.876M19.47,49.5c-.531-.408-1.156-.84-1.725-1.336a13.922,13.922,0,0,1-4.038-5.95.76.76,0,0,0-1.1-.557A13.785,13.785,0,0,0,9.8,42.714c-1.37.788-2.64,1.749-3.97,2.65L13.4,52.946,19.47,49.5m1.193,2.573a14.413,14.413,0,0,0-8.011,6.1.67.67,0,0,0,.183.628q3.38,1.924,6.8,3.784c.631.345,1.029.091,1.03-.616q.007-3.637,0-7.275Zm43.818,9.9H77.4V59.5H64.481ZM51.687,33.6a4.358,4.358,0,0,0,4.624-2.014,3.725,3.725,0,0,0-.388-4.341c-1.1-1.359-2.656-1.445-4.254-1.216v2.508A10.581,10.581,0,0,1,53,27.69a.847.847,0,0,1,.778.078,19.479,19.479,0,0,1,1.136,1.75,13.664,13.664,0,0,1-1.938,1.272,2.176,2.176,0,0,0-1.336,2.693.806.806,0,0,0,.051.119M12.812,26.02c-1.8-.2-3.447-.126-4.495,1.6a3.658,3.658,0,0,0,.03,4.212,4.148,4.148,0,0,0,4.482,1.734,8.538,8.538,0,0,1,.008-1.08,1.111,1.111,0,0,0-.7-1.242c-.893-.5-1.711-1.137-2.573-1.725.371-.548.76-1.079,1.1-1.64.242-.4.47-.467.852-.175s.817.535,1.294.842ZM9.668,71.753c-.344-.568-.672-1.14-1.036-1.689a.654.654,0,0,0-.445-.28c-1.5-.021-3.008-.013-4.572-.013a12.392,12.392,0,0,0,4.147,5.118l1.9-3.136m5.821,5.661c0-.73.029-1.4-.019-2.073a.739.739,0,0,0-.4-.518c-1-.382-2.01-.74-3.035-1.045a.8.8,0,0,0-.7.254c-.487.7-.9,1.449-1.369,2.215a9.69,9.69,0,0,0,5.522,1.166M28.61,51.692c.95,1.88,2.307,2.758,4.033,2.586,1.1-.11,2.89-1.164,3.127-2.586Zm-2.814.015-2.487-.467V57.4l2.487-.689ZM72.3,72.478h-2.5V77.57h2.5Zm.041-7.82H69.808v5.119c.655,0,1.273-.009,1.891,0,.448.009.658-.159.652-.638-.018-1.48-.007-2.96-.007-4.483M69.62,43.983c0,.751-.029,1.428.019,2.1.013.187.243.5.391.513.74.053,1.485.024,2.2.024V43.983Zm.024,12.776h2.608V54.154l-2.608.19ZM38.619,67.31H36.14a17.342,17.342,0,0,0,.024,1.892.784.784,0,0,0,.509.548,17.923,17.923,0,0,0,1.946.026ZM41.3,67.3c0,.7-.031,1.328.019,1.947.015.186.247.494.4.506.686.055,1.379.024,2.033.024V67.3ZM23.1,72.065l.1.173h2.564V69.727L23.1,72.065" fill="#b50a27"/>
        <path id="Trazado_56" data-name="Trazado 56" d="M183.888,240.539l.3.041-.237.135-.059-.175" transform="translate(-137.376 -179.697)" fill="#b50a27"/>
        <path id="Trazado_57" data-name="Trazado 57" d="M91.541,133.025h18.115c.261,3.656-.951,6.68-4.014,8.724a8.476,8.476,0,0,1-9.654.277c-3.307-2.016-4.586-5.161-4.447-9m2.863,2.656a5.366,5.366,0,0,0,1.99,3.484,6.431,6.431,0,0,0,9.508-1.216,4.279,4.279,0,0,0,.954-2.386H94.513l-.109.119" transform="translate(-68.379 -99.378)" fill="#b50a27"/>
        <path id="Trazado_58" data-name="Trazado 58" d="M153.173,96.942h-2.589a2.426,2.426,0,0,0-1.959-2.312c-1.695-.1-2.426.047-3.1,1.789-.144.376-.279.59-.726.561-.619-.039-1.242-.01-1.958-.01a4.93,4.93,0,0,1,1.723-3.742,4.983,4.983,0,0,1,6.065-.559,4.883,4.883,0,0,1,2.539,4.274" transform="translate(-106.715 -68.653)" fill="#b50a27"/>
        <path id="Trazado_59" data-name="Trazado 59" d="M81.513,97.07H79.132c-.782-2.338-1.741-2.416-3.3-2.327-.993.057-1.78.963-2.025,2.317H71.248c.3-3.327,2.77-5.3,5.755-4.968a4.912,4.912,0,0,1,4.51,4.978" transform="translate(-53.227 -68.771)" fill="#b50a27"/>
        <rect id="Rect치ngulo_9" data-name="Rect치ngulo 9" width="5.084" height="2.516" transform="translate(25.856 7.777)" fill="#b50a27"/>
        <path id="Trazado_60" data-name="Trazado 60" d="M103,143.053l-.109.119.109-.119" transform="translate(-76.865 -106.869)" fill="#b50a27"/>
      </g>
    </g>
  </g>
</svg>
