<svg width="22" height="22" viewBox="0 0 22 22" fill="none" xmlns="http://www.w3.org/2000/svg">
<path d="M0.219979 10.56L7.96296 14.431L7.96296 18.963C7.96296 19.7021 8.2566 20.411 8.77927 20.9337C9.30194 21.4564 10.0108 21.75 10.75 21.75C11.4892 21.75 12.1981 21.4564 12.7207 20.9337C13.2434 20.411 13.537 19.7021 13.537 18.963L13.537 14.431L21.28 10.56C21.3462 10.5269 21.4018 10.4761 21.4406 10.4131C21.4795 10.3502 21.5001 10.2777 21.5 10.2037L21.5 7.01852C21.5 6.95968 21.4869 6.90158 21.4617 6.8484C21.4365 6.79523 21.3998 6.74829 21.3543 6.71098C21.3088 6.67367 21.2556 6.6469 21.1985 6.63261C21.1415 6.61833 21.0819 6.61686 21.0242 6.62834L13.537 8.12139L13.537 5.58718L15.0132 4.11503C15.0501 4.07803 15.0794 4.0341 15.0994 3.98577C15.1194 3.93744 15.1297 3.88564 15.1296 3.83334L15.1296 0.648155C15.1296 0.583068 15.1136 0.518981 15.0831 0.461507C15.0525 0.404033 15.0083 0.354925 14.9544 0.318481C14.9005 0.282039 14.8384 0.25937 14.7737 0.252466C14.709 0.245561 14.6436 0.254629 14.5832 0.278873L10.75 1.81174L6.91683 0.278872C6.86978 0.259555 6.81938 0.249743 6.76852 0.250006C6.68895 0.249753 6.61119 0.273705 6.54556 0.318688C6.49166 0.355115 6.44752 0.404193 6.41698 0.461629C6.38644 0.519063 6.37044 0.583106 6.37037 0.648154L6.37037 3.83334C6.37033 3.88564 6.38059 3.93744 6.40058 3.98577C6.42056 4.0341 6.44987 4.07802 6.48683 4.11503L7.96296 5.59116L7.96296 8.12537L0.475788 6.63232C0.418403 6.62091 0.35921 6.62228 0.302419 6.63635C0.245626 6.65041 0.19263 6.67682 0.147203 6.71369C0.101777 6.75057 0.0650343 6.797 0.0395921 6.84968C0.01415 6.90237 0.000632625 6.96002 1.28787e-06 7.01852L1.00941e-06 10.2037C-5.04955e-05 10.2777 0.0205031 10.3502 0.0593577 10.4131C0.0982123 10.4761 0.153831 10.5269 0.219979 10.56ZM0.796298 7.50426L8.28347 8.99732C8.34086 9.00873 8.40005 9.00736 8.45684 8.99329C8.51364 8.97923 8.56663 8.95282 8.61206 8.91594C8.65749 8.87907 8.69423 8.83264 8.71967 8.77995C8.74511 8.72727 8.75863 8.66962 8.75926 8.61112L8.75926 5.42593C8.7593 5.37363 8.74904 5.32183 8.72906 5.2735C8.70907 5.22517 8.67976 5.18124 8.6428 5.14424L7.16667 3.66811L7.16667 1.23642L10.6017 2.61003C10.6975 2.64877 10.8045 2.64877 10.9003 2.61003L14.3333 1.23642L14.3333 3.66811L12.8572 5.14424C12.8202 5.18125 12.7909 5.22517 12.7709 5.2735C12.751 5.32183 12.7407 5.37363 12.7407 5.42593L12.7407 8.61112C12.7408 8.66996 12.7539 8.72806 12.7791 8.78123C12.8043 8.83441 12.8409 8.88135 12.8864 8.91866C12.9319 8.95597 12.9851 8.98273 13.0422 8.99702C13.0993 9.01131 13.1588 9.01277 13.2165 9.0013L20.7037 7.50426L20.7037 9.95785L12.9607 13.8288C12.8946 13.8619 12.839 13.9128 12.8001 13.9758C12.7612 14.0387 12.7407 14.1112 12.7407 14.1852L12.7407 18.963C12.7407 19.4909 12.531 19.9973 12.1577 20.3706C11.7843 20.744 11.278 20.9537 10.75 20.9537C10.222 20.9537 9.71567 20.744 9.34233 20.3706C8.969 19.9973 8.75926 19.4909 8.75926 18.963L8.75926 14.1852C8.75931 14.1112 8.73876 14.0387 8.69991 13.9758C8.66105 13.9128 8.60543 13.8619 8.53928 13.8288L0.796298 9.95785L0.796298 7.50426Z" fill="#009AED"/>
</svg>
