<svg width="24" height="24" viewBox="0 0 24 24" fill="none" xmlns="http://www.w3.org/2000/svg">
<path d="M4.50867 5.223V14.9259H2.86296C2.38296 14.9259 1.99438 14.5373 1.99438 14.0573V6.08586C1.99438 5.60586 2.38296 5.21729 2.86296 5.21729H4.50867V5.223Z" fill="#4B4B4B"/>
<path d="M13.6286 5.22266H5.3772V14.9255H13.6286V5.22266Z" fill="#4B4B4B"/>
<path d="M17.0744 6.08551V14.0569C17.0744 14.5369 16.6858 14.9255 16.2058 14.9255H14.4858V5.22266H16.2058C16.6858 5.22266 17.0744 5.61123 17.0744 6.08551Z" fill="#4B4B4B"/>
<path d="M5.3714 5.22266H4.50854V14.9255H5.3714V5.22266Z" fill="white"/>
<path d="M14.4857 5.22266H13.6228V14.9255H14.4857V5.22266Z" fill="white"/>
<path d="M11.4858 3.88576V5.21719H10.6573V3.90291H8.31441V5.22291H7.48584V3.88576C7.48584 3.50291 7.79441 3.19434 8.17727 3.19434H10.7944C11.1773 3.19434 11.4858 3.50291 11.4858 3.88576Z" fill="#4B4B4B"/>
<path d="M10.6571 3.90283H8.31421V5.22283H10.6571V3.90283Z" fill="white"/>
<path d="M18.4 17.3886H0.308594V16.52H18.4C18.64 16.52 18.8343 16.3257 18.8343 16.0857V3.39431C18.8343 2.68003 19.4172 2.09717 20.1315 2.09717H23.6915V2.96574H20.1315C19.8915 2.96574 19.6972 3.16002 19.6972 3.40002V16.0915C19.6972 16.8057 19.1143 17.3886 18.4 17.3886Z" fill="#4B4B4B"/>
<path d="M3.49135 21.9031C4.14147 21.9031 4.66849 21.3761 4.66849 20.726C4.66849 20.0759 4.14147 19.5488 3.49135 19.5488C2.84123 19.5488 2.31421 20.0759 2.31421 20.726C2.31421 21.3761 2.84123 21.9031 3.49135 21.9031Z" fill="#4B4B4B" stroke="#4B4B4B" stroke-miterlimit="10"/>
<path d="M14.6171 21.9031C15.2672 21.9031 15.7942 21.3761 15.7942 20.726C15.7942 20.0759 15.2672 19.5488 14.6171 19.5488C13.967 19.5488 13.4399 20.0759 13.4399 20.726C13.4399 21.3761 13.967 21.9031 14.6171 21.9031Z" fill="#4B4B4B" stroke="#4B4B4B" stroke-miterlimit="10"/>
</svg>
