<svg width="16" height="18" viewBox="0 0 16 18" fill="none" xmlns="http://www.w3.org/2000/svg">
<path d="M12.9207 12.4794C12.1477 13.2524 10.5743 14.8257 9.4139 15.9861C8.63285 16.7672 7.36756 16.7675 6.58652 15.9864C5.44676 14.8467 3.90268 13.3026 3.07944 12.4794C0.361866 9.76179 0.361866 5.35573 3.07944 2.63816C5.79702 -0.0794183 10.2031 -0.0794183 12.9207 2.63816C15.6382 5.35573 15.6382 9.76179 12.9207 12.4794Z" stroke="#009AED" stroke-linecap="round" stroke-linejoin="round"/>
<path d="M10.6096 7.55876C10.6096 8.99998 9.44126 10.1683 8.00005 10.1683C6.55884 10.1683 5.3905 8.99998 5.3905 7.55876C5.3905 6.11755 6.55884 4.94922 8.00005 4.94922C9.44126 4.94922 10.6096 6.11755 10.6096 7.55876Z" stroke="#009AED" stroke-linecap="round" stroke-linejoin="round"/>
</svg>
