<svg width="24" height="24" viewBox="0 0 24 24" fill="none" xmlns="http://www.w3.org/2000/svg">
<path d="M20.0343 17.0344L17.0343 20.0344C16.8904 20.172 16.6991 20.2492 16.4999 20.25C16.4004 20.2496 16.3018 20.2305 16.2093 20.1938C16.0728 20.1364 15.9564 20.0399 15.8746 19.9164C15.7929 19.793 15.7495 19.6481 15.7499 19.5V17.25H4.49995C4.30103 17.25 4.11027 17.171 3.96962 17.0304C3.82896 16.8897 3.74995 16.6989 3.74995 16.5C3.74995 16.3011 3.82896 16.1103 3.96962 15.9697C4.11027 15.829 4.30103 15.75 4.49995 15.75H15.7499V13.5C15.7495 13.352 15.7929 13.2071 15.8746 13.0836C15.9564 12.9601 16.0728 12.8637 16.2093 12.8063C16.3479 12.7522 16.4989 12.7385 16.6449 12.7667C16.7909 12.7949 16.9259 12.8639 17.0343 12.9657L20.0343 15.9657C20.1752 16.1078 20.2542 16.2999 20.2542 16.5C20.2542 16.7002 20.1752 16.8922 20.0343 17.0344ZM6.96557 11.0344C7.10954 11.172 7.30079 11.2492 7.49995 11.25C7.59948 11.2496 7.69806 11.2305 7.79057 11.1938C7.92707 11.1364 8.04354 11.0399 8.12528 10.9164C8.20703 10.793 8.25041 10.6481 8.24995 10.5V8.25002H19.4999C19.6989 8.25002 19.8896 8.17101 20.0303 8.03035C20.1709 7.8897 20.2499 7.69894 20.2499 7.50002C20.2499 7.30111 20.1709 7.11035 20.0303 6.9697C19.8896 6.82904 19.6989 6.75002 19.4999 6.75002H8.24995V4.50002C8.25041 4.35196 8.20703 4.20706 8.12528 4.08361C8.04354 3.96015 7.92707 3.86365 7.79057 3.80627C7.65204 3.75224 7.50104 3.73853 7.35504 3.76674C7.20904 3.79494 7.07401 3.86391 6.96557 3.96565L3.96557 6.96565C3.82474 7.10785 3.74573 7.29989 3.74573 7.50002C3.74573 7.70016 3.82474 7.8922 3.96557 8.0344L6.96557 11.0344Z" fill="#B50A27"/>
</svg>
