<svg width="186" height="214" viewBox="0 0 186 214" fill="none" xmlns="http://www.w3.org/2000/svg">
<path d="M104.528 148.45L102.56 148.079V113.159C105.757 112.78 108.258 109.999 108.258 106.594V88.6645C108.258 85.2599 105.756 82.4795 102.56 82.0997V72.8639C102.56 48.8013 83.6189 29.2247 60.3337 29.2247C37.0485 29.2232 18.1071 48.8013 18.1071 72.8639V82.0997C14.91 82.4792 12.4109 85.2598 12.4109 88.6645V106.594C12.4109 109.999 14.91 112.779 18.1071 113.159V148.079L16.1421 148.449C6.78874 150.214 0 158.628 0 168.454V206.219C0 210.51 3.37702 214 7.52917 214H113.14C117.293 214 120.67 210.51 120.67 206.219V168.457C120.667 158.629 113.879 150.217 104.528 148.452L104.528 148.45ZM88.8636 145.488C83.8976 144.55 80.2927 140.082 80.2927 134.864V132.592C81.0372 131.927 81.7948 131.285 82.5029 130.564C83.1705 129.88 83.7902 129.15 84.4142 128.424C90.9217 127.195 96.159 122.198 97.9367 115.703V147.204L88.8636 145.488ZM28.5701 82.3754C49.7655 79.2393 63.2865 74.344 71.7107 66.71C77.652 73.6437 83.3016 78.2058 92.0368 83.1732L90.4883 102.316C90.1211 106.858 89.0109 111.261 87.1896 115.404C86.226 117.589 85.0635 119.699 83.7356 121.665C83.2161 122.438 82.6443 123.177 82.0696 123.911C81.8157 123.927 81.5631 123.951 81.3048 123.951H68.6673C67.3916 123.951 66.3554 125.019 66.3554 126.34C66.3554 127.662 67.3916 128.729 68.6673 128.729H77.5562C73.9586 132.002 69.8762 134.561 65.3281 136.257C62.1121 137.461 58.5683 137.461 55.351 136.257C41.3102 131.015 31.4316 117.692 30.1881 102.314L28.5701 82.3754ZM93.7602 113.235C93.2494 116.083 91.8461 118.603 89.8608 120.485C90.4065 119.467 90.9318 118.438 91.3976 117.379C91.9941 116.022 92.5006 114.636 92.9606 113.234L93.7602 113.235ZM53.7738 140.75C55.8912 141.541 58.1131 141.935 60.3348 141.935C62.5565 141.935 64.78 141.541 66.8958 140.75C70.058 139.57 73.0143 138.013 75.7788 136.144C76.2592 142.165 80.0122 147.322 85.3977 149.427C80.0602 164.328 71.6661 176.564 60.3348 185.777C49.0005 176.561 40.6065 164.326 35.2719 149.427C40.6574 147.322 44.4104 142.162 44.8908 136.141C47.6409 138.004 50.6074 139.568 53.7738 140.75ZM103.635 88.664V106.594C103.635 107.621 102.825 108.457 101.833 108.457H94.2225C94.6202 106.567 94.9366 104.656 95.0947 102.714L96.382 86.8014H101.833C102.826 86.7984 103.635 87.6352 103.635 88.664ZM60.3348 33.9979C81.0688 33.9979 97.9398 51.4298 97.9398 72.8608V82.0199H96.7701V82.0154C96.847 81.0675 96.3725 80.1616 95.5612 79.7102C85.8219 74.3154 80.0894 69.609 73.6517 61.7216C73.2309 61.2087 72.6228 60.8997 71.9741 60.8757C71.3414 60.8397 70.6941 61.1082 70.2384 61.5851C62.496 69.7079 48.7833 74.7579 25.7789 77.9523C24.5584 78.1218 23.6804 79.2497 23.7835 80.52L23.9054 82.0228H22.7357V72.8638C22.7328 51.4334 39.6007 33.9969 60.337 33.9969L60.3348 33.9979ZM17.0344 106.59V88.6606C17.0344 87.6332 17.8442 86.7978 18.8369 86.7978H24.2848L25.5721 102.71C25.7288 104.66 26.0278 106.574 26.4254 108.453H18.8368C17.8427 108.452 17.0344 107.618 17.0344 106.59ZM22.7306 113.23H27.7241C30.2028 120.762 34.5827 127.471 40.3761 132.636V134.86C40.3761 140.079 36.7727 144.547 31.8052 145.485L22.7291 147.2L22.7276 113.23L22.7306 113.23ZM16.972 153.141L30.7427 150.539C36.5911 167.161 46.0459 180.686 58.9476 190.692L60.3349 191.767L61.7223 190.692C74.6211 180.687 84.0788 167.164 89.9272 150.539L103.698 153.141C110.853 154.494 116.046 160.931 116.046 168.448V169.573L98.8128 185.619C95.0467 189.126 92.8875 194.137 92.8875 199.375L92.886 209.215H27.7813V199.377C27.7813 194.142 25.6218 189.129 21.8589 185.621L4.62238 169.571V168.446C4.62383 160.931 9.81735 154.495 16.972 153.141ZM4.62353 206.214V176.007L18.7642 189.172C21.5564 191.774 23.1585 195.493 23.1585 199.375L23.1571 209.216H7.52735C5.92663 209.216 4.62353 207.871 4.62353 206.214ZM113.136 209.217H97.5066V199.378C97.5066 195.494 99.1059 191.771 101.898 189.175L116.039 176.007V206.216C116.042 207.871 114.741 209.217 113.136 209.217Z" fill="#010101"/>
<path d="M41.1798 90.5966C45.0658 88.7334 48.8447 88.7305 52.7337 90.5966C53.0578 90.7521 53.3978 90.8262 53.7335 90.8262C54.5968 90.8262 55.4237 90.3422 55.8219 89.5139C56.3757 88.3614 55.8888 86.9793 54.7363 86.4256C49.5757 83.9492 44.338 83.9492 39.1774 86.4256C38.0249 86.9793 37.5381 88.3614 38.0918 89.5139C38.6455 90.6678 40.0302 91.1517 41.1798 90.5966Z" fill="#010101"/>
<path d="M66.9476 90.5966C70.8322 88.7334 74.6095 88.7305 78.5 90.5966C78.8241 90.7521 79.1642 90.8262 79.4999 90.8262C80.3631 90.8262 81.1901 90.3422 81.5883 89.5139C82.142 88.3614 81.6551 86.9793 80.5026 86.4256C75.342 83.9492 70.1059 83.9492 64.9437 86.4256C63.7913 86.9793 63.3044 88.3614 63.8581 89.5139C64.4118 90.6678 65.801 91.1473 66.9476 90.5966Z" fill="#010101"/>
<path d="M49.8447 112.759C48.9539 113.676 48.9713 115.141 49.8883 116.032C53.3239 119.379 56.8612 121.053 60.4046 121.053C63.9462 121.053 67.4954 119.382 70.9498 116.039C71.8683 115.15 71.8915 113.682 71.0036 112.766C70.1142 111.845 68.6449 111.826 67.7307 112.713C62.6557 117.623 58.1521 117.62 53.1164 112.72C52.2052 111.829 50.7371 111.842 49.8447 112.759Z" fill="#010101"/>
<path d="M117.14 74.4758C116.763 74.4758 116.39 74.402 116.037 74.2545C115.135 73.8726 114.564 73.0611 114.564 72.1716V57.0476C107.857 55.9584 102.758 50.6979 102.758 44.3897V12.863C102.758 5.7713 109.209 0 117.14 0H171.336C179.267 0 185.718 5.7713 185.718 12.863V44.3882C185.718 51.4829 179.267 57.2512 171.336 57.2512L141.506 57.2527L118.777 73.9519C118.305 74.2976 117.727 74.4755 117.14 74.4755L117.14 74.4758ZM117.14 4.60995C112.048 4.60995 107.909 8.31283 107.909 12.8648V44.3899C107.909 48.9433 112.048 52.6447 117.14 52.6447C118.564 52.6447 119.716 53.6775 119.716 54.9489V67.2958L138.947 53.1671C139.408 52.8286 139.985 52.6435 140.582 52.6435H171.334C176.426 52.6435 180.565 48.9406 180.565 44.3887V12.865C180.565 8.31305 176.427 4.61017 171.334 4.61017L117.14 4.60995Z" fill="#010101"/>
<path d="M166.19 24.511H117.572C116.157 24.511 115.013 23.4547 115.013 22.1542C115.013 20.8537 116.157 19.7974 117.572 19.7974H166.19C167.605 19.7974 168.749 20.8537 168.749 22.1542C168.749 23.4547 167.602 24.511 166.19 24.511Z" fill="#010101"/>
<path d="M141.697 39.5947H117.554C116.149 39.5947 115.013 38.5384 115.013 37.2379C115.013 35.9374 116.149 34.8811 117.554 34.8811H141.697C143.102 34.8811 144.238 35.9374 144.238 37.2379C144.238 38.5398 143.101 39.5947 141.697 39.5947Z" fill="#010101"/>
</svg>
