<svg width="21" height="18" viewBox="0 0 21 18" fill="none" xmlns="http://www.w3.org/2000/svg">
<path d="M19.9 7.20078C19.8 7.40078 19.5 7.60078 19.3 7.70078L14 9.10078L9.7 10.3008L4.4 11.7008L3.1 12.0008L2.5 11.0008L1 8.40078L1.6 8.20078L3.4 9.60078L3.6 9.80078L3.8 9.70078L8.8 8.40078L9.4 8.20078L9.1 7.70078L5.2 1.10078L6.2 0.800781L13 7.10078L13.2 7.30078L13.5 7.20078L18.8 5.80078C18.9 5.80078 19.1 5.80078 19.2 5.80078C19.3 5.80078 19.5 5.90078 19.6 5.90078C19.7 6.00078 19.8 6.10078 19.9 6.20078C20 6.30078 20 6.40078 20.1 6.50078C20 6.70078 20 7.00078 19.9 7.20078ZM1.4 16.2008H19.4V17.2008H1.4V16.2008V16.2008Z" fill="#34495E" stroke="#34495E"/>
</svg>
