<svg width="130" height="130" viewBox="0 0 130 130" fill="none" xmlns="http://www.w3.org/2000/svg">
<circle cx="65" cy="65" r="65" fill="#CF152D"/>
<path d="M57.4688 82.5V82.0312C57.5208 77.0573 58.0417 73.099 59.0313 70.1562C60.0208 67.2135 61.4271 64.8307 63.25 63.0078C65.0729 61.1849 67.2604 59.5052 69.8125 57.9687C71.349 57.0312 72.7292 55.9245 73.9531 54.6484C75.1771 53.3464 76.1406 51.849 76.8437 50.1562C77.5729 48.4635 77.9375 46.5885 77.9375 44.5312C77.9375 41.9792 77.3385 39.7656 76.1406 37.8906C74.9427 36.0156 73.3411 34.5703 71.3359 33.5547C69.3307 32.5391 67.1042 32.0312 64.6563 32.0312C62.5208 32.0312 60.4635 32.474 58.4844 33.3594C56.5052 34.2448 54.8516 35.638 53.5234 37.5391C52.1953 39.4401 51.4271 41.9271 51.2188 45H41.375C41.5833 40.5729 42.7292 36.7839 44.8125 33.6328C46.9219 30.4818 49.6953 28.0729 53.1328 26.4062C56.5964 24.7396 60.4375 23.9062 64.6563 23.9062C69.2396 23.9062 73.224 24.8177 76.6094 26.6406C80.0208 28.4635 82.651 30.9635 84.5 34.1406C86.375 37.3177 87.3125 40.9375 87.3125 45C87.3125 47.8646 86.8698 50.4557 85.9844 52.7734C85.125 55.0911 83.875 57.1615 82.2344 58.9844C80.6198 60.8073 78.6667 62.4219 76.375 63.8281C74.0833 65.2604 72.2474 66.7708 70.8672 68.3594C69.487 69.9219 68.4844 71.7839 67.8594 73.9453C67.2344 76.1068 66.8958 78.8021 66.8437 82.0312V82.5H57.4688ZM62.4688 105.625C60.5417 105.625 58.888 104.935 57.5078 103.555C56.1276 102.174 55.4375 100.521 55.4375 98.5937C55.4375 96.6667 56.1276 95.013 57.5078 93.6328C58.888 92.2526 60.5417 91.5625 62.4688 91.5625C64.3958 91.5625 66.0495 92.2526 67.4297 93.6328C68.8099 95.013 69.5 96.6667 69.5 98.5937C69.5 99.8698 69.1745 101.042 68.5234 102.109C67.8984 103.177 67.0521 104.036 65.9844 104.687C64.9427 105.313 63.7708 105.625 62.4688 105.625Z" fill="white"/>
</svg>
