<svg width="15" height="15" viewBox="0 0 15 15" fill="none" xmlns="http://www.w3.org/2000/svg">
<g clip-path="url(#clip0_1208_32)">
<path d="M11 9.5H4C3.86194 9.5 3.75 9.61194 3.75 9.75V13.75C3.75 13.8881 3.86194 14 4 14H11C11.1381 14 11.25 13.8881 11.25 13.75V9.75C11.25 9.61194 11.1381 9.5 11 9.5ZM10.7362 10C10.6075 11.1382 9.64539 11.9987 8.5 12H7.75V11.75C7.75 11.6119 7.63806 11.5 7.5 11.5C7.36194 11.5 7.25 11.6119 7.25 11.75V12H6.5C5.35461 11.9987 4.39246 11.1382 4.26379 10H10.7362ZM10.75 13.5H4.25V11.3263C4.76355 12.0612 5.60339 12.4993 6.5 12.5H7.25V12.75C7.25 12.8881 7.36194 13 7.5 13C7.63806 13 7.75 12.8881 7.75 12.75V12.5H8.5C9.39661 12.4993 10.2365 12.0612 10.75 11.3263V13.5Z" fill="#54D834"/>
<path d="M13.5 9H12.75V4.97498C13.3317 4.85535 13.7493 4.34375 13.75 3.75V2.25C13.7491 1.55994 13.1901 1.00085 12.5 1H9.47497C9.35535 0.418335 8.84375 0.000732422 8.25 0H6.75C6.15625 0.000732422 5.64465 0.418335 5.52502 1H2.5C1.80994 1.00085 1.25085 1.55994 1.25 2.25V3.75C1.25073 4.34375 1.66833 4.85535 2.25 4.97498V9H1.5C0.809936 9.00085 0.250854 9.55994 0.25 10.25V12.25C0.250854 12.9401 0.809936 13.4991 1.5 13.5H2.25V13.75C2.25085 14.4401 2.80994 14.9991 3.5 15H11.5C12.1901 14.9991 12.7491 14.4401 12.75 13.75V13.5H13.5C14.1901 13.4991 14.7491 12.9401 14.75 12.25V10.25C14.7491 9.55994 14.1901 9.00085 13.5 9ZM13.25 2.25V3.75C13.25 4.16418 12.9142 4.5 12.5 4.5H11.25V1.5H12.5C12.9142 1.5 13.25 1.83582 13.25 2.25ZM10.75 1.5V4.5H10.25V1.5H10.75ZM10.25 7H10.75V7.25C10.75 7.38806 10.6381 7.5 10.5 7.5C10.3619 7.5 10.25 7.38806 10.25 7.25V7ZM10.25 6.5V5H10.75V6.5H10.25ZM9.75 1.5V4.5H5.25V1.5H9.75ZM6.75 0.5H8.25C8.56775 0.500366 8.85095 0.700562 8.95727 1H6.04272C6.14905 0.700562 6.43225 0.500366 6.75 0.5ZM4.75 1.5V4.5H4.25V1.5H4.75ZM4.25 7H4.75V7.25C4.75 7.38806 4.63806 7.5 4.5 7.5C4.36194 7.5 4.25 7.38806 4.25 7.25V7ZM4.25 6.5V5H4.75V6.5H4.25ZM1.75 3.75V2.25C1.75 1.83582 2.08582 1.5 2.5 1.5H3.75V4.5H2.5C2.08582 4.5 1.75 4.16418 1.75 3.75ZM1.5 13C1.08582 13 0.75 12.6642 0.75 12.25V10.25C0.75 9.83582 1.08582 9.5 1.5 9.5H2.25V13H1.5ZM12.25 13.75C12.25 14.1642 11.9142 14.5 11.5 14.5H3.5C3.08582 14.5 2.75 14.1642 2.75 13.75V5H3.75V6.5H3.5C3.36194 6.5 3.25 6.61194 3.25 6.75C3.25 6.88806 3.36194 7 3.5 7H3.75V7.25C3.75 7.66418 4.08581 8 4.5 8C4.91418 8 5.25 7.66418 5.25 7.25V7H5.5C5.63806 7 5.75 6.88806 5.75 6.75C5.75 6.61194 5.63806 6.5 5.5 6.5H5.25V5H9.75V6.5H9.5C9.36194 6.5 9.25 6.61194 9.25 6.75C9.25 6.88806 9.36194 7 9.5 7H9.75V7.25C9.75 7.66418 10.0858 8 10.5 8C10.9142 8 11.25 7.66418 11.25 7.25V7H11.5C11.6381 7 11.75 6.88806 11.75 6.75C11.75 6.61194 11.6381 6.5 11.5 6.5H11.25V5H12.25V13.75ZM14.25 12.25C14.25 12.6642 13.9142 13 13.5 13H12.75V9.5H13.5C13.9142 9.5 14.25 9.83582 14.25 10.25V12.25Z" fill="#54D834"/>
</g>
<defs>
<clipPath id="clip0_1208_32">
<rect width="15" height="15" fill="white"/>
</clipPath>
</defs>
</svg>
