<svg width="108" height="24" viewBox="0 0 108 24" fill="none" xmlns="http://www.w3.org/2000/svg">
<rect width="108" height="24" rx="12" fill="#FFF2E0"/>
<path d="M13.0198 8.99H18.5498V10.45H14.8498V11.76H18.1898V13.21L14.8498 13.22V14.54H18.6498V16H13.0198V8.99ZM19.7679 8.99H21.5979V14.44H24.5679V16H19.7679V8.99ZM27.6195 8.99H29.6095L31.6395 13.09L33.6595 8.99H35.6495V16H34.0295L34.0195 11.56L32.2295 15.3H31.0495L29.2495 11.56V16H27.6195V8.99ZM42.164 16L41.684 14.76H38.654L38.164 16H36.284L39.294 8.99H41.174L44.114 16H42.164ZM39.204 13.36H41.144L40.184 10.86L39.204 13.36ZM40.504 6.78L41.974 7.34L40.524 8.49L39.304 8.39L40.504 6.78ZM49.5491 11.1C49.1757 10.88 48.7757 10.7 48.3491 10.56C47.9291 10.42 47.5757 10.35 47.2891 10.35C47.0624 10.35 46.8824 10.3933 46.7491 10.48C46.6224 10.56 46.5591 10.68 46.5591 10.84C46.5591 10.9933 46.6157 11.1233 46.7291 11.23C46.8424 11.33 46.9824 11.4133 47.1491 11.48C47.3157 11.54 47.5624 11.62 47.8891 11.72C48.3757 11.86 48.7757 12 49.0891 12.14C49.4091 12.28 49.6824 12.4967 49.9091 12.79C50.1357 13.0767 50.2491 13.4533 50.2491 13.92C50.2491 14.3867 50.1257 14.7867 49.8791 15.12C49.6324 15.4467 49.2924 15.6933 48.8591 15.86C48.4324 16.0267 47.9557 16.11 47.4291 16.11C46.8491 16.11 46.2691 16.01 45.6891 15.81C45.1157 15.6033 44.6191 15.3233 44.1991 14.97L44.9091 13.54C45.2624 13.8533 45.6791 14.11 46.1591 14.31C46.6457 14.51 47.0757 14.61 47.4491 14.61C47.7224 14.61 47.9357 14.56 48.0891 14.46C48.2491 14.36 48.3291 14.2133 48.3291 14.02C48.3291 13.86 48.2691 13.7267 48.1491 13.62C48.0357 13.5133 47.8891 13.43 47.7091 13.37C47.5357 13.3033 47.2891 13.2267 46.9691 13.14C46.4891 13.0067 46.0924 12.8733 45.7791 12.74C45.4657 12.6 45.1957 12.3933 44.9691 12.12C44.7491 11.84 44.6391 11.47 44.6391 11.01C44.6391 10.5767 44.7524 10.1967 44.9791 9.87C45.2124 9.54333 45.5391 9.29333 45.9591 9.12C46.3857 8.94 46.8791 8.85 47.4391 8.85C47.9457 8.85 48.4457 8.92333 48.9391 9.07C49.4324 9.21 49.8657 9.4 50.2391 9.64L49.5491 11.1ZM56.7307 8.99C57.2574 8.99 57.714 9.06333 58.1007 9.21C58.494 9.35 58.7974 9.55333 59.0107 9.82C59.224 10.0867 59.3307 10.4 59.3307 10.76C59.3307 11.1267 59.2207 11.4467 59.0007 11.72C58.7874 11.9933 58.494 12.18 58.1207 12.28C58.5674 12.3667 58.9174 12.57 59.1707 12.89C59.4307 13.21 59.5607 13.5967 59.5607 14.05C59.5607 14.4433 59.4507 14.79 59.2307 15.09C59.0107 15.3833 58.6974 15.61 58.2907 15.77C57.884 15.9233 57.4074 16 56.8607 16H53.4007V8.99H56.7307ZM56.6307 11.78C56.884 11.78 57.084 11.72 57.2307 11.6C57.3774 11.4733 57.4507 11.3 57.4507 11.08C57.4507 10.8667 57.3774 10.7033 57.2307 10.59C57.084 10.47 56.884 10.4133 56.6307 10.42H55.2307V11.78H56.6307ZM56.6307 14.58C56.9507 14.58 57.204 14.5133 57.3907 14.38C57.5774 14.2467 57.6707 14.06 57.6707 13.82C57.6707 13.6 57.5774 13.4267 57.3907 13.3C57.204 13.1667 56.9507 13.1033 56.6307 13.11H55.2307V14.58H56.6307ZM65.7089 16L65.2289 14.76H62.1989L61.7089 16H59.8289L62.8389 8.99H64.7189L67.6589 16H65.7089ZM62.7489 13.36H64.6889L63.7289 10.86L62.7489 13.36ZM72.5033 16L71.4833 14.06H71.4433H70.1233V16H68.2933V8.99H71.4433C72.3699 8.99 73.0866 9.20667 73.5933 9.64C74.1066 10.0667 74.3633 10.67 74.3633 11.45C74.3633 11.9767 74.2566 12.4333 74.0433 12.82C73.8299 13.2 73.5199 13.4967 73.1133 13.71L74.5733 16H72.5033ZM70.1233 12.6H71.4533C71.8266 12.6 72.1133 12.5067 72.3133 12.32C72.5199 12.1333 72.6233 11.8633 72.6233 11.51C72.6233 11.17 72.5199 10.91 72.3133 10.73C72.1133 10.5433 71.8266 10.45 71.4533 10.45H70.1233V12.6ZM80.6796 16L80.1996 14.76H77.1696L76.6796 16H74.7996L77.8096 8.99H79.6896L82.6296 16H80.6796ZM77.7196 13.36H79.6596L78.6996 10.86L77.7196 13.36ZM81.902 8.99H87.912V10.5H85.812V16H83.982V10.5H81.902V8.99ZM91.643 8.88C92.3564 8.88 92.9997 9.03667 93.573 9.35C94.153 9.66333 94.6064 10.0933 94.933 10.64C95.2664 11.1867 95.433 11.8 95.433 12.48C95.433 13.1667 95.2664 13.7867 94.933 14.34C94.6064 14.8933 94.153 15.33 93.573 15.65C92.9997 15.97 92.3564 16.13 91.643 16.13C90.9297 16.13 90.283 15.9733 89.703 15.66C89.1297 15.34 88.6764 14.9033 88.343 14.35C88.0164 13.79 87.853 13.1667 87.853 12.48C87.853 11.8 88.0164 11.1867 88.343 10.64C88.6764 10.0933 89.1297 9.66333 89.703 9.35C90.283 9.03667 90.9297 8.88 91.643 8.88ZM91.663 10.43C91.3164 10.43 90.993 10.52 90.693 10.7C90.3997 10.88 90.1664 11.13 89.993 11.45C89.8197 11.7633 89.733 12.11 89.733 12.49C89.733 12.8767 89.8197 13.23 89.993 13.55C90.173 13.8633 90.4097 14.1133 90.703 14.3C90.9964 14.48 91.3164 14.57 91.663 14.57C92.0097 14.57 92.3264 14.48 92.613 14.3C92.9064 14.1133 93.1364 13.8633 93.303 13.55C93.4697 13.23 93.553 12.8767 93.553 12.49C93.553 12.11 93.4697 11.7633 93.303 11.45C93.1364 11.13 92.9064 10.88 92.613 10.7C92.3264 10.52 92.0097 10.43 91.663 10.43Z" fill="#EA5A0C"/>
</svg>
