<svg width="104" height="24" viewBox="0 0 104 24" fill="none" xmlns="http://www.w3.org/2000/svg">
<rect width="104" height="24" rx="12" fill="#D2F4DF"/>
<path d="M12.7435 8.99H14.7335L16.7635 13.09L18.7835 8.99H20.7735V16H19.1535L19.1435 11.56L17.3535 15.3H16.1735L14.3735 11.56V16H12.7435V8.99ZM22.138 8.99H27.668V10.45H23.968V11.76H27.308V13.21L23.968 13.22V14.54H27.768V16H22.138V8.99ZM33.0361 13.72C33.0361 14.4667 32.8161 15.0467 32.3761 15.46C31.9427 15.8733 31.3494 16.08 30.5961 16.08C29.6161 16.08 28.8027 15.7033 28.1561 14.95L28.9961 13.7C29.2427 13.9533 29.4961 14.15 29.7561 14.29C30.0161 14.4233 30.2527 14.49 30.4661 14.49C30.6927 14.49 30.8694 14.42 30.9961 14.28C31.1294 14.14 31.1961 13.94 31.1961 13.68V10.5H28.7961V8.99H33.0361V13.72ZM37.6167 8.88C38.33 8.88 38.9733 9.03667 39.5467 9.35C40.1267 9.66333 40.58 10.0933 40.9067 10.64C41.24 11.1867 41.4067 11.8 41.4067 12.48C41.4067 13.1667 41.24 13.7867 40.9067 14.34C40.58 14.8933 40.1267 15.33 39.5467 15.65C38.9733 15.97 38.33 16.13 37.6167 16.13C36.9033 16.13 36.2567 15.9733 35.6767 15.66C35.1033 15.34 34.65 14.9033 34.3167 14.35C33.99 13.79 33.8267 13.1667 33.8267 12.48C33.8267 11.8 33.99 11.1867 34.3167 10.64C34.65 10.0933 35.1033 9.66333 35.6767 9.35C36.2567 9.03667 36.9033 8.88 37.6167 8.88ZM37.6367 10.43C37.29 10.43 36.9667 10.52 36.6667 10.7C36.3733 10.88 36.14 11.13 35.9667 11.45C35.7933 11.7633 35.7067 12.11 35.7067 12.49C35.7067 12.8767 35.7933 13.23 35.9667 13.55C36.1467 13.8633 36.3833 14.1133 36.6767 14.3C36.97 14.48 37.29 14.57 37.6367 14.57C37.9833 14.57 38.3 14.48 38.5867 14.3C38.88 14.1133 39.11 13.8633 39.2767 13.55C39.4433 13.23 39.5267 12.8767 39.5267 12.49C39.5267 12.11 39.4433 11.7633 39.2767 11.45C39.11 11.13 38.88 10.88 38.5867 10.7C38.3 10.52 37.9833 10.43 37.6367 10.43ZM46.5238 16L45.5038 14.06H45.4638H44.1438V16H42.3138V8.99H45.4638C46.3905 8.99 47.1071 9.20667 47.6138 9.64C48.1271 10.0667 48.3838 10.67 48.3838 11.45C48.3838 11.9767 48.2771 12.4333 48.0638 12.82C47.8505 13.2 47.5405 13.4967 47.1338 13.71L48.5938 16H46.5238ZM44.1438 12.6H45.4738C45.8471 12.6 46.1338 12.5067 46.3338 12.32C46.5405 12.1333 46.6438 11.8633 46.6438 11.51C46.6438 11.17 46.5405 10.91 46.3338 10.73C46.1338 10.5433 45.8471 10.45 45.4738 10.45H44.1438V12.6ZM55.1069 8.88C55.8202 8.88 56.4636 9.03667 57.0369 9.35C57.6169 9.66333 58.0702 10.0933 58.3969 10.64C58.7302 11.1867 58.8969 11.8 58.8969 12.48C58.8969 13.1667 58.7302 13.7867 58.3969 14.34C58.0702 14.8933 57.6169 15.33 57.0369 15.65C56.4636 15.97 55.8202 16.13 55.1069 16.13C54.3936 16.13 53.7469 15.9733 53.1669 15.66C52.5936 15.34 52.1402 14.9033 51.8069 14.35C51.4802 13.79 51.3169 13.1667 51.3169 12.48C51.3169 11.8 51.4802 11.1867 51.8069 10.64C52.1402 10.0933 52.5936 9.66333 53.1669 9.35C53.7469 9.03667 54.3936 8.88 55.1069 8.88ZM55.1269 10.43C54.7802 10.43 54.4569 10.52 54.1569 10.7C53.8636 10.88 53.6302 11.13 53.4569 11.45C53.2836 11.7633 53.1969 12.11 53.1969 12.49C53.1969 12.8767 53.2836 13.23 53.4569 13.55C53.6369 13.8633 53.8736 14.1133 54.1669 14.3C54.4602 14.48 54.7802 14.57 55.1269 14.57C55.4736 14.57 55.7902 14.48 56.0769 14.3C56.3702 14.1133 56.6002 13.8633 56.7669 13.55C56.9336 13.23 57.0169 12.8767 57.0169 12.49C57.0169 12.11 56.9336 11.7633 56.7669 11.45C56.6002 11.13 56.3702 10.88 56.0769 10.7C55.7902 10.52 55.4736 10.43 55.1269 10.43ZM62.884 8.99C63.7774 8.99 64.4707 9.20667 64.964 9.64C65.4574 10.0667 65.704 10.67 65.704 11.45C65.704 12.2767 65.4574 12.92 64.964 13.38C64.4707 13.8333 63.7774 14.06 62.884 14.06H61.634V16H59.804V8.99H62.884ZM62.794 12.6C63.1674 12.6 63.454 12.5067 63.654 12.32C63.8607 12.1333 63.964 11.8633 63.964 11.51C63.964 11.17 63.8607 10.91 63.654 10.73C63.454 10.5433 63.1674 10.45 62.794 10.45H61.634V12.6H62.794ZM71.6709 11.37C71.4442 11.0833 71.1742 10.8567 70.8609 10.69C70.5476 10.5167 70.2376 10.43 69.9309 10.43C69.5776 10.43 69.2542 10.52 68.9609 10.7C68.6742 10.8733 68.4476 11.1167 68.2809 11.43C68.1142 11.7367 68.0309 12.08 68.0309 12.46C68.0309 12.84 68.1142 13.1867 68.2809 13.5C68.4476 13.8067 68.6742 14.05 68.9609 14.23C69.2542 14.4033 69.5776 14.49 69.9309 14.49C70.2176 14.49 70.5176 14.4167 70.8309 14.27C71.1442 14.1233 71.4242 13.9233 71.6709 13.67L72.7409 14.82C72.3609 15.22 71.9076 15.54 71.3809 15.78C70.8609 16.0133 70.3442 16.13 69.8309 16.13C69.1376 16.13 68.5109 15.97 67.9509 15.65C67.3909 15.33 66.9509 14.8933 66.6309 14.34C66.3109 13.7867 66.1509 13.1667 66.1509 12.48C66.1509 11.8 66.3142 11.1867 66.6409 10.64C66.9676 10.0933 67.4142 9.66333 67.9809 9.35C68.5542 9.03667 69.1942 8.88 69.9009 8.88C70.4209 8.88 70.9342 8.99 71.4409 9.21C71.9476 9.42333 72.3776 9.71667 72.7309 10.09L71.6709 11.37ZM73.5247 8.99H75.3547V16H73.5247V8.99ZM80.0581 8.88C80.7714 8.88 81.4148 9.03667 81.9881 9.35C82.5681 9.66333 83.0214 10.0933 83.3481 10.64C83.6814 11.1867 83.8481 11.8 83.8481 12.48C83.8481 13.1667 83.6814 13.7867 83.3481 14.34C83.0214 14.8933 82.5681 15.33 81.9881 15.65C81.4148 15.97 80.7714 16.13 80.0581 16.13C79.3448 16.13 78.6981 15.9733 78.1181 15.66C77.5448 15.34 77.0914 14.9033 76.7581 14.35C76.4314 13.79 76.2681 13.1667 76.2681 12.48C76.2681 11.8 76.4314 11.1867 76.7581 10.64C77.0914 10.0933 77.5448 9.66333 78.1181 9.35C78.6981 9.03667 79.3448 8.88 80.0581 8.88ZM80.0781 10.43C79.7314 10.43 79.4081 10.52 79.1081 10.7C78.8148 10.88 78.5814 11.13 78.4081 11.45C78.2348 11.7633 78.1481 12.11 78.1481 12.49C78.1481 12.8767 78.2348 13.23 78.4081 13.55C78.5881 13.8633 78.8248 14.1133 79.1181 14.3C79.4114 14.48 79.7314 14.57 80.0781 14.57C80.4248 14.57 80.7414 14.48 81.0281 14.3C81.3214 14.1133 81.5514 13.8633 81.7181 13.55C81.8848 13.23 81.9681 12.8767 81.9681 12.49C81.9681 12.11 81.8848 11.7633 81.7181 11.45C81.5514 11.13 81.3214 10.88 81.0281 10.7C80.7414 10.52 80.4248 10.43 80.0781 10.43ZM80.3581 6.78L81.8281 7.34L80.3781 8.49L79.1581 8.39L80.3581 6.78ZM89.5452 8.99H91.2452V16H89.6452L86.4652 11.81V16H84.7552V8.99H86.3652L89.5552 13.21L89.5452 8.99Z" fill="#247144"/>
</svg>
