<svg xmlns="http://www.w3.org/2000/svg" width="53.545" height="58.575" viewBox="0 0 53.545 58.575"><g transform="translate(-92.667 -86.489)"><path d="M181.981,106.626c-.108.775-.259,1.587-.45,2.406a19.157,19.157,0,0,1,0,37.342c.191.819.342,1.631.45,2.406a21.6,21.6,0,0,0,0-42.155Z" transform="translate(-52.634 -11.927)" fill="#b50a27"/><path d="M137.738,105.016a10.1,10.1,0,0,1,2.152-2.251l.3-.229,3.613.418.079,0a1.485,1.485,0,0,0,.883-.435c1.155-1.03,2.133-3.347,2.736-5.815a23.9,23.9,0,0,0,.46-2.411,18.252,18.252,0,0,0,.184-2.446c0-2.5-.611-4.142-1.633-4.386l-3.592-.862a4.073,4.073,0,0,0-.95-.113c-3.982,0-7.712,5.518-10.142,12.672q-.153.452-.3.913c-.42,1.318-.8,2.684-1.12,4.076-.067.287-.122.578-.185.866h7.518Z" transform="translate(-22.242)" fill="#b50a27"/><path d="M147.514,192.5c-.6-2.468-1.581-4.785-2.735-5.816a1.413,1.413,0,0,0-.887-.435c-.02,0-.061,0-.084,0l-3.6.417-.3-.228a10.059,10.059,0,0,1-2.4-2.612,3.886,3.886,0,0,1-1.8.446h-5.456q.086.394.178.785c.4,1.716.878,3.393,1.42,4.988,2.43,7.153,6.158,12.669,10.139,12.669a4.094,4.094,0,0,0,.95-.113l3.59-.861c1.024-.245,1.635-1.885,1.635-4.388a18.252,18.252,0,0,0-.184-2.445A23.893,23.893,0,0,0,147.514,192.5Z" transform="translate(-22.258 -57.656)" fill="#b50a27"/><path d="M114.194,148.294a1.63,1.63,0,0,0,.759-1.09,1.459,1.459,0,0,0-.191-1.05l-.5-.8c1.222-.993,2.084-2.16,1.131-3.534l-.636-.917.935-.579.013-.008a2.238,2.238,0,0,0,1.006-1.47,2.163,2.163,0,0,0-.329-1.628l-.565-.826-.056-.082.068-.043.864-.544a2.228,2.228,0,0,0,.977-1.459,2.034,2.034,0,0,0-1.91-2.48h-9.978l.906-4.228c-2.723.671-6.989,3.991-9.152,5.773l-.294.242H92.667V146.4h3.5c2.582,1.1,4.519,2.087,7.3,2.1l.039,0,9.936,0A1.465,1.465,0,0,0,114.194,148.294Z" transform="translate(0 -24.326)" fill="#b50a27"/><path d="M186.383,141.518a11.946,11.946,0,0,0-9.029-11.569l-.468,2.406a9.479,9.479,0,0,1-.049,18.339l.477,2.4A11.946,11.946,0,0,0,186.383,141.518Z" transform="translate(-49.853 -25.741)" fill="#b50a27"/></g></svg>