<svg width="15" height="15" viewBox="0 0 15 15" fill="none" xmlns="http://www.w3.org/2000/svg">
  <path
    d="M6.25116 0.905457H8.7581V1.32729H9.66344V0.846405C9.66356 0.379715 9.28407 0 8.81761 0H6.19165C5.72519 0 5.3457 0.379715 5.3457 0.846405V1.32729H6.25116V0.905457Z"
    fill="#009AED" />
  <path
    d="M11.7545 4.91455H3.25522C3.02233 4.91455 2.839 5.11322 2.85777 5.34542L3.56833 14.1317C3.60793 14.6222 4.01705 15 4.50858 15H10.501C10.9926 15 11.4017 14.6222 11.4413 14.1316L12.1519 5.34542C12.1707 5.11322 11.9874 4.91455 11.7545 4.91455ZM5.31321 14.0628C5.30371 14.0634 5.29422 14.0638 5.28483 14.0638C5.04748 14.0638 4.84824 13.8789 4.83348 13.6388L4.38819 6.42574C4.37285 6.17615 4.56271 5.96134 4.81219 5.94601C5.06087 5.9309 5.27659 6.1203 5.29193 6.37001L5.7371 13.5831C5.75255 13.8327 5.56269 14.0474 5.31321 14.0628ZM7.96263 13.611C7.96263 13.861 7.75996 14.0636 7.50991 14.0636C7.25985 14.0636 7.05718 13.861 7.05718 13.611V6.39782C7.05718 6.14777 7.25985 5.94509 7.50991 5.94509C7.75984 5.94509 7.96263 6.14777 7.96263 6.39782V13.611ZM10.6216 6.42448L10.1964 13.6376C10.1823 13.8781 9.98275 14.0636 9.74494 14.0636C9.73601 14.0636 9.72697 14.0634 9.71793 14.063C9.46833 14.0482 9.2779 13.834 9.29267 13.5844L9.7177 6.37115C9.73235 6.12156 9.9459 5.93113 10.1962 5.94589C10.4458 5.96054 10.6362 6.17489 10.6216 6.42448Z"
    fill="#009AED" />
  <path
    d="M13.3198 3.51762L13.0224 2.62636C12.9441 2.39141 12.7241 2.23291 12.4763 2.23291H2.53268C2.28503 2.23291 2.06496 2.39141 1.98668 2.62636L1.68936 3.51762C1.63203 3.68951 1.70664 3.86484 1.84592 3.95227C1.90268 3.98786 1.96986 4.00926 2.04367 4.00926H12.9655C13.0393 4.00926 13.1066 3.98786 13.1632 3.95216C13.3025 3.86472 13.3771 3.6894 13.3198 3.51762Z"
    fill="#009AED" />
</svg>