<svg width="35" height="36" viewBox="0 0 35 36" fill="none" xmlns="http://www.w3.org/2000/svg">
<path d="M17.19 8.26C16.94 8.03 16.91 7.64 17.14 7.39L18.05 6.37C18.77 5.56 20.02 5.48 20.84 6.2C21.24 6.55 21.47 7.04 21.5 7.56C21.53 8.09 21.36 8.6 21 8.99C20.77 9.24 20.4 9.28 20.13 9.04C19.88 8.81 19.85 8.42 20.08 8.17C20.35 7.86 20.33 7.39 20.02 7.11C19.71 6.84 19.24 6.87 18.96 7.17L18.05 8.19C17.83 8.44 17.44 8.47 17.18 8.24L17.19 8.26Z" fill="#1D1D1B"/>
<path d="M28.86 18.25C28.61 18.02 28.58 17.63 28.81 17.38L29.53 16.56C29.81 16.25 29.78 15.77 29.47 15.5C29.32 15.37 29.13 15.3 28.93 15.31C28.73 15.32 28.55 15.41 28.41 15.56C28.18 15.81 27.8 15.84 27.54 15.61C27.29 15.38 27.26 14.99 27.49 14.74C27.84 14.34 28.33 14.11 28.85 14.08C29.38 14.05 29.88 14.22 30.28 14.57C31.1 15.29 31.17 16.55 30.45 17.37L29.73 18.19C29.5 18.44 29.12 18.47 28.86 18.25Z" fill="#1D1D1B"/>
<path d="M13.31 35.64C13.31 35.64 13.22 35.55 13.19 35.49L10.25 30.5L9.89 30.72C9.16 31.16 8.27 31.08 7.63 30.52C6.99 29.95 6.8 29.08 7.16 28.3L7.33 27.92L2.02 25.59C1.83 25.51 1.69 25.33 1.66 25.12C1.63 24.91 1.71 24.7 1.87 24.56L5.43 21.53C5.61 21.38 5.85 21.34 6.06 21.43L10.61 23.3L16.05 14.66L0.369999 7.74001C0.149999 7.64001 0.00999939 7.44001 -6.14673e-07 7.20001C-0.0100006 6.97001 0.109999 6.75001 0.319999 6.63001L5.19 3.93001C5.33 3.85001 5.5 3.83001 5.65 3.87001C5.72 3.89001 12.9 5.88001 17.76 7.20001C20.94 8.06001 21.89 8.30001 22.12 8.35001C22.58 8.34001 23.92 6.59001 24.73 5.55001C25.57 4.46001 26.44 3.33001 27.32 2.50001C29.03 0.880008 31.53 0.250008 32.87 0.0300076C33.39 -0.0599924 33.92 0.0900076 34.31 0.440008C34.71 0.790008 34.92 1.30001 34.89 1.83001C34.82 3.19001 34.5 5.75001 33.09 7.65001C32.37 8.61001 31.36 9.61001 30.37 10.58C29.43 11.5 27.85 13.05 27.9 13.51C28.3 14.67 34.23 29.17 34.29 29.32C34.35 29.47 34.35 29.64 34.29 29.79L32.18 34.94C32.09 35.16 31.89 35.3 31.65 35.32C31.42 35.34 31.19 35.22 31.08 35.02L22.37 20.26L14.43 26.69L16.83 30.99C16.94 31.19 16.93 31.44 16.81 31.63L14.22 35.53C14.1 35.71 13.9 35.81 13.69 35.81C13.54 35.81 13.41 35.75 13.3 35.66L13.31 35.64ZM8.55 27.13C8.62 27.2 8.68 27.28 8.72 27.37C8.78 27.52 8.77 27.7 8.71 27.84L8.28 28.79C8.09 29.22 8.36 29.5 8.45 29.58C8.54 29.66 8.86 29.89 9.25 29.65L10.14 29.11C10.28 29.03 10.45 29 10.61 29.04C10.77 29.08 10.91 29.18 10.99 29.32L13.75 34L15.59 31.23L13.12 26.81C12.97 26.55 13.04 26.22 13.27 26.03L22.16 18.83C22.3 18.72 22.48 18.67 22.66 18.7C22.84 18.73 22.99 18.84 23.08 18.99L31.52 33.3L33.06 29.53C32.26 27.58 27.12 15.01 26.73 13.87C26.36 12.77 27.68 11.47 29.51 9.67001C30.46 8.74001 31.44 7.77001 32.1 6.89001C33.36 5.19001 33.61 2.73001 33.66 1.74001C33.66 1.59001 33.61 1.44001 33.49 1.33001C33.37 1.23001 33.22 1.18001 33.07 1.21001C32.1 1.38001 29.69 1.92001 28.15 3.37001C27.35 4.13001 26.51 5.22001 25.69 6.27001C24.12 8.30001 22.99 9.77001 21.85 9.52001C21.49 9.44001 20.04 9.06001 17.42 8.35001C13.07 7.17001 6.85 5.45001 5.55 5.09001L1.99 7.07001L17.2 13.76C17.36 13.83 17.49 13.97 17.54 14.14C17.59 14.31 17.57 14.5 17.47 14.65L11.37 24.33C11.21 24.58 10.89 24.69 10.61 24.57L5.92 22.64L3.39 24.79L8.37 26.97C8.43 27 8.48 27.03 8.53 27.07L8.55 27.13Z" fill="#1D1D1B"/>
</svg>
