<svg width="16" height="16" viewBox="0 0 16 16" fill="none" xmlns="http://www.w3.org/2000/svg">
<path d="M14.0961 15.6813L8.00004 9.492L1.90939 15.68C1.70159 15.8851 1.42132 16.0001 1.12936 16C0.980018 15.9995 0.832238 15.9694 0.694543 15.9116C0.556847 15.8538 0.431977 15.7694 0.32703 15.6631C0.222083 15.5569 0.139166 15.4309 0.083052 15.2925C0.0269375 15.1541 -0.00127444 15.006 4.41782e-05 14.8567C-0.000452604 14.5616 0.112715 14.2778 0.316044 14.064V14.064L6.2874 7.99733L0.393355 2.00933C0.269908 1.90125 0.171096 1.76798 0.103478 1.61848C0.0358608 1.46899 0.000998297 1.30674 0.00134626 1.14267C0.000115532 0.993834 0.0282074 0.846216 0.0840285 0.708243C0.13985 0.570269 0.22233 0.444642 0.326704 0.338534C0.431078 0.232427 0.55531 0.147917 0.692346 0.0898314C0.829381 0.0317455 0.976537 0.00122072 1.12537 8.30772e-08C1.4165 -0.000112576 1.69597 0.11436 1.90336 0.318667V0.318667L8.00004 6.508L14.0934 0.32C14.3012 0.114902 14.5814 -6.73645e-05 14.8734 8.30772e-08C15.0225 0.000871416 15.1699 0.0311609 15.3073 0.0891326C15.4447 0.147104 15.5694 0.231619 15.674 0.337832C15.7787 0.444045 15.8613 0.569869 15.9173 0.708092C15.9732 0.846316 16.0014 0.994222 16 1.14333C16.0005 1.43836 15.8874 1.72223 15.684 1.936V1.936L9.71269 8.00267L15.6067 13.9907C15.7301 14.0988 15.829 14.2321 15.8966 14.3815C15.9642 14.531 15.999 14.6933 15.9987 14.8573C16 15.0062 15.9719 15.1538 15.9161 15.2918C15.8602 15.4297 15.7778 15.5554 15.6734 15.6615C15.569 15.7676 15.4448 15.8521 15.3077 15.9102C15.1707 15.9683 15.0236 15.9988 14.8747 16C14.5834 16.0002 14.3037 15.8857 14.0961 15.6813V15.6813Z" fill="white"/>
</svg>
