<svg width="25" height="24" viewBox="0 0 25 24" fill="none" xmlns="http://www.w3.org/2000/svg">
<path d="M22.25 6.5H16.25" stroke="#282A2C" stroke-width="1.5" stroke-miterlimit="10" stroke-linecap="round" stroke-linejoin="round"/>
<path d="M6.25 6.5H2.25" stroke="#282A2C" stroke-width="1.5" stroke-miterlimit="10" stroke-linecap="round" stroke-linejoin="round"/>
<path d="M10.25 10C12.183 10 13.75 8.433 13.75 6.5C13.75 4.567 12.183 3 10.25 3C8.317 3 6.75 4.567 6.75 6.5C6.75 8.433 8.317 10 10.25 10Z" stroke="#282A2C" stroke-width="1.5" stroke-miterlimit="10" stroke-linecap="round" stroke-linejoin="round"/>
<path d="M22.25 17.5H18.25" stroke="#282A2C" stroke-width="1.5" stroke-miterlimit="10" stroke-linecap="round" stroke-linejoin="round"/>
<path d="M8.25 17.5H2.25" stroke="#282A2C" stroke-width="1.5" stroke-miterlimit="10" stroke-linecap="round" stroke-linejoin="round"/>
<path d="M14.25 21C16.183 21 17.75 19.433 17.75 17.5C17.75 15.567 16.183 14 14.25 14C12.317 14 10.75 15.567 10.75 17.5C10.75 19.433 12.317 21 14.25 21Z" stroke="#282A2C" stroke-width="1.5" stroke-miterlimit="10" stroke-linecap="round" stroke-linejoin="round"/>
</svg>
