<svg width="20" height="13" viewBox="0 0 20 13" fill="none" xmlns="http://www.w3.org/2000/svg">
<path d="M18.2208 3.2141H13.1604V3.19801C13.1604 2.35383 12.8316 1.56008 12.2346 0.963088C11.6377 0.36633 10.8441 0.0376587 10 0.0376587C8.25734 0.0376587 6.83961 1.45539 6.83961 3.19805V3.21414H1.77922C0.798164 3.2141 0 4.01211 0 4.99293V11.1831C0 12.1642 0.798164 12.9623 1.77922 12.9623H18.2208C19.2019 12.9623 20 12.1642 20 11.1831V4.99293C20 4.01211 19.2018 3.2141 18.2208 3.2141ZM7.62391 3.19805C7.62391 1.88789 8.68984 0.821956 10 0.821956C10.6346 0.821956 11.2312 1.06907 11.68 1.5177C12.1289 1.96657 12.3761 2.56336 12.3761 3.19805V3.21414H7.62391V3.19805ZM3.25492 12.1781H1.77922C1.23063 12.1781 0.784336 11.7317 0.784336 11.1832V4.99293C0.784336 4.44457 1.23066 3.99844 1.77922 3.99844H3.25492V12.1781ZM4.9059 12.1781H4.03922V3.99844H4.9059V12.1781ZM14.3102 12.1781H5.6902V8.48039H14.3102V12.1781ZM14.3102 7.6961H5.6902V3.99844H14.3102V7.6961ZM15.9608 12.1781H15.0945V3.99844H15.9608V12.1781ZM19.2157 11.1831C19.2157 11.7317 18.7694 12.178 18.2208 12.178H16.7451V3.99844H18.2208C18.7694 3.99844 19.2157 4.44461 19.2157 4.99293V11.1831Z" fill="#54D834"/>
</svg>
