<svg width="32" height="32" viewBox="0 0 32 32" fill="none" xmlns="http://www.w3.org/2000/svg">
<path d="M29.1532 10.7425H21.0566V10.7167C21.0566 9.36603 20.5305 8.09603 19.5753 7.14084C18.6204 6.18603 17.3506 5.66016 16 5.66016C13.2118 5.66016 10.9434 7.92853 10.9434 10.7168V10.7425H2.84675C1.27706 10.7425 0 12.0193 0 13.5886V23.4929C0 25.0627 1.27706 26.3397 2.84675 26.3397H29.1532C30.723 26.3397 32 25.0626 32 23.4929V13.5886C32 12.0193 30.7229 10.7425 29.1532 10.7425ZM12.1982 10.7168C12.1982 8.62053 13.9037 6.91503 16 6.91503C17.0154 6.91503 17.97 7.31041 18.6879 8.02822C19.4062 8.74641 19.8018 9.70128 19.8018 10.7168V10.7425H12.1982V10.7168ZM5.20787 25.0848H2.84675C1.969 25.0848 1.25494 24.3707 1.25494 23.493V13.5886C1.25494 12.7112 1.96906 11.9974 2.84675 11.9974H5.20787V25.0848ZM7.84944 25.0848H6.46275V11.9974H7.84944V25.0848ZM22.8963 25.0848H9.10431V19.1685H22.8963V25.0848ZM22.8963 17.9137H9.10431V11.9974H22.8963V17.9137ZM25.5373 25.0848H24.1512V11.9974H25.5373V25.0848ZM30.7451 23.4929C30.7451 24.3707 30.031 25.0847 29.1533 25.0847H26.7922V11.9974H29.1533C30.0311 11.9974 30.7451 12.7113 30.7451 13.5886V23.4929Z" fill="#009AED"/>
<path d="M15.0113 12.8013H11.3721C11.0255 12.8013 10.7446 13.0823 10.7446 13.4287C10.7446 13.7751 11.0256 14.0561 11.3721 14.0561H15.0113C15.3578 14.0561 15.6387 13.7751 15.6387 13.4287C15.6387 13.0823 15.3578 12.8013 15.0113 12.8013Z" fill="#009AED"/>
<path d="M17.1763 14.0561C17.5228 14.0561 17.8037 13.7752 17.8037 13.4287C17.8037 13.0822 17.5228 12.8013 17.1763 12.8013C16.8297 12.8013 16.5488 13.0822 16.5488 13.4287C16.5488 13.7752 16.8297 14.0561 17.1763 14.0561Z" fill="#009AED"/>
</svg>
