<svg width="22" height="23" viewBox="0 0 22 23" fill="none" xmlns="http://www.w3.org/2000/svg">
<path d="M14.0938 7.375H15.4688V8.0625H14.0938V7.375Z" fill="#54D834"/>
<path d="M13.4062 17.3438H14.0938V18.0312H13.4062V17.3438Z" fill="#54D834"/>
<path d="M14.7812 17.3438H15.4688V18.0312H14.7812V17.3438Z" fill="#54D834"/>
<path d="M16.8438 9.78602V9.52344C16.8439 9.3704 16.7984 9.22079 16.7131 9.09375C16.7984 8.96671 16.8439 8.8171 16.8438 8.66406V7.20312C16.8434 6.88415 16.7165 6.57834 16.491 6.35279C16.2654 6.12724 15.9596 6.00036 15.6406 6H14.0938V3.87859C14.2041 3.91768 14.3204 3.9376 14.4375 3.9375H14.7813C15.0547 3.93718 15.3168 3.82843 15.5101 3.6351C15.7034 3.44177 15.8122 3.17966 15.8125 2.90625V2.21875C15.8122 1.94534 15.7034 1.68323 15.5101 1.4899C15.3168 1.29657 15.0547 1.18782 14.7813 1.1875H8.9375V1.875H14.7813C14.8724 1.8751 14.9598 1.91135 15.0242 1.9758C15.0886 2.04024 15.1249 2.12761 15.125 2.21875V2.90625C15.1249 2.99739 15.0886 3.08476 15.0242 3.1492C14.9598 3.21365 14.8724 3.2499 14.7813 3.25H14.4375C14.3464 3.2499 14.259 3.21365 14.1945 3.1492C14.1301 3.08476 14.0939 2.99739 14.0938 2.90625C14.0938 2.81508 14.0575 2.72765 13.9931 2.66318C13.9286 2.59872 13.8412 2.5625 13.75 2.5625H8.25C8.15883 2.5625 8.0714 2.59872 8.00693 2.66318C7.94247 2.72765 7.90625 2.81508 7.90625 2.90625C7.90615 2.99739 7.8699 3.08476 7.80546 3.1492C7.74101 3.21365 7.65364 3.2499 7.5625 3.25H7.21875C7.12761 3.2499 7.04024 3.21365 6.9758 3.1492C6.91135 3.08476 6.8751 2.99739 6.875 2.90625V2.21875C6.8751 2.12761 6.91135 2.04024 6.9758 1.9758C7.04024 1.91135 7.12761 1.8751 7.21875 1.875H8.25V1.1875H7.21875C6.94534 1.18782 6.68323 1.29657 6.4899 1.4899C6.29657 1.68323 6.18782 1.94534 6.1875 2.21875V2.90625C6.18782 3.17966 6.29657 3.44177 6.4899 3.6351C6.68323 3.82843 6.94534 3.93718 7.21875 3.9375H7.5625C7.6796 3.9376 7.79586 3.91768 7.90625 3.87859V6H6.35938C6.0404 6.00036 5.73459 6.12724 5.50904 6.35279C5.28349 6.57834 5.15661 6.88415 5.15625 7.20312V8.66406C5.15608 8.8171 5.20156 8.96671 5.28688 9.09375C5.20156 9.22079 5.15608 9.3704 5.15625 9.52344V11.0703C5.15608 11.2233 5.20156 11.373 5.28688 11.5C5.20156 11.627 5.15608 11.7767 5.15625 11.9297V13.4766C5.15608 13.6296 5.20156 13.7792 5.28688 13.9062C5.20156 14.0333 5.15608 14.1829 5.15625 14.3359V15.8828C5.15608 16.0358 5.20156 16.1855 5.28688 16.3125C5.20156 16.4395 5.15608 16.5892 5.15625 16.7422V19.2344C5.15661 19.5236 5.26099 19.803 5.45032 20.0217C5.63965 20.2403 5.9013 20.3836 6.1875 20.4253V20.4375C6.1875 20.8022 6.33237 21.1519 6.59023 21.4098C6.84809 21.6676 7.19783 21.8125 7.5625 21.8125C7.92717 21.8125 8.27691 21.6676 8.53477 21.4098C8.79263 21.1519 8.9375 20.8022 8.9375 20.4375H13.0625C13.0625 20.8022 13.2074 21.1519 13.4652 21.4098C13.7231 21.6676 14.0728 21.8125 14.4375 21.8125C14.8022 21.8125 15.1519 21.6676 15.4098 21.4098C15.6676 21.1519 15.8125 20.8022 15.8125 20.4375C15.8125 20.4332 15.8125 20.4293 15.8125 20.4253C16.0987 20.3836 16.3604 20.2403 16.5497 20.0217C16.739 19.803 16.8434 19.5236 16.8438 19.2344V18.7188H16.1562V19.2344C16.1561 19.3711 16.1017 19.5021 16.0051 19.5988C15.9084 19.6955 15.7773 19.7499 15.6406 19.75H15.6277C15.5071 19.541 15.3336 19.3674 15.1246 19.2467C14.9157 19.126 14.6786 19.0625 14.4373 19.0625C14.196 19.0625 13.9589 19.126 13.7499 19.2467C13.541 19.3674 13.3674 19.541 13.2468 19.75H8.75295C8.63235 19.541 8.45883 19.3674 8.24986 19.2467C8.04089 19.126 7.80382 19.0625 7.5625 19.0625C7.32118 19.0625 7.08411 19.126 6.87514 19.2467C6.66617 19.3674 6.49265 19.541 6.37205 19.75H6.35938C6.22267 19.7499 6.0916 19.6955 5.99494 19.5988C5.89827 19.5021 5.8439 19.3711 5.84375 19.2344V16.7422C5.84375 16.7194 5.8528 16.6975 5.86892 16.6814C5.88504 16.6653 5.9069 16.6562 5.92969 16.6562H16.0703C16.0931 16.6562 16.115 16.6653 16.1311 16.6814C16.1472 16.6975 16.1562 16.7194 16.1562 16.7422V18.0312H16.8438V16.7422C16.8439 16.5892 16.7984 16.4395 16.7131 16.3125C16.7984 16.1855 16.8439 16.0358 16.8438 15.8828V15.6202C17.0327 15.5989 17.2072 15.5087 17.334 15.367C17.4608 15.2252 17.531 15.0417 17.5312 14.8516V10.5547C17.531 10.3645 17.4608 10.1811 17.334 10.0393C17.2072 9.89754 17.0327 9.80739 16.8438 9.78602ZM14.4375 19.75C14.5735 19.75 14.7064 19.7903 14.8195 19.8659C14.9325 19.9414 15.0206 20.0488 15.0727 20.1744C15.1247 20.3 15.1383 20.4383 15.1118 20.5716C15.0853 20.705 15.0198 20.8275 14.9236 20.9236C14.8275 21.0198 14.705 21.0853 14.5716 21.1118C14.4383 21.1383 14.3 21.1247 14.1744 21.0727C14.0488 21.0206 13.9414 20.9325 13.8659 20.8195C13.7903 20.7064 13.75 20.5735 13.75 20.4375C13.7502 20.2552 13.8227 20.0805 13.9516 19.9516C14.0805 19.8227 14.2552 19.7502 14.4375 19.75V19.75ZM7.5625 19.75C7.69848 19.75 7.8314 19.7903 7.94446 19.8659C8.05751 19.9414 8.14563 20.0488 8.19767 20.1744C8.2497 20.3 8.26332 20.4383 8.23679 20.5716C8.21026 20.705 8.14479 20.8275 8.04864 20.9236C7.95249 21.0198 7.82999 21.0853 7.69663 21.1118C7.56326 21.1383 7.42503 21.1247 7.29941 21.0727C7.17378 21.0206 7.06641 20.9325 6.99087 20.8195C6.91532 20.7064 6.875 20.5735 6.875 20.4375C6.87522 20.2552 6.94772 20.0805 7.0766 19.9516C7.20549 19.8227 7.38023 19.7502 7.5625 19.75ZM13.0625 3.25H13.4063V6H13.0625V3.25ZM9.625 3.25H12.375V6H9.625V3.25ZM8.59375 3.25H8.9375V6H8.59375V3.25ZM8.59375 9.23615V12.1016C8.59375 12.1244 8.5847 12.1462 8.56858 12.1623C8.55246 12.1784 8.53061 12.1875 8.50781 12.1875H7.30469C7.2819 12.1875 7.26004 12.1784 7.24392 12.1623C7.2278 12.1462 7.21875 12.1244 7.21875 12.1016V9.23615L7.90625 8.54865L8.59375 9.23615ZM5.84375 7.20312C5.8439 7.06642 5.89827 6.93535 5.99494 6.83869C6.0916 6.74202 6.22267 6.68765 6.35938 6.6875H8.00125C7.73998 7.04592 7.589 7.47281 7.56684 7.9158L6.73264 8.75H5.92969C5.9069 8.75 5.88504 8.74095 5.86892 8.72483C5.8528 8.70871 5.84375 8.68685 5.84375 8.66406V7.20312ZM5.84375 9.52344C5.84375 9.50065 5.8528 9.47879 5.86892 9.46267C5.88504 9.44655 5.9069 9.4375 5.92969 9.4375H6.53125V11.1562H5.92969C5.9069 11.1562 5.88504 11.1472 5.86892 11.1311C5.8528 11.115 5.84375 11.0931 5.84375 11.0703V9.52344ZM5.84375 11.9297C5.84375 11.9069 5.8528 11.885 5.86892 11.8689C5.88504 11.8528 5.9069 11.8438 5.92969 11.8438H6.53125V12.1016C6.53149 12.3066 6.61305 12.5032 6.75805 12.6482C6.90304 12.7932 7.09963 12.8748 7.30469 12.875H8.50781C8.71287 12.8748 8.90946 12.7932 9.05445 12.6482C9.19945 12.5032 9.28101 12.3066 9.28125 12.1016V11.8438H15.8125V13.5625H5.92969C5.9069 13.5625 5.88504 13.5534 5.86892 13.5373C5.8528 13.5212 5.84375 13.4994 5.84375 13.4766V11.9297ZM16.1562 15.8828C16.1562 15.9056 16.1472 15.9275 16.1311 15.9436C16.115 15.9597 16.0931 15.9688 16.0703 15.9688H5.92969C5.9069 15.9688 5.88504 15.9597 5.86892 15.9436C5.8528 15.9275 5.84375 15.9056 5.84375 15.8828V14.3359C5.84375 14.3131 5.8528 14.2913 5.86892 14.2752C5.88504 14.2591 5.9069 14.25 5.92969 14.25H15.8125V15.2812C15.8125 15.3724 15.8487 15.4599 15.9132 15.5243C15.9776 15.5888 16.0651 15.625 16.1562 15.625V15.8828ZM16.1562 9.78125C16.0651 9.78125 15.9776 9.81747 15.9132 9.88193C15.8487 9.9464 15.8125 10.0338 15.8125 10.125V11.1562H9.28125V9.4375H16.0703C16.0931 9.4375 16.115 9.44655 16.1311 9.46267C16.1472 9.47879 16.1562 9.50065 16.1562 9.52344V9.78125ZM16.1562 8.66406C16.1562 8.68685 16.1472 8.70871 16.1311 8.72483C16.115 8.74095 16.0931 8.75 16.0703 8.75H9.07986L8.25511 7.92521C8.30693 7.23127 8.74736 6.6875 9.28125 6.6875H15.6406C15.7773 6.68765 15.9084 6.74202 16.0051 6.83869C16.1017 6.93535 16.1561 7.06642 16.1562 7.20312V8.66406ZM16.8438 14.8516C16.8438 14.8744 16.8347 14.8962 16.8186 14.9123C16.8025 14.9284 16.7806 14.9375 16.7578 14.9375H16.5V10.4688H16.7578C16.7806 10.4688 16.8025 10.4778 16.8186 10.4939C16.8347 10.51 16.8438 10.5319 16.8438 10.5547V14.8516Z" fill="#54D834"/>
</svg>
