<svg width="32" height="32" viewBox="0 0 32 32" fill="none" xmlns="http://www.w3.org/2000/svg">
<path d="M11.8833 30.9925C11.3589 30.9925 10.9333 30.5658 10.9333 30.04V13.4125C10.9333 12.8867 11.3589 12.46 11.8833 12.46C12.4077 12.46 12.8332 12.8867 12.8332 13.4125V30.04C12.8332 30.5658 12.4077 30.9925 11.8833 30.9925Z" fill="#4B4B4B"/>
<path d="M24.3771 1.197C24.1415 1.01411 23.8223 0.953148 23.5259 1.03697L23.3359 1.09031C22.5228 1.3113 21.9376 2.00475 21.854 2.84298L21.1777 9.38882L21.1549 9.64791L20.4557 16.4605C20.3265 17.3368 20.7597 18.2131 21.5424 18.6399L22.8648 19.3638V30.0475C22.8648 30.5733 23.2903 31 23.8147 31C24.3391 31 24.7647 30.5733 24.7647 30.0475V1.97427C24.7571 1.66946 24.6203 1.37989 24.3771 1.197ZM24.6203 19.379L24.5747 19.3562C24.5975 19.3333 24.6127 19.3105 24.6279 19.28L24.6203 19.379Z" fill="#4B4B4B"/>
<path d="M24.6279 19.2798V19.3788L24.5823 19.356C24.5975 19.3331 24.6127 19.3103 24.6279 19.2798Z" fill="#4B4B4B"/>
<path d="M15.63 1.22754V8.45921C15.63 8.46683 15.63 8.48207 15.63 8.48969C15.6072 10.1662 13.9125 11.5226 11.815 11.5226C9.7251 11.5226 8.0228 10.1662 8 8.48969C8 8.48207 8 8.46683 8 8.45921V1.22754H9.13234V7.65145C9.13234 8.17726 9.55791 8.60399 10.0823 8.60399C10.6067 8.60399 11.0322 8.17726 11.0322 7.65145V1.22754H12.6509V7.65145C12.6509 8.17726 13.0765 8.60399 13.6009 8.60399C14.1253 8.60399 14.5508 8.17726 14.5508 7.65145V1.22754H15.63Z" fill="#4B4B4B"/>
<path d="M21.1779 9.38867L21.1475 9.64776L21.1551 9.41915L21.1779 9.38867Z" fill="#4B4B4B"/>
<path d="M24.6279 19.2798V19.3788L24.5823 19.356C24.5975 19.3331 24.6127 19.3103 24.6279 19.2798Z" fill="#4B4B4B"/>
</svg>
