<svg id="Grupo_13" data-name="Grupo 13" xmlns="http://www.w3.org/2000/svg" xmlns:xlink="http://www.w3.org/1999/xlink" width="80.059" height="80.103" viewBox="0 0 80.059 80.103">
  <defs>
    <clipPath id="clip-path">
      <rect id="Rectángulo_8" data-name="Rectángulo 8" width="80.059" height="80.103" fill="none"/>
    </clipPath>
  </defs>
  <g id="Grupo_12" data-name="Grupo 12" clip-path="url(#clip-path)">
    <path id="Trazado_34" data-name="Trazado 34" d="M10.281,0H69.733A2.14,2.14,0,0,1,70.7,1.989c-.019,4.654,0,9.309.008,13.963l.122.136c.833.009,1.666.039,2.5.019a1.155,1.155,0,0,1,1.256.986,4.16,4.16,0,0,1,.129.983c.013,1.578.006,3.157.006,4.765h.719c1.668,0,1.947.287,1.947,1.977,0,1.563-.024,3.127.006,4.689.034,1.787-.132,2.668-2.478,2.573-.044,0-.089.036-.194.082v.578q0,21.962,0,43.923c0,.208.02.415.03.622l.143.126h5l.158.031V80.1H0V77.412H5.117l.139-.126c.01-.181.028-.363.028-.544q0-22.085,0-44.17v-.5c-.48,0-.891.012-1.3,0a1.339,1.339,0,0,1-1.36-1.386c0-2.215,0-4.43,0-6.645a1.042,1.042,0,0,1,.975-1.2c.549-.071,1.1-.155,1.693-.241,0-1.734-.009-3.475,0-5.216a1.12,1.12,0,0,1,1.04-1.276c.967-.1,1.937-.151,2.977-.229v-.827q0-6.645,0-13.29c0-.784.114-1.47.974-1.761M12.16,2.691l-.146.125V15.978h55.98V2.817l-.138-.126c-.182-.008-.364-.023-.545-.023q-27.3,0-54.6,0c-.182,0-.363.015-.545.023M72.014,32.115H7.986v45.26H72.014ZM5.31,29.328H74.669V25.416H5.31Zm66.7-10.593H7.991v3.9H72.01Z" fill="#b50a27"/>
    <path id="Trazado_35" data-name="Trazado 35" d="M315.938,305.725l.158-.125v.157l-.158-.032" transform="translate(-236.037 -228.313)" fill="#b50a27"/>
    <path id="Trazado_36" data-name="Trazado 36" d="M47.65,10.641l-.146.125.146-.125" transform="translate(-35.49 -7.95)" fill="#b50a27"/>
    <path id="Trazado_37" data-name="Trazado 37" d="M268.444,10.767l-.138-.126.138.126" transform="translate(-200.451 -7.95)" fill="#b50a27"/>
    <path id="Trazado_38" data-name="Trazado 38" d="M279.6,63.078l.122.136-.122-.136" transform="translate(-208.885 -47.125)" fill="#b50a27"/>
    <path id="Trazado_39" data-name="Trazado 39" d="M20.233,305.723l.139-.125-.139.125" transform="translate(-15.116 -228.312)" fill="#b50a27"/>
    <path id="Trazado_40" data-name="Trazado 40" d="M295.583,305.6l.143.126-.143-.126" transform="translate(-220.829 -228.31)" fill="#b50a27"/>
    <path id="Trazado_41" data-name="Trazado 41" d="M47.364,150.426c0-2.136-.008-4.271,0-6.407.006-1.1.405-1.536,1.506-1.546q4.453-.037,8.907,0a1.457,1.457,0,0,1,1.584,1.6q.028,6.407,0,12.813a1.5,1.5,0,0,1-1.717,1.617q-4.336,0-8.673,0c-1.19,0-1.6-.389-1.607-1.595-.011-2.162,0-4.323,0-6.485m2.691,5.35h6.593v-10.6H50.055Z" transform="translate(-35.383 -106.428)" fill="#b50a27"/>
    <path id="Trazado_42" data-name="Trazado 42" d="M47.323,234.966c0-2.111,0-4.222,0-6.332,0-1.287.381-1.67,1.639-1.672,2.84,0,5.682-.04,8.521.014,1.622.031,1.834.606,1.84,1.84.018,4.091.012,8.183,0,12.274,0,1.4-.48,1.87-1.845,1.871-2.815,0-5.63-.032-8.443.016-1.269.021-1.764-.525-1.732-1.757.055-2.083.015-4.169.015-6.254m9.285-5.3h-6.56v10.6h6.56Z" transform="translate(-35.342 -169.551)" fill="#b50a27"/>
    <path id="Trazado_43" data-name="Trazado 43" d="M137.077,150.475c0-2.162.021-4.325-.009-6.486-.016-1.18.63-1.505,1.466-1.512q4.493-.035,8.987,0a1.456,1.456,0,0,1,1.563,1.626q.025,6.369,0,12.738a1.532,1.532,0,0,1-1.756,1.664q-4.22,0-8.44,0c-1.477,0-1.807-.327-1.81-1.779q-.006-3.126,0-6.252m2.7,5.326h6.58v-10.63h-6.58Z" transform="translate(-102.403 -106.43)" fill="#b50a27"/>
    <path id="Trazado_44" data-name="Trazado 44" d="M221.44,150.423c0-2.161.016-4.323-.009-6.484a1.3,1.3,0,0,1,1.4-1.439c1.094-.016,2.187-.009,3.281-.01h5.313c1.413,0,2.009.287,2.018,1.989.02,4.037.007,8.073.006,12.11,0,1.478-.472,1.942-1.969,1.942q-4.258,0-8.516,0c-1.061,0-1.53-.479-1.531-1.542q0-3.281,0-6.563Zm9.31-5.213H224.17v10.624h6.581Z" transform="translate(-165.431 -106.453)" fill="#b50a27"/>
    <path id="Trazado_45" data-name="Trazado 45" d="M137.037,234.984c0-2.164-.007-4.328,0-6.492.005-1.074.426-1.491,1.495-1.494q4.341-.01,8.683,0c1.26,0,1.826.543,1.83,1.793q.017,6.179,0,12.359c0,1.369-.5,1.847-1.875,1.848-2.816,0-5.632-.031-8.448.016-1.169.019-1.749-.5-1.709-1.693.072-2.109.02-4.223.021-6.335m9.3-5.289h-6.583v10.611h6.583Z" transform="translate(-102.363 -169.586)" fill="#b50a27"/>
    <path id="Trazado_46" data-name="Trazado 46" d="M221.454,234.944q0-3.243,0-6.485A1.306,1.306,0,0,1,222.888,227q4.453-.018,8.907,0a1.5,1.5,0,0,1,1.672,1.715c.006,4.193,0,8.386,0,12.579a1.628,1.628,0,0,1-1.7,1.727c-2.863-.07-5.729-.018-8.594-.026-1.389,0-1.731-.372-1.73-1.8q0-3.125,0-6.25m2.715,5.346h6.584V229.675h-6.584Z" transform="translate(-165.446 -169.582)" fill="#b50a27"/>
    <path id="Trazado_47" data-name="Trazado 47" d="M120.7,18.5a4.01,4.01,0,0,1,4.385,4.287,4.177,4.177,0,0,1-4.105,4.46,4.224,4.224,0,0,1-4.706-4.424A4.046,4.046,0,0,1,120.7,18.5m-.058,7.361a2.672,2.672,0,0,0,2.787-2.914c-.015-2.132-.982-3.173-2.951-3.156-1.5.013-2.376.866-2.515,2.827-.145,2.044,1.158,3.373,2.678,3.243" transform="translate(-86.864 -13.81)" fill="#b50a27"/>
    <path id="Trazado_48" data-name="Trazado 48" d="M88.146,23.529H84.394l-.132.126v3.551H82.655V18.688h1.567v3.634H88.29V18.678h1.587V27.2h-1.6V23.655l-.133-.126" transform="translate(-61.751 -13.954)" fill="#b50a27"/>
    <path id="Trazado_49" data-name="Trazado 49" d="M184.579,23.465v2.656h3.7c.018.385.034.713.052,1.1h-5.318V18.666h5.248V19.89c-1.018,0-2.028.021-3.036-.009-.512-.015-.705.167-.675.678.032.542.007,1.087.007,1.712h3.008v1.193Z" transform="translate(-136.732 -13.945)" fill="#b50a27"/>
    <path id="Trazado_50" data-name="Trazado 50" d="M154.221,27.117V20.108h-2.646v-1.4h6.787v1.214c-.57,0-1.185.02-1.8-.006-.567-.024-.761.2-.754.774.028,2.163.011,4.327.011,6.56h-1.476l-.125-.133" transform="translate(-113.241 -13.977)" fill="#b50a27"/>
    <path id="Trazado_51" data-name="Trazado 51" d="M211.735,26.009h3.425v1.265h-4.943V18.7h1.518Z" transform="translate(-157.052 -13.97)" fill="#b50a27"/>
    <path id="Trazado_52" data-name="Trazado 52" d="M162.036,51.954l.125.133-.125-.133" transform="translate(-121.057 -38.815)" fill="#b50a27"/>
    <path id="Trazado_53" data-name="Trazado 53" d="M104.367,37.86l.133.126-.133-.126" transform="translate(-77.972 -28.285)" fill="#b50a27"/>
    <path id="Trazado_54" data-name="Trazado 54" d="M89.009,37.986l.132-.126-.132.126" transform="translate(-66.498 -28.285)" fill="#b50a27"/>
  </g>
</svg>
