<svg width="32" height="32" viewBox="0 0 32 32" fill="none" xmlns="http://www.w3.org/2000/svg">
<path d="M28.6564 5H3.35105C2.05315 5 1 6.05315 1 7.35105V22.2138C1 23.5117 2.05315 24.5649 3.35105 24.5649H28.6489C29.9468 24.5649 31 23.5117 31 22.2138V7.35105C31 6.05315 29.9468 5 28.6564 5ZM30.0655 22.2138C30.0655 22.9926 29.4351 23.623 28.6564 23.623H3.35105C2.57231 23.623 1.9419 22.9926 1.9419 22.2138V7.35105C1.9419 6.57231 2.57231 5.9419 3.35105 5.9419H28.6489C29.4277 5.9419 30.0581 6.57231 30.0581 7.35105V22.2138H30.0655Z" fill="#4B4B4B"/>
<path d="M21.7886 26.9087C21.7886 27.1682 21.581 27.3759 21.3214 27.3759H10.8195C10.56 27.3759 10.3523 27.1682 10.3523 26.9087C10.3523 26.6491 10.56 26.4414 10.8195 26.4414H21.314C21.5736 26.4414 21.7886 26.6491 21.7886 26.9087Z" fill="#4B4B4B"/>
<path d="M14.1718 24.5649L13.927 26.4413H12.9851L13.2224 24.5649H14.1718Z" fill="#4B4B4B"/>
<path d="M18.9332 26.4413H17.9839L17.7466 24.5649H18.6959L18.9332 26.4413Z" fill="#4B4B4B"/>
<path d="M3.28433 8.93056C3.16566 8.93056 3.047 8.88606 2.95058 8.78964C2.76517 8.60423 2.76517 8.30756 2.95058 8.12215L4.06307 7.00967C4.24848 6.82425 4.54515 6.82425 4.73056 7.00967C4.91597 7.19508 4.91597 7.49174 4.73056 7.67716L3.61807 8.78964C3.52166 8.87864 3.40299 8.93056 3.28433 8.93056Z" fill="#4B4B4B"/>
<path d="M3.81094 10.9332C3.69228 10.9332 3.57361 10.8887 3.4772 10.7923C3.29178 10.6069 3.29178 10.3102 3.4772 10.1248L6.05816 7.54385C6.24357 7.35843 6.54024 7.35843 6.72565 7.54385C6.91106 7.72926 6.91106 8.02592 6.72565 8.21134L4.14469 10.7923C4.05569 10.8813 3.93702 10.9332 3.81094 10.9332Z" fill="#4B4B4B"/>
</svg>
