<svg width="32" height="32" viewBox="0 0 32 32" fill="none" xmlns="http://www.w3.org/2000/svg">
<path d="M12.5403 26.3786C12.5403 28.2899 14.0887 29.8382 15.9999 29.8382C17.9112 29.8382 19.4596 28.2899 19.4596 26.3786C19.4596 24.4673 17.9112 22.9189 15.9999 22.9189C14.0887 22.9189 12.5403 24.4673 12.5403 26.3786ZM15.9999 28.8302C14.6451 28.8302 13.5483 27.7334 13.5483 26.3786C13.5483 25.0238 14.6451 23.927 15.9999 23.927C17.3548 23.927 18.4515 25.0238 18.4515 26.3786C18.4515 27.7254 17.3548 28.8302 15.9999 28.8302Z" fill="#4B4B4B"/>
<path d="M2.52418 10.6935C2.9274 10.6854 3.30643 10.5241 3.58869 10.2419C6.88704 6.87899 11.2983 5.02416 15.9999 5.02416C20.7014 5.02416 25.1127 6.87899 28.411 10.2419C28.6933 10.5322 29.0804 10.6935 29.4917 10.6935C29.8868 10.6935 30.2658 10.5402 30.5481 10.258C30.8384 9.97573 30.9997 9.5967 30.9997 9.19348C31.0078 8.79026 30.8465 8.41123 30.5723 8.12091C26.6933 4.1774 21.524 2 15.9999 2C10.4757 2 5.30641 4.1774 1.43548 8.12091C1.15322 8.41929 1 8.79832 1 9.20154C1 9.60477 1.16129 9.98379 1.45161 10.266C1.73386 10.5483 2.11289 10.7015 2.50805 10.7015C2.51611 10.6935 2.52418 10.6935 2.52418 10.6935ZM2.15321 8.83058C5.8306 5.08062 10.7499 3.00805 15.9999 3.00805C21.2498 3.00805 26.1691 5.07255 29.8465 8.83058C29.9433 8.92735 29.9917 9.05638 29.9917 9.18541C29.9917 9.32251 29.9352 9.44348 29.8384 9.54025C29.6449 9.72573 29.3142 9.72573 29.1288 9.53219C25.6369 5.97577 20.9756 4.01611 15.9999 4.01611C11.0241 4.01611 6.36285 5.97577 2.87095 9.54025C2.77418 9.63702 2.65321 9.69347 2.51611 9.69347C2.37902 9.69347 2.25805 9.64509 2.16128 9.54832C2.06451 9.45154 2.00805 9.33057 2.00805 9.19348C2.00805 9.05638 2.05644 8.92735 2.15321 8.83058Z" fill="#4B4B4B"/>
<path d="M26.7256 13.5161C23.8869 10.5887 20.0725 8.98389 15.9999 8.98389C11.9274 8.98389 8.12097 10.5968 5.27422 13.5161C4.69358 14.1129 4.70971 15.0725 5.30648 15.6532C5.90324 16.2338 6.86291 16.2177 7.44355 15.6209C9.70966 13.2903 12.75 12 15.9999 12C19.2499 12 22.2902 13.2822 24.5563 15.6209C24.8466 15.9193 25.2256 16.0806 25.6369 16.0806C26.0321 16.0806 26.403 15.9274 26.6934 15.6532C27.2901 15.0645 27.3063 14.1129 26.7256 13.5161ZM25.9918 14.9274C25.7982 15.1129 25.4676 15.1129 25.2821 14.9193C22.8224 12.3871 19.5241 10.9919 15.9999 10.9919C12.4758 10.9919 9.17741 12.3871 6.71775 14.9193C6.53227 15.1129 6.20969 15.1209 6.00808 14.9274C5.80647 14.7338 5.80647 14.4113 6.00002 14.2177C8.65322 11.4919 12.2016 9.98388 15.9999 9.98388C19.7983 9.98388 23.3466 11.4839 25.9998 14.2177C26.1934 14.4113 26.1934 14.7338 25.9918 14.9274Z" fill="#4B4B4B"/>
<path d="M22.1127 22.0159C22.4998 22.0159 22.8708 21.8708 23.153 21.5966C23.4434 21.3143 23.6127 20.9434 23.6208 20.5402C23.6288 20.1369 23.4837 19.7498 23.2014 19.4595C21.2982 17.4676 18.7418 16.3789 15.9999 16.3789C13.258 16.3789 10.6935 17.4757 8.79833 19.4595C8.51608 19.7498 8.37092 20.1369 8.37898 20.5402C8.38705 20.9434 8.5564 21.3224 8.84672 21.5966C9.12897 21.8708 9.49994 22.0159 9.88703 22.0159C9.8951 22.0159 9.91122 22.0159 9.91929 22.0159C10.3225 22.0079 10.7015 21.8385 10.9757 21.5482C12.2983 20.1611 14.0805 19.395 15.9999 19.395C17.9111 19.395 19.6934 20.1611 21.016 21.5482C21.3063 21.8466 21.7014 22.0159 22.1127 22.0159ZM9.54026 20.8708C9.44349 20.774 9.38704 20.6531 9.38704 20.516C9.38704 20.3789 9.43542 20.2498 9.52413 20.1531C11.2338 18.3628 13.5322 17.3789 15.9999 17.3789C18.4676 17.3789 20.766 18.3628 22.4756 20.1531C22.5724 20.2498 22.6208 20.3789 22.6127 20.516C22.6127 20.6531 22.5563 20.774 22.4595 20.8708C22.2659 21.0563 21.9353 21.0482 21.7498 20.8547C20.2337 19.266 18.1934 18.395 15.9999 18.395C13.8063 18.395 11.766 19.266 10.2499 20.8547C10.1532 20.9514 10.0322 21.0079 9.8951 21.0079C9.76606 21.0079 9.63703 20.9595 9.54026 20.8708Z" fill="#4B4B4B"/>
</svg>
