<svg id="Grupo_19" data-name="Grupo 19" xmlns="http://www.w3.org/2000/svg" xmlns:xlink="http://www.w3.org/1999/xlink" width="40.015" height="40.005" viewBox="0 0 40.015 40.005">
  <defs>
    <clipPath id="clip-path">
      <rect id="Rectángulo_23" data-name="Rectángulo 23" width="40.015" height="40.005" fill="none"/>
    </clipPath>
  </defs>
  <g id="Grupo_18" data-name="Grupo 18" clip-path="url(#clip-path)">
    <path id="Trazado_22" data-name="Trazado 22" d="M335.725,106.305a1.571,1.571,0,0,1-1.682.874,24.942,24.942,0,0,0-2.653,0,1.225,1.225,0,0,1-1.211-1.061,1.145,1.145,0,0,1,1.036-1.271c1.2-.034,2.411.01,3.615.058.509.02.694.467.9.854Z" transform="translate(-295.71 -93.891)" fill="#ff9934"/>
    <path id="Trazado_23" data-name="Trazado 23" d="M181.228,362.469a1.288,1.288,0,0,1-.863-1.446c.024-.323.009-.649.011-.974l1.168.007q0,1.207,0,2.413Z" transform="translate(-161.531 -322.464)" fill="#335373"/>
    <path id="Trazado_24" data-name="Trazado 24" d="M191.648,362.359q0-1.207,0-2.413l-.008-.02,1.17.013c0,.389.013.778.005,1.167a1.337,1.337,0,0,1-.936,1.253Z" transform="translate(-171.639 -322.354)" fill="#1f3c59"/>
    <path id="Trazado_25" data-name="Trazado 25" d="M81.087,27.341c-.158-.635-.306-1.274-.477-1.906a17.2,17.2,0,0,0-2.862-6A11.772,11.772,0,0,1,75.47,14.38a11.587,11.587,0,0,1,.459-6.225A11.926,11.926,0,0,1,84.5.363,22.374,22.374,0,0,1,87.406,0q0,3.308,0,6.617a1.242,1.242,0,0,0-1.184,1.414c.027,2.326.034,4.652,0,6.978A1.339,1.339,0,0,0,87.4,16.416v2.239a3.036,3.036,0,0,0-.578.172,1.172,1.172,0,0,0-.586,1.269,1.211,1.211,0,0,0,1.164.932q0,3.042,0,6.084c-.506.007-1.013,0-1.519.023a23.535,23.535,0,0,0-4.8.208" transform="translate(-67.393)" fill="#ffe666"/>
    <path id="Trazado_26" data-name="Trazado 26" d="M191.639,18.654q0-1.119,0-2.239l0-.029a1.236,1.236,0,0,0,1.174-1.429c0-2.288-.007-4.575,0-6.863a1.26,1.26,0,0,0-1.178-1.449l0-.029q0-3.308,0-6.617a13.853,13.853,0,0,1,3.531.529A12.024,12.024,0,0,1,203.5,9.695a11.9,11.9,0,0,1-2.155,9.64,19.142,19.142,0,0,0-3.291,7.422c-.046.213-.058.432-.086.649a14.83,14.83,0,0,0-1.7-.261c-1-.043-2-.016-3-.011-.545,0-1.089.02-1.634.031a.1.1,0,0,0,0-.053q0-3.042,0-6.084l0-.029a1.144,1.144,0,0,0,1.094-1.509,1.123,1.123,0,0,0-1.095-.8Z" transform="translate(-171.628)" fill="#ffc34d"/>
    <path id="Trazado_27" data-name="Trazado 27" d="M116.268,259.943a23.536,23.536,0,0,1,4.8-.208c.506-.022,1.012-.016,1.519-.023a.1.1,0,0,1,0,.053q0,2.843.009,5.687l-5.471-.007a2.85,2.85,0,0,1-1.069-5.357c.075-.045.146-.1.219-.145" transform="translate(-102.575 -232.602)" fill="#335373"/>
    <path id="Trazado_28" data-name="Trazado 28" d="M191.641,265.53q0-2.843-.009-5.687c.545-.011,1.089-.028,1.634-.031,1-.005,2-.032,3,.011a14.83,14.83,0,0,1,1.7.261,2.722,2.722,0,0,1,1.564,1.861,2.757,2.757,0,0,1-1.313,3.172,7.662,7.662,0,0,1-1.1.39c-.31.013-.619.036-.929.037-1.515.009-3.03.012-4.545.016Z" transform="translate(-171.628 -232.679)" fill="#1f3c59"/>
    <path id="Trazado_29" data-name="Trazado 29" d="M132.423,314.627l5.471.007,0,.031q-.006,2.345-.011,4.69l.008.02-1.168-.007c-.729,0-1.457,0-2.185-.013a2.754,2.754,0,0,1-2.851-2.175,2.6,2.6,0,0,1,.536-2.271c.072-.089.132-.188.2-.282" transform="translate(-117.88 -281.784)" fill="#9df"/>
    <path id="Trazado_30" data-name="Trazado 30" d="M191.643,319.224q.006-2.345.011-4.69,2.272-.008,4.545-.017c.31,0,.619-.024.929-.037a7.752,7.752,0,0,1,.61,1.144,2.7,2.7,0,0,1-2.708,3.6c-.739,0-1.478.012-2.217.018l-1.17-.013" transform="translate(-171.638 -281.652)" fill="#80aaff"/>
    <path id="Trazado_31" data-name="Trazado 31" d="M318.915,21.275a1.1,1.1,0,0,1-.612,1.09c-.932.5-1.87.986-2.807,1.475a1.166,1.166,0,0,1-1.515-.347,1.119,1.119,0,0,1,.36-1.675c.973-.557,1.975-1.063,2.976-1.567a1.141,1.141,0,0,1,1.6,1.024" transform="translate(-281.004 -18.052)" fill="#ff9a34"/>
    <path id="Trazado_32" data-name="Trazado 32" d="M24.814,23.019a1.122,1.122,0,0,1-1.688,1.035q-1.395-.724-2.783-1.462a1.2,1.2,0,0,1-.67-1.107,1.129,1.129,0,0,1,.929-1.062,1.493,1.493,0,0,1,.854.121C22.4,21,23.322,21.5,24.242,22a.945.945,0,0,1,.572,1.016" transform="translate(-17.62 -18.275)" fill="#ffc34e"/>
    <path id="Trazado_33" data-name="Trazado 33" d="M2.706,106.991A14.109,14.109,0,0,0,1.224,107,1.236,1.236,0,0,1,0,105.851a1.192,1.192,0,0,1,1.14-1.2c1.066-.024,2.134-.021,3.2,0a1.162,1.162,0,0,1,.864,1.962,1.55,1.55,0,0,1-.822.358c-.554.055-1.117.016-1.677.016" transform="translate(0 -93.715)" fill="#ffc34e"/>
    <path id="Trazado_34" data-name="Trazado 34" d="M23.492,175.495a1.134,1.134,0,0,1,1.107.717,1.182,1.182,0,0,1-.484,1.4c-.973.545-1.952,1.083-2.961,1.558a1.189,1.189,0,0,1-1.683-.912,1.345,1.345,0,0,1,.671-1.188c.917-.487,1.829-.982,2.754-1.454a2.28,2.28,0,0,1,.6-.123" transform="translate(-17.426 -157.175)" fill="#ffc34e"/>
    <path id="Trazado_35" data-name="Trazado 35" d="M314.742,175.612a3.435,3.435,0,0,1,1.659.623c.635.314,1.264.647,1.871,1.012a1.08,1.08,0,0,1,.384,1.547,1.124,1.124,0,0,1-1.467.5c-.995-.493-1.975-1.016-2.948-1.553a1.151,1.151,0,0,1-.568-1.244c.158-.494.517-.964,1.069-.882" transform="translate(-280.898 -157.272)" fill="#ff9a34"/>
    <path id="Trazado_36" data-name="Trazado 36" d="M181.509,73.186a1.339,1.339,0,0,1-1.188-1.407c.039-2.325.031-4.652,0-6.978a1.242,1.242,0,0,1,1.184-1.414l0,.029q0,4.87,0,9.741Z" transform="translate(-161.498 -56.77)" fill="#335373"/>
    <path id="Trazado_37" data-name="Trazado 37" d="M181.5,181.074a1.211,1.211,0,0,1-1.164-.932,1.172,1.172,0,0,1,.586-1.269,3.032,3.032,0,0,1,.578-.172l0,.03q0,1.157,0,2.314Z" transform="translate(-161.489 -160.047)" fill="#345473"/>
    <path id="Trazado_38" data-name="Trazado 38" d="M191.666,73.406q0-4.87,0-9.741a1.26,1.26,0,0,1,1.178,1.449c-.011,2.288,0,4.575,0,6.863a1.236,1.236,0,0,1-1.174,1.429" transform="translate(-171.658 -57.019)" fill="#1f3c59"/>
    <path id="Trazado_39" data-name="Trazado 39" d="M191.663,181.307q0-1.157,0-2.314a1.122,1.122,0,0,1,1.095.8,1.144,1.144,0,0,1-1.094,1.509" transform="translate(-171.655 -160.308)" fill="#203d59"/>
  </g>
</svg>
