<svg width="24" height="25" viewBox="0 0 24 25" fill="none" xmlns="http://www.w3.org/2000/svg">
<path d="M12 22.2412C17.5228 22.2412 22 17.7641 22 12.2412C22 6.71836 17.5228 2.24121 12 2.24121C6.47715 2.24121 2 6.71836 2 12.2412C2 17.7641 6.47715 22.2412 12 22.2412Z" stroke="#009AED" stroke-width="1.5"/>
<path d="M10.125 9.11645C10.125 8.78809 10.2113 8.4655 10.3752 8.18095C10.5391 7.89641 10.7748 7.65989 11.0588 7.49506C11.3428 7.33022 11.6651 7.24286 11.9934 7.24171C12.3218 7.24056 12.6447 7.32566 12.9298 7.4885C13.215 7.65133 13.4523 7.88619 13.6182 8.16958C13.7841 8.45297 13.8726 8.77495 13.875 9.1033C13.8773 9.43165 13.7934 9.75486 13.6316 10.0406C13.4698 10.3263 13.2358 10.5646 12.953 10.7314C12.478 11.0124 12 11.4394 12 11.9914V13.2414" stroke="#009AED" stroke-width="1.5" stroke-linecap="round"/>
<path d="M12 17.2412C12.5523 17.2412 13 16.7935 13 16.2412C13 15.6889 12.5523 15.2412 12 15.2412C11.4477 15.2412 11 15.6889 11 16.2412C11 16.7935 11.4477 17.2412 12 17.2412Z" fill="#009AED"/>
</svg>
