<svg width="136" height="25" viewBox="0 0 136 25" fill="none" xmlns="http://www.w3.org/2000/svg">
<g id="Modo_de_aislamiento" clip-path="url(#clip0_1_112)">
<g id="Group">
<path id="Vector" d="M67.0176 7.25983C63.1285 7.26601 60.3716 10.0987 60.3614 14.6991C60.3614 18.8874 63.6661 21.4934 67.044 21.4955C69.0517 21.4955 70.3039 21.1803 71.0288 20.5787V18.2487C69.9944 18.7637 68.7707 18.9286 67.6874 18.9286C65.6065 18.9327 63.9308 17.781 63.6579 15.9372L63.6355 15.7724H66.0667C68.3512 15.7724 69.9639 15.5623 70.9778 15.0534C71.9898 14.5404 72.4296 13.7699 72.4357 12.5235C72.4357 9.2726 69.8376 7.26189 67.0196 7.25983H67.0176ZM68.5996 13.2878C67.9705 13.5124 66.9585 13.5989 65.3174 13.5989H63.6233L63.6335 13.4485L63.6579 12.9809C63.7353 11.3183 64.9529 9.87005 66.7101 9.87005C67.5286 9.87005 68.2148 10.0513 68.7076 10.4242C69.2003 10.7971 69.4813 11.376 69.4772 12.1074C69.4915 12.6389 69.237 13.0715 68.6017 13.2878H68.5996ZM74.1074 12.5668V21.2565H77.298V13.189C77.298 12.1074 77.5118 11.3286 77.9496 10.8115C78.3894 10.2924 79.0389 10.0678 79.8351 10.0699C80.1588 10.0699 80.4459 10.0967 80.7025 10.142V7.58533C80.3013 7.38138 79.776 7.24953 79.0878 7.24953C75.5144 7.25571 74.1196 9.81648 74.1074 12.5668ZM32.1588 3.75138V21.2586H35.3433V3.75138H32.1588ZM43.9318 7.25983C39.6824 7.26601 37.8295 10.2059 37.8172 13.0942V21.2586H40.9834V13.329C40.9834 12.3072 41.2461 11.4893 41.7165 10.9228C42.1888 10.3562 42.8628 10.0534 43.6467 10.0534C44.561 10.0534 45.3103 10.3212 45.8234 10.9125C46.3324 11.5058 46.593 12.3917 46.593 13.5845L46.5971 21.2586H49.7592V13.2796C49.7531 9.39209 47.1346 7.26807 43.9297 7.25983H43.9318ZM55.3586 3.75138H52.2087L52.2189 16.3843C52.2352 19.5899 53.8315 21.4811 57.2767 21.4976C58.7386 21.4976 59.6182 21.0155 59.9806 20.245V18.2549C59.4126 18.5083 58.6429 18.6216 57.688 18.6216C56.9733 18.6216 56.3767 18.4382 55.9674 17.9974C55.5602 17.5586 55.3566 16.8931 55.3566 15.966V10.0534H58.1176C59.4655 10.0513 60.0316 9.18195 60.0356 8.53919V7.25983H55.3566V3.75138H55.3586ZM115.533 7.25983C111.281 7.26601 109.426 10.2059 109.418 13.0942L109.436 21.2586H112.584V13.3311C112.584 12.3093 112.847 11.4893 113.317 10.9228C113.788 10.3562 114.466 10.0534 115.248 10.0534C116.16 10.0534 116.913 10.3212 117.422 10.9145C117.935 11.5058 118.196 12.3917 118.196 13.5845L118.204 21.2565H121.362V13.2755C121.354 9.38797 118.738 7.26395 115.531 7.25777L115.533 7.25983ZM89.128 7.25983C87.3444 7.25983 86.2286 8.33111 85.5587 9.32204L85.3021 9.69905L85.3123 3.75138H82.1685V14.5981C82.1685 19.2087 84.9091 21.4955 88.4724 21.4955C92.5263 21.4955 95.0878 18.2631 95.0939 14.1304C95.0878 10.0781 92.5019 7.26189 89.126 7.25983H89.128ZM88.8246 18.774H88.8185C87.7862 18.774 86.8475 18.465 86.2347 17.7007C85.6197 16.9323 85.3265 15.7271 85.3265 14.1057C85.3326 11.8808 86.6541 10.0575 88.4724 10.0555C89.5291 10.0555 90.3986 10.3501 90.9809 11.1041C91.5693 11.8519 91.8646 13.0159 91.8646 14.7279C91.8646 17.025 90.6164 18.774 88.8226 18.7761L88.8246 18.774ZM101.597 7.26189C99.6712 7.26189 98.4067 7.78517 97.523 8.48768V10.7374C98.421 10.3068 99.549 9.95039 101.082 9.95039C102.123 9.95039 103.025 10.0987 103.558 10.5272C104.096 10.9578 104.334 11.6541 104.334 12.6554V12.9788H102.982C97.9058 12.9994 96.2301 14.8165 96.2219 17.2124C96.2219 19.6785 98.3945 21.4934 101.642 21.4976H102.338C105.364 21.4914 107.441 19.5178 107.447 16.6438V13.4321C107.447 8.53712 104.643 7.28455 101.597 7.26395V7.26189ZM104.36 16.6665C104.36 17.402 104.173 17.9829 103.77 18.3785C103.367 18.7699 102.772 18.9574 102.007 18.9574H102.001C101.223 18.9574 100.594 18.7905 100.15 18.4691C99.7058 18.1519 99.4614 17.6636 99.4635 17.0806C99.4574 16.4831 99.6752 15.9681 100.237 15.6488C100.793 15.3315 101.654 15.1811 102.982 15.177H104.358V16.6665H104.36Z" fill="#05BE50"/>
<path id="Vector_2" d="M130.405 13.9926L130.331 13.9019L130.405 13.8134C131.793 12.0478 134.795 8.60733 135.925 7.5752H134.174C133.072 7.57726 132.311 7.69675 131.514 8.44046C129.932 9.95674 128.621 11.7347 127.281 13.494L127.027 13.8319L127.041 3.74743H123.836V21.2279L127.027 21.2361V14.145L127.283 14.4891C128.802 16.5328 130.344 18.595 132.111 20.4244C132.671 20.9889 133.546 21.3432 134.277 21.3391C135.153 21.335 135.652 21.1125 136 20.6902C135.12 19.6251 131.484 15.3214 130.407 13.9905L130.405 13.9926Z" fill="#05BE50"/>
</g>
<path id="Vector_3" fill-rule="evenodd" clip-rule="evenodd" d="M3.29651 0C1.47417 0 0 1.50185 0 3.356V25H21.4121C23.2344 25 24.7127 23.4981 24.7127 21.6461L24.7167 0.00206016H3.29651V0ZM18.9402 18.0449L5.76839 20.4532V7.00247L18.9402 4.59415V18.0449Z" fill="#0039A6"/>
</g>
<defs>
<clipPath id="clip0_1_112">
<rect width="136" height="25" fill="white"/>
</clipPath>
</defs>
</svg>
