<svg width="24" height="24" viewBox="0 0 24 24" fill="none" xmlns="http://www.w3.org/2000/svg">
<path d="M16.9207 15.4794C16.1477 16.2524 14.5743 17.8257 13.4139 18.9862C12.6329 19.7672 11.3676 19.7675 10.5865 18.9865C9.44676 17.8467 7.90268 16.3026 7.07944 15.4794C4.36187 12.7618 4.36187 8.35576 7.07944 5.63819C9.79702 2.92061 14.2031 2.92061 16.9207 5.63819C19.6382 8.35576 19.6382 12.7618 16.9207 15.4794Z" stroke="#009AED" stroke-linecap="round" stroke-linejoin="round"/>
<path d="M14.6096 10.5588C14.6096 12 13.4413 13.1683 12 13.1683C10.5588 13.1683 9.3905 12 9.3905 10.5588C9.3905 9.11758 10.5588 7.94925 12 7.94925C13.4413 7.94925 14.6096 9.11758 14.6096 10.5588Z" stroke="#009AED" stroke-linecap="round" stroke-linejoin="round"/>
</svg>
