<svg width="128" height="30" viewBox="0 0 128 30" fill="none" xmlns="http://www.w3.org/2000/svg">
<g clip-path="url(#clip0_8659_34899)">
<path d="M15.0813 12.2672V23.112H10.7501V13.2625C10.7501 11.5228 10.1528 10.6826 8.64679 10.6826C7.3921 10.6826 5.97844 11.2739 4.62922 12.2991V23.112H0.235687V7.57744H4.28333V9.22363C6.04074 7.91774 7.95499 7.17334 9.93369 7.17334C13.1349 7.17121 15.0813 8.94288 15.0813 12.2672Z" fill="white"/>
<path d="M43.9626 12.2672V23.112H39.5991V13.2008C39.5991 11.5844 39.1286 10.6848 37.5581 10.6848C36.1766 10.6848 34.8897 11.2122 33.5728 12.3629V23.1141H29.2093V13.203C29.2093 11.5866 28.7066 10.6869 27.1382 10.6869C25.8212 10.6869 24.5343 11.2782 23.1529 12.4586V23.1162H18.7916V7.57744H22.8414V9.53415C24.5988 8.073 26.5452 7.17334 28.6163 7.17334C30.6874 7.17334 32.1935 7.94964 32.9798 9.44269C34.7071 8.04535 36.7138 7.17334 38.8493 7.17334C41.9237 7.17121 43.9626 8.91311 43.9626 12.2672Z" fill="white"/>
<path d="M61.9879 7.5752L56.4965 21.7443C56.056 22.9247 55.3664 23.2969 53.7658 23.2969C52.133 23.2969 51.4434 22.8928 50.9729 21.7443L45.4492 7.5752H49.875L53.798 19.4452L57.7834 7.5752H61.9879Z" fill="#CECAC5"/>
<path d="M64.579 3.16418C64.579 1.61158 65.5522 0.616211 67.0905 0.616211C68.6288 0.616211 69.6321 1.61158 69.6321 3.16418C69.6321 4.71678 68.6288 5.71215 67.0905 5.71215C65.5501 5.71215 64.579 4.71678 64.579 3.16418ZM64.955 7.57528H69.1917V23.1098H64.955V7.57528Z" fill="#CECAC5"/>
<path d="M86.4091 13.6347V23.112H82.6429V21.0915C81.5451 22.5526 79.8499 23.4842 77.5576 23.4842C74.3242 23.4842 72.1586 21.5892 72.1586 18.669C72.1586 14.847 75.8302 13.5411 79.8177 13.5411C80.7287 13.5411 81.6374 13.6028 82.4861 13.7283V13.5114C82.4861 11.4909 81.1046 10.5295 79.1582 10.5295C77.6822 10.5295 76.0193 11.057 74.3886 12.3012L72.5689 9.65963C74.264 8.07513 76.8679 7.17334 79.474 7.17334C83.6161 7.17334 86.4091 9.47034 86.4091 13.6347ZM82.4861 16.2146C81.6697 16.1529 80.8855 16.121 80.1314 16.121C78.0904 16.121 76.3974 16.7102 76.3974 18.3882C76.3974 19.5389 77.2439 20.3449 78.5953 20.3449C80.9177 20.3471 82.3292 18.6052 82.4861 16.2146Z" fill="#CECAC5"/>
<path d="M86.4565 28.5482L87.0838 24.9751C87.5866 25.1622 88.1516 25.2856 88.6844 25.2856C89.8768 25.2856 90.4418 24.6646 90.4418 23.3289V7.57528H94.7408V23.4522C94.7408 27.1508 93.0135 29.2309 89.4041 29.2309C88.2762 29.233 87.3051 28.9225 86.4565 28.5482ZM90.0358 3.16418C90.0358 1.61158 91.0391 0.616211 92.6096 0.616211C94.2102 0.616211 95.2156 1.61158 95.2156 3.16418C95.2156 4.71679 94.2123 5.71215 92.6096 5.71215C91.0391 5.71215 90.0358 4.71679 90.0358 3.16418Z" fill="#CECAC5"/>
<path d="M110.611 18.4499L112.336 21.1851C110.39 22.7079 107.911 23.4842 105.588 23.4842C100.692 23.4842 97.7098 20.0982 97.7098 15.5617C97.7098 11.0868 100.66 7.17334 105.902 7.17334C109.384 7.17334 112.493 9.06837 112.493 12.5798C112.493 14.9406 111.112 17.0228 107.565 17.0228H101.727C102.136 18.9178 103.455 20.0982 105.87 20.0982C107.41 20.0982 109.2 19.4772 110.611 18.4499ZM101.635 14.1622H106.658C107.945 14.1622 108.635 13.4476 108.635 12.4543C108.635 11.3356 107.567 10.3721 105.872 10.3721C103.895 10.3721 102.073 11.678 101.635 14.1622Z" fill="#CECAC5"/>
<path d="M113.978 21.0913L115.673 18.4179C117.336 19.7535 119.093 20.2512 120.35 20.2512C121.669 20.2512 122.797 19.7238 122.797 18.7284C122.797 17.4863 121.102 17.1439 119.407 16.5845C116.895 15.7444 114.857 14.6576 114.857 12.0479C114.857 8.91084 117.587 7.16895 121.197 7.16895C123.425 7.16895 125.59 7.88357 127.098 8.97039L125.466 11.6119C124.022 10.7421 122.61 10.3061 121.386 10.3061C119.974 10.3061 119.095 10.8973 119.095 11.7034C119.095 12.7604 120.415 13.1326 121.858 13.5984C124.432 14.4364 127.257 15.3382 127.257 18.4774C127.257 21.74 124.088 23.45 120.541 23.45C118.058 23.4543 115.611 22.6461 113.978 21.0913Z" fill="#CECAC5"/>
</g>
<defs>
<clipPath id="clip0_8659_34899">
<rect width="127.019" height="28.6168" fill="white" transform="translate(0.235687 0.616211)"/>
</clipPath>
</defs>
</svg>
