<svg width="138" height="48" viewBox="0 0 138 48" fill="none" xmlns="http://www.w3.org/2000/svg">
<path d="M20.2424 23.7263V34.6413H15.9296V24.7281C15.9296 22.977 15.3349 22.1315 13.8352 22.1315C12.5859 22.1315 11.1782 22.7266 9.83477 23.7584V34.6413H5.45993V19.0062H9.49034V20.663C11.2403 19.3487 13.1464 18.5995 15.1166 18.5995C18.3042 18.5973 20.2424 20.3805 20.2424 23.7263Z" fill="#B50A27"/>
<path d="M49.0009 23.7263V34.6413H44.656V24.666C44.656 23.0392 44.1875 22.1336 42.6237 22.1336C41.2481 22.1336 39.9667 22.6646 38.6553 23.8226V34.6435H34.3104V24.6682C34.3104 23.0413 33.8099 22.1358 32.2482 22.1358C30.9367 22.1358 29.6553 22.7309 28.2798 23.919V34.6456H23.937V19.0062H27.9696V20.9756C29.7195 19.505 31.6577 18.5995 33.72 18.5995C35.7822 18.5995 37.2819 19.3808 38.0649 20.8835C39.7848 19.4771 41.7829 18.5995 43.9094 18.5995C46.9707 18.5973 49.0009 20.3505 49.0009 23.7263Z" fill="#B50A27"/>
<path d="M66.9491 19.0042L61.4811 33.265C61.0425 34.4531 60.3558 34.8277 58.7621 34.8277C57.1362 34.8277 56.4495 34.421 55.981 33.265L50.4809 19.0042H54.8878L58.7941 30.951L62.7625 19.0042H66.9491Z" fill="#CFD1D3"/>
<path d="M69.5294 14.5645C69.5294 13.0018 70.4985 12 72.0303 12C73.5619 12 74.561 13.0018 74.561 14.5645C74.561 16.1271 73.5619 17.1289 72.0303 17.1289C70.4963 17.1289 69.5294 16.1271 69.5294 14.5645ZM69.9038 19.0041H74.1225V34.6392H69.9038V19.0041Z" fill="#CFD1D3"/>
<path d="M91.2667 25.1027V34.6413H87.5159V32.6077C86.4233 34.0783 84.7352 35.0159 82.4526 35.0159C79.233 35.0159 77.0766 33.1086 77.0766 30.1695C77.0766 26.3229 80.7326 25.0085 84.7032 25.0085C85.6103 25.0085 86.5149 25.0706 87.3598 25.1969V24.9786C87.3598 22.9449 85.9846 21.9774 84.0463 21.9774C82.5767 21.9774 80.9208 22.5082 79.2972 23.7606L77.4852 21.1019C79.173 19.5071 81.7659 18.5995 84.3608 18.5995C88.4851 18.5995 91.2667 20.9113 91.2667 25.1027ZM87.3598 27.6993C86.5476 27.6372 85.7664 27.6051 85.0155 27.6051C82.9831 27.6051 81.2974 28.198 81.2974 29.887C81.2974 31.0451 82.1403 31.8563 83.4859 31.8563C85.7982 31.8585 87.2038 30.1053 87.3598 27.6993Z" fill="#CFD1D3"/>
<path d="M91.3137 40.1128L91.938 36.5165C92.4389 36.705 93.0019 36.8291 93.5323 36.8291C94.7197 36.8291 95.2819 36.2041 95.2819 34.8598V19.0041H99.563V34.9839C99.563 38.7064 97.8429 40.8 94.249 40.8C93.1254 40.8021 92.1586 40.4896 91.3137 40.1128ZM94.8781 14.5645C94.8781 13.0018 95.8767 12 97.4408 12C99.0342 12 100.035 13.0018 100.035 14.5645C100.035 16.1271 99.0366 17.1289 97.4408 17.1289C95.8767 17.1289 94.8781 16.1271 94.8781 14.5645Z" fill="#CFD1D3"/>
<path d="M115.366 29.9491L117.083 32.7019C115.145 34.2346 112.676 35.0159 110.364 35.0159C105.489 35.0159 102.519 31.608 102.519 27.0421C102.519 22.5382 105.457 18.5995 110.677 18.5995C114.144 18.5995 117.239 20.5068 117.239 24.0409C117.239 26.4171 115.864 28.5127 112.332 28.5127H106.52C106.926 30.42 108.24 31.608 110.644 31.608C112.178 31.608 113.96 30.983 115.366 29.9491ZM106.427 25.6336H111.429C112.711 25.6336 113.398 24.9143 113.398 23.9146C113.398 22.7887 112.335 21.819 110.646 21.819C108.678 21.819 106.864 23.1334 106.427 25.6336Z" fill="#CFD1D3"/>
<path d="M118.718 32.6077L120.406 29.9169C122.061 31.2612 123.812 31.7622 125.063 31.7622C126.377 31.7622 127.5 31.2313 127.5 30.2295C127.5 28.9794 125.812 28.6347 124.124 28.0717C121.623 27.2262 119.593 26.1323 119.593 23.5058C119.593 20.3484 122.312 18.5952 125.906 18.5952C128.125 18.5952 130.281 19.3145 131.782 20.4084L130.157 23.0669C128.72 22.1914 127.314 21.7527 126.094 21.7527C124.688 21.7527 123.814 22.3477 123.814 23.159C123.814 24.2229 125.127 24.5975 126.565 25.0663C129.128 25.9097 131.941 26.8173 131.941 29.9769C131.941 33.2606 128.786 34.9817 125.254 34.9817C122.78 34.986 120.344 34.1725 118.718 32.6077Z" fill="#CFD1D3"/>
</svg>
