<svg width="159" height="38" viewBox="0 0 159 38" fill="none" xmlns="http://www.w3.org/2000/svg">
<g clip-path="url(#clip0_324_23579)">
<path d="M18.9331 15.6413V29.3477H13.5249V16.8993C13.5249 14.7005 12.7791 13.6387 10.8986 13.6387C9.33192 13.6387 7.56673 14.386 5.88203 15.6816V29.3477H0.395996V9.7141H5.45012V11.7947C7.64453 10.1442 10.0348 9.20337 12.5055 9.20337C16.5027 9.20068 18.9331 11.4398 18.9331 15.6413Z" fill="#DF0C30"/>
<path d="M54.996 15.6413V29.3477H49.5476V16.8214C49.5476 14.7784 48.9601 13.6414 46.999 13.6414C45.2741 13.6414 43.6672 14.308 42.0227 15.7623V29.3504H36.5742V16.824C36.5742 14.7811 35.9465 13.6441 33.9882 13.6441C32.3437 13.6441 30.7368 14.3913 29.0118 15.8832V29.3531H23.566V9.7141H28.6228V12.1871C30.8173 10.3404 33.2477 9.20337 35.8338 9.20337C38.4199 9.20337 40.3004 10.1845 41.2823 12.0715C43.4392 10.3055 45.9448 9.20337 48.6113 9.20337C52.4502 9.20068 54.996 11.4022 54.996 15.6413Z" fill="#DF0C30"/>
<path d="M77.5034 9.71143L70.6465 27.6193C70.0966 29.1112 69.2354 29.5816 67.2369 29.5816C65.198 29.5816 64.3369 29.0709 63.7494 27.6193L56.8523 9.71143H62.3786L67.2771 24.7135L72.2534 9.71143H77.5034Z" fill="#DF0C30"/>
<path d="M80.7389 4.13632C80.7389 2.17403 81.9541 0.916016 83.8749 0.916016C85.7957 0.916016 87.0485 2.17403 87.0485 4.13632C87.0485 6.09861 85.7957 7.35662 83.8749 7.35662C81.9515 7.35662 80.7389 6.09861 80.7389 4.13632ZM81.2084 9.71137H86.4986V29.345H81.2084V9.71137Z" fill="#DF0C30"/>
<path d="M107.997 17.3697V29.3477H103.294V26.7941C101.924 28.6408 99.807 29.8182 96.9446 29.8182C92.9072 29.8182 90.2031 27.4231 90.2031 23.7324C90.2031 18.9019 94.7878 17.2514 99.7668 17.2514C100.904 17.2514 102.039 17.3294 103.099 17.488V17.2138C103.099 14.6601 101.374 13.4451 98.9432 13.4451C97.1002 13.4451 95.0239 14.1118 92.9877 15.6843L90.7155 12.3457C92.8321 10.3431 96.0835 9.20337 99.3376 9.20337C104.51 9.20337 107.997 12.1065 107.997 17.3697ZM103.099 20.6303C102.079 20.5524 101.1 20.5121 100.158 20.5121C97.6099 20.5121 95.496 21.2567 95.496 23.3775C95.496 24.8318 96.553 25.8506 98.2404 25.8506C101.14 25.8533 102.903 23.6517 103.099 20.6303Z" fill="#DF0C30"/>
<path d="M108.056 36.2184L108.84 31.7024C109.467 31.939 110.173 32.0949 110.838 32.0949C112.327 32.0949 113.033 31.31 113.033 29.6219V9.71137H118.401V29.7778C118.401 34.4523 116.244 37.0813 111.737 37.0813C110.329 37.084 109.116 36.6915 108.056 36.2184ZM112.526 4.13632C112.526 2.17403 113.778 0.916016 115.74 0.916016C117.738 0.916016 118.994 2.17403 118.994 4.13632C118.994 6.09861 117.741 7.35662 115.74 7.35662C113.778 7.35662 112.526 6.09861 112.526 4.13632Z" fill="#DF0C30"/>
<path d="M138.217 23.4555L140.372 26.9124C137.941 28.837 134.845 29.8182 131.945 29.8182C125.832 29.8182 122.108 25.5387 122.108 19.8051C122.108 14.1494 125.791 9.20337 132.337 9.20337C136.686 9.20337 140.567 11.5984 140.567 16.0364C140.567 19.0202 138.842 21.6518 134.413 21.6518H127.125C127.634 24.0469 129.281 25.5388 132.297 25.5388C134.22 25.5388 136.455 24.7538 138.217 23.4555ZM127.009 18.0364H133.281C134.888 18.0364 135.749 17.1332 135.749 15.8778C135.749 14.4639 134.416 13.2462 132.299 13.2462C129.831 13.2462 127.557 14.8967 127.009 18.0364Z" fill="#DF0C30"/>
<path d="M142.422 26.7941L144.538 23.4152C146.615 25.1033 148.809 25.7323 150.378 25.7323C152.025 25.7323 153.434 25.0657 153.434 23.8076C153.434 22.2378 151.317 21.805 149.201 21.0981C146.065 20.0363 143.519 18.6627 143.519 15.3644C143.519 11.3995 146.928 9.198 151.435 9.198C154.217 9.198 156.921 10.1012 158.805 11.4748L156.766 14.8134C154.963 13.7139 153.2 13.1629 151.671 13.1629C149.909 13.1629 148.812 13.9102 148.812 14.929C148.812 16.2649 150.459 16.7353 152.262 17.324C155.475 18.3831 159.003 19.5229 159.003 23.4904C159.003 27.6139 155.046 29.7751 150.617 29.7751C147.516 29.7805 144.46 28.7591 142.422 26.7941Z" fill="#DF0C30"/>
</g>
<defs>
<clipPath id="clip0_324_23579">
<rect width="158.604" height="36.1679" fill="white" transform="translate(0.395996 0.916016)"/>
</clipPath>
</defs>
</svg>
