<svg width="20" height="20" viewBox="0 0 20 20" fill="none" xmlns="http://www.w3.org/2000/svg">
<path d="M1.90845 6.48332V14.5917C1.90845 16.175 3.03345 16.825 4.40011 16.0417L6.35845 14.925C6.78345 14.6833 7.49178 14.6583 7.93345 14.8833L12.3084 17.075C12.7501 17.2917 13.4584 17.275 13.8834 17.0333L17.4918 14.9667C17.9501 14.7 18.3334 14.05 18.3334 13.5167V5.40832C18.3334 3.82499 17.2084 3.17499 15.8418 3.95832L13.8834 5.07499C13.4584 5.31666 12.7501 5.34166 12.3084 5.11666L7.93345 2.93332C7.49178 2.71666 6.78345 2.73332 6.35845 2.97499L2.75011 5.04166C2.28345 5.30832 1.90845 5.95832 1.90845 6.48332Z" stroke="#505457" stroke-width="1.25" stroke-linecap="round" stroke-linejoin="round"/>
<path d="M7.1333 3.33334V14.1667" stroke="#505457" stroke-width="1.25" stroke-linecap="round" stroke-linejoin="round"/>
<path d="M13.1084 5.51666V16.6667" stroke="#505457" stroke-width="1.25" stroke-linecap="round" stroke-linejoin="round"/>
</svg>
