<svg xmlns="http://www.w3.org/2000/svg" width="87.875" height="85.715" viewBox="0 0 87.875 85.715">
  <g id="Grupo_24" data-name="Grupo 24" transform="translate(0)">
    <path id="Trazado_65" data-name="Trazado 65" d="M54.356,265.02c-3,1.308-5.993,2.626-9,3.921Q26.49,277.074,7.622,285.208c-1.789.774-3.515,1.121-5.306.075A6.153,6.153,0,0,1,0,282.323v-2.229c.654-1.534,1.3-3.07,1.967-4.6a9.434,9.434,0,0,1,.549-.952,2.731,2.731,0,0,0,3.258.76c1.923-.7,3.782-1.568,5.665-2.373q6.474-2.766,12.944-5.54,7.215-3.095,14.423-6.205c1.031-.447,2.019-.991,3.027-1.491,1.853,1.1,3.661,2.28,5.57,3.27a16.821,16.821,0,0,0,6.952,2.056" transform="translate(0.001 -200.221)" fill="#efaa66"/>
    <path id="Trazado_66" data-name="Trazado 66" d="M50.305,167.992c-1.008.5-2,1.044-3.027,1.491q-7.2,3.125-14.424,6.206-6.47,2.775-12.944,5.54c-1.883.8-3.742,1.677-5.665,2.373a2.73,2.73,0,0,1-3.258-.76c1.075-2.542,2.133-5.092,3.229-7.626q6.306-14.584,12.634-29.159c.769-1.774,1.566-3.536,2.351-5.3a59.443,59.443,0,0,0,2.017,5.789,48.5,48.5,0,0,0,8.935,12.563,66.21,66.21,0,0,0,10.153,8.886m-23.6-5.657a1.423,1.423,0,0,0-1.594.9c-.787,1.768-1.555,3.546-2.272,5.343a1.76,1.76,0,0,0,.948,2.269A1.815,1.815,0,0,0,26,170.007c.811-1.756,1.61-3.525,2.283-5.337a1.6,1.6,0,0,0-1.577-2.335m3.11-7.37a1.511,1.511,0,0,0-1.61,1.049c-.238.485-.441.987-.647,1.486a1.779,1.779,0,0,0,.934,2.309,1.756,1.756,0,0,0,2.294-.88,13.139,13.139,0,0,0,.687-1.826,1.553,1.553,0,0,0-1.659-2.139" transform="translate(-8.471 -108.52)" fill="#ffe266"/>
    <path id="Trazado_67" data-name="Trazado 67" d="M185.26,168.509c.632,1.579,1.319,3.139,1.882,4.743a7.509,7.509,0,0,1-.258,5.293c-.251.647-.947,1.12-1.44,1.673-.053-1.477-.533-2.188-1.534-2.247a17.9,17.9,0,0,1-8.6-3.087c2.058.252,3.852-.964,3.051-3.671a22.863,22.863,0,0,0-2.223-5.139,40.626,40.626,0,0,0-8.51-9.958,5.779,5.779,0,0,1-.714-.92,3.269,3.269,0,0,0,3.027-1.223,3.976,3.976,0,0,0,.766-2.725c.844.657,1.742,1.257,2.524,1.982a61.2,61.2,0,0,1,10.078,11.715,7.256,7.256,0,0,1,.4.833,15.093,15.093,0,0,0-1.645-.311,2.489,2.489,0,0,0-2.552,1.648,2.738,2.738,0,0,0,.495,3.18,2.8,2.8,0,0,0,2.935.868c1.435-.357,1.943-1.422,2.319-2.652" transform="translate(-128.688 -116.61)" fill="#ffe267"/>
    <path id="Trazado_68" data-name="Trazado 68" d="M116.409,160.389a17.9,17.9,0,0,0,8.6,3.087c1,.058,1.481.769,1.534,2.247v-.014l-.16.186a2.182,2.182,0,0,1-2.238,1.019,16.818,16.818,0,0,1-6.952-2.056c-1.909-.99-3.717-2.173-5.57-3.27A66.2,66.2,0,0,1,101.47,152.7a48.5,48.5,0,0,1-8.935-12.562,59.444,59.444,0,0,1-2.017-5.789l.734-1.72.143-.182,0,.008c.342,0,.684-.009,1.026-.007a1.481,1.481,0,0,1,1.645,1.27c.16.656.282,1.32.421,1.981.335.846.626,1.712,1.011,2.534a44.981,44.981,0,0,0,8.682,12.168,97.345,97.345,0,0,0,7.508,6.824,50.446,50.446,0,0,0,4.726,3.165" transform="translate(-69.788 -102.115)" fill="#d0854b"/>
    <path id="Trazado_69" data-name="Trazado 69" d="M300.074,69.679c.005-.028,0-.064.016-.083,1.754-2.118,3.378-4.44,6.192-5.233a6.466,6.466,0,0,1,3.026.041,56.435,56.435,0,0,1,5.483,1.574c1.764.583,2.873,1.728,2.614,4.213a3.63,3.63,0,0,1-3.328,2.927,5.368,5.368,0,0,1-1.579-.282c-2.056-.554-4.1-1.132-6.158-1.7a3.525,3.525,0,0,0-.505-.065c-.348-.11-.692-.244-1.048-.327-1.57-.364-3.143-.714-4.715-1.068" transform="translate(-231.354 -49.498)" fill="#f7c4db"/>
    <path id="Trazado_70" data-name="Trazado 70" d="M269.566,130.075c-1.354,1.376-2.624,2.851-4.085,4.1a5.28,5.28,0,0,1-5.068.977c-1.86-.525-3.714-1.075-5.55-1.675a3.5,3.5,0,0,1-2.614-3.657,3.293,3.293,0,0,1,2.557-3.23,4.673,4.673,0,0,1,2.1,0c2.288.56,4.551,1.225,6.824,1.846a4.377,4.377,0,0,0,.5.077,4.775,4.775,0,0,0,.456.18q2.438.693,4.879,1.377" transform="translate(-194.479 -97.51)" fill="#f7c4db"/>
    <path id="Trazado_71" data-name="Trazado 71" d="M153.322,106.72a3.976,3.976,0,0,1-.766,2.725,3.269,3.269,0,0,1-3.027,1.223c-1.738.072-2.605-1.039-3.279-2.413-.251-.863-.539-1.718-.747-2.591-.4-1.694-.761-3.4-1.138-5.1A6.7,6.7,0,0,1,146.4,96.55c.871-.815,1.686-1.689,2.542-2.521a6.068,6.068,0,0,1,.74-.535,2.989,2.989,0,0,1,.2.438q.689,2.437,1.364,4.878.938,3.454,1.873,6.91c.088.328.138.666.2,1" transform="translate(-111.304 -72.083)" fill="#cab4ef"/>
    <path id="Trazado_72" data-name="Trazado 72" d="M208.677,56.673c-.445-1.7-.886-3.405-1.339-5.105q-.252-.948-.552-1.884a3.584,3.584,0,0,1,2.194-4.43,3.537,3.537,0,0,1,4.608,1.934,52.291,52.291,0,0,1,1.869,6.383,5.485,5.485,0,0,1-1.625,5.4c-1.171,1.084-2.282,2.234-3.42,3.355l-1.735-5.652" transform="translate(-159.302 -34.711)" fill="#cab4ef"/>
    <path id="Trazado_73" data-name="Trazado 73" d="M178.566,89.838,180.3,95.49a5.791,5.791,0,0,1-5.745.883c-1.8-.617-3.616-1.182-5.425-1.77q-.68-2.439-1.364-4.878a2.978,2.978,0,0,0-.2-.438,13.039,13.039,0,0,1,2.64-1.157,9.154,9.154,0,0,1,4.472.659c1.284.393,2.592.7,3.89,1.05" transform="translate(-129.19 -67.876)" fill="#a284e2"/>
    <path id="Trazado_74" data-name="Trazado 74" d="M302.329,100.507q-2.44-.687-4.879-1.377a4.767,4.767,0,0,1-.456-.18c-.708-2.217-1.5-4.411-2.093-6.658a4.277,4.277,0,0,1,1.062-4.168c1.572.355,3.145.7,4.715,1.068.356.082.7.217,1.047.327.511,1.846,1.038,3.689,1.532,5.541a5.617,5.617,0,0,1-.928,5.448" transform="translate(-227.242 -67.943)" fill="#ef8cbd"/>
    <path id="Trazado_75" data-name="Trazado 75" d="M133.676,7.1a4.5,4.5,0,0,1-.772.695c-.968.483-1.983.878-2.927,1.4a2.386,2.386,0,0,0-.968,1.049c-.466,1.066-.79,2.194-1.228,3.275-.11.272-.434.457-.659.682-.23-.252-.555-.465-.674-.762a31.175,31.175,0,0,1-1.072-3.06,2.087,2.087,0,0,0-1.37-1.4c-.814-.34-1.637-.667-2.418-1.072-.317-.165-.731-.516-.74-.794s.4-.646.709-.809c.856-.447,1.793-.745,2.628-1.223a2.767,2.767,0,0,0,1.1-1.172c.464-1.035.756-2.145,1.172-3.2.109-.276.413-.476.628-.71.233.214.572.385.679.649.448,1.107.784,2.26,1.255,3.356a2.217,2.217,0,0,0,.923.987c.948.518,1.961.915,2.928,1.4a4.629,4.629,0,0,1,.8.713" transform="translate(-93.173)" fill="#f7c5db"/>
    <path id="Trazado_76" data-name="Trazado 76" d="M105.785,118.237c.377,1.7.735,3.4,1.138,5.1.208.874.5,1.728.747,2.591-.254-.122-.514-.232-.761-.368a37.214,37.214,0,0,0-3.59-1.969c-1.818-.758-3.7-1.626-5.649-.257-.057.04-.167.005-.253,0-.139-.661-.261-1.326-.421-1.981a1.481,1.481,0,0,0-1.645-1.27c-.342,0-.684,0-1.026.007a5.124,5.124,0,0,1,5.855-3.558c1.891.477,3.738,1.127,5.6,1.7" transform="translate(-72.724 -89.755)" fill="#ffe267"/>
    <path id="Trazado_77" data-name="Trazado 77" d="M351.693,165.456c-.268.228-.448.5-.683.562a4.575,4.575,0,0,0-3.541,3.877c-.053.275-.391.5-.6.741a6.921,6.921,0,0,1-.586-.757,2.126,2.126,0,0,1-.246-.724,3.688,3.688,0,0,0-2.942-3c-.351-.11-.613-.5-.916-.764a5.511,5.511,0,0,1,.873-.721c.626-.334,1.3-.567,1.93-.9a1.265,1.265,0,0,0,.488-.625c.3-.738.524-1.5.826-2.239a3.438,3.438,0,0,1,.531-.707,4.113,4.113,0,0,1,.631.7,3.169,3.169,0,0,1,.371,1.039,3.1,3.1,0,0,0,2.441,2.533,4.2,4.2,0,0,1,.925.433,2.935,2.935,0,0,1,.495.551" transform="translate(-263.818 -123.513)" fill="#cbb5ef"/>
    <path id="Trazado_78" data-name="Trazado 78" d="M226.665,216.344c-.375,1.23-.884,2.3-2.319,2.652a2.8,2.8,0,0,1-2.935-.868,2.738,2.738,0,0,1-.495-3.18,2.489,2.489,0,0,1,2.552-1.648,15.093,15.093,0,0,1,1.645.311,3.52,3.52,0,0,1,1.552,2.733" transform="translate(-170.094 -164.445)" fill="#8cb7ee"/>
    <path id="Trazado_79" data-name="Trazado 79" d="M274.6,7.254a2.868,2.868,0,0,1-2.884-2.84,2.921,2.921,0,1,1,5.84-.03A2.857,2.857,0,0,1,274.6,7.254" transform="translate(-209.488 -1.09)" fill="#ffa686"/>
    <path id="Trazado_80" data-name="Trazado 80" d="M302.977,211.041a2.755,2.755,0,0,1,2.918,2.952,3.014,3.014,0,0,1-3.013,2.883,3.17,3.17,0,0,1-2.85-2.969,2.829,2.829,0,0,1,2.945-2.866" transform="translate(-231.319 -162.711)" fill="#79eac5"/>
    <path id="Trazado_81" data-name="Trazado 81" d="M348.26,7.438a2.34,2.34,0,0,1,2.487,2.431,2.556,2.556,0,0,1-2.558,2.541,2.529,2.529,0,0,1-2.428-2.569,2.289,2.289,0,0,1,2.5-2.4" transform="translate(-266.579 -5.735)" fill="#8db7ef"/>
    <path id="Trazado_82" data-name="Trazado 82" d="M272.975,50.848c.929-.015,1.27.293,1.285,1.16.016.938-.406,1.4-1.294,1.412a1.284,1.284,0,0,1-1.289-1.283c-.024-.854.4-1.275,1.3-1.289" transform="translate(-209.459 -39.203)" fill="#7aeac5"/>
    <path id="Trazado_83" data-name="Trazado 83" d="M93.864,132.447l-.143.182.143-.182" transform="translate(-72.258 -102.115)" fill="#ffe267"/>
    <path id="Trazado_84" data-name="Trazado 84" d="M247.126,277.875l.16-.186-.16.186" transform="translate(-190.532 -214.095)" fill="#ffe267"/>
    <path id="Trazado_85" data-name="Trazado 85" d="M66.17,234.918a1.6,1.6,0,0,1,1.577,2.335c-.673,1.812-1.471,3.581-2.283,5.337a1.815,1.815,0,0,1-2.213.844,1.76,1.76,0,0,1-.948-2.269c.718-1.8,1.486-3.575,2.272-5.343a1.424,1.424,0,0,1,1.594-.9" transform="translate(-47.938 -181.103)" fill="#fffffd"/>
    <path id="Trazado_86" data-name="Trazado 86" d="M85.143,202.747a1.553,1.553,0,0,1,1.659,2.139,13.139,13.139,0,0,1-.687,1.826,1.756,1.756,0,0,1-2.294.88,1.779,1.779,0,0,1-.934-2.309c.205-.5.409-1,.647-1.486a1.511,1.511,0,0,1,1.61-1.049" transform="translate(-63.801 -156.302)" fill="#fffffd"/>
    <path id="Trazado_87" data-name="Trazado 87" d="M107.829,144.2c.085,0,.2.035.253-.005,1.947-1.369,3.831-.5,5.649.257a37.292,37.292,0,0,1,3.59,1.969c.246.136.507.246.761.368.673,1.375,1.541,2.485,3.279,2.414a5.763,5.763,0,0,0,.714.92,40.624,40.624,0,0,1,8.509,9.958,22.857,22.857,0,0,1,2.223,5.139c.8,2.706-.993,3.922-3.051,3.671a50.536,50.536,0,0,1-4.726-3.165,97.3,97.3,0,0,1-7.508-6.824,44.977,44.977,0,0,1-8.682-12.168c-.385-.823-.676-1.688-1.011-2.534" transform="translate(-83.135 -110.619)" fill="#efaa66"/>
    <rect id="Rectángulo_12" data-name="Rectángulo 12" width="87.875" height="85.715" fill="none"/>
  </g>
</svg>
