<svg width="32" height="32" viewBox="0 0 32 32" fill="none" xmlns="http://www.w3.org/2000/svg">
<g clip-path="url(#clip0_370_34244)">
<path d="M23.4667 20.2666H8.53333C8.2388 20.2666 8 20.5054 8 20.7999V29.3333C8 29.6278 8.2388 29.8666 8.53333 29.8666H23.4667C23.7612 29.8666 24 29.6278 24 29.3333V20.7999C24 20.5054 23.7612 20.2666 23.4667 20.2666ZM22.9039 21.3333C22.6294 23.7614 20.5768 25.5971 18.1333 25.5999H16.5333V25.0666C16.5333 24.7721 16.2945 24.5333 16 24.5333C15.7055 24.5333 15.4667 24.7721 15.4667 25.0666V25.5999H13.8667C11.4232 25.5971 9.37057 23.7614 9.09609 21.3333H22.9039ZM22.9333 28.7999H9.06667V24.1627C10.1622 25.7304 11.9539 26.665 13.8667 26.6666H15.4667V27.1999C15.4667 27.4945 15.7055 27.7333 16 27.7333C16.2945 27.7333 16.5333 27.4945 16.5333 27.1999V26.6666H18.1333C20.0461 26.665 21.8378 25.7304 22.9333 24.1627V28.7999Z" fill="#A3A7AB"/>
<path d="M28.7999 19.2H27.1999V10.6133C28.4408 10.3581 29.3316 9.26667 29.3332 8V4.8C29.3314 3.32786 28.1387 2.13516 26.6665 2.13333H20.2132C19.9579 0.892448 18.8665 0.0015625 17.5999 0H14.3999C13.1332 0.0015625 12.0418 0.892448 11.7866 2.13333H5.3332C3.86107 2.13516 2.66836 3.32786 2.66654 4.8V8C2.6681 9.26667 3.55898 10.3581 4.79987 10.6133V19.2H3.19987C1.72773 19.2018 0.535026 20.3945 0.533203 21.8667V26.1333C0.535026 27.6055 1.72773 28.7982 3.19987 28.8H4.79987V29.3333C4.80169 30.8055 5.9944 31.9982 7.46654 32H24.5332C26.0053 31.9982 27.198 30.8055 27.1999 29.3333V28.8H28.7999C30.272 28.7982 31.4647 27.6055 31.4665 26.1333V21.8667C31.4647 20.3945 30.272 19.2018 28.7999 19.2ZM28.2665 4.8V8C28.2665 8.88359 27.5501 9.6 26.6665 9.6H23.9999V3.2H26.6665C27.5501 3.2 28.2665 3.91641 28.2665 4.8ZM22.9332 3.2V9.6H21.8665V3.2H22.9332ZM21.8665 14.9333H22.9332V15.4667C22.9332 15.7612 22.6944 16 22.3999 16C22.1053 16 21.8665 15.7612 21.8665 15.4667V14.9333ZM21.8665 13.8667V10.6667H22.9332V13.8667H21.8665ZM20.7999 3.2V9.6H11.1999V3.2H20.7999ZM14.3999 1.06667H17.5999C18.2777 1.06745 18.8819 1.49453 19.1087 2.13333H12.891C13.1178 1.49453 13.722 1.06745 14.3999 1.06667ZM10.1332 3.2V9.6H9.06654V3.2H10.1332ZM9.06654 14.9333H10.1332V15.4667C10.1332 15.7612 9.8944 16 9.59987 16C9.30534 16 9.06654 15.7612 9.06654 15.4667V14.9333ZM9.06654 13.8667V10.6667H10.1332V13.8667H9.06654ZM3.7332 8V4.8C3.7332 3.91641 4.44961 3.2 5.3332 3.2H7.99987V9.6H5.3332C4.44961 9.6 3.7332 8.88359 3.7332 8ZM3.19987 27.7333C2.31628 27.7333 1.59987 27.0169 1.59987 26.1333V21.8667C1.59987 20.9831 2.31628 20.2667 3.19987 20.2667H4.79987V27.7333H3.19987ZM26.1332 29.3333C26.1332 30.2169 25.4168 30.9333 24.5332 30.9333H7.46654C6.58294 30.9333 5.86654 30.2169 5.86654 29.3333V10.6667H7.99987V13.8667H7.46654C7.17201 13.8667 6.9332 14.1055 6.9332 14.4C6.9332 14.6945 7.17201 14.9333 7.46654 14.9333H7.99987V15.4667C7.99987 16.3503 8.71628 17.0667 9.59987 17.0667C10.4835 17.0667 11.1999 16.3503 11.1999 15.4667V14.9333H11.7332C12.0277 14.9333 12.2665 14.6945 12.2665 14.4C12.2665 14.1055 12.0277 13.8667 11.7332 13.8667H11.1999V10.6667H20.7999V13.8667H20.2665C19.972 13.8667 19.7332 14.1055 19.7332 14.4C19.7332 14.6945 19.972 14.9333 20.2665 14.9333H20.7999V15.4667C20.7999 16.3503 21.5163 17.0667 22.3999 17.0667C23.2835 17.0667 23.9999 16.3503 23.9999 15.4667V14.9333H24.5332C24.8277 14.9333 25.0665 14.6945 25.0665 14.4C25.0665 14.1055 24.8277 13.8667 24.5332 13.8667H23.9999V10.6667H26.1332V29.3333ZM30.3999 26.1333C30.3999 27.0169 29.6835 27.7333 28.7999 27.7333H27.1999V20.2667H28.7999C29.6835 20.2667 30.3999 20.9831 30.3999 21.8667V26.1333Z" fill="#A3A7AB"/>
<path d="M25.8133 25.0036L30.1774 20.649C30.3685 20.4579 30.4759 20.1987 30.4759 19.9284C30.4759 19.6581 30.3685 19.3988 30.1774 19.2077C29.9863 19.0166 29.7271 18.9092 29.4568 18.9092C29.1865 18.9092 28.9273 19.0166 28.7362 19.2077L24.3823 23.5724L20.0285 19.2077C19.8374 19.0166 19.5782 18.9092 19.3079 18.9092C19.0376 18.9092 18.7784 19.0166 18.5873 19.2077C18.3962 19.3988 18.2888 19.6581 18.2888 19.9284C18.2888 20.1987 18.3962 20.4579 18.5873 20.649L22.9513 25.0036L18.5873 29.3581C18.4922 29.4524 18.4167 29.5647 18.3652 29.6884C18.3136 29.8121 18.2871 29.9447 18.2871 30.0787C18.2871 30.2127 18.3136 30.3454 18.3652 30.4691C18.4167 30.5928 18.4922 30.705 18.5873 30.7994C18.6817 30.8945 18.7939 30.9701 18.9176 31.0216C19.0413 31.0731 19.1739 31.0997 19.3079 31.0997C19.4419 31.0997 19.5745 31.0731 19.6982 31.0216C19.8219 30.9701 19.9341 30.8945 20.0285 30.7994L24.3823 26.4348L28.7362 30.7994C28.8306 30.8945 28.9428 30.9701 29.0665 31.0216C29.1902 31.0731 29.3228 31.0997 29.4568 31.0997C29.5908 31.0997 29.7234 31.0731 29.8471 31.0216C29.9708 30.9701 30.083 30.8945 30.1774 30.7994C30.2725 30.705 30.348 30.5928 30.3995 30.4691C30.4511 30.3454 30.4776 30.2127 30.4776 30.0787C30.4776 29.9447 30.4511 29.8121 30.3995 29.6884C30.348 29.5647 30.2725 29.4524 30.1774 29.3581L25.8133 25.0036Z" fill="#F43556"/>
</g>
<defs>
<clipPath id="clip0_370_34244">
<rect width="32" height="32" fill="white"/>
</clipPath>
</defs>
</svg>
