<svg width="32" height="32" viewBox="0 0 32 32" fill="none" xmlns="http://www.w3.org/2000/svg">
<path d="M20.5 10H22.5V11H20.5V10Z" fill="#A3A7AB"/>
<path d="M19.5 24.5H20.5V25.5H19.5V24.5Z" fill="#A3A7AB"/>
<path d="M21.5 24.5H22.5V25.5H21.5V24.5Z" fill="#A3A7AB"/>
<path d="M24.5 13.5069V13.125C24.5003 12.9024 24.4341 12.6848 24.31 12.5C24.4341 12.3152 24.5003 12.0976 24.5 11.875V9.75C24.4995 9.28603 24.3149 8.84122 23.9869 8.51315C23.6588 8.18507 23.214 8.00053 22.75 8H20.5V4.91431C20.6606 4.97117 20.8297 5.00015 21 5H21.5C21.8977 4.99954 22.2789 4.84135 22.5601 4.56015C22.8414 4.27894 22.9995 3.89768 23 3.5V2.5C22.9995 2.10232 22.8414 1.72106 22.5601 1.43985C22.2789 1.15865 21.8977 1.00046 21.5 1H13V2H21.5C21.6326 2.00015 21.7597 2.05288 21.8534 2.14661C21.9471 2.24035 21.9999 2.36744 22 2.5V3.5C21.9999 3.63256 21.9471 3.75965 21.8534 3.85339C21.7597 3.94712 21.6326 3.99985 21.5 4H21C20.8674 3.99985 20.7403 3.94712 20.6466 3.85339C20.5529 3.75965 20.5001 3.63256 20.5 3.5C20.5 3.36739 20.4473 3.24021 20.3536 3.14645C20.2598 3.05268 20.1326 3 20 3H12C11.8674 3 11.7402 3.05268 11.6464 3.14645C11.5527 3.24021 11.5 3.36739 11.5 3.5C11.4999 3.63256 11.4471 3.75965 11.3534 3.85339C11.2597 3.94712 11.1326 3.99985 11 4H10.5C10.3674 3.99985 10.2403 3.94712 10.1466 3.85339C10.0529 3.75965 10.0001 3.63256 10 3.5V2.5C10.0001 2.36744 10.0529 2.24035 10.1466 2.14661C10.2403 2.05288 10.3674 2.00015 10.5 2H12V1H10.5C10.1023 1.00046 9.72106 1.15865 9.43985 1.43985C9.15865 1.72106 9.00046 2.10232 9 2.5V3.5C9.00046 3.89768 9.15865 4.27894 9.43985 4.56015C9.72106 4.84135 10.1023 4.99954 10.5 5H11C11.1703 5.00015 11.3394 4.97117 11.5 4.91431V8H9.25C8.78603 8.00053 8.34122 8.18507 8.01315 8.51315C7.68507 8.84122 7.50053 9.28603 7.5 9.75V11.875C7.49975 12.0976 7.5659 12.3152 7.69 12.5C7.5659 12.6848 7.49975 12.9024 7.5 13.125V15.375C7.49975 15.5976 7.5659 15.8152 7.69 16C7.5659 16.1848 7.49975 16.4024 7.5 16.625V18.875C7.49975 19.0976 7.5659 19.3152 7.69 19.5C7.5659 19.6848 7.49975 19.9024 7.5 20.125V22.375C7.49975 22.5976 7.5659 22.8152 7.69 23C7.5659 23.1848 7.49975 23.4024 7.5 23.625V27.25C7.50053 27.6707 7.65234 28.0771 7.92773 28.3952C8.20312 28.7132 8.58371 28.9215 9 28.9822V29C9 29.5304 9.21071 30.0391 9.58579 30.4142C9.96086 30.7893 10.4696 31 11 31C11.5304 31 12.0391 30.7893 12.4142 30.4142C12.7893 30.0391 13 29.5304 13 29H19C19 29.5304 19.2107 30.0391 19.5858 30.4142C19.9609 30.7893 20.4696 31 21 31C21.5304 31 22.0391 30.7893 22.4142 30.4142C22.7893 30.0391 23 29.5304 23 29C23 28.9937 23 28.9881 23 28.9822C23.4163 28.9215 23.7969 28.7132 24.0723 28.3952C24.3477 28.0771 24.4995 27.6707 24.5 27.25V26.5H23.5V27.25C23.4998 27.4488 23.4207 27.6395 23.2801 27.7801C23.1395 27.9207 22.9488 27.9998 22.75 28H22.7313C22.5558 27.696 22.3034 27.4435 21.9995 27.2679C21.6955 27.0924 21.3507 27 20.9997 27C20.6487 27 20.3039 27.0924 19.9999 27.2679C19.6959 27.4435 19.4436 27.696 19.2681 28H12.7316C12.5561 27.696 12.3038 27.4435 11.9998 27.2679C11.6958 27.0924 11.351 27 11 27C10.649 27 10.3042 27.0924 10.0002 27.2679C9.69624 27.4435 9.44386 27.696 9.26844 28H9.25C9.05115 27.9998 8.86051 27.9207 8.71991 27.7801C8.5793 27.6395 8.50022 27.4488 8.5 27.25V23.625C8.5 23.5918 8.51317 23.5601 8.53661 23.5366C8.56005 23.5132 8.59185 23.5 8.625 23.5H23.375C23.4082 23.5 23.4399 23.5132 23.4634 23.5366C23.4868 23.5601 23.5 23.5918 23.5 23.625V25.5H24.5V23.625C24.5003 23.4024 24.4341 23.1848 24.31 23C24.4341 22.8152 24.5003 22.5976 24.5 22.375V21.9931C24.7749 21.962 25.0287 21.8309 25.2131 21.6247C25.3976 21.4185 25.4997 21.1516 25.5 20.875V14.625C25.4997 14.3484 25.3976 14.0815 25.2131 13.8753C25.0287 13.6691 24.7749 13.538 24.5 13.5069ZM21 28C21.1978 28 21.3911 28.0586 21.5556 28.1685C21.72 28.2784 21.8482 28.4346 21.9239 28.6173C21.9996 28.8 22.0194 29.0011 21.9808 29.1951C21.9422 29.3891 21.847 29.5673 21.7071 29.7071C21.5673 29.847 21.3891 29.9422 21.1951 29.9808C21.0011 30.0194 20.8 29.9996 20.6173 29.9239C20.4346 29.8482 20.2784 29.72 20.1685 29.5556C20.0586 29.3911 20 29.1978 20 29C20.0003 28.7349 20.1058 28.4807 20.2932 28.2932C20.4807 28.1058 20.7349 28.0003 21 28ZM11 28C11.1978 28 11.3911 28.0586 11.5556 28.1685C11.72 28.2784 11.8482 28.4346 11.9239 28.6173C11.9996 28.8 12.0194 29.0011 11.9808 29.1951C11.9422 29.3891 11.847 29.5673 11.7071 29.7071C11.5673 29.847 11.3891 29.9422 11.1951 29.9808C11.0011 30.0194 10.8 29.9996 10.6173 29.9239C10.4346 29.8482 10.2784 29.72 10.1685 29.5556C10.0586 29.3911 10 29.1978 10 29C10.0003 28.7349 10.1058 28.4807 10.2932 28.2932C10.4807 28.1058 10.7349 28.0003 11 28ZM19 4H19.5V8H19V4ZM14 4H18V8H14V4ZM12.5 4H13V8H12.5V4ZM12.5 12.7071V16.875C12.5 16.9082 12.4868 16.9399 12.4634 16.9634C12.4399 16.9868 12.4082 17 12.375 17H10.625C10.5918 17 10.5601 16.9868 10.5366 16.9634C10.5132 16.9399 10.5 16.9082 10.5 16.875V12.7071L11.5 11.7071L12.5 12.7071ZM8.5 9.75C8.50022 9.55115 8.5793 9.36051 8.71991 9.21991C8.86051 9.0793 9.05115 9.00022 9.25 9H11.6382C11.2582 9.52134 11.0385 10.1423 11.0063 10.7866L9.79294 12H8.625C8.59185 12 8.56005 11.9868 8.53661 11.9634C8.51317 11.9399 8.5 11.9082 8.5 11.875V9.75ZM8.5 13.125C8.5 13.0918 8.51317 13.0601 8.53661 13.0366C8.56005 13.0132 8.59185 13 8.625 13H9.5V15.5H8.625C8.59185 15.5 8.56005 15.4868 8.53661 15.4634C8.51317 15.4399 8.5 15.4082 8.5 15.375V13.125ZM8.5 16.625C8.5 16.5918 8.51317 16.5601 8.53661 16.5366C8.56005 16.5132 8.59185 16.5 8.625 16.5H9.5V16.875C9.50035 17.1733 9.61899 17.4592 9.82989 17.6701C10.0408 17.881 10.3267 17.9997 10.625 18H12.375C12.6733 17.9997 12.9592 17.881 13.1701 17.6701C13.381 17.4592 13.4997 17.1733 13.5 16.875V16.5H23V19H8.625C8.59185 19 8.56005 18.9868 8.53661 18.9634C8.51317 18.9399 8.5 18.9082 8.5 18.875V16.625ZM23.5 22.375C23.5 22.4082 23.4868 22.4399 23.4634 22.4634C23.4399 22.4868 23.4082 22.5 23.375 22.5H8.625C8.59185 22.5 8.56005 22.4868 8.53661 22.4634C8.51317 22.4399 8.5 22.4082 8.5 22.375V20.125C8.5 20.0918 8.51317 20.0601 8.53661 20.0366C8.56005 20.0132 8.59185 20 8.625 20H23V21.5C23 21.6326 23.0527 21.7598 23.1464 21.8536C23.2402 21.9473 23.3674 22 23.5 22V22.375ZM23.5 13.5C23.3674 13.5 23.2402 13.5527 23.1464 13.6464C23.0527 13.7402 23 13.8674 23 14V15.5H13.5V13H23.375C23.4082 13 23.4399 13.0132 23.4634 13.0366C23.4868 13.0601 23.5 13.0918 23.5 13.125V13.5ZM23.5 11.875C23.5 11.9082 23.4868 11.9399 23.4634 11.9634C23.4399 11.9868 23.4082 12 23.375 12H13.2071L12.0074 10.8003C12.0828 9.79094 12.7234 9 13.5 9H22.75C22.9488 9.00022 23.1395 9.0793 23.2801 9.21991C23.4207 9.36051 23.4998 9.55115 23.5 9.75V11.875ZM24.5 20.875C24.5 20.9082 24.4868 20.9399 24.4634 20.9634C24.4399 20.9868 24.4082 21 24.375 21H24V14.5H24.375C24.4082 14.5 24.4399 14.5132 24.4634 14.5366C24.4868 14.5601 24.5 14.5918 24.5 14.625V20.875Z" fill="#A3A7AB"/>
<path d="M25.8133 25.0036L30.1774 20.649C30.3685 20.4579 30.4759 20.1987 30.4759 19.9284C30.4759 19.6581 30.3685 19.3988 30.1774 19.2077C29.9863 19.0166 29.7271 18.9092 29.4568 18.9092C29.1865 18.9092 28.9273 19.0166 28.7362 19.2077L24.3823 23.5724L20.0285 19.2077C19.8374 19.0166 19.5782 18.9092 19.3079 18.9092C19.0376 18.9092 18.7784 19.0166 18.5873 19.2077C18.3962 19.3988 18.2888 19.6581 18.2888 19.9284C18.2888 20.1987 18.3962 20.4579 18.5873 20.649L22.9513 25.0036L18.5873 29.3581C18.4922 29.4524 18.4167 29.5647 18.3652 29.6884C18.3136 29.8121 18.2871 29.9447 18.2871 30.0787C18.2871 30.2127 18.3136 30.3454 18.3652 30.4691C18.4167 30.5928 18.4922 30.705 18.5873 30.7994C18.6817 30.8945 18.7939 30.9701 18.9176 31.0216C19.0413 31.0731 19.1739 31.0997 19.3079 31.0997C19.4419 31.0997 19.5745 31.0731 19.6982 31.0216C19.8219 30.9701 19.9341 30.8945 20.0285 30.7994L24.3823 26.4348L28.7362 30.7994C28.8306 30.8945 28.9428 30.9701 29.0665 31.0216C29.1902 31.0731 29.3228 31.0997 29.4568 31.0997C29.5908 31.0997 29.7234 31.0731 29.8471 31.0216C29.9708 30.9701 30.083 30.8945 30.1774 30.7994C30.2725 30.705 30.348 30.5928 30.3995 30.4691C30.4511 30.3454 30.4776 30.2127 30.4776 30.0787C30.4776 29.9447 30.4511 29.8121 30.3995 29.6884C30.348 29.5647 30.2725 29.4524 30.1774 29.3581L25.8133 25.0036Z" fill="#F43556"/>
</svg>
