<svg width="32" height="32" viewBox="0 0 32 32" fill="none" xmlns="http://www.w3.org/2000/svg">
<path d="M29.1532 10.7425H21.0566V10.7167C21.0566 9.36603 20.5305 8.09603 19.5753 7.14084C18.6204 6.18603 17.3506 5.66016 16 5.66016C13.2118 5.66016 10.9434 7.92853 10.9434 10.7168V10.7425H2.84675C1.27706 10.7425 0 12.0193 0 13.5886V23.4929C0 25.0627 1.27706 26.3397 2.84675 26.3397H29.1532C30.723 26.3397 32 25.0626 32 23.4929V13.5886C32 12.0193 30.7229 10.7425 29.1532 10.7425ZM12.1982 10.7168C12.1982 8.62053 13.9037 6.91503 16 6.91503C17.0154 6.91503 17.97 7.31041 18.6879 8.02822C19.4062 8.74641 19.8018 9.70128 19.8018 10.7168V10.7425H12.1982V10.7168ZM5.20787 25.0848H2.84675C1.969 25.0848 1.25494 24.3707 1.25494 23.493V13.5886C1.25494 12.7112 1.96906 11.9974 2.84675 11.9974H5.20787V25.0848ZM7.84944 25.0848H6.46275V11.9974H7.84944V25.0848ZM22.8963 25.0848H9.10431V19.1685H22.8963V25.0848ZM22.8963 17.9137H9.10431V11.9974H22.8963V17.9137ZM25.5373 25.0848H24.1512V11.9974H25.5373V25.0848ZM30.7451 23.4929C30.7451 24.3707 30.031 25.0847 29.1533 25.0847H26.7922V11.9974H29.1533C30.0311 11.9974 30.7451 12.7113 30.7451 13.5886V23.4929Z" fill="#A3A7AB"/>
<path d="M15.0113 12.8013H11.3721C11.0255 12.8013 10.7446 13.0823 10.7446 13.4287C10.7446 13.7751 11.0256 14.0561 11.3721 14.0561H15.0113C15.3578 14.0561 15.6387 13.7751 15.6387 13.4287C15.6387 13.0823 15.3578 12.8013 15.0113 12.8013Z" fill="#A3A7AB"/>
<path d="M17.1763 14.0561C17.5228 14.0561 17.8037 13.7752 17.8037 13.4287C17.8037 13.0822 17.5228 12.8013 17.1763 12.8013C16.8297 12.8013 16.5488 13.0822 16.5488 13.4287C16.5488 13.7752 16.8297 14.0561 17.1763 14.0561Z" fill="#A3A7AB"/>
<path d="M25.8133 25.0036L30.1774 20.649C30.3685 20.4579 30.4759 20.1987 30.4759 19.9284C30.4759 19.6581 30.3685 19.3988 30.1774 19.2077C29.9863 19.0166 29.7271 18.9092 29.4568 18.9092C29.1865 18.9092 28.9273 19.0166 28.7362 19.2077L24.3823 23.5724L20.0285 19.2077C19.8374 19.0166 19.5782 18.9092 19.3079 18.9092C19.0376 18.9092 18.7784 19.0166 18.5873 19.2077C18.3962 19.3988 18.2888 19.6581 18.2888 19.9284C18.2888 20.1987 18.3962 20.4579 18.5873 20.649L22.9513 25.0036L18.5873 29.3581C18.4922 29.4524 18.4167 29.5647 18.3652 29.6884C18.3136 29.8121 18.2871 29.9447 18.2871 30.0787C18.2871 30.2127 18.3136 30.3454 18.3652 30.4691C18.4167 30.5928 18.4922 30.705 18.5873 30.7994C18.6817 30.8945 18.7939 30.9701 18.9176 31.0216C19.0413 31.0731 19.1739 31.0997 19.3079 31.0997C19.4419 31.0997 19.5745 31.0731 19.6982 31.0216C19.8219 30.9701 19.9341 30.8945 20.0285 30.7994L24.3823 26.4348L28.7362 30.7994C28.8306 30.8945 28.9428 30.9701 29.0665 31.0216C29.1902 31.0731 29.3228 31.0997 29.4568 31.0997C29.5908 31.0997 29.7234 31.0731 29.8471 31.0216C29.9708 30.9701 30.083 30.8945 30.1774 30.7994C30.2725 30.705 30.348 30.5928 30.3995 30.4691C30.4511 30.3454 30.4776 30.2127 30.4776 30.0787C30.4776 29.9447 30.4511 29.8121 30.3995 29.6884C30.348 29.5647 30.2725 29.4524 30.1774 29.3581L25.8133 25.0036Z" fill="#F43556"/>
</svg>
