<svg width="22" height="22" viewBox="0 0 22 22" fill="none" xmlns="http://www.w3.org/2000/svg">
<path d="M14.0938 6.875H15.4688V7.5625H14.0938V6.875Z" fill="#A3A7AB"/>
<path d="M13.4062 16.8438H14.0938V17.5312H13.4062V16.8438Z" fill="#A3A7AB"/>
<path d="M14.7812 16.8438H15.4688V17.5312H14.7812V16.8438Z" fill="#A3A7AB"/>
<path d="M16.8438 9.28602V9.02344C16.8439 8.8704 16.7984 8.72079 16.7131 8.59375C16.7984 8.46671 16.8439 8.3171 16.8438 8.16406V6.70312C16.8434 6.38415 16.7165 6.07834 16.491 5.85279C16.2654 5.62724 15.9596 5.50036 15.6406 5.5H14.0938V3.37859C14.2041 3.41768 14.3204 3.4376 14.4375 3.4375H14.7813C15.0547 3.43718 15.3168 3.32843 15.5101 3.1351C15.7034 2.94177 15.8122 2.67966 15.8125 2.40625V1.71875C15.8122 1.44534 15.7034 1.18323 15.5101 0.989898C15.3168 0.79657 15.0547 0.687818 14.7813 0.6875H8.9375V1.375H14.7813C14.8724 1.3751 14.9598 1.41135 15.0242 1.4758C15.0886 1.54024 15.1249 1.62761 15.125 1.71875V2.40625C15.1249 2.49739 15.0886 2.58476 15.0242 2.6492C14.9598 2.71365 14.8724 2.7499 14.7813 2.75H14.4375C14.3464 2.7499 14.259 2.71365 14.1945 2.6492C14.1301 2.58476 14.0939 2.49739 14.0938 2.40625C14.0938 2.31508 14.0575 2.22765 13.9931 2.16318C13.9286 2.09872 13.8412 2.0625 13.75 2.0625H8.25C8.15883 2.0625 8.0714 2.09872 8.00693 2.16318C7.94247 2.22765 7.90625 2.31508 7.90625 2.40625C7.90615 2.49739 7.8699 2.58476 7.80546 2.6492C7.74101 2.71365 7.65364 2.7499 7.5625 2.75H7.21875C7.12761 2.7499 7.04024 2.71365 6.9758 2.6492C6.91135 2.58476 6.8751 2.49739 6.875 2.40625V1.71875C6.8751 1.62761 6.91135 1.54024 6.9758 1.4758C7.04024 1.41135 7.12761 1.3751 7.21875 1.375H8.25V0.6875H7.21875C6.94534 0.687818 6.68323 0.79657 6.4899 0.989898C6.29657 1.18323 6.18782 1.44534 6.1875 1.71875V2.40625C6.18782 2.67966 6.29657 2.94177 6.4899 3.1351C6.68323 3.32843 6.94534 3.43718 7.21875 3.4375H7.5625C7.6796 3.4376 7.79586 3.41768 7.90625 3.37859V5.5H6.35938C6.0404 5.50036 5.73459 5.62724 5.50904 5.85279C5.28349 6.07834 5.15661 6.38415 5.15625 6.70312V8.16406C5.15608 8.3171 5.20156 8.46671 5.28688 8.59375C5.20156 8.72079 5.15608 8.8704 5.15625 9.02344V10.5703C5.15608 10.7233 5.20156 10.873 5.28688 11C5.20156 11.127 5.15608 11.2767 5.15625 11.4297V12.9766C5.15608 13.1296 5.20156 13.2792 5.28688 13.4062C5.20156 13.5333 5.15608 13.6829 5.15625 13.8359V15.3828C5.15608 15.5358 5.20156 15.6855 5.28688 15.8125C5.20156 15.9395 5.15608 16.0892 5.15625 16.2422V18.7344C5.15661 19.0236 5.26099 19.303 5.45032 19.5217C5.63965 19.7403 5.9013 19.8836 6.1875 19.9253V19.9375C6.1875 20.3022 6.33237 20.6519 6.59023 20.9098C6.84809 21.1676 7.19783 21.3125 7.5625 21.3125C7.92717 21.3125 8.27691 21.1676 8.53477 20.9098C8.79263 20.6519 8.9375 20.3022 8.9375 19.9375H13.0625C13.0625 20.3022 13.2074 20.6519 13.4652 20.9098C13.7231 21.1676 14.0728 21.3125 14.4375 21.3125C14.8022 21.3125 15.1519 21.1676 15.4098 20.9098C15.6676 20.6519 15.8125 20.3022 15.8125 19.9375C15.8125 19.9332 15.8125 19.9293 15.8125 19.9253C16.0987 19.8836 16.3604 19.7403 16.5497 19.5217C16.739 19.303 16.8434 19.0236 16.8438 18.7344V18.2188H16.1562V18.7344C16.1561 18.8711 16.1017 19.0021 16.0051 19.0988C15.9084 19.1955 15.7773 19.2499 15.6406 19.25H15.6277C15.5071 19.041 15.3336 18.8674 15.1246 18.7467C14.9157 18.626 14.6786 18.5625 14.4373 18.5625C14.196 18.5625 13.9589 18.626 13.7499 18.7467C13.541 18.8674 13.3674 19.041 13.2468 19.25H8.75295C8.63235 19.041 8.45883 18.8674 8.24986 18.7467C8.04089 18.626 7.80382 18.5625 7.5625 18.5625C7.32118 18.5625 7.08411 18.626 6.87514 18.7467C6.66617 18.8674 6.49265 19.041 6.37205 19.25H6.35938C6.22267 19.2499 6.0916 19.1955 5.99494 19.0988C5.89827 19.0021 5.8439 18.8711 5.84375 18.7344V16.2422C5.84375 16.2194 5.8528 16.1975 5.86892 16.1814C5.88504 16.1653 5.9069 16.1562 5.92969 16.1562H16.0703C16.0931 16.1562 16.115 16.1653 16.1311 16.1814C16.1472 16.1975 16.1562 16.2194 16.1562 16.2422V17.5312H16.8438V16.2422C16.8439 16.0892 16.7984 15.9395 16.7131 15.8125C16.7984 15.6855 16.8439 15.5358 16.8438 15.3828V15.1202C17.0327 15.0989 17.2072 15.0087 17.334 14.867C17.4608 14.7252 17.531 14.5417 17.5312 14.3516V10.0547C17.531 9.8645 17.4608 9.68105 17.334 9.53929C17.2072 9.39754 17.0327 9.30739 16.8438 9.28602ZM14.4375 19.25C14.5735 19.25 14.7064 19.2903 14.8195 19.3659C14.9325 19.4414 15.0206 19.5488 15.0727 19.6744C15.1247 19.8 15.1383 19.9383 15.1118 20.0716C15.0853 20.205 15.0198 20.3275 14.9236 20.4236C14.8275 20.5198 14.705 20.5853 14.5716 20.6118C14.4383 20.6383 14.3 20.6247 14.1744 20.5727C14.0488 20.5206 13.9414 20.4325 13.8659 20.3195C13.7903 20.2064 13.75 20.0735 13.75 19.9375C13.7502 19.7552 13.8227 19.5805 13.9516 19.4516C14.0805 19.3227 14.2552 19.2502 14.4375 19.25V19.25ZM7.5625 19.25C7.69848 19.25 7.8314 19.2903 7.94446 19.3659C8.05751 19.4414 8.14563 19.5488 8.19767 19.6744C8.2497 19.8 8.26332 19.9383 8.23679 20.0716C8.21026 20.205 8.14479 20.3275 8.04864 20.4236C7.95249 20.5198 7.82999 20.5853 7.69663 20.6118C7.56326 20.6383 7.42503 20.6247 7.29941 20.5727C7.17378 20.5206 7.06641 20.4325 6.99087 20.3195C6.91532 20.2064 6.875 20.0735 6.875 19.9375C6.87522 19.7552 6.94772 19.5805 7.0766 19.4516C7.20549 19.3227 7.38023 19.2502 7.5625 19.25ZM13.0625 2.75H13.4063V5.5H13.0625V2.75ZM9.625 2.75H12.375V5.5H9.625V2.75ZM8.59375 2.75H8.9375V5.5H8.59375V2.75ZM8.59375 8.73615V11.6016C8.59375 11.6244 8.5847 11.6462 8.56858 11.6623C8.55246 11.6784 8.53061 11.6875 8.50781 11.6875H7.30469C7.2819 11.6875 7.26004 11.6784 7.24392 11.6623C7.2278 11.6462 7.21875 11.6244 7.21875 11.6016V8.73615L7.90625 8.04865L8.59375 8.73615ZM5.84375 6.70312C5.8439 6.56642 5.89827 6.43535 5.99494 6.33869C6.0916 6.24202 6.22267 6.18765 6.35938 6.1875H8.00125C7.73998 6.54592 7.589 6.97281 7.56684 7.4158L6.73264 8.25H5.92969C5.9069 8.25 5.88504 8.24095 5.86892 8.22483C5.8528 8.20871 5.84375 8.18685 5.84375 8.16406V6.70312ZM5.84375 9.02344C5.84375 9.00065 5.8528 8.97879 5.86892 8.96267C5.88504 8.94655 5.9069 8.9375 5.92969 8.9375H6.53125V10.6562H5.92969C5.9069 10.6562 5.88504 10.6472 5.86892 10.6311C5.8528 10.615 5.84375 10.5931 5.84375 10.5703V9.02344ZM5.84375 11.4297C5.84375 11.4069 5.8528 11.385 5.86892 11.3689C5.88504 11.3528 5.9069 11.3438 5.92969 11.3438H6.53125V11.6016C6.53149 11.8066 6.61305 12.0032 6.75805 12.1482C6.90304 12.2932 7.09963 12.3748 7.30469 12.375H8.50781C8.71287 12.3748 8.90946 12.2932 9.05445 12.1482C9.19945 12.0032 9.28101 11.8066 9.28125 11.6016V11.3438H15.8125V13.0625H5.92969C5.9069 13.0625 5.88504 13.0534 5.86892 13.0373C5.8528 13.0212 5.84375 12.9994 5.84375 12.9766V11.4297ZM16.1562 15.3828C16.1562 15.4056 16.1472 15.4275 16.1311 15.4436C16.115 15.4597 16.0931 15.4688 16.0703 15.4688H5.92969C5.9069 15.4688 5.88504 15.4597 5.86892 15.4436C5.8528 15.4275 5.84375 15.4056 5.84375 15.3828V13.8359C5.84375 13.8131 5.8528 13.7913 5.86892 13.7752C5.88504 13.7591 5.9069 13.75 5.92969 13.75H15.8125V14.7812C15.8125 14.8724 15.8487 14.9599 15.9132 15.0243C15.9776 15.0888 16.0651 15.125 16.1562 15.125V15.3828ZM16.1562 9.28125C16.0651 9.28125 15.9776 9.31747 15.9132 9.38193C15.8487 9.4464 15.8125 9.53383 15.8125 9.625V10.6562H9.28125V8.9375H16.0703C16.0931 8.9375 16.115 8.94655 16.1311 8.96267C16.1472 8.97879 16.1562 9.00065 16.1562 9.02344V9.28125ZM16.1562 8.16406C16.1562 8.18685 16.1472 8.20871 16.1311 8.22483C16.115 8.24095 16.0931 8.25 16.0703 8.25H9.07986L8.25511 7.42521C8.30693 6.73127 8.74736 6.1875 9.28125 6.1875H15.6406C15.7773 6.18765 15.9084 6.24202 16.0051 6.33869C16.1017 6.43535 16.1561 6.56642 16.1562 6.70312V8.16406ZM16.8438 14.3516C16.8438 14.3744 16.8347 14.3962 16.8186 14.4123C16.8025 14.4284 16.7806 14.4375 16.7578 14.4375H16.5V9.96875H16.7578C16.7806 9.96875 16.8025 9.9778 16.8186 9.99392C16.8347 10.01 16.8438 10.0319 16.8438 10.0547V14.3516Z" fill="#A3A7AB"/>
<path d="M17.7466 17.1899L20.7468 14.1962C20.8782 14.0648 20.952 13.8865 20.952 13.7007C20.952 13.5149 20.8782 13.3366 20.7468 13.2052C20.6154 13.0738 20.4372 13 20.2514 13C20.0656 13 19.8874 13.0738 19.756 13.2052L16.7627 16.2059L13.7694 13.2052C13.6381 13.0738 13.4599 13 13.274 13C13.0882 13 12.91 13.0738 12.7787 13.2052C12.6473 13.3366 12.5735 13.5149 12.5735 13.7007C12.5735 13.8865 12.6473 14.0648 12.7787 14.1962L15.7789 17.1899L12.7787 20.1836C12.7133 20.2485 12.6613 20.3257 12.6259 20.4107C12.5905 20.4957 12.5723 20.5869 12.5723 20.6791C12.5723 20.7712 12.5905 20.8624 12.6259 20.9474C12.6613 21.0325 12.7133 21.1097 12.7787 21.1745C12.8435 21.2399 12.9207 21.2919 13.0057 21.3273C13.0907 21.3627 13.1819 21.381 13.274 21.381C13.3662 21.381 13.4574 21.3627 13.5424 21.3273C13.6274 21.2919 13.7046 21.2399 13.7694 21.1745L16.7627 18.1738L19.756 21.1745C19.8209 21.2399 19.8981 21.2919 19.9831 21.3273C20.0681 21.3627 20.1593 21.381 20.2514 21.381C20.3435 21.381 20.4347 21.3627 20.5198 21.3273C20.6048 21.2919 20.682 21.2399 20.7468 21.1745C20.8122 21.1097 20.8641 21.0325 20.8996 20.9474C20.935 20.8624 20.9532 20.7712 20.9532 20.6791C20.9532 20.5869 20.935 20.4957 20.8996 20.4107C20.8641 20.3257 20.8122 20.2485 20.7468 20.1836L17.7466 17.1899Z" fill="#F43556"/>
</svg>
