<svg width="22" height="22" viewBox="0 0 22 22" fill="none" xmlns="http://www.w3.org/2000/svg">
<g clip-path="url(#clip0_1207_38)">
<path d="M16.1333 13.9333H5.86667C5.66418 13.9333 5.5 14.0975 5.5 14.3V20.1667C5.5 20.3692 5.66418 20.5333 5.86667 20.5333H16.1333C16.3358 20.5333 16.5 20.3692 16.5 20.1667V14.3C16.5 14.0975 16.3358 13.9333 16.1333 13.9333ZM15.7464 14.6667C15.5577 16.336 14.1466 17.598 12.4667 17.6H11.3667V17.2333C11.3667 17.0308 11.2025 16.8667 11 16.8667C10.7975 16.8667 10.6333 17.0308 10.6333 17.2333V17.6H9.53333C7.85343 17.598 6.44227 16.336 6.25356 14.6667H15.7464ZM15.7667 19.8H6.23333V16.6119C6.98654 17.6897 8.21831 18.3323 9.53333 18.3333H10.6333V18.7C10.6333 18.9025 10.7975 19.0667 11 19.0667C11.2025 19.0667 11.3667 18.9025 11.3667 18.7V18.3333H12.4667C13.7817 18.3323 15.0135 17.6897 15.7667 16.6119V19.8Z" fill="#A3A7AB"/>
<path d="M19.8 13.2H18.7V7.29663C19.5531 7.12118 20.1656 6.37083 20.1667 5.5V3.3C20.1654 2.28791 19.3455 1.46792 18.3334 1.46667H13.8967C13.7212 0.613558 12.9709 0.00107422 12.1 0H9.90003C9.0292 0.00107422 8.27886 0.613558 8.1034 1.46667H3.6667C2.65461 1.46792 1.83462 2.28791 1.83337 3.3V5.5C1.83444 6.37083 2.44692 7.12118 3.30003 7.29663V13.2H2.20003C1.18794 13.2013 0.367952 14.0212 0.366699 15.0333V17.9667C0.367952 18.9788 1.18794 19.7987 2.20003 19.8H3.30003V20.1667C3.30129 21.1788 4.12127 21.9987 5.13337 22H16.8667C17.8788 21.9987 18.6988 21.1788 18.7 20.1667V19.8H19.8C20.8121 19.7987 21.6321 18.9788 21.6334 17.9667V15.0333C21.6321 14.0212 20.8121 13.2013 19.8 13.2ZM19.4334 3.3V5.5C19.4334 6.10747 18.9408 6.6 18.3334 6.6H16.5V2.2H18.3334C18.9408 2.2 19.4334 2.69253 19.4334 3.3ZM15.7667 2.2V6.6H15.0334V2.2H15.7667ZM15.0334 10.2667H15.7667V10.6333C15.7667 10.8358 15.6025 11 15.4 11C15.1975 11 15.0334 10.8358 15.0334 10.6333V10.2667ZM15.0334 9.53333V7.33333H15.7667V9.53333H15.0334ZM14.3 2.2V6.6H7.70003V2.2H14.3ZM9.90003 0.733333H12.1C12.5661 0.73387 12.9814 1.02749 13.1374 1.46667H8.86269C9.01864 1.02749 9.434 0.73387 9.90003 0.733333ZM6.9667 2.2V6.6H6.23337V2.2H6.9667ZM6.23337 10.2667H6.9667V10.6333C6.9667 10.8358 6.80252 11 6.60003 11C6.39754 11 6.23337 10.8358 6.23337 10.6333V10.2667ZM6.23337 9.53333V7.33333H6.9667V9.53333H6.23337ZM2.5667 5.5V3.3C2.5667 2.69253 3.05923 2.2 3.6667 2.2H5.50003V6.6H3.6667C3.05923 6.6 2.5667 6.10747 2.5667 5.5ZM2.20003 19.0667C1.59256 19.0667 1.10003 18.5741 1.10003 17.9667V15.0333C1.10003 14.4259 1.59256 13.9333 2.20003 13.9333H3.30003V19.0667H2.20003ZM17.9667 20.1667C17.9667 20.7741 17.4742 21.2667 16.8667 21.2667H5.13337C4.52589 21.2667 4.03337 20.7741 4.03337 20.1667V7.33333H5.50003V9.53333H5.13337C4.93088 9.53333 4.7667 9.69751 4.7667 9.9C4.7667 10.1025 4.93088 10.2667 5.13337 10.2667H5.50003V10.6333C5.50003 11.2408 5.99256 11.7333 6.60003 11.7333C7.2075 11.7333 7.70003 11.2408 7.70003 10.6333V10.2667H8.0667C8.26919 10.2667 8.43337 10.1025 8.43337 9.9C8.43337 9.69751 8.26919 9.53333 8.0667 9.53333H7.70003V7.33333H14.3V9.53333H13.9334C13.7309 9.53333 13.5667 9.69751 13.5667 9.9C13.5667 10.1025 13.7309 10.2667 13.9334 10.2667H14.3V10.6333C14.3 11.2408 14.7926 11.7333 15.4 11.7333C16.0075 11.7333 16.5 11.2408 16.5 10.6333V10.2667H16.8667C17.0692 10.2667 17.2334 10.1025 17.2334 9.9C17.2334 9.69751 17.0692 9.53333 16.8667 9.53333H16.5V7.33333H17.9667V20.1667ZM20.9 17.9667C20.9 18.5741 20.4075 19.0667 19.8 19.0667H18.7V13.9333H19.8C20.4075 13.9333 20.9 14.4259 20.9 15.0333V17.9667Z" fill="#A3A7AB"/>
<path d="M17.7466 17.1899L20.7468 14.1962C20.8782 14.0648 20.952 13.8866 20.952 13.7008C20.952 13.5149 20.8782 13.3367 20.7468 13.2053C20.6154 13.0739 20.4372 13.0001 20.2514 13.0001C20.0656 13.0001 19.8874 13.0739 19.756 13.2053L16.7627 16.206L13.7694 13.2053C13.6381 13.0739 13.4599 13.0001 13.274 13.0001C13.0882 13.0001 12.91 13.0739 12.7787 13.2053C12.6473 13.3367 12.5735 13.5149 12.5735 13.7008C12.5735 13.8866 12.6473 14.0648 12.7787 14.1962L15.7789 17.1899L12.7787 20.1837C12.7133 20.2485 12.6613 20.3257 12.6259 20.4108C12.5905 20.4958 12.5723 20.587 12.5723 20.6791C12.5723 20.7713 12.5905 20.8625 12.6259 20.9475C12.6613 21.0325 12.7133 21.1097 12.7787 21.1746C12.8435 21.24 12.9207 21.2919 13.0057 21.3273C13.0907 21.3628 13.1819 21.381 13.274 21.381C13.3662 21.381 13.4574 21.3628 13.5424 21.3273C13.6274 21.2919 13.7046 21.24 13.7694 21.1746L16.7627 18.1739L19.756 21.1746C19.8209 21.24 19.8981 21.2919 19.9831 21.3273C20.0681 21.3628 20.1593 21.381 20.2514 21.381C20.3435 21.381 20.4347 21.3628 20.5198 21.3273C20.6048 21.2919 20.682 21.24 20.7468 21.1746C20.8122 21.1097 20.8641 21.0325 20.8996 20.9475C20.935 20.8625 20.9532 20.7713 20.9532 20.6791C20.9532 20.587 20.935 20.4958 20.8996 20.4108C20.8641 20.3257 20.8122 20.2485 20.7468 20.1837L17.7466 17.1899Z" fill="#F43556"/>
</g>
<defs>
<clipPath id="clip0_1207_38">
<rect width="22" height="22" fill="white"/>
</clipPath>
</defs>
</svg>
