<svg width="22" height="22" viewBox="0 0 22 22" fill="none" xmlns="http://www.w3.org/2000/svg">
<path d="M20.0429 7.38551H14.4764V7.36781C14.4764 6.43921 14.1147 5.56608 13.458 4.90939C12.8015 4.25296 11.9285 3.89142 11 3.89142C9.08308 3.89142 7.52357 5.45093 7.52357 7.36785V7.38555H1.95714C0.87798 7.38551 0 8.26332 0 9.34222V16.1514C0 17.2306 0.87798 18.1086 1.95714 18.1086H20.0429C21.1221 18.1086 22 17.2306 22 16.1514V9.34222C22 8.26332 21.122 7.38551 20.0429 7.38551ZM8.3863 7.36785C8.3863 5.92668 9.55883 4.75414 11 4.75414C11.6981 4.75414 12.3544 5.02597 12.848 5.51946C13.3418 6.01322 13.6137 6.66969 13.6137 7.36785V7.38555H8.3863V7.36785ZM3.58041 17.2459H1.95714C1.35369 17.2459 0.86277 16.7549 0.86277 16.1515V9.34222C0.86277 8.73902 1.35373 8.24828 1.95714 8.24828H3.58041V17.2459ZM5.39649 17.2459H4.44314V8.24828H5.39649V17.2459ZM15.7412 17.2459H6.25922V13.1784H15.7412V17.2459ZM15.7412 12.3157H6.25922V8.24828H15.7412V12.3157ZM17.5569 17.2459H16.6039V8.24828H17.5569V17.2459ZM21.1373 16.1514C21.1373 16.7549 20.6463 17.2458 20.0429 17.2458H18.4196V8.24828H20.0429C20.6464 8.24828 21.1373 8.73907 21.1373 9.34222V16.1514Z" fill="#A3A7AB"/>
<path d="M10.3203 8.80086H7.81833C7.58006 8.80086 7.38696 8.99404 7.38696 9.23222C7.38696 9.4704 7.58011 9.66358 7.81833 9.66358H10.3203C10.5585 9.66358 10.7516 9.4704 10.7516 9.23222C10.7516 8.99404 10.5585 8.80086 10.3203 8.80086Z" fill="#A3A7AB"/>
<path d="M11.8088 9.66358C12.047 9.66358 12.2402 9.47046 12.2402 9.23222C12.2402 8.99399 12.047 8.80086 11.8088 8.80086C11.5706 8.80086 11.3774 8.99399 11.3774 9.23222C11.3774 9.47046 11.5706 9.66358 11.8088 9.66358Z" fill="#A3A7AB"/>
<path d="M17.7466 17.1899L20.7468 14.1962C20.8782 14.0648 20.952 13.8866 20.952 13.7008C20.952 13.5149 20.8782 13.3367 20.7468 13.2053C20.6154 13.0739 20.4372 13.0001 20.2514 13.0001C20.0656 13.0001 19.8874 13.0739 19.756 13.2053L16.7627 16.206L13.7694 13.2053C13.6381 13.0739 13.4599 13.0001 13.274 13.0001C13.0882 13.0001 12.91 13.0739 12.7787 13.2053C12.6473 13.3367 12.5735 13.5149 12.5735 13.7008C12.5735 13.8866 12.6473 14.0648 12.7787 14.1962L15.7789 17.1899L12.7787 20.1837C12.7133 20.2485 12.6613 20.3257 12.6259 20.4108C12.5905 20.4958 12.5723 20.587 12.5723 20.6791C12.5723 20.7713 12.5905 20.8625 12.6259 20.9475C12.6613 21.0325 12.7133 21.1097 12.7787 21.1746C12.8435 21.24 12.9207 21.2919 13.0057 21.3273C13.0907 21.3628 13.1819 21.381 13.274 21.381C13.3662 21.381 13.4574 21.3628 13.5424 21.3273C13.6274 21.2919 13.7046 21.24 13.7694 21.1746L16.7627 18.1739L19.756 21.1746C19.8209 21.24 19.8981 21.2919 19.9831 21.3273C20.0681 21.3628 20.1593 21.381 20.2514 21.381C20.3435 21.381 20.4347 21.3628 20.5198 21.3273C20.6048 21.2919 20.682 21.24 20.7468 21.1746C20.8122 21.1097 20.8641 21.0325 20.8996 20.9475C20.935 20.8625 20.9532 20.7713 20.9532 20.6791C20.9532 20.587 20.935 20.4958 20.8996 20.4108C20.8641 20.3257 20.8122 20.2485 20.7468 20.1837L17.7466 17.1899Z" fill="#F43556"/>
</svg>
