<svg xmlns="http://www.w3.org/2000/svg" xmlns:xlink="http://www.w3.org/1999/xlink" width="97.144" height="80.103" viewBox="0 0 97.144 80.103">
  <defs>
    <clipPath id="clip-path">
      <rect id="Rectángulo_6" data-name="Rectángulo 6" width="97.144" height="80.103" fill="none"/>
    </clipPath>
  </defs>
  <g id="Grupo_8" data-name="Grupo 8" transform="translate(-335 -1204)">
    <g id="Grupo_7" data-name="Grupo 7" transform="translate(335 1204)">
      <g id="Grupo_6" data-name="Grupo 6" clip-path="url(#clip-path)">
        <path id="Trazado_18" data-name="Trazado 18" d="M0,19.941c.683-1.5,1.5-2.926,3.177-3.459a9.3,9.3,0,0,1,2.731-.424c7.588-.033,15.175-.018,22.763-.018h1.152c0-.376,0-.712,0-1.049,0-3.32,0-6.64.014-9.96A5.047,5.047,0,0,1,34.876.043C44.866,0,54.856-.034,64.846.058c3.205.03,5.227,2.246,5.29,5.674.057,3.1.012,6.2.012,9.3v1.011h1.1c6.671,0,13.342.011,20.012-.006a5.406,5.406,0,0,1,5.127,2.745,5.848,5.848,0,0,1,.719,2.722q.062,26.466,0,52.933c-.008,2.643-.947,4.529-4.1,5.5a5.707,5.707,0,0,1-1.655.147q-32.152.01-64.3.006c-7.271,0-14.543-.027-21.814.016a5.276,5.276,0,0,1-5.05-3.718A1.143,1.143,0,0,0,0,76.109V19.941m32.693-4.008-.007.144.145-.113H36.4c0-2.327-.009-4.563.008-6.8a3.917,3.917,0,0,1,.188-1.273c.506-1.41,1.676-1.7,3-1.7q10.335,0,20.67.005a4.072,4.072,0,0,1,1.034.089c1,.266,1.9.771,2.052,1.879a32.775,32.775,0,0,1,.219,3.733c.034,1.344.008,2.689.008,3.982H67.3c0-3.453.03-6.834-.011-10.213-.023-1.948-1.038-2.716-2.858-2.784-1.862-.07-3.729-.015-5.593-.015q-11.758,0-23.515,0a2.34,2.34,0,0,0-2.637,2.347c-.009,3.572.006,7.144.012,10.716M86.7,77.211c.758.01,1.515.023,2.273.028.727,0,1.456-.038,2.18.008,2.094.133,3.132-.953,3.132-3.142q0-22.378,0-44.756c0-2.529.057-5.059-.02-7.585-.052-1.724-.54-2.582-2.015-2.757a49.5,49.5,0,0,0-5.764-.054v.739q0,28.352,0,56.7c0,.22.024.44.037.66l.173.154m-76.093-.154c.013-.347.037-.693.038-1.04q0-20.443,0-40.886A5.5,5.5,0,0,1,10.692,34a1.042,1.042,0,0,1,1.144-.98c1.233.027,1.662.435,1.662,1.793q0,20.632,0,41.265v1.171c1.111,0,2.121-.055,3.122.017.867.062,1.05-.278,1.049-1.086Q17.639,48,17.652,19.83c0-.27-.029-.541-.044-.8H13.5V20c0,2.814.011,5.628-.007,8.443A1.441,1.441,0,0,1,12.025,30c-.972-.013-1.373-.452-1.375-1.535q-.007-4.316,0-8.633V18.91h-.611c-1.518,0-3.035.015-4.552,0a2.426,2.426,0,0,0-2.657,2.708q.052,26.656.023,53.312a2.3,2.3,0,0,0,2.18,2.31c1.8.022,3.6-.014,5.4-.026l.174-.154m10.074.149c.22.011.441.032.661.032q27.225,0,54.449,0c.22,0,.441-.021.661-.032l.147-.152c.011-.347.03-.694.03-1.04,0-3.92-.02-7.841.03-11.761a1.823,1.823,0,0,1,.633-1.374c1.086-.611,2.173.185,2.182,1.525.019,2.814.006,5.628.006,8.442v4.333h4.093V19.029H79.482v1.052q0,18.732,0,37.465a5.034,5.034,0,0,1-.009.758,1.692,1.692,0,0,1-1.2,1.47,1.209,1.209,0,0,1-1.465-.738,2.974,2.974,0,0,1-.171-1.274q-.012-18.875-.006-37.749V18.968H20.5v.8q0,28.312,0,56.624c0,.22.02.441.03.661l.147.153m18.6-61.213H60.668V9.108H39.283Z" transform="translate(0 0)" fill="#b50a27"/>
        <path id="Trazado_19" data-name="Trazado 19" d="M128.993,62.8l.078-.025.06.055-.145.113.007-.144" transform="translate(-96.3 -46.871)" fill="#b50a27"/>
        <path id="Trazado_20" data-name="Trazado 20" d="M41.175,304.24l.174-.154-.174.154" transform="translate(-30.741 -227.028)" fill="#b50a27"/>
        <path id="Trazado_21" data-name="Trazado 21" d="M81.037,304.072l.147.153-.147-.153" transform="translate(-60.502 -227.018)" fill="#b50a27"/>
        <path id="Trazado_22" data-name="Trazado 22" d="M301.7,304.227l.147-.152-.147.152" transform="translate(-225.249 -227.02)" fill="#b50a27"/>
        <path id="Trazado_23" data-name="Trazado 23" d="M341.459,304.084l.173.154-.173-.154" transform="translate(-254.931 -227.027)" fill="#b50a27"/>
        <path id="Trazado_24" data-name="Trazado 24" d="M172.142,168.324c-.43-.271-.864-.534-1.289-.814a1.486,1.486,0,0,1-.506-2.27c.677-1.17,1.378-2.332,1.968-3.546a1.672,1.672,0,0,1,1.978-.954,1.34,1.34,0,0,1,.714,2.03c-.507.974-1.072,1.918-1.634,2.914a38.145,38.145,0,0,0,4.548,2.543,6.439,6.439,0,0,0,3,.022c.271-.033.486-.653.7-1.02,2.093-3.645,4.18-7.293,6.325-11.038-2.132-1.213-4.264-2.4-6.368-3.639-.609-.358-.689.109-.877.43-.836,1.434-1.614,2.9-2.516,4.294a1.973,1.973,0,0,1-1.342.914c-.445-.015-.924-.589-1.277-1.011a1,1,0,0,1,.007-.89q1.874-3.435,3.822-6.83a1.619,1.619,0,0,1,2.111-.278c2.6,1.482,5.182,2.995,7.773,4.493.368.213.753.4,1.117.619a1.457,1.457,0,0,1,.627,2.268c-1.339,2.384-2.715,4.748-4.083,7.116-1.492,2.581-3,5.151-4.473,7.745a2.67,2.67,0,0,0-.286,1.244c-.026,2.435-.01,4.87-.014,7.305,0,1.577-.5,2.073-2.067,2.074q-8.537,0-17.075,0c-1.833,0-2.073-.24-2.074-2.039q0-4.886,0-9.772c0-1.414.352-1.764,1.779-1.769q4.7-.017,9.39-.018l.145.007-.122-.13m-8.273,10.8h15.377v-7.788H163.87Z" transform="translate(-120.162 -111.188)" fill="#b50a27"/>
        <path id="Trazado_25" data-name="Trazado 25" d="M115.642,105.653a7.978,7.978,0,0,1,5.986-2.406,7.069,7.069,0,0,1,6.188,5.358c.639,2.9-.5,5.3-2.128,7.478a39.01,39.01,0,0,1-9.419,8.729,1.192,1.192,0,0,1-1.526.009c-3.824-2.821-7.483-5.826-10.079-9.893a7.9,7.9,0,0,1-1.32-6.594,6.624,6.624,0,0,1,9.056-4.588,23.968,23.968,0,0,1,3.241,1.907m-9.675,4.774c.03.152.081.516.175.869a10.852,10.852,0,0,0,2.975,4.826c1.8,1.812,3.816,3.412,5.67,5.175a.932.932,0,0,0,1.462.062,36.534,36.534,0,0,0,7.148-6.964c1.093-1.548,2.142-3.164,1.575-5.262a4.1,4.1,0,0,0-3.722-3.044,5.332,5.332,0,0,0-4.236,2.47,1.74,1.74,0,0,1-2.893.1,9.43,9.43,0,0,0-1.1-1.269c-1.4-1.206-3.032-1.8-4.77-.929a4.087,4.087,0,0,0-2.286,3.972" transform="translate(-76.96 -77.066)" fill="#b50a27"/>
        <path id="Trazado_26" data-name="Trazado 26" d="M204.954,225.474l.122.13-.145-.007-.035-.07Z" transform="translate(-152.974 -168.337)" fill="#b50a27"/>
      </g>
    </g>
  </g>
</svg>
