<svg width="41" height="40" viewBox="0 0 41 40" fill="none" xmlns="http://www.w3.org/2000/svg">
<path d="M33.3237 32.8332C33.2005 29.5921 31.8807 26.565 29.5744 24.2586C29.5744 24.2586 29.5744 24.2586 29.5744 24.2586M33.3237 32.8332L25.4259 20.9364C27.0924 21.5981 28.6219 22.599 29.928 23.905L29.5744 24.2586M33.3237 32.8332H32.2393C31.9765 26.5848 26.8118 21.5832 20.4998 21.5832C14.1879 21.5832 9.02314 26.5848 8.76033 32.8332H7.67599C7.79921 29.5921 9.11897 26.565 11.4253 24.2586C12.8241 22.8598 14.4876 21.8256 16.3016 21.1997L17.2374 20.8768L16.4221 20.3152C14.5313 19.013 13.2915 16.8355 13.2915 14.3748C13.2915 10.4006 16.5256 7.1665 20.4998 7.1665C24.4741 7.1665 27.7082 10.4006 27.7082 14.3748C27.7082 16.8355 26.4684 19.013 24.5776 20.3152L23.7624 20.8768L24.6981 21.1997C26.5121 21.8256 28.1756 22.8598 29.5744 24.2586M33.3237 32.8332L29.5744 24.2586M14.3748 14.3748C14.3748 17.7526 17.1221 20.4998 20.4998 20.4998C23.8776 20.4998 26.6248 17.7526 26.6248 14.3748C26.6248 10.997 23.8776 8.24984 20.4998 8.24984C17.1221 8.24984 14.3748 10.997 14.3748 14.3748Z" fill="#B50A27" stroke="#B50A27"/>
</svg>
