<svg id="Grupo_16" data-name="Grupo 16" xmlns="http://www.w3.org/2000/svg" xmlns:xlink="http://www.w3.org/1999/xlink" width="23.89" height="23.932" viewBox="0 0 23.89 23.932">
  <defs>
    <clipPath id="clip-path">
      <rect id="Rectángulo_20" data-name="Rectángulo 20" width="23.89" height="23.932" fill="none"/>
    </clipPath>
  </defs>
  <g id="Grupo_15" data-name="Grupo 15" clip-path="url(#clip-path)">
    <path id="Trazado_21" data-name="Trazado 21" d="M12.833,23.932H10.967a.32.32,0,0,0-.091-.047c-.45-.064-.9-.105-1.351-.191a10.855,10.855,0,0,1-2.539-.828,12.513,12.513,0,0,1-2.689-1.7A12,12,0,0,1,.448,15.251a11.348,11.348,0,0,1-.433-2.432,15.881,15.881,0,0,1,.044-1.95A11.32,11.32,0,0,1,.241,9.538a10.35,10.35,0,0,1,.8-2.488A11.965,11.965,0,0,1,4.33,2.738,12.292,12.292,0,0,1,6.3,1.406,10.705,10.705,0,0,1,8.806.425C9.282.309,9.767.234,10.248.14L10.967,0h1.866c.023.015.044.041.068.044.376.049.756.074,1.127.147a13.179,13.179,0,0,1,2.78.86,11.446,11.446,0,0,1,3.165,2.078,13.2,13.2,0,0,1,1.5,1.637,11.016,11.016,0,0,1,1.688,3.116,10.943,10.943,0,0,1,.6,2.5,5.972,5.972,0,0,0,.136.65v1.916c-.016.022-.042.043-.046.068q-.1.582-.187,1.164a10.54,10.54,0,0,1-.917,2.887,11.327,11.327,0,0,1-3.271,4.156,15.083,15.083,0,0,1-1.908,1.292,10.9,10.9,0,0,1-4.182,1.326c-.183.02-.364.061-.546.092M9.113,13.138A5.022,5.022,0,0,1,6.96,9.657,4.868,4.868,0,0,1,8.089,5.72a5.024,5.024,0,0,1,7.36-.349A4.64,4.64,0,0,1,16.926,8.4a5.011,5.011,0,0,1-2.174,4.736A8.322,8.322,0,0,1,19.9,18.843a10.541,10.541,0,0,0-10.966-17,10.185,10.185,0,0,0-5.72,4.193,10.713,10.713,0,0,0-1.731,7.448c.167,1.489,1.813,5.15,2.512,5.3a8.25,8.25,0,0,1,5.12-5.647" transform="translate(0)" fill="#b50a27"/>
  </g>
</svg>
