<svg width="16" height="16" viewBox="0 0 16 16" fill="none" xmlns="http://www.w3.org/2000/svg">
<path d="M6.10671 7.24668C6.04004 7.24001 5.96004 7.24001 5.88671 7.24668C4.30004 7.19334 3.04004 5.89334 3.04004 4.29334C3.04004 2.66001 4.36004 1.33334 6.00004 1.33334C7.63337 1.33334 8.96004 2.66001 8.96004 4.29334C8.95337 5.89334 7.69337 7.19334 6.10671 7.24668Z" stroke="#B50A27" stroke-linecap="round" stroke-linejoin="round"/>
<path d="M10.9401 2.66666C12.2334 2.66666 13.2734 3.71332 13.2734 4.99999C13.2734 6.25999 12.2734 7.28666 11.0267 7.33332C10.9734 7.32666 10.9134 7.32666 10.8534 7.33332" stroke="#B50A27" stroke-linecap="round" stroke-linejoin="round"/>
<path d="M2.77335 9.70666C1.16002 10.7867 1.16002 12.5467 2.77335 13.62C4.60669 14.8467 7.61335 14.8467 9.44669 13.62C11.06 12.54 11.06 10.78 9.44669 9.70666C7.62002 8.48666 4.61335 8.48666 2.77335 9.70666Z" stroke="#B50A27" stroke-linecap="round" stroke-linejoin="round"/>
<path d="M12.2267 13.3333C12.7067 13.2333 13.16 13.04 13.5334 12.7533C14.5734 11.9733 14.5734 10.6867 13.5334 9.90668C13.1667 9.62668 12.72 9.44001 12.2467 9.33334" stroke="#B50A27" stroke-linecap="round" stroke-linejoin="round"/>
</svg>
