<svg width="24" height="25" viewBox="0 0 24 25" fill="none" xmlns="http://www.w3.org/2000/svg">
<path d="M21.9178 12.9144L14.625 9.26844V5C14.625 4.30381 14.3484 3.63613 13.8562 3.14384C13.3639 2.65156 12.6962 2.375 12 2.375C11.3038 2.375 10.6361 2.65156 10.1438 3.14384C9.65156 3.63613 9.375 4.30381 9.375 5V9.26844L2.08219 12.9144C2.01989 12.9456 1.9675 12.9935 1.9309 13.0527C1.89431 13.112 1.87495 13.1803 1.875 13.25V16.25C1.87504 16.3054 1.88737 16.3601 1.9111 16.4102C1.93482 16.4603 1.96935 16.5045 2.01221 16.5397C2.05506 16.5748 2.10517 16.6 2.15893 16.6135C2.21269 16.6269 2.26877 16.6283 2.32313 16.6175L9.375 15.2113V17.5981L7.98469 18.9847C7.94987 19.0195 7.92227 19.0609 7.90345 19.1064C7.88463 19.152 7.87496 19.2007 7.875 19.25V22.25C7.87503 22.3113 7.89009 22.3717 7.91887 22.4258C7.94764 22.4799 7.98924 22.5262 8.04003 22.5605C8.09083 22.5948 8.14926 22.6162 8.21022 22.6227C8.27117 22.6292 8.3328 22.6206 8.38969 22.5978L12 21.1541L15.6103 22.5978C15.6546 22.616 15.7021 22.6252 15.75 22.625C15.8249 22.6252 15.8982 22.6027 15.96 22.5603C16.0108 22.526 16.0523 22.4798 16.0811 22.4257C16.1099 22.3716 16.1249 22.3113 16.125 22.25V19.25C16.125 19.2007 16.1154 19.152 16.0966 19.1064C16.0777 19.0609 16.0501 19.0195 16.0153 18.9847L14.625 17.5944V15.2075L21.6769 16.6138C21.7309 16.6245 21.7867 16.6232 21.8402 16.61C21.8937 16.5967 21.9436 16.5718 21.9864 16.5371C22.0291 16.5024 22.0637 16.4586 22.0877 16.409C22.1117 16.3594 22.1244 16.3051 22.125 16.25V13.25C22.125 13.1803 22.1057 13.112 22.0691 13.0527C22.0325 12.9935 21.9801 12.9456 21.9178 12.9144ZM21.375 15.7925L14.3231 14.3862C14.2691 14.3755 14.2133 14.3768 14.1598 14.39C14.1063 14.4033 14.0564 14.4282 14.0136 14.4629C13.9709 14.4976 13.9363 14.5414 13.9123 14.591C13.8883 14.6406 13.8756 14.6949 13.875 14.75V17.75C13.875 17.7993 13.8846 17.848 13.9034 17.8936C13.9223 17.9391 13.9499 17.9805 13.9847 18.0153L15.375 19.4056V21.6959L12.1397 20.4022C12.0495 20.3657 11.9486 20.3657 11.8584 20.4022L8.625 21.6959V19.4056L10.0153 18.0153C10.0501 17.9805 10.0777 17.9391 10.0966 17.8936C10.1154 17.848 10.125 17.7993 10.125 17.75V14.75C10.125 14.6946 10.1126 14.6399 10.0889 14.5898C10.0652 14.5397 10.0306 14.4955 9.98779 14.4603C9.94494 14.4252 9.89483 14.4 9.84107 14.3865C9.78731 14.3731 9.73123 14.3717 9.67688 14.3825L2.625 15.7925V13.4816L9.91781 9.83563C9.98011 9.80445 10.0325 9.75653 10.0691 9.69725C10.1057 9.63797 10.125 9.56967 10.125 9.5V5C10.125 4.50272 10.3225 4.02581 10.6742 3.67417C11.0258 3.32254 11.5027 3.125 12 3.125C12.4973 3.125 12.9742 3.32254 13.3258 3.67417C13.6775 4.02581 13.875 4.50272 13.875 5V9.5C13.875 9.56967 13.8943 9.63797 13.9309 9.69725C13.9675 9.75653 14.0199 9.80445 14.0822 9.83563L21.375 13.4816V15.7925Z" fill="#009AED"/>
</svg>
