<svg width="130" height="124" viewBox="0 0 130 124" fill="none" xmlns="http://www.w3.org/2000/svg">
<path d="M100.133 123.247L72.9182 68.2297L65.0423 75.3019C58.3594 81.3088 51.703 87.3422 44.9713 93.2917C44.4508 93.6822 44.0605 94.2202 43.8517 94.8353C43.6428 95.4504 43.625 96.114 43.8006 96.7394C44.9181 102.353 45.9868 107.98 46.9669 113.62C47.0226 114.021 46.9943 114.429 46.8836 114.819C46.7729 115.208 46.5823 115.571 46.3239 115.883C44.1642 117.987 41.8582 119.936 39.4236 122.098C38.9402 121.351 38.5012 120.71 38.0932 120.042C33.6365 112.771 29.224 105.482 24.7096 98.2378C24.0459 97.1926 23.204 96.2711 22.2218 95.515C15.4546 90.2993 8.6386 85.1499 1.84478 79.9739C1.26828 79.5319 0.73171 79.0545 0 78.4446C2.49668 76.1903 4.83815 73.9803 7.3171 71.9382C7.76056 71.5669 8.83373 71.7039 9.5344 71.9072C15.122 73.5073 20.6786 75.2135 26.2706 76.7693C26.9801 76.9682 28.1154 76.8887 28.612 76.4467C38.0799 68.0485 47.4769 59.5486 57.2108 50.8101L5.23283 18.1808C8.57208 15.1929 11.7295 12.2756 15.0333 9.53069C15.4768 9.14614 16.714 9.47767 17.5122 9.71636C38.1213 15.8014 58.7171 21.9217 79.2996 28.0775C81.1311 28.63 82.3063 28.4576 83.7652 27.1183C92.5635 19.0605 101.473 11.1264 110.373 3.16576C115.477 -1.40905 122.151 -0.984735 126.83 4.17353C131.304 9.10637 131.025 16.068 126.102 20.5279C117.189 28.5666 108.25 36.5788 99.2864 44.5645C97.987 45.7225 97.6145 46.7745 97.956 48.5425C102.023 69.7591 105.969 90.9756 109.974 112.157C110.249 113.602 109.974 114.597 108.772 115.591C105.898 117.965 103.167 120.533 100.133 123.247Z" fill="#CF152D"/>
</svg>
