<svg width="40" height="40" viewBox="0 0 40 40" fill="none" xmlns="http://www.w3.org/2000/svg">
<path d="M0.344491 24.3197L6.17055 29.2313C7.48259 30.3375 9.02497 30.9018 10.5739 30.9017C11.6952 30.9017 12.82 30.6059 13.8626 30.0057L19.6027 26.6967C19.9981 26.4686 20.1689 25.8883 19.9841 25.4006C19.7993 24.9128 19.3289 24.7023 18.9332 24.9301L13.1936 28.239C11.2145 29.378 8.86537 29.1414 7.06253 27.6215L2.24385 23.5591L4.41261 21.9184L9.99394 24.2019C10.1864 24.2807 10.3961 24.2651 10.5797 24.1585L17.23 20.2945C17.4778 20.1505 17.6474 19.8587 17.6785 19.523C17.7096 19.1874 17.5975 18.8558 17.3824 18.6467L10.0442 11.5142L12.8982 9.71809L26.098 14.869C26.2875 14.943 26.4926 14.9261 26.6726 14.8219L35.5039 9.70347C36.5006 9.18886 37.7072 9.75114 38.1986 10.9623C38.4499 11.5816 38.4866 12.2828 38.302 12.9369C38.1174 13.5909 37.7355 14.1123 37.2265 14.4054L25.3627 21.2415C24.9672 21.4693 24.7964 22.0496 24.9811 22.5374C25.1659 23.0252 25.6363 23.2362 26.0319 23.0082L37.8954 16.1723C38.7943 15.6549 39.4689 14.7336 39.795 13.5781C40.1213 12.4227 40.0564 11.1837 39.6124 10.0897C38.7519 7.96903 36.6251 6.99403 34.8718 7.91619C34.863 7.92077 34.8542 7.92565 34.8456 7.93062L26.2802 12.895L13.0661 7.73835C12.8682 7.66113 12.6533 7.68297 12.4683 7.79948L8.22619 10.4693C7.9862 10.6204 7.8251 10.9119 7.79878 11.2426C7.77246 11.5733 7.88455 11.8979 8.09624 12.1036L15.3999 19.2024L10.1919 22.2284L4.56153 19.9248C4.34028 19.8344 4.09808 19.8688 3.89935 20.0191L0.377217 22.6837C0.148768 22.8565 0.00687768 23.1604 0.000237668 23.4907C-0.0063233 23.8212 0.123315 24.1332 0.344491 24.3197Z" fill="#B50A27"/>
<path d="M19.7343 30.9736C19.4202 31.1524 19.2845 31.6076 19.4312 31.9903C19.578 32.3731 19.9516 32.5384 20.2657 32.3596C20.5799 32.1808 20.7156 31.7256 20.5688 31.3429C20.4221 30.9602 20.0485 30.7949 19.7343 30.9736Z" fill="#B50A27"/>
</svg>
