<svg width="16" height="16" viewBox="0 0 16 16" fill="none" xmlns="http://www.w3.org/2000/svg">
<path d="M8.10671 7.24668C8.04004 7.24001 7.96004 7.24001 7.88671 7.24668C6.30004 7.19334 5.04004 5.89334 5.04004 4.29334C5.04004 2.66001 6.36004 1.33334 8.00004 1.33334C9.63337 1.33334 10.96 2.66001 10.96 4.29334C10.9534 5.89334 9.69337 7.19334 8.10671 7.24668Z" stroke="#282A2C" stroke-width="1.5" stroke-linecap="round" stroke-linejoin="round"/>
<path d="M4.77348 9.70666C3.16014 10.7867 3.16014 12.5467 4.77348 13.62C6.60681 14.8467 9.61348 14.8467 11.4468 13.62C13.0601 12.54 13.0601 10.78 11.4468 9.70666C9.62014 8.48666 6.61348 8.48666 4.77348 9.70666Z" stroke="#282A2C" stroke-width="1.5" stroke-linecap="round" stroke-linejoin="round"/>
</svg>
