<svg id="Grupo_9" data-name="Grupo 9" xmlns="http://www.w3.org/2000/svg" xmlns:xlink="http://www.w3.org/1999/xlink" width="25.562" height="25.535" viewBox="0 0 25.562 25.535">
  <defs>
    <clipPath id="clip-path">
      <rect id="Rectángulo_18" data-name="Rectángulo 18" width="25.562" height="25.535" fill="none"/>
    </clipPath>
  </defs>
  <g id="Grupo_8" data-name="Grupo 8" clip-path="url(#clip-path)">
    <path id="Trazado_18" data-name="Trazado 18" d="M25.562,10.955V11.3a1.037,1.037,0,0,0-.1.232,6.774,6.774,0,0,1-.111.82c-.2.685-.386,1.376-.647,2.038a9.891,9.891,0,0,1-3.374,4.292,10.524,10.524,0,0,1-2.153,1.228A9.6,9.6,0,0,1,16,20.681a10.136,10.136,0,0,1-1.858-.054,8.993,8.993,0,0,1-1.863-.383c-.761-.26-1.486-.628-2.221-.96-.318-.143-.451-.134-.694.11q-2.621,2.62-5.243,5.239a5.181,5.181,0,0,1-.437.354,3.624,3.624,0,0,1-1.235.548h-.7a2.761,2.761,0,0,1-1.206-.77A2.105,2.105,0,0,1,.171,22.5a4.065,4.065,0,0,1,.964-1.368Q3.65,18.619,6.163,16.1a.421.421,0,0,0,.088-.628,11.445,11.445,0,0,1-.956-2.188,9.006,9.006,0,0,1-.445-3.6c.067-.588.127-1.18.252-1.758a10.1,10.1,0,0,1,2.823-5.01,11.172,11.172,0,0,1,1.342-1.1A9.879,9.879,0,0,1,13.1.182,9.394,9.394,0,0,1,15.426.008,11.067,11.067,0,0,1,17.582.27a10.017,10.017,0,0,1,2.939,1.178,10.547,10.547,0,0,1,2.666,2.31,9.655,9.655,0,0,1,1.724,3.02,8.351,8.351,0,0,1,.508,2.11,2.655,2.655,0,0,0,.144.519v1.548ZM15.147,2.71A7.3,7.3,0,0,0,9.6,5.095a7.442,7.442,0,0,0-2.054,5.712,7.347,7.347,0,0,0,2.237,4.954,7.382,7.382,0,0,0,6.2,2.188,7.443,7.443,0,0,0,4.8-2.4,7.457,7.457,0,0,0,2.03-5.795A7.6,7.6,0,0,0,15.147,2.71" transform="translate(0 0)" fill="#fff"/>
    <path id="Trazado_19" data-name="Trazado 19" d="M248.627,104.814v0Z" transform="translate(-223.065 -93.858)" fill="#fff"/>
    <path id="Trazado_20" data-name="Trazado 20" d="M97.189,40.163a6.929,6.929,0,0,1,2.574.486,1.071,1.071,0,0,1,.523,1.7,1.175,1.175,0,0,1-1.392.284,4.585,4.585,0,0,0-1.442-.3A4.119,4.119,0,0,0,95.9,42.5a4.476,4.476,0,0,0-2.815,2.448,1.274,1.274,0,0,1-.661.717,1.051,1.051,0,0,1-1.435-.718,1.618,1.618,0,0,1,.374-1.326,9.56,9.56,0,0,1,1.169-1.533,6.423,6.423,0,0,1,3.3-1.783,11.361,11.361,0,0,1,1.366-.144" transform="translate(-81.595 -36.032)" fill="#fff"/>
  </g>
</svg>
