<svg width="23" height="18" viewBox="0 0 23 18" fill="none" xmlns="http://www.w3.org/2000/svg">
<path d="M7.66348 17C7.79165 17.0001 7.91852 16.9743 8.03645 16.9241C8.15437 16.8739 8.26093 16.8004 8.34968 16.7079L22.032 2.60311C22.1182 2.51087 22.1853 2.4024 22.2292 2.28401C22.2732 2.16562 22.2931 2.03967 22.288 1.91349C22.2828 1.78731 22.2526 1.66342 22.1991 1.54903C22.1456 1.43463 22.0699 1.33202 21.9764 1.24715C21.8829 1.16228 21.7734 1.09686 21.6544 1.05468C21.5353 1.01251 21.4091 0.994429 21.283 1.00149C21.1569 1.00855 21.0335 1.04061 20.9199 1.09581C20.8063 1.15101 20.7049 1.22825 20.6214 1.32303L7.66437 14.6991L2.60442 9.6391C2.42376 9.47025 2.18456 9.37819 1.93731 9.38236C1.69006 9.38654 1.4541 9.48661 1.27924 9.66147C1.10439 9.83633 1.00431 10.0723 1.00014 10.3195C0.995962 10.5668 1.08802 10.806 1.25688 10.9866L6.97639 16.7062C7.06515 16.7986 7.1717 16.8722 7.28963 16.9224C7.40756 16.9726 7.53443 16.9984 7.6626 16.9982L7.66348 17Z" fill="white" stroke="white" stroke-linecap="round" stroke-linejoin="round"/>
</svg>
