<svg width="36" height="29" viewBox="0 0 36 29" fill="none" xmlns="http://www.w3.org/2000/svg">
<path d="M33.9968 4.50674H25.485V1.95931C25.485 0.881595 24.5839 0 23.4824 0H12.5171C11.4155 0 10.5144 0.881595 10.5144 1.95931V4.50674H2.00262C0.901082 4.50674 0 5.38833 0 6.46605V27.0407C0 28.1184 0.901082 29 2.00262 29H33.9974C35.0989 29 36 28.1184 36 27.0407V6.46605C36 5.38833 35.0989 4.50674 33.9974 4.50674H33.9968ZM12.5168 1.95931H23.4821V4.50674H12.5168V1.95931ZM2.00209 27.0408V6.46614H8.26084V27.0408H2.00209ZM10.2635 27.0408V6.46614H25.7351V27.0408H10.2635ZM33.9967 27.0408H27.7379V6.46614H33.9967V27.0408Z" fill="black"/>
</svg>
