<svg xmlns="http://www.w3.org/2000/svg" width="56.134" height="53.592" viewBox="0 0 56.134 53.592"><g transform="translate(-291.794 -305)"><path d="M347.539,319.407,342.917,306.3a1.95,1.95,0,0,0-1.839-1.3H298.643a1.95,1.95,0,0,0-1.839,1.3l-4.621,13.105a6.718,6.718,0,0,0,3.379,8.311q.1.049.207.094a7.086,7.086,0,0,0,9.917-6.5,7.087,7.087,0,1,0,14.175,0,7.087,7.087,0,1,0,14.175,0,7.09,7.09,0,0,0,9.917,6.5q.1-.045.207-.094A6.718,6.718,0,0,0,347.539,319.407Z" transform="translate(0)" fill="#b50a27"/><path d="M371.376,540a9.474,9.474,0,0,1-14.175,0,9.474,9.474,0,0,1-14.175,0,9.477,9.477,0,0,1-9.917,2.756v28.226h28.836V547.368h12.511v23.615h6.837V542.758A9.477,9.477,0,0,1,371.376,540Zm-18.763,20.035H339.947V547.368h12.667Z" transform="translate(-37.341 -212.391)" fill="#b50a27"/></g></svg>