<svg xmlns="http://www.w3.org/2000/svg" xmlns:xlink="http://www.w3.org/1999/xlink" width="80.419" height="80.103" viewBox="0 0 80.419 80.103">
  <defs>
    <clipPath id="clip-path">
      <rect id="Rectángulo_7" data-name="Rectángulo 7" width="80.419" height="80.103" fill="none"/>
    </clipPath>
  </defs>
  <g id="Grupo_11" data-name="Grupo 11" transform="translate(-1105 -1039)">
    <g id="Grupo_10" data-name="Grupo 10" transform="translate(1105 1039)">
      <g id="Grupo_9" data-name="Grupo 9" clip-path="url(#clip-path)">
        <path id="Trazado_27" data-name="Trazado 27" d="M117.125,5.8c-1.329,5.548-4.98,9.6-8.784,13.548-.871.9-1.782,1.768-2.692,2.634a.777.777,0,0,0-.292.882c.916,3.02,1.814,6.045,2.722,9.068a1.584,1.584,0,0,0,.144.274c1.946-.959,3.469-.863,4.729.292a3.647,3.647,0,0,1,.321,5.085c-.713.832-1.531,1.573-2.3,2.358a1.859,1.859,0,0,0,.085,1.844c.249.18.433-.081.63-.159a3.748,3.748,0,0,1,4.425,1.222,3.64,3.64,0,0,1-.113,4.5,18.356,18.356,0,0,1-1.914,1.964,1.226,1.226,0,0,0-.4,1.488c1.053,3.387,2.028,6.8,3.091,10.183a1.964,1.964,0,0,1-.615,2.363c-.753.644-1.416,1.393-2.121,2.093-1.05,1.042-1.669,1-2.536-.184q-5.8-7.9-11.589-15.806-2.016-2.75-4.032-5.5a1.427,1.427,0,0,1-.381-1.3,1.161,1.161,0,0,1,1.894-.54,4.43,4.43,0,0,1,.6.72q7.238,9.859,14.457,19.731c.39.535.56.561,1.067.1a1.89,1.89,0,0,0,.621-2.274C110.586,48.651,107.1,36.9,103.583,25.154a1.542,1.542,0,0,0-.342-.815c-.155.129-.315.252-.464.388-3.438,3.139-6.868,6.286-10.32,9.409-.392.354-.454.573-.112,1,.686.855,1.318,1.755,1.954,2.649.514.722.471,1.37-.088,1.808s-1.275.295-1.822-.422c-.6-.789-1.224-1.57-1.753-2.407-.364-.576-.605-.466-1.038-.089q-6.743,5.876-13.515,11.719-2.88,2.487-5.807,4.919A.825.825,0,0,0,70,54.438c1,2.522,1.949,5.064,2.953,7.584a1.635,1.635,0,0,1-.434,2.033c-1.051.981-2.038,2.03-3.066,3.035a1.252,1.252,0,0,1-2.041.015q-8.782-8.749-17.548-17.514a1.228,1.228,0,0,1,0-1.978c1.08-1.1,2.189-2.175,3.27-3.276a1.432,1.432,0,0,1,1.72-.29c2.556,1,5.124,1.96,7.675,2.968a.879.879,0,0,0,1.192-.285c5.422-6.44,10.949-12.791,16.509-19.113.644-.733.643-.734-.168-1.327L51.875,5.7c-1.369-1-1.409-1.531-.207-2.732.647-.647,1.342-1.254,1.932-1.95a2.057,2.057,0,0,1,2.5-.65c3.413,1.077,6.859,2.047,10.28,3.1A1.017,1.017,0,0,0,67.6,3.142c.543-.6,1.125-1.168,1.717-1.721A3.741,3.741,0,0,1,74.063.912a3.657,3.657,0,0,1,1.27,4.641c-.212.492.006.534.351.678a1.315,1.315,0,0,0,1.769-.412A16.755,16.755,0,0,1,79.05,4.2a3.725,3.725,0,0,1,4.981-.509,3.679,3.679,0,0,1,.912,4.959c-.037.067-.059.141-.114.276l2.254.671c2.279.677,4.566,1.329,6.832,2.047a1.141,1.141,0,0,0,1.357-.367A64.509,64.509,0,0,1,102.3,4.684a23.876,23.876,0,0,1,7.6-4.3A7.119,7.119,0,0,1,113,.056a4.7,4.7,0,0,1,4.127,4.017ZM112.05,2.359a6.982,6.982,0,0,0-1.859.4,23.521,23.521,0,0,0-6.571,3.911,92.8,92.8,0,0,0-9.917,9.7C82.271,28.515,71.442,41.2,60.722,53.974c-.453.54-1.218,1.067-1.257,1.639-.044.651.925,1.024,1.358,1.6.388.515.68.392,1.115.023,3.446-2.93,6.923-5.823,10.373-8.749,11.647-9.879,23.18-19.884,34.1-30.568a38.518,38.518,0,0,0,6.86-8.617,10.76,10.76,0,0,0,1.453-3.941,2.475,2.475,0,0,0-2.678-3M53.914,4.22c.106.085.26.22.425.341Q68.112,14.625,81.878,24.7c.451.331.671.333,1.062-.1,3.106-3.43,6.244-6.83,9.368-10.243.148-.162.377-.278.395-.583-.268-.091-.534-.19-.806-.271C80.305,10.052,68.7,6.637,57.134,3.12c-1.492-.454-2.484-.32-3.22,1.1M67.74,55.511a2.658,2.658,0,0,0-.237.161c-1.387,1.151-2.766,2.314-4.163,3.452-.381.31-.116.47.083.669,1.072,1.071,2.133,2.154,3.222,3.207.593.574,1.13,1.641,1.8,1.576.651-.063,1.212-1.044,1.813-1.622a.662.662,0,0,1,.056-.055.51.51,0,0,0,.162-.681c-.826-2.111-1.638-4.228-2.458-6.342-.053-.135-.051-.322-.281-.364m-6.238-6.2c-.047-.3-.311-.287-.483-.355a37.712,37.712,0,0,1-4.365-1.718c-1.7-.929-2.913-.651-3.994.888-.261.371-.425.535-.024.921,1.541,1.487,3.048,3.009,4.552,4.534.295.3.467.384.779,0,1.064-1.321,2.168-2.611,3.256-3.914.1-.119.193-.244.279-.353M79.223,7.261c1.036.311,1.853.553,2.668.8.152.046.3.107.439-.017a1.841,1.841,0,0,0,.831-1.43,1.278,1.278,0,0,0-.794-1.16,1.326,1.326,0,0,0-1.512.3c-.506.443-.989.913-1.631,1.509m30.594,30.451a10.183,10.183,0,0,0,1.783-1.875,1.179,1.179,0,0,0-.241-1.563,1.222,1.222,0,0,0-1.64-.144c-.494.326-.894.665-.594,1.382.279.666.441,1.381.692,2.2M72.044,2.66a4.554,4.554,0,0,0-2.2,1.615c-.046.183.061.224.192.263.776.227,1.553.453,2.329.682a.354.354,0,0,0,.362-.078,1.422,1.422,0,0,0,.536-1.532,1.273,1.273,0,0,0-1.22-.95m41.074,41.06a1.048,1.048,0,0,0-1.075,1.473c.171.574.347,1.147.51,1.724.07.247.164.419.409.171a7.375,7.375,0,0,0,1.325-1.432,1.3,1.3,0,0,0-1.168-1.936" transform="translate(-36.705 0)" fill="#b50a27"/>
        <path id="Trazado_28" data-name="Trazado 28" d="M0,41.557a11.442,11.442,0,0,1,.741-.905q4.654-4.665,9.324-9.315a4.125,4.125,0,0,1,.589-.514,1.071,1.071,0,0,1,1.491.162,1.087,1.087,0,0,1,.112,1.436,4,4,0,0,1-.567.645q-4.607,4.6-9.219,9.2C1.454,43.278.99,43.291,0,42.34v-.784" transform="translate(0 -22.748)" fill="#b50a27"/>
        <path id="Trazado_29" data-name="Trazado 29" d="M237.313,276.776c-.719-.812-.729-1.333.024-2.087q4.816-4.826,9.651-9.633c.747-.743,1.607-.736,2.057-.009.414.669.1,1.193-.373,1.669q-2.577,2.576-5.158,5.148-2.469,2.459-4.944,4.912Z" transform="translate(-176.057 -196.673)" fill="#b50a27"/>
        <path id="Trazado_30" data-name="Trazado 30" d="M43.252,51.479a1.541,1.541,0,0,1-.5,1.029c-2,1.992-3.992,3.992-6,5.977a1.229,1.229,0,0,1-1.809.159,1.191,1.191,0,0,1,.122-1.8q3.012-3.032,6.048-6.038a1.213,1.213,0,0,1,1.418-.364,1.2,1.2,0,0,1,.722,1.038" transform="translate(-25.716 -37.431)" fill="#b50a27"/>
        <path id="Trazado_31" data-name="Trazado 31" d="M233.052,253.39a1.149,1.149,0,0,1-1.006-1.727,2.935,2.935,0,0,1,.506-.592q2.826-2.829,5.658-5.652c.074-.074.146-.151.224-.22a1.2,1.2,0,0,1,1.751-.1,1.178,1.178,0,0,1-.063,1.746c-.262.291-.551.558-.828.835q-2.553,2.548-5.1,5.1a1.59,1.59,0,0,1-1.139.613" transform="translate(-172.426 -182)" fill="#b50a27"/>
        <path id="Trazado_32" data-name="Trazado 32" d="M73.43,66.287a1.561,1.561,0,0,1-.535,1.036c-1.348,1.347-2.69,2.7-4.05,4.036A1.2,1.2,0,1,1,67.162,69.7c1.356-1.376,2.731-2.734,4.1-4.1a1.252,1.252,0,0,1,1.489-.36,1.157,1.157,0,0,1,.681,1.041" transform="translate(-49.569 -48.428)" fill="#b50a27"/>
        <path id="Trazado_33" data-name="Trazado 33" d="M230.014,220.124a1.181,1.181,0,0,1,1.082,1.686,2.236,2.236,0,0,1-.431.551q-1.96,1.971-3.934,3.93c-.685.678-1.4.759-1.922.243s-.445-1.218.247-1.915c1.306-1.315,2.622-2.62,3.934-3.93a1.576,1.576,0,0,1,1.024-.565" transform="translate(-166.906 -163.677)" fill="#b50a27"/>
      </g>
    </g>
  </g>
</svg>
