<svg width="28" height="28" viewBox="0 0 28 28" fill="none" xmlns="http://www.w3.org/2000/svg">
<path d="M25.6313 21.3847C25.6313 21.8047 25.538 22.2363 25.3397 22.6563C25.1413 23.0763 24.8847 23.473 24.5463 23.8463C23.9747 24.4763 23.3447 24.9313 22.633 25.223C21.933 25.5147 21.1747 25.6663 20.358 25.6663C19.168 25.6663 17.8963 25.3863 16.5547 24.8147C15.213 24.243 13.8713 23.473 12.5413 22.5047C11.1997 21.5247 9.92801 20.4397 8.71467 19.238C7.51301 18.0247 6.42801 16.753 5.45967 15.423C4.50301 14.093 3.73301 12.763 3.17301 11.4447C2.61301 10.1147 2.33301 8.84301 2.33301 7.62967C2.33301 6.83634 2.47301 6.07801 2.75301 5.37801C3.03301 4.66634 3.47634 4.01301 4.09467 3.42967C4.84134 2.69467 5.65801 2.33301 6.52134 2.33301C6.84801 2.33301 7.17467 2.40301 7.46634 2.54301C7.76967 2.68301 8.03801 2.89301 8.24801 3.19634L10.9547 7.01134C11.1647 7.30301 11.3163 7.57134 11.4213 7.82801C11.5263 8.07301 11.5847 8.31801 11.5847 8.53967C11.5847 8.81967 11.503 9.09967 11.3397 9.36801C11.188 9.63634 10.9663 9.91634 10.6863 10.1963L9.79967 11.118C9.67134 11.2463 9.61301 11.398 9.61301 11.5847C9.61301 11.678 9.62467 11.7597 9.64801 11.853C9.68301 11.9463 9.71801 12.0163 9.74134 12.0863C9.95134 12.4713 10.313 12.973 10.8263 13.5797C11.3513 14.1863 11.9113 14.8047 12.518 15.423C13.148 16.0413 13.7547 16.613 14.373 17.138C14.9797 17.6513 15.4813 18.0013 15.878 18.2113C15.9363 18.2347 16.0063 18.2697 16.088 18.3047C16.1813 18.3397 16.2747 18.3513 16.3797 18.3513C16.578 18.3513 16.7297 18.2813 16.858 18.153L17.7447 17.278C18.0363 16.9863 18.3163 16.7647 18.5847 16.6247C18.853 16.4613 19.1213 16.3797 19.413 16.3797C19.6347 16.3797 19.868 16.4263 20.1247 16.5313C20.3813 16.6363 20.6497 16.788 20.9413 16.9863L24.803 19.728C25.1063 19.938 25.3163 20.183 25.4447 20.4747C25.5613 20.7663 25.6313 21.058 25.6313 21.3847Z" stroke="#009AED" stroke-width="1.5" stroke-miterlimit="10"/>
</svg>
