<svg width="28" height="28" viewBox="0 0 28 28" fill="none" xmlns="http://www.w3.org/2000/svg">
<path d="M21.8455 3.875L20.992 4.72855L18.2412 7.47933L17.8999 7.82065L17.5467 7.49156C16.7967 6.7926 15.892 6.28096 14.9065 5.99844C13.921 5.71591 12.8826 5.67051 11.8762 5.86594C10.8698 6.06137 9.92383 6.4921 9.11567 7.12293C8.30751 7.75377 7.66004 8.56682 7.22612 9.49569C6.79221 10.4246 6.58416 11.4429 6.61898 12.4675C6.6538 13.4921 6.9305 14.494 7.42647 15.3913C7.92244 16.2885 8.62362 17.0558 9.47274 17.6303C10.3219 18.2048 11.2948 18.5703 12.3122 18.697L12.7504 18.7515V19.1931V21V21.5H12.2504H9.62543C9.52598 21.5 9.43059 21.5395 9.36027 21.6098L9.00672 21.2563L9.36027 21.6098C9.28994 21.6802 9.25043 21.7755 9.25043 21.875C9.25043 21.9745 9.28994 22.0698 9.36027 22.1402C9.4306 22.2105 9.52598 22.25 9.62543 22.25H12.2504H12.7504V22.75V25.375C12.7504 25.4745 12.7899 25.5698 12.8603 25.6402C12.9306 25.7105 13.026 25.75 13.1254 25.75C13.2249 25.75 13.3203 25.7105 13.3906 25.6402C13.4609 25.5698 13.5004 25.4745 13.5004 25.375V22.75V22.25H14.0004H16.6254C16.7249 22.25 16.8203 22.2105 16.8906 22.1402C16.9609 22.0698 17.0004 21.9745 17.0004 21.875C17.0004 21.7755 16.9609 21.6802 16.8906 21.6098L17.2442 21.2563L16.8906 21.6098C16.8203 21.5395 16.7249 21.5 16.6254 21.5H14.0004H13.5004V21V19.1931V18.7517L13.9385 18.697C15.0274 18.5609 16.0641 18.151 16.9517 17.5056C17.8392 16.8601 18.5487 16.0002 19.0136 15.0061C19.4786 14.012 19.684 12.9163 19.6105 11.8213C19.5371 10.7264 19.1872 9.66787 18.5936 8.74481L18.3757 8.40588L18.6606 8.12089L21.5218 5.25855L22.3754 4.4046V5.61203V7.875C22.3754 7.97446 22.4149 8.06984 22.4853 8.14016L22.1317 8.49372L22.4853 8.14017C22.5556 8.21049 22.651 8.25 22.7504 8.25C22.8499 8.25 22.9453 8.21049 23.0156 8.14016C23.0859 8.06984 23.1254 7.97446 23.1254 7.875V3.5C23.1254 3.40054 23.0859 3.30516 23.0156 3.23483M21.8455 3.875L23.0156 3.23483M21.8455 3.875H20.6384H18.3754C18.276 3.875 18.1806 3.83549 18.1103 3.76517C18.0399 3.69484 18.0004 3.59946 18.0004 3.5C18.0004 3.40054 18.0399 3.30516 18.1103 3.23484C18.1806 3.16451 18.276 3.125 18.3754 3.125H22.7504C22.8499 3.125 22.9453 3.16451 23.0156 3.23483M21.8455 3.875L23.3692 2.88128L23.0156 3.23483M13.1254 18H13.126C14.6503 17.9984 16.1118 17.3922 17.1897 16.3143C18.2676 15.2364 18.8738 13.7749 18.8754 12.2505V12.25C18.8754 11.1128 18.5382 10.0011 17.9064 9.05547C17.2746 8.10989 16.3765 7.3729 15.3259 6.93769C14.2752 6.50249 13.1191 6.38862 12.0037 6.61048C10.8883 6.83235 9.86372 7.37998 9.05957 8.18414C8.25542 8.98829 7.70778 10.0128 7.48592 11.1282C7.26405 12.2436 7.37792 13.3998 7.81313 14.4504C8.24833 15.5011 8.98532 16.3991 9.9309 17.0309C10.8765 17.6628 11.9882 18 13.1254 18Z" stroke="#009AED"/>
</svg>
