         <svg width="22" height="24" viewBox="0 0 13 22" fill="none"
            xmlns="http://www.w3.org/2000/svg">
            <path d="M9.09375 6.875H10.4688V7.5625H9.09375V6.875Z" fill="#54D834" />
            <path d="M8.40625 16.8438H9.09375V17.5312H8.40625V16.8438Z" fill="#54D834" />
            <path d="M9.78125 16.8438H10.4688V17.5312H9.78125V16.8438Z" fill="#54D834" />
            <path
                d="M11.8438 9.28602V9.02344C11.8439 8.8704 11.7984 8.72079 11.7131 8.59375C11.7984 8.46671 11.8439 8.3171 11.8438 8.16406V6.70312C11.8434 6.38415 11.7165 6.07834 11.491 5.85279C11.2654 5.62724 10.9596 5.50036 10.6406 5.5H9.09375V3.37859C9.20414 3.41768 9.3204 3.4376 9.4375 3.4375H9.78125C10.0547 3.43718 10.3168 3.32843 10.5101 3.1351C10.7034 2.94177 10.8122 2.67966 10.8125 2.40625V1.71875C10.8122 1.44534 10.7034 1.18323 10.5101 0.989898C10.3168 0.79657 10.0547 0.687818 9.78125 0.6875H3.9375V1.375H9.78125C9.87239 1.3751 9.95976 1.41135 10.0242 1.4758C10.0886 1.54024 10.1249 1.62761 10.125 1.71875V2.40625C10.1249 2.49739 10.0886 2.58476 10.0242 2.6492C9.95976 2.71365 9.87239 2.7499 9.78125 2.75H9.4375C9.34636 2.7499 9.25899 2.71365 9.19454 2.6492C9.1301 2.58476 9.09385 2.49739 9.09375 2.40625C9.09375 2.31508 9.05753 2.22765 8.99307 2.16318C8.9286 2.09872 8.84117 2.0625 8.75 2.0625H3.25C3.15883 2.0625 3.0714 2.09872 3.00693 2.16318C2.94247 2.22765 2.90625 2.31508 2.90625 2.40625C2.90615 2.49739 2.8699 2.58476 2.80546 2.6492C2.74101 2.71365 2.65364 2.7499 2.5625 2.75H2.21875C2.12761 2.7499 2.04024 2.71365 1.9758 2.6492C1.91135 2.58476 1.8751 2.49739 1.875 2.40625V1.71875C1.8751 1.62761 1.91135 1.54024 1.9758 1.4758C2.04024 1.41135 2.12761 1.3751 2.21875 1.375H3.25V0.6875H2.21875C1.94534 0.687818 1.68323 0.79657 1.4899 0.989898C1.29657 1.18323 1.18782 1.44534 1.1875 1.71875V2.40625C1.18782 2.67966 1.29657 2.94177 1.4899 3.1351C1.68323 3.32843 1.94534 3.43718 2.21875 3.4375H2.5625C2.6796 3.4376 2.79586 3.41768 2.90625 3.37859V5.5H1.35938C1.0404 5.50036 0.73459 5.62724 0.509039 5.85279C0.283488 6.07834 0.156614 6.38415 0.156251 6.70312V8.16406C0.156075 8.3171 0.201556 8.46671 0.286876 8.59375C0.201556 8.72079 0.156075 8.8704 0.156251 9.02344V10.5703C0.156075 10.7233 0.201556 10.873 0.286876 11C0.201556 11.127 0.156075 11.2767 0.156251 11.4297V12.9766C0.156075 13.1296 0.201556 13.2792 0.286876 13.4062C0.201556 13.5333 0.156075 13.6829 0.156251 13.8359V15.3828C0.156075 15.5358 0.201556 15.6855 0.286876 15.8125C0.201556 15.9395 0.156075 16.0892 0.156251 16.2422V18.7344C0.156612 19.0236 0.260987 19.303 0.450318 19.5217C0.639648 19.7403 0.901302 19.8836 1.1875 19.9253V19.9375C1.1875 20.3022 1.33237 20.6519 1.59023 20.9098C1.84809 21.1676 2.19783 21.3125 2.5625 21.3125C2.92717 21.3125 3.27691 21.1676 3.53477 20.9098C3.79263 20.6519 3.9375 20.3022 3.9375 19.9375H8.0625C8.0625 20.3022 8.20737 20.6519 8.46523 20.9098C8.72309 21.1676 9.07283 21.3125 9.4375 21.3125C9.80217 21.3125 10.1519 21.1676 10.4098 20.9098C10.6676 20.6519 10.8125 20.3022 10.8125 19.9375C10.8125 19.9332 10.8125 19.9293 10.8125 19.9253C11.0987 19.8836 11.3604 19.7403 11.5497 19.5217C11.739 19.303 11.8434 19.0236 11.8438 18.7344V18.2188H11.1562V18.7344C11.1561 18.8711 11.1017 19.0021 11.0051 19.0988C10.9084 19.1955 10.7773 19.2499 10.6406 19.25H10.6277C10.5071 19.041 10.3336 18.8674 10.1246 18.7467C9.91567 18.626 9.67861 18.5625 9.43729 18.5625C9.19597 18.5625 8.9589 18.626 8.74993 18.7467C8.54095 18.8674 8.36744 19.041 8.24684 19.25H3.75295C3.63235 19.041 3.45883 18.8674 3.24986 18.7467C3.04089 18.626 2.80382 18.5625 2.5625 18.5625C2.32118 18.5625 2.08411 18.626 1.87514 18.7467C1.66617 18.8674 1.49265 19.041 1.37205 19.25H1.35938C1.22267 19.2499 1.0916 19.1955 0.994937 19.0988C0.898271 19.0021 0.843898 18.8711 0.84375 18.7344V16.2422C0.84375 16.2194 0.852805 16.1975 0.868921 16.1814C0.885037 16.1653 0.906896 16.1562 0.929688 16.1562H11.0703C11.0931 16.1562 11.115 16.1653 11.1311 16.1814C11.1472 16.1975 11.1562 16.2194 11.1562 16.2422V17.5312H11.8438V16.2422C11.8439 16.0892 11.7984 15.9395 11.7131 15.8125C11.7984 15.6855 11.8439 15.5358 11.8438 15.3828V15.1202C12.0327 15.0989 12.2072 15.0087 12.334 14.867C12.4608 14.7252 12.531 14.5417 12.5312 14.3516V10.0547C12.531 9.8645 12.4608 9.68105 12.334 9.53929C12.2072 9.39754 12.0327 9.30739 11.8438 9.28602ZM9.4375 19.25C9.57347 19.25 9.7064 19.2903 9.81946 19.3659C9.93251 19.4414 10.0206 19.5488 10.0727 19.6744C10.1247 19.8 10.1383 19.9383 10.1118 20.0716C10.0853 20.205 10.0198 20.3275 9.92364 20.4236C9.82749 20.5198 9.70499 20.5853 9.57163 20.6118C9.43826 20.6383 9.30003 20.6247 9.17441 20.5727C9.04878 20.5206 8.94141 20.4325 8.86586 20.3195C8.79032 20.2064 8.75 20.0735 8.75 19.9375C8.75022 19.7552 8.82272 19.5805 8.9516 19.4516C9.08049 19.3227 9.25523 19.2502 9.4375 19.25ZM2.5625 19.25C2.69848 19.25 2.8314 19.2903 2.94446 19.3659C3.05751 19.4414 3.14563 19.5488 3.19767 19.6744C3.2497 19.8 3.26332 19.9383 3.23679 20.0716C3.21026 20.205 3.14478 20.3275 3.04864 20.4236C2.95249 20.5198 2.82999 20.5853 2.69662 20.6118C2.56326 20.6383 2.42503 20.6247 2.29941 20.5727C2.17378 20.5206 2.06641 20.4325 1.99087 20.3195C1.91532 20.2064 1.875 20.0735 1.875 19.9375C1.87522 19.7552 1.94772 19.5805 2.0766 19.4516C2.20549 19.3227 2.38023 19.2502 2.5625 19.25ZM8.0625 2.75H8.40625V5.5H8.0625V2.75ZM4.625 2.75H7.375V5.5H4.625V2.75ZM3.59375 2.75H3.9375V5.5H3.59375V2.75ZM3.59375 8.73615V11.6016C3.59375 11.6244 3.5847 11.6462 3.56858 11.6623C3.55246 11.6784 3.53061 11.6875 3.50781 11.6875H2.30469C2.2819 11.6875 2.26004 11.6784 2.24392 11.6623C2.2278 11.6462 2.21875 11.6244 2.21875 11.6016V8.73615L2.90625 8.04865L3.59375 8.73615ZM0.84375 6.70312C0.843898 6.56642 0.898271 6.43535 0.994937 6.33869C1.0916 6.24202 1.22267 6.18765 1.35938 6.1875H3.00125C2.73998 6.54592 2.589 6.97281 2.56684 7.4158L1.73264 8.25H0.929688C0.906896 8.25 0.885037 8.24095 0.868921 8.22483C0.852805 8.20871 0.84375 8.18685 0.84375 8.16406V6.70312ZM0.84375 9.02344C0.84375 9.00065 0.852805 8.97879 0.868921 8.96267C0.885037 8.94655 0.906896 8.9375 0.929688 8.9375H1.53125V10.6562H0.929688C0.906896 10.6562 0.885037 10.6472 0.868921 10.6311C0.852805 10.615 0.84375 10.5931 0.84375 10.5703V9.02344ZM0.84375 11.4297C0.84375 11.4069 0.852805 11.385 0.868921 11.3689C0.885037 11.3528 0.906896 11.3438 0.929688 11.3438H1.53125V11.6016C1.53149 11.8066 1.61305 12.0032 1.75805 12.1482C1.90304 12.2932 2.09963 12.3748 2.30469 12.375H3.50781C3.71287 12.3748 3.90946 12.2932 4.05445 12.1482C4.19945 12.0032 4.28101 11.8066 4.28125 11.6016V11.3438H10.8125V13.0625H0.929688C0.906896 13.0625 0.885037 13.0534 0.868921 13.0373C0.852805 13.0212 0.84375 12.9994 0.84375 12.9766V11.4297ZM11.1562 15.3828C11.1562 15.4056 11.1472 15.4275 11.1311 15.4436C11.115 15.4597 11.0931 15.4688 11.0703 15.4688H0.929688C0.906896 15.4688 0.885037 15.4597 0.868921 15.4436C0.852805 15.4275 0.84375 15.4056 0.84375 15.3828V13.8359C0.84375 13.8131 0.852805 13.7913 0.868921 13.7752C0.885037 13.7591 0.906896 13.75 0.929688 13.75H10.8125V14.7812C10.8125 14.8724 10.8487 14.9599 10.9132 15.0243C10.9776 15.0888 11.0651 15.125 11.1562 15.125V15.3828ZM11.1562 9.28125C11.0651 9.28125 10.9776 9.31747 10.9132 9.38193C10.8487 9.4464 10.8125 9.53383 10.8125 9.625V10.6562H4.28125V8.9375H11.0703C11.0931 8.9375 11.115 8.94655 11.1311 8.96267C11.1472 8.97879 11.1562 9.00065 11.1562 9.02344V9.28125ZM11.1562 8.16406C11.1562 8.18685 11.1472 8.20871 11.1311 8.22483C11.115 8.24095 11.0931 8.25 11.0703 8.25H4.07986L3.25511 7.42521C3.30693 6.73127 3.74736 6.1875 4.28125 6.1875H10.6406C10.7773 6.18765 10.9084 6.24202 11.0051 6.33869C11.1017 6.43535 11.1561 6.56642 11.1562 6.70312V8.16406ZM11.8438 14.3516C11.8438 14.3744 11.8347 14.3962 11.8186 14.4123C11.8025 14.4284 11.7806 14.4375 11.7578 14.4375H11.5V9.96875H11.7578C11.7806 9.96875 11.8025 9.9778 11.8186 9.99392C11.8347 10.01 11.8438 10.0319 11.8438 10.0547V14.3516Z"
                fill="#54D834" />
        </svg>