<?xml version="1.0" encoding="utf-8"?>
<!-- Generator: Adobe Illustrator 25.0.0, SVG Export Plug-In . SVG Version: 6.00 Build 0)  -->
<svg version="1.1" id="Capa_1" xmlns="http://www.w3.org/2000/svg" xmlns:xlink="http://www.w3.org/1999/xlink" x="0px" y="0px"
	 viewBox="0 0 15 15" style="enable-background:new 0 0 15 15;" xml:space="preserve">
<style type="text/css">
	.st0{clip-path:url(#SVGID_2_);}
	.st1{fill:#54D834;}
</style>
<g>
	<defs>
		<rect id="SVGID_1_" x="0.5" y="0.5" width="14" height="14"/>
	</defs>
	<clipPath id="SVGID_2_">
		<use xlink:href="#SVGID_1_"  style="overflow:visible;"/>
	</clipPath>
	<g class="st0">
		<path class="st1" d="M12.18,8.08c-0.03-0.02-0.07-0.03-0.1-0.03c-0.07,0-0.14,0.03-0.19,0.08l-0.54,0.54
			c-0.05,0.05-0.08,0.11-0.08,0.19V11c0,0.37-0.13,0.69-0.4,0.95c-0.26,0.26-0.58,0.4-0.95,0.4h-7c-0.37,0-0.69-0.13-0.95-0.4
			c-0.26-0.26-0.4-0.58-0.4-0.95V4c0-0.37,0.13-0.69,0.4-0.95c0.26-0.26,0.58-0.4,0.95-0.4h7c0.12,0,0.25,0.02,0.38,0.05
			c0.03,0.01,0.06,0.02,0.08,0.02c0.07,0,0.14-0.03,0.19-0.08l0.41-0.41c0.07-0.07,0.09-0.15,0.08-0.24
			C11.05,1.89,11,1.82,10.91,1.78c-0.3-0.14-0.63-0.21-0.98-0.21h-7c-0.67,0-1.24,0.24-1.71,0.71C0.74,2.76,0.5,3.33,0.5,4v7
			c0,0.67,0.24,1.24,0.71,1.71c0.47,0.47,1.05,0.71,1.71,0.71h7c0.67,0,1.24-0.24,1.71-0.71c0.47-0.47,0.71-1.05,0.71-1.71V8.32
			C12.35,8.21,12.3,8.13,12.18,8.08z"/>
		<path class="st1" d="M14.3,3.25l-0.93-0.93c-0.13-0.13-0.29-0.2-0.48-0.2c-0.19,0-0.35,0.07-0.48,0.2L6.96,7.77L4.75,5.56
			c-0.13-0.13-0.29-0.2-0.48-0.2c-0.19,0-0.35,0.07-0.48,0.2L2.87,6.48c-0.13,0.13-0.2,0.29-0.2,0.48c0,0.19,0.07,0.35,0.2,0.48
			l3.62,3.62c0.13,0.13,0.29,0.2,0.48,0.2c0.19,0,0.35-0.07,0.48-0.2l6.85-6.85c0.13-0.13,0.2-0.29,0.2-0.48
			C14.5,3.54,14.43,3.38,14.3,3.25z"/>
	</g>
</g>
</svg>
