<?xml version="1.0" encoding="utf-8"?>
<!-- Generator: Adobe Illustrator 25.0.0, SVG Export Plug-In . SVG Version: 6.00 Build 0)  -->
<svg version="1.1" id="Capa_1" xmlns="http://www.w3.org/2000/svg" xmlns:xlink="http://www.w3.org/1999/xlink" x="0px" y="0px"
	 viewBox="0 0 15 15" style="enable-background:new 0 0 15 15;" xml:space="preserve">
<style type="text/css">
	.st0{clip-path:url(#SVGID_2_);}
	.st1{fill:#F29704;}
</style>
<g>
	<g>
		<defs>
			<rect id="SVGID_1_" x="0.5" y="0.5" width="14" height="14"/>
		</defs>
		<clipPath id="SVGID_2_">
			<use xlink:href="#SVGID_1_"  style="overflow:visible;"/>
		</clipPath>
		<g class="st0">
			<path class="st1" d="M12.2,8.1c0,0-0.1,0-0.1,0c-0.1,0-0.1,0-0.2,0.1l-0.5,0.5c-0.1,0.1-0.1,0.1-0.1,0.2V11
				c0,0.4-0.1,0.7-0.4,0.9c-0.3,0.3-0.6,0.4-0.9,0.4h-7c-0.4,0-0.7-0.1-1-0.4c-0.3-0.3-0.4-0.6-0.4-0.9V4c0-0.4,0.1-0.7,0.4-1
				c0.3-0.3,0.6-0.4,1-0.4h7c0.1,0,0.2,0,0.4,0c0,0,0.1,0,0.1,0c0.1,0,0.1,0,0.2-0.1L11,2.2c0.1-0.1,0.1-0.2,0.1-0.2
				c0-0.1-0.1-0.2-0.2-0.2c-0.3-0.1-0.6-0.2-1-0.2h-7c-0.7,0-1.2,0.2-1.7,0.7C0.7,2.8,0.5,3.3,0.5,4v7c0,0.7,0.2,1.2,0.7,1.7
				s1,0.7,1.7,0.7h7c0.7,0,1.2-0.2,1.7-0.7s0.7-1.1,0.7-1.7V8.3C12.4,8.2,12.3,8.1,12.2,8.1z"/>
			<path class="st1" d="M14.3,3.2l-0.9-0.9c-0.1-0.1-0.3-0.2-0.5-0.2s-0.4,0.1-0.5,0.2L7,7.8L4.8,5.6C4.6,5.4,4.5,5.4,4.3,5.4
				S3.9,5.4,3.8,5.6L2.9,6.5C2.7,6.6,2.7,6.8,2.7,7s0.1,0.3,0.2,0.5l3.6,3.6c0.1,0.1,0.3,0.2,0.5,0.2s0.3-0.1,0.5-0.2l6.8-6.8
				c0.1-0.1,0.2-0.3,0.2-0.5C14.5,3.5,14.4,3.4,14.3,3.2z"/>
		</g>
	</g>
</g>
</svg>
