<svg width="89" height="89" viewBox="0 0 89 89" fill="none" xmlns="http://www.w3.org/2000/svg">
<path d="M11.2189 70.3744C10.362 69.5015 9.84223 68.3533 9.75177 67.1335C9.74186 67.0017 9.73439 66.8689 9.73439 66.7337V22.2657C9.73439 22.222 9.73647 22.1787 9.73769 22.1353L5.76241 18.8882C4.95819 19.8295 4.51732 21.0276 4.51954 22.2657V66.7344C4.51657 68.0957 5.04989 69.4034 6.00404 70.3744L6.01342 70.3662C6.4956 70.8675 7.07323 71.2671 7.71228 71.5417C8.35133 71.8163 9.03887 71.9602 9.73439 71.9649H14.9492C14.2537 71.9601 13.5661 71.8161 12.9271 71.5415C12.288 71.2668 11.7104 70.867 11.2283 70.3657L11.2189 70.3744Z" fill="#D4E1F4"/>
<path d="M5.76172 18.8803L9.73717 22.1283C9.79403 20.9482 10.2182 19.8154 10.9505 18.8882V18.8803C11.9935 17.7557 13.3563 17.0352 14.9485 17.0352H9.73369C8.97728 17.0354 8.23003 17.2006 7.54403 17.5193C6.85803 17.838 6.2498 18.3025 5.76172 18.8803Z" fill="#D4E1F4"/>
<path d="M79.2656 15.9922H9.73438C8.0747 15.9922 6.483 16.6515 5.30943 17.8251C4.13587 18.9986 3.47656 20.5903 3.47656 22.25V66.75C3.47656 68.4097 4.13587 70.0014 5.30943 71.1749C6.483 72.3485 8.0747 73.0078 9.73438 73.0078H79.2656C80.9253 73.0078 82.517 72.3485 83.6906 71.1749C84.8641 70.0014 85.5234 68.4097 85.5234 66.75V22.25C85.5234 20.5903 84.8641 18.9986 83.6906 17.8251C82.517 16.6515 80.9253 15.9922 79.2656 15.9922ZM83.4375 66.7351C83.4383 67.4864 83.2348 68.2238 82.8489 68.8684L54.0451 43.524L52.6804 45.1016L81.3615 70.3482C80.7262 70.7222 80.0028 70.9202 79.2656 70.9219H9.73438C8.99721 70.9202 8.2738 70.7222 7.63853 70.3482L36.3235 45.1016L34.9587 43.522L6.15108 68.8693C5.76518 68.2243 5.56174 67.4867 5.5625 66.7351V22.2649C5.56194 21.6258 5.70912 20.9952 5.99255 20.4224L44.5234 54.5596L45.8429 52.9442L7.35432 18.8341C8.05137 18.344 8.88227 18.0801 9.73438 18.0781H79.2656C80.1177 18.0801 80.9486 18.344 81.6457 18.8341L43.2039 52.8935L44.5234 54.511L83.0075 20.4219C83.2908 20.9947 83.4379 21.6253 83.4375 22.2644V66.7351Z" fill="#F21037"/>
<path d="M9.56055 28.7195C9.28393 28.7195 9.01865 28.8294 8.82306 29.025C8.62746 29.2206 8.51758 29.4858 8.51758 29.7624V30.5937C8.51758 30.8703 8.62746 31.1356 8.82306 31.3312C9.01865 31.5268 9.28393 31.6367 9.56055 31.6367C9.83716 31.6367 10.1024 31.5268 10.298 31.3312C10.4936 31.1356 10.6035 30.8703 10.6035 30.5937V29.7631C10.6036 29.6261 10.5767 29.4904 10.5243 29.3638C10.472 29.2372 10.3951 29.1221 10.2983 29.0252C10.2014 28.9283 10.0864 28.8514 9.95983 28.7989C9.83325 28.7465 9.69757 28.7195 9.56055 28.7195Z" fill="#1EAEA5"/>
<path d="M9.56055 33.3434C9.28393 33.3434 9.01865 33.4533 8.82306 33.6489C8.62746 33.8445 8.51758 34.1097 8.51758 34.3864V46.7598C8.51758 47.0364 8.62746 47.3017 8.82306 47.4973C9.01865 47.6929 9.28393 47.8028 9.56055 47.8028C9.83716 47.8028 10.1024 47.6929 10.298 47.4973C10.4936 47.3017 10.6035 47.0364 10.6035 46.7598V34.3864C10.6035 34.1097 10.4936 33.8445 10.298 33.6489C10.1024 33.4533 9.83716 33.3434 9.56055 33.3434Z" fill="#1EAEA5"/>
</svg>
