<?xml version="1.0" encoding="utf-8"?>
<!-- Generator: Adobe Illustrator 25.0.0, SVG Export Plug-In . SVG Version: 6.00 Build 0)  -->
<svg version="1.1" id="Capa_1" xmlns="http://www.w3.org/2000/svg" xmlns:xlink="http://www.w3.org/1999/xlink" x="0px" y="0px"
	 viewBox="0 0 15 21" style="enable-background:new 0 0 15 21;" xml:space="preserve">
<style type="text/css">
	.st0{fill:#009AED;}
</style>
<path class="st0" d="M10.1,6.5h1.3v0.7h-1.3V6.5z"/>
<path class="st0" d="M9.5,16h0.7v0.7H9.5V16z"/>
<path class="st0" d="M10.8,16h0.7v0.7h-0.7V16z"/>
<path class="st0" d="M12.8,8.8V8.6c0-0.1,0-0.3-0.1-0.4c0.1-0.1,0.1-0.3,0.1-0.4V6.3c0-0.3-0.1-0.6-0.3-0.8
	c-0.2-0.2-0.5-0.3-0.8-0.3h-1.5v-2c0.1,0,0.2,0.1,0.3,0.1h0.3c0.3,0,0.5-0.1,0.7-0.3c0.2-0.2,0.3-0.4,0.3-0.7V1.6
	c0-0.3-0.1-0.5-0.3-0.7c-0.2-0.2-0.4-0.3-0.7-0.3H5.2v0.7h5.6c0.1,0,0.2,0,0.2,0.1c0.1,0.1,0.1,0.1,0.1,0.2v0.7c0,0.1,0,0.2-0.1,0.2
	c-0.1,0.1-0.1,0.1-0.2,0.1h-0.3c-0.1,0-0.2,0-0.2-0.1c-0.1-0.1-0.1-0.1-0.1-0.2s0-0.2-0.1-0.2C10,2,9.9,1.9,9.8,1.9H4.6
	c-0.1,0-0.2,0-0.2,0.1C4.3,2.1,4.2,2.2,4.2,2.2s0,0.2-0.1,0.2C4.1,2.5,4,2.6,3.9,2.6H3.6c-0.1,0-0.2,0-0.2-0.1
	C3.3,2.4,3.2,2.3,3.2,2.2V1.6c0-0.1,0-0.2,0.1-0.2c0.1-0.1,0.1-0.1,0.2-0.1h1V0.6h-1c-0.3,0-0.5,0.1-0.7,0.3
	C2.7,1.1,2.6,1.3,2.6,1.6v0.7c0,0.3,0.1,0.5,0.3,0.7c0.2,0.2,0.4,0.3,0.7,0.3h0.3c0.1,0,0.2,0,0.3-0.1v2H2.8C2.5,5.2,2.2,5.3,2,5.5
	C1.7,5.8,1.6,6.1,1.6,6.3v1.4c0,0.2,0,0.3,0.1,0.4C1.7,8.3,1.6,8.4,1.6,8.6V10c0,0.1,0,0.3,0.1,0.4c-0.1,0.1-0.1,0.3-0.1,0.4v1.5
	c0,0.1,0,0.3,0.1,0.4c-0.1,0.1-0.1,0.3-0.1,0.4v1.5c0,0.1,0,0.3,0.1,0.4c-0.1,0.1-0.1,0.3-0.1,0.4v2.4c0,0.3,0.1,0.5,0.3,0.8
	s0.4,0.4,0.7,0.4v0c0,0.4,0.1,0.7,0.4,0.9c0.2,0.2,0.6,0.4,0.9,0.4s0.7-0.1,0.9-0.4c0.2-0.2,0.4-0.6,0.4-0.9h3.9
	c0,0.4,0.1,0.7,0.4,0.9c0.2,0.2,0.6,0.4,0.9,0.4s0.7-0.1,0.9-0.4c0.2-0.2,0.4-0.6,0.4-0.9v0c0.3,0,0.5-0.2,0.7-0.4
	c0.2-0.2,0.3-0.5,0.3-0.8v-0.5h-0.7v0.5c0,0.1-0.1,0.3-0.1,0.4s-0.2,0.1-0.4,0.1h0c-0.1-0.2-0.3-0.4-0.5-0.5
	c-0.2-0.1-0.4-0.2-0.7-0.2s-0.5,0.1-0.7,0.2s-0.4,0.3-0.5,0.5H5.1c-0.1-0.2-0.3-0.4-0.5-0.5c-0.2-0.1-0.4-0.2-0.7-0.2
	c-0.2,0-0.5,0.1-0.7,0.2s-0.4,0.3-0.5,0.5h0c-0.1,0-0.3,0-0.3-0.1S2.3,18,2.3,17.8v-2.4c0,0,0,0,0-0.1c0,0,0,0,0.1,0H12
	c0,0,0,0,0.1,0c0,0,0,0,0,0.1v1.2h0.7v-1.2c0-0.1,0-0.3-0.1-0.4c0.1-0.1,0.1-0.3,0.1-0.4v-0.2c0.2,0,0.4-0.1,0.5-0.2
	c0.1-0.1,0.2-0.3,0.2-0.5V9.6c0-0.2-0.1-0.4-0.2-0.5S12.9,8.8,12.8,8.8z M10.5,18.3c0.1,0,0.3,0,0.4,0.1c0.1,0.1,0.2,0.2,0.2,0.3
	s0.1,0.2,0,0.4s-0.1,0.2-0.2,0.3c-0.1,0.1-0.2,0.1-0.3,0.2s-0.3,0-0.4,0c-0.1,0-0.2-0.1-0.3-0.2S9.8,19.1,9.8,19
	c0-0.2,0.1-0.3,0.2-0.5C10.1,18.4,10.3,18.3,10.5,18.3z M3.9,18.3c0.1,0,0.3,0,0.4,0.1c0.1,0.1,0.2,0.2,0.2,0.3
	c0.1,0.1,0.1,0.2,0,0.4s-0.1,0.2-0.2,0.3c-0.1,0.1-0.2,0.1-0.3,0.2s-0.3,0-0.4,0c-0.1,0-0.2-0.1-0.3-0.2S3.2,19.1,3.2,19
	c0-0.2,0.1-0.3,0.2-0.5C3.6,18.4,3.7,18.3,3.9,18.3z M9.2,2.6h0.3v2.6H9.2V2.6z M5.9,2.6h2.6v2.6H5.9V2.6z M4.9,2.6h0.3v2.6H4.9V2.6
	z M4.9,8.3V11c0,0,0,0,0,0.1s0,0-0.1,0H3.7c0,0,0,0-0.1,0c0,0,0,0,0-0.1V8.3l0.7-0.7L4.9,8.3z M2.3,6.3c0-0.1,0-0.2,0.2-0.3
	c0.1-0.1,0.2-0.1,0.3-0.1h1.6C4.1,6.2,3.9,6.6,3.9,7L3.1,7.8H2.3c0,0,0,0-0.1,0c0,0,0,0,0-0.1V6.3z M2.3,8.6
	C2.3,8.5,2.3,8.5,2.3,8.6C2.3,8.5,2.3,8.5,2.3,8.6l0.6-0.1v1.6H2.3c0,0,0,0-0.1,0c0,0,0,0,0-0.1V8.6z M2.3,10.9
	C2.3,10.8,2.3,10.8,2.3,10.9C2.3,10.8,2.3,10.8,2.3,10.9l0.6-0.1V11c0,0.2,0.1,0.4,0.2,0.5s0.3,0.2,0.5,0.2h1.2
	c0.2,0,0.4-0.1,0.5-0.2s0.2-0.3,0.2-0.5v-0.2h6.2v1.6H2.3c0,0,0,0-0.1,0c0,0,0,0,0-0.1V10.9z M12.1,14.6
	C12.1,14.7,12.1,14.7,12.1,14.6C12.1,14.7,12.1,14.7,12.1,14.6l-9.8,0.1c0,0,0,0-0.1,0c0,0,0,0,0-0.1v-1.5c0,0,0,0,0-0.1
	c0,0,0,0,0.1,0h9.4v1c0,0.1,0,0.2,0.1,0.2c0.1,0.1,0.1,0.1,0.2,0.1L12.1,14.6L12.1,14.6z M12.1,8.8c-0.1,0-0.2,0-0.2,0.1
	c-0.1,0.1-0.1,0.1-0.1,0.2v1H5.6V8.5H12c0,0,0,0,0.1,0c0,0,0,0,0,0.1L12.1,8.8L12.1,8.8z M12.1,7.8C12.1,7.8,12.1,7.8,12.1,7.8
	C12.1,7.8,12.1,7.8,12.1,7.8L5.4,7.8L4.6,7c0.1-0.7,0.5-1.2,1-1.2h6.1c0.1,0,0.3,0.1,0.4,0.1c0.1,0.1,0.1,0.2,0.1,0.3L12.1,7.8
	L12.1,7.8z M12.8,13.6C12.8,13.7,12.8,13.7,12.8,13.6C12.7,13.7,12.7,13.7,12.8,13.6l-0.3,0.1V9.5h0.2c0,0,0,0,0.1,0c0,0,0,0,0,0.1
	V13.6z"/>
</svg>
