<?xml version="1.0" encoding="utf-8"?>
<!-- Generator: Adobe Illustrator 25.0.0, SVG Export Plug-In . SVG Version: 6.00 Build 0)  -->
<svg version="1.1" id="Capa_1" xmlns="http://www.w3.org/2000/svg" xmlns:xlink="http://www.w3.org/1999/xlink" x="0px" y="0px"
	 viewBox="0 0 15 21" style="enable-background:new 0 0 15 21;" xml:space="preserve">
<style type="text/css">
	.st0{fill:#83898F;}
</style>
<path class="st0" d="M10.15,6.51h1.31v0.66h-1.31V6.51z"/>
<path class="st0" d="M9.49,16.03h0.66v0.66H9.49V16.03z"/>
<path class="st0" d="M10.8,16.03h0.66v0.66H10.8V16.03z"/>
<path class="st0" d="M12.77,8.82V8.57c0-0.15-0.04-0.29-0.12-0.41c0.08-0.12,0.12-0.26,0.12-0.41V6.35c0-0.3-0.12-0.6-0.34-0.81
	c-0.22-0.22-0.51-0.34-0.81-0.34h-1.48V3.18c0.11,0.04,0.22,0.06,0.33,0.06h0.33c0.26,0,0.51-0.1,0.7-0.29
	c0.18-0.18,0.29-0.43,0.29-0.7V1.59c0-0.26-0.1-0.51-0.29-0.7c-0.18-0.18-0.43-0.29-0.7-0.29H5.23v0.66h5.58
	c0.09,0,0.17,0.03,0.23,0.1c0.06,0.06,0.1,0.14,0.1,0.23v0.66c0,0.09-0.03,0.17-0.1,0.23c-0.06,0.06-0.14,0.1-0.23,0.1h-0.33
	c-0.09,0-0.17-0.03-0.23-0.1c-0.06-0.06-0.1-0.14-0.1-0.23c0-0.09-0.03-0.17-0.1-0.23c-0.06-0.06-0.15-0.1-0.23-0.1H4.57
	c-0.09,0-0.17,0.03-0.23,0.1c-0.06,0.06-0.1,0.14-0.1,0.23c0,0.09-0.03,0.17-0.1,0.23C4.08,2.54,4,2.58,3.91,2.58H3.58
	c-0.09,0-0.17-0.03-0.23-0.1c-0.06-0.06-0.1-0.14-0.1-0.23V1.59c0-0.09,0.03-0.17,0.1-0.23c0.06-0.06,0.14-0.1,0.23-0.1h0.98V0.61
	H3.58c-0.26,0-0.51,0.1-0.7,0.29C2.7,1.08,2.6,1.33,2.6,1.59v0.66c0,0.26,0.1,0.51,0.29,0.7c0.18,0.18,0.43,0.29,0.7,0.29h0.33
	c0.11,0,0.22-0.02,0.33-0.06V5.2H2.76c-0.3,0-0.6,0.12-0.81,0.34C1.74,5.75,1.62,6.05,1.62,6.35v1.39c0,0.15,0.04,0.29,0.12,0.41
	C1.66,8.28,1.62,8.42,1.62,8.57v1.48c0,0.15,0.04,0.29,0.12,0.41c-0.08,0.12-0.12,0.26-0.12,0.41v1.48c0,0.15,0.04,0.29,0.12,0.41
	c-0.08,0.12-0.12,0.26-0.12,0.41v1.48c0,0.15,0.04,0.29,0.12,0.41c-0.08,0.12-0.12,0.26-0.12,0.41v2.38c0,0.28,0.1,0.54,0.28,0.75
	c0.18,0.21,0.43,0.35,0.7,0.39v0.01c0,0.35,0.14,0.68,0.38,0.93c0.25,0.25,0.58,0.38,0.93,0.38s0.68-0.14,0.93-0.38
	c0.25-0.25,0.38-0.58,0.38-0.93h3.94c0,0.35,0.14,0.68,0.38,0.93c0.25,0.25,0.58,0.38,0.93,0.38c0.35,0,0.68-0.14,0.93-0.38
	c0.25-0.25,0.38-0.58,0.38-0.93c0,0,0-0.01,0-0.01c0.27-0.04,0.52-0.18,0.7-0.39c0.18-0.21,0.28-0.48,0.28-0.75v-0.49h-0.66v0.49
	c0,0.13-0.05,0.26-0.14,0.35c-0.09,0.09-0.22,0.14-0.35,0.14h-0.01c-0.12-0.2-0.28-0.37-0.48-0.48c-0.2-0.12-0.43-0.18-0.66-0.18
	c-0.23,0-0.46,0.06-0.66,0.18c-0.2,0.12-0.37,0.28-0.48,0.48H5.05c-0.12-0.2-0.28-0.37-0.48-0.48c-0.2-0.12-0.43-0.18-0.66-0.18
	c-0.23,0-0.46,0.06-0.66,0.18c-0.2,0.12-0.37,0.28-0.48,0.48H2.76c-0.13,0-0.26-0.05-0.35-0.14c-0.09-0.09-0.14-0.22-0.14-0.35
	v-2.38c0-0.02,0.01-0.04,0.02-0.06c0.02-0.02,0.04-0.02,0.06-0.02h9.68c0.02,0,0.04,0.01,0.06,0.02c0.02,0.02,0.02,0.04,0.02,0.06
	v1.23h0.66v-1.23c0-0.15-0.04-0.29-0.12-0.41c0.08-0.12,0.12-0.26,0.12-0.41v-0.25c0.18-0.02,0.35-0.11,0.47-0.24
	c0.12-0.14,0.19-0.31,0.19-0.49v-4.1c0-0.18-0.07-0.36-0.19-0.49S12.95,8.84,12.77,8.82z M10.48,18.33c0.13,0,0.26,0.04,0.36,0.11
	c0.11,0.07,0.19,0.17,0.24,0.29c0.05,0.12,0.06,0.25,0.04,0.38s-0.09,0.24-0.18,0.34c-0.09,0.09-0.21,0.15-0.34,0.18
	c-0.13,0.03-0.26,0.01-0.38-0.04c-0.12-0.05-0.22-0.13-0.29-0.24c-0.07-0.11-0.11-0.23-0.11-0.36c0-0.17,0.07-0.34,0.19-0.46
	C10.13,18.4,10.3,18.33,10.48,18.33z M3.91,18.33c0.13,0,0.26,0.04,0.36,0.11c0.11,0.07,0.19,0.17,0.24,0.29
	c0.05,0.12,0.06,0.25,0.04,0.38s-0.09,0.24-0.18,0.34c-0.09,0.09-0.21,0.15-0.34,0.18c-0.13,0.03-0.26,0.01-0.38-0.04
	c-0.12-0.05-0.22-0.13-0.29-0.24c-0.07-0.11-0.11-0.23-0.11-0.36c0-0.17,0.07-0.34,0.19-0.46C3.57,18.4,3.74,18.33,3.91,18.33z
	 M9.16,2.58h0.33V5.2H9.16V2.58z M5.88,2.58h2.62V5.2H5.88V2.58z M4.9,2.58h0.33V5.2H4.9V2.58z M4.9,8.29v2.74
	c0,0.02-0.01,0.04-0.02,0.06s-0.04,0.02-0.06,0.02H3.67c-0.02,0-0.04-0.01-0.06-0.02c-0.02-0.02-0.02-0.04-0.02-0.06V8.29l0.66-0.66
	L4.9,8.29z M2.27,6.35C2.27,6.22,2.32,6.1,2.42,6c0.09-0.09,0.22-0.14,0.35-0.14h1.57C4.08,6.2,3.94,6.61,3.92,7.03l-0.8,0.8H2.35
	c-0.02,0-0.04-0.01-0.06-0.02C2.28,7.79,2.27,7.77,2.27,7.75V6.35z M2.27,8.57c0-0.02,0.01-0.04,0.02-0.06
	c0.02-0.02,0.04-0.02,0.06-0.02h0.57v1.64H2.35c-0.02,0-0.04-0.01-0.06-0.02c-0.02-0.02-0.02-0.04-0.02-0.06V8.57z M2.27,10.86
	c0-0.02,0.01-0.04,0.02-0.06c0.02-0.02,0.04-0.02,0.06-0.02h0.57v0.25c0,0.2,0.08,0.38,0.22,0.52c0.14,0.14,0.33,0.22,0.52,0.22
	h1.15c0.2,0,0.38-0.08,0.52-0.22c0.14-0.14,0.22-0.33,0.22-0.52v-0.25h6.23v1.64H2.35c-0.02,0-0.04-0.01-0.06-0.02
	c-0.02-0.02-0.02-0.04-0.02-0.06V10.86z M12.12,14.64c0,0.02-0.01,0.04-0.02,0.06c-0.02,0.02-0.04,0.02-0.06,0.02H2.35
	c-0.02,0-0.04-0.01-0.06-0.02c-0.02-0.02-0.02-0.04-0.02-0.06v-1.48c0-0.02,0.01-0.04,0.02-0.06c0.02-0.02,0.04-0.02,0.06-0.02h9.43
	v0.98c0,0.09,0.03,0.17,0.1,0.23c0.06,0.06,0.14,0.1,0.23,0.1V14.64z M12.12,8.81c-0.09,0-0.17,0.03-0.23,0.1
	c-0.06,0.06-0.1,0.15-0.1,0.23v0.98H5.55V8.48h6.48c0.02,0,0.04,0.01,0.06,0.02c0.02,0.02,0.02,0.04,0.02,0.06V8.81z M12.12,7.75
	c0,0.02-0.01,0.04-0.02,0.06c-0.02,0.02-0.04,0.02-0.06,0.02H5.36L4.57,7.04c0.05-0.66,0.47-1.18,0.98-1.18h6.07
	c0.13,0,0.26,0.05,0.35,0.14c0.09,0.09,0.14,0.22,0.14,0.35V7.75z M12.77,13.65c0,0.02-0.01,0.04-0.02,0.06s-0.04,0.02-0.06,0.02
	h-0.25V9.47h0.25c0.02,0,0.04,0.01,0.06,0.02c0.02,0.02,0.02,0.04,0.02,0.06V13.65z"/>
</svg>
