<svg width="14" height="14" viewBox="0 0 14 14" fill="none" xmlns="http://www.w3.org/2000/svg">
<g clip-path="url(#clip0_2843_9520)">
<path d="M11.6848 7.58069C11.6512 7.56374 11.6176 7.55527 11.5836 7.55527C11.5105 7.55527 11.4462 7.58332 11.3901 7.63952L10.8513 8.17826C10.8009 8.22882 10.7756 8.29048 10.7756 8.36352V10.5016C10.7756 10.8721 10.644 11.1891 10.3801 11.453C10.1163 11.7167 9.79915 11.8486 9.42871 11.8486H2.42452C2.05406 11.8486 1.73694 11.7167 1.47318 11.453C1.20937 11.1891 1.07754 10.8722 1.07754 10.5016V3.49761C1.07754 3.12721 1.20937 2.81012 1.47318 2.54628C1.73694 2.28249 2.05406 2.15063 2.42452 2.15063H9.42877C9.55226 2.15063 9.67852 2.16747 9.80758 2.20117C9.84128 2.21232 9.86652 2.21801 9.88315 2.21801C9.95622 2.21801 10.0208 2.19003 10.0769 2.13391L10.4894 1.7214C10.5567 1.65415 10.582 1.57271 10.565 1.47738C10.5482 1.38756 10.4976 1.32299 10.4135 1.28374C10.1106 1.14363 9.7821 1.07324 9.42854 1.07324H2.42452C1.75666 1.07324 1.18558 1.31037 0.711323 1.78462C0.237127 2.25893 0 2.82993 0 3.49782V10.502C0 11.1698 0.237127 11.7408 0.711352 12.2151C1.18561 12.6895 1.75669 12.9266 2.42455 12.9266H9.42871C10.0965 12.9266 10.6676 12.6895 11.1419 12.2151C11.6162 11.7408 11.8535 11.1698 11.8535 10.502V7.82478C11.8534 7.70701 11.797 7.62569 11.6848 7.58069Z" fill="#54D834"/>
<path d="M13.7986 2.74825L12.8724 1.82213C12.7377 1.68746 12.5777 1.62012 12.3924 1.62012C12.2074 1.62012 12.0472 1.68746 11.9127 1.82213L6.46582 7.26893L4.25188 5.05486C4.11716 4.92011 3.95717 4.85285 3.77203 4.85285C3.58685 4.85285 3.42692 4.92011 3.29217 5.05486L2.36616 5.98087C2.23147 6.11556 2.16406 6.27555 2.16406 6.46081C2.16406 6.64598 2.23147 6.80591 2.36616 6.94067L5.98608 10.5606C6.1208 10.6954 6.28079 10.7626 6.46593 10.7626C6.65108 10.7626 6.81104 10.6954 6.94579 10.5606L13.7985 3.70794C13.9331 3.57327 14.0006 3.41325 14.0006 3.22808C14.0006 3.04291 13.9333 2.88292 13.7986 2.74825Z" fill="#54D834"/>
</g>
<defs>
<clipPath id="clip0_2843_9520">
<rect width="14" height="14" fill="white"/>
</clipPath>
</defs>
</svg>
