<?xml version="1.0" encoding="utf-8"?>
<!-- Generator: Adobe Illustrator 25.0.0, SVG Export Plug-In . SVG Version: 6.00 Build 0)  -->
<svg version="1.1" id="Capa_1" xmlns="http://www.w3.org/2000/svg" xmlns:xlink="http://www.w3.org/1999/xlink" x="0px" y="0px"
	 viewBox="0 0 15 15" style="enable-background:new 0 0 15 15;" xml:space="preserve">
<style type="text/css">
	.st0{fill:#F29704;}
</style>
<path class="st0" d="M11,9.5H4c-0.1,0-0.2,0.1-0.2,0.2v4C3.8,13.9,3.9,14,4,14h7c0.1,0,0.2-0.1,0.2-0.2v-4C11.2,9.6,11.1,9.5,11,9.5
	z M10.7,10c-0.1,1.1-1.1,2-2.2,2H7.8v-0.2c0-0.1-0.1-0.2-0.2-0.2s-0.2,0.1-0.2,0.2V12H6.5c-1.1,0-2.1-0.9-2.2-2H10.7z M10.8,13.5
	H4.2v-2.2c0.5,0.7,1.4,1.2,2.2,1.2h0.8v0.2c0,0.1,0.1,0.2,0.2,0.2s0.2-0.1,0.2-0.2v-0.2h0.8c0.9,0,1.7-0.4,2.2-1.2V13.5z"/>
<path class="st0" d="M13.5,9h-0.8V5c0.6-0.1,1-0.6,1-1.2V2.2c0-0.7-0.6-1.2-1.2-1.2h-3C9.4,0.4,8.8,0,8.2,0H6.8C6.2,0,5.6,0.4,5.5,1
	h-3C1.8,1,1.3,1.6,1.2,2.2v1.5c0,0.6,0.4,1.1,1,1.2v4H1.5c-0.7,0-1.2,0.6-1.2,1.2v2c0,0.7,0.6,1.2,1.2,1.2h0.8v0.2
	c0,0.7,0.6,1.2,1.2,1.2h8c0.7,0,1.2-0.6,1.2-1.2v-0.2h0.8c0.7,0,1.2-0.6,1.2-1.2v-2C14.7,9.6,14.2,9,13.5,9z M13.2,2.2v1.5
	c0,0.4-0.3,0.8-0.8,0.8h-1.2v-3h1.2C12.9,1.5,13.2,1.8,13.2,2.2z M10.8,1.5v3h-0.5v-3H10.8z M10.2,7h0.5v0.2c0,0.1-0.1,0.2-0.2,0.2
	s-0.2-0.1-0.2-0.2V7z M10.2,6.5V5h0.5v1.5H10.2z M9.8,1.5v3H5.2v-3H9.8z M6.8,0.5h1.5C8.6,0.5,8.9,0.7,9,1H6
	C6.1,0.7,6.4,0.5,6.8,0.5z M4.8,1.5v3H4.2v-3H4.8z M4.2,7h0.5v0.2c0,0.1-0.1,0.2-0.2,0.2S4.2,7.4,4.2,7.2V7z M4.2,6.5V5h0.5v1.5H4.2
	z M1.8,3.8V2.2c0-0.4,0.3-0.8,0.8-0.8h1.2v3H2.5C2.1,4.5,1.8,4.2,1.8,3.8z M1.5,13c-0.4,0-0.8-0.3-0.8-0.8v-2c0-0.4,0.3-0.8,0.8-0.8
	h0.8V13H1.5z M12.2,13.8c0,0.4-0.3,0.8-0.8,0.8h-8c-0.4,0-0.8-0.3-0.8-0.8V5h1v1.5H3.5c-0.1,0-0.2,0.1-0.2,0.2S3.4,7,3.5,7h0.2v0.2
	C3.8,7.7,4.1,8,4.5,8c0.4,0,0.8-0.3,0.8-0.8V7h0.2c0.1,0,0.2-0.1,0.2-0.2S5.6,6.5,5.5,6.5H5.2V5h4.5v1.5H9.5c-0.1,0-0.2,0.1-0.2,0.2
	S9.4,7,9.5,7h0.2v0.2c0,0.4,0.3,0.8,0.8,0.8s0.8-0.3,0.8-0.8V7h0.2c0.1,0,0.2-0.1,0.2-0.2s-0.1-0.2-0.2-0.2h-0.2V5h1V13.8z
	 M14.2,12.2c0,0.4-0.3,0.8-0.8,0.8h-0.8V9.5h0.8c0.4,0,0.8,0.3,0.8,0.8V12.2z"/>
</svg>
