<?xml version="1.0" encoding="utf-8"?>
<!-- Generator: Adobe Illustrator 25.0.0, SVG Export Plug-In . SVG Version: 6.00 Build 0)  -->
<svg version="1.1" id="Capa_1" xmlns="http://www.w3.org/2000/svg" xmlns:xlink="http://www.w3.org/1999/xlink" x="0px" y="0px"
	 viewBox="0 0 15 15" style="enable-background:new 0 0 15 15;" xml:space="preserve">
<style type="text/css">
	.st0{fill:#54D834;}
</style>
<path class="st0" d="M11,9.5H4c-0.14,0-0.25,0.11-0.25,0.25v4C3.75,13.89,3.86,14,4,14h7c0.14,0,0.25-0.11,0.25-0.25v-4
	C11.25,9.61,11.14,9.5,11,9.5z M10.74,10c-0.13,1.14-1.09,2-2.24,2H7.75v-0.25c0-0.14-0.11-0.25-0.25-0.25s-0.25,0.11-0.25,0.25V12
	H6.5c-1.15,0-2.11-0.86-2.24-2H10.74z M10.75,13.5h-6.5v-2.17C4.76,12.06,5.6,12.5,6.5,12.5h0.75v0.25C7.25,12.89,7.36,13,7.5,13
	s0.25-0.11,0.25-0.25V12.5H8.5c0.9,0,1.74-0.44,2.25-1.17V13.5z"/>
<path class="st0" d="M13.5,9h-0.75V4.97c0.58-0.12,1-0.63,1-1.22v-1.5C13.75,1.56,13.19,1,12.5,1H9.47C9.36,0.42,8.84,0,8.25,0h-1.5
	C6.16,0,5.64,0.42,5.53,1H2.5C1.81,1,1.25,1.56,1.25,2.25v1.5c0,0.59,0.42,1.11,1,1.22V9H1.5c-0.69,0-1.25,0.56-1.25,1.25v2
	c0,0.69,0.56,1.25,1.25,1.25h0.75v0.25C2.25,14.44,2.81,15,3.5,15h8c0.69,0,1.25-0.56,1.25-1.25V13.5h0.75
	c0.69,0,1.25-0.56,1.25-1.25v-2C14.75,9.56,14.19,9,13.5,9z M13.25,2.25v1.5c0,0.41-0.34,0.75-0.75,0.75h-1.25v-3h1.25
	C12.91,1.5,13.25,1.84,13.25,2.25z M10.75,1.5v3h-0.5v-3H10.75z M10.25,7h0.5v0.25c0,0.14-0.11,0.25-0.25,0.25s-0.25-0.11-0.25-0.25
	V7z M10.25,6.5V5h0.5v1.5H10.25z M9.75,1.5v3h-4.5v-3H9.75z M6.75,0.5h1.5c0.32,0,0.6,0.2,0.71,0.5H6.04C6.15,0.7,6.43,0.5,6.75,0.5
	z M4.75,1.5v3h-0.5v-3H4.75z M4.25,7h0.5v0.25c0,0.14-0.11,0.25-0.25,0.25S4.25,7.39,4.25,7.25V7z M4.25,6.5V5h0.5v1.5H4.25z
	 M1.75,3.75v-1.5c0-0.41,0.34-0.75,0.75-0.75h1.25v3H2.5C2.09,4.5,1.75,4.16,1.75,3.75z M1.5,13c-0.41,0-0.75-0.34-0.75-0.75v-2
	c0-0.41,0.34-0.75,0.75-0.75h0.75V13H1.5z M12.25,13.75c0,0.41-0.34,0.75-0.75,0.75h-8c-0.41,0-0.75-0.34-0.75-0.75V5h1v1.5H3.5
	c-0.14,0-0.25,0.11-0.25,0.25S3.36,7,3.5,7h0.25v0.25C3.75,7.66,4.09,8,4.5,8c0.41,0,0.75-0.34,0.75-0.75V7H5.5
	c0.14,0,0.25-0.11,0.25-0.25S5.64,6.5,5.5,6.5H5.25V5h4.5v1.5H9.5c-0.14,0-0.25,0.11-0.25,0.25S9.36,7,9.5,7h0.25v0.25
	C9.75,7.66,10.09,8,10.5,8s0.75-0.34,0.75-0.75V7h0.25c0.14,0,0.25-0.11,0.25-0.25S11.64,6.5,11.5,6.5h-0.25V5h1V13.75z
	 M14.25,12.25c0,0.41-0.34,0.75-0.75,0.75h-0.75V9.5h0.75c0.41,0,0.75,0.34,0.75,0.75V12.25z"/>
</svg>
