<svg width="51" height="51" viewBox="0 0 51 51" fill="none" xmlns="http://www.w3.org/2000/svg">
<path d="M51 25.5C51 39.5834 39.5834 51 25.5 51C11.4166 51 0 39.5834 0 25.5C0 11.4166 11.4166 0 25.5 0C39.5834 0 51 11.4166 51 25.5Z" fill="url(#paint0_linear_14_4504)"/>
<path d="M31.2975 24.6969C33.6399 22.9327 35.1574 20.1297 35.1574 16.9783C35.1574 11.6535 30.8252 7.32129 25.5 7.32129C20.1751 7.32129 15.8429 11.6535 15.8429 16.9783C15.8429 20.1297 17.36 22.9327 19.7024 24.6969C13.4309 27.0509 8.95508 33.1084 8.95508 40.1924H11.9434C11.9434 32.717 18.025 26.6358 25.5004 26.6358C32.9753 26.6358 39.057 32.717 39.057 40.1924H42.0452C42.0448 33.1084 37.5694 27.0509 31.2975 24.6969ZM18.8312 16.9783C18.8312 13.301 21.8226 10.3096 25.5 10.3096C29.1773 10.3096 32.1687 13.301 32.1687 16.9783C32.1687 20.6557 29.1773 23.6475 25.5 23.6475C21.8226 23.6475 18.8312 20.6557 18.8312 16.9783Z" fill="white"/>
<defs>
<linearGradient id="paint0_linear_14_4504" x1="0" y1="25.5" x2="51" y2="25.5" gradientUnits="userSpaceOnUse">
<stop stop-color="#7FF3EC"/>
<stop offset="1" stop-color="#1EAEA5"/>
</linearGradient>
</defs>
</svg>
