<svg width="31" height="17" viewBox="0 0 31 17" fill="none" xmlns="http://www.w3.org/2000/svg">
                                <path d="M29.3864 6.26992L26.8963 5.13283L24.6983 1.62628C24.0631 0.609884 22.945 -0.00630381 21.7444 4.86453e-05H12.3809C11.2947 4.86453e-05 10.2656 0.501892 9.6049 1.36583L6.76536 5.08201L2.03278 6.37791C0.832171 6.70824 0 7.80721 0 9.05229V10.8627C0 12.3937 1.21967 13.6578 2.75061 13.6578H3.15717C3.64631 15.5445 5.5711 16.6752 7.45778 16.1861C8.6965 15.8621 9.66843 14.8965 9.98605 13.6578H20.6582C21.1473 15.5445 23.0721 16.6752 24.9588 16.1861C26.1975 15.8621 27.1694 14.8965 27.487 13.6578H28.2493C29.7803 13.6578 31 12.3937 31 10.8627V8.79819C31.0063 7.71192 30.3711 6.72094 29.3864 6.26992ZM6.56843 15.0172C5.32335 15.0172 4.31331 14.0072 4.31331 12.7621C4.31331 11.517 5.32335 10.507 6.56843 10.507C7.81351 10.507 8.82355 11.517 8.82355 12.7621C8.8299 14.0009 7.81987 15.0109 6.56843 15.0172ZM24.0694 15.0172C22.8244 15.0172 21.8143 14.0072 21.8143 12.7621C21.8143 11.517 22.8244 10.507 24.0694 10.507C25.3145 10.507 26.3245 11.517 26.3245 12.7621C26.3309 14.0009 25.3209 15.0109 24.0694 15.0172ZM28.2493 12.3873H27.576C27.3664 10.4498 25.6194 9.05229 23.6819 9.26828C22.0366 9.44614 20.7407 10.7484 20.5629 12.3873H10.075C9.86535 10.4498 8.11843 9.05229 6.18093 9.26828C4.53565 9.44614 3.23975 10.7484 3.06188 12.3873H2.74426C1.91209 12.3873 1.26414 11.6949 1.26414 10.8627V9.05229C1.25778 8.37258 1.70881 7.7818 2.36311 7.59758L7.31167 6.24451C7.44507 6.20639 7.56577 6.13016 7.64835 6.01582L10.6086 2.13447C11.0342 1.58816 11.6885 1.27054 12.3809 1.27054H21.7444C22.5067 1.26419 23.2246 1.65169 23.6248 2.29964L25.9243 5.97135C25.9879 6.07934 26.0895 6.16193 26.1975 6.21275L28.8528 7.42606C29.3864 7.67381 29.7295 8.20742 29.7231 8.79819V10.8627H29.7295C29.7295 11.6949 29.0815 12.3873 28.2493 12.3873Z"
                                    fill="#4B4B4B" />
                            </svg>