<?xml version="1.0" encoding="utf-8"?>
<!-- Generator: Adobe Illustrator 27.5.0, SVG Export Plug-In . SVG Version: 6.00 Build 0)  -->
<svg version="1.1" id="Capa_1" xmlns="http://www.w3.org/2000/svg" xmlns:xlink="http://www.w3.org/1999/xlink" x="0px" y="0px"
	 viewBox="0 0 173 171" style="enable-background:new 0 0 173 171;" xml:space="preserve">
<g>
	<path d="M86.5,163.26c-2.4,0-4.41-1.54-6.36-3.02c-1.39-1.06-2.82-2.16-4.05-2.33c-1.28-0.18-3,0.48-4.66,1.12
		c-2.26,0.87-4.59,1.76-6.84,1.12c-2.29-0.68-3.77-2.71-5.21-4.68c-1.04-1.42-2.11-2.89-3.26-3.41c-1.17-0.54-3-0.39-4.76-0.25
		c-2.42,0.19-4.92,0.4-6.9-0.88c-1.99-1.28-2.85-3.65-3.68-5.94c-0.6-1.66-1.22-3.37-2.18-4.21c-0.96-0.83-2.74-1.2-4.47-1.56
		c-2.38-0.49-4.85-1-6.39-2.79c-1.55-1.78-1.71-4.3-1.86-6.73c-0.11-1.76-0.22-3.58-0.91-4.65c-0.68-1.06-2.29-1.92-3.84-2.75
		c-2.15-1.15-4.38-2.33-5.37-4.49c-0.97-2.13-0.42-4.56,0.11-6.91c0.2-0.88,0.39-1.71,0.49-2.51c0.13-0.98,0.12-1.71-0.05-2.27
		c-0.35-1.2-1.64-2.47-2.89-3.69c-1.75-1.72-3.55-3.49-3.9-5.86c-0.33-2.31,0.89-4.48,2.07-6.58c0.87-1.56,1.78-3.17,1.78-4.48
		c0-1.32-0.91-2.94-1.78-4.5c-1.17-2.1-2.39-4.27-2.06-6.56c0.28-1.87,1.49-3.36,2.51-4.44c0.45-0.49,0.94-0.97,1.43-1.46
		c1.23-1.21,2.5-2.47,2.85-3.65c0.37-1.24-0.04-3.04-0.43-4.77c-0.54-2.36-1.09-4.8-0.11-6.93c0.99-2.17,3.22-3.35,5.37-4.5
		c1.55-0.82,3.15-1.68,3.83-2.74c0.69-1.07,0.8-2.9,0.91-4.66c0.15-2.43,0.31-4.94,1.86-6.72c1.54-1.78,4-2.29,6.38-2.79
		c1.73-0.36,3.52-0.73,4.48-1.57c0.96-0.83,1.58-2.55,2.18-4.2c0.83-2.29,1.68-4.66,3.67-5.94c1.98-1.27,4.48-1.07,6.9-0.88
		c1.76,0.14,3.59,0.29,4.76-0.24c1.15-0.52,2.22-1.99,3.26-3.41c1.44-1.97,2.93-4.01,5.22-4.67c2.25-0.66,4.58,0.24,6.84,1.11
		c1.66,0.64,3.38,1.3,4.66,1.12c1.23-0.18,2.66-1.27,4.04-2.33c1.95-1.49,3.97-3.03,6.37-3.03c2.41,0,4.43,1.54,6.38,3.04
		c1.38,1.06,2.81,2.15,4.04,2.33c1.28,0.18,3-0.48,4.66-1.12c2.26-0.87,4.59-1.77,6.84-1.11c2.29,0.67,3.79,2.71,5.23,4.69
		c1.03,1.41,2.1,2.87,3.24,3.4c1.16,0.53,2.99,0.38,4.75,0.24c2.42-0.2,4.92-0.4,6.9,0.87c1.99,1.29,2.84,3.65,3.67,5.94
		c0.6,1.66,1.22,3.38,2.18,4.21c0.96,0.84,2.75,1.21,4.49,1.57c2.38,0.49,4.84,1,6.39,2.79c1.55,1.79,1.7,4.29,1.85,6.72
		c0.11,1.76,0.22,3.59,0.91,4.67c0.68,1.06,2.29,1.91,3.84,2.74c2.15,1.14,4.38,2.33,5.37,4.48c0.98,2.14,0.42,4.59-0.12,6.96
		c-0.39,1.73-0.8,3.51-0.44,4.75c0.35,1.19,1.63,2.46,2.87,3.68c0.48,0.48,0.97,0.96,1.42,1.44c1.02,1.08,2.23,2.58,2.49,4.44
		c0.33,2.29-0.88,4.47-2.06,6.57c-0.87,1.56-1.78,3.18-1.78,4.49c0,1.31,0.9,2.92,1.77,4.48c1.18,2.1,2.4,4.28,2.06,6.59
		c-0.33,2.37-2.14,4.14-3.89,5.86c-1.25,1.22-2.54,2.49-2.89,3.69c-0.17,0.59-0.18,1.33-0.05,2.26c0.11,0.81,0.3,1.63,0.49,2.51
		c0.53,2.36,1.09,4.79,0.11,6.92c-0.99,2.16-3.22,3.34-5.37,4.49c-1.56,0.83-3.17,1.68-3.85,2.75c-0.69,1.07-0.8,2.9-0.91,4.66
		c-0.15,2.43-0.31,4.93-1.85,6.72c-1.55,1.79-4.02,2.3-6.4,2.79c-1.73,0.36-3.51,0.73-4.48,1.56c-0.96,0.83-1.58,2.55-2.18,4.21
		c-0.83,2.29-1.68,4.66-3.66,5.94c-1.98,1.28-4.48,1.08-6.9,0.88c-1.77-0.14-3.59-0.29-4.76,0.25c-1.15,0.52-2.22,1.98-3.25,3.4
		c-1.44,1.97-2.94,4.01-5.23,4.69c-2.24,0.65-4.57-0.24-6.83-1.11c-1.66-0.64-3.39-1.3-4.68-1.12c-1.23,0.17-2.66,1.27-4.04,2.33
		C90.92,161.72,88.91,163.26,86.5,163.26z M75.62,154.88c0.3,0,0.59,0.02,0.89,0.06c2.01,0.28,3.76,1.62,5.45,2.92
		c1.55,1.18,3.15,2.41,4.54,2.41c1.39,0,3-1.23,4.55-2.41c1.69-1.29,3.44-2.63,5.45-2.91c2.06-0.29,4.15,0.51,6.17,1.29
		c1.79,0.69,3.64,1.4,4.91,1.03c1.31-0.39,2.5-2.01,3.65-3.58c1.26-1.73,2.57-3.51,4.42-4.35c1.87-0.86,4.1-0.68,6.25-0.51
		c1.92,0.16,3.91,0.31,5.03-0.41c1.14-0.73,1.81-2.61,2.47-4.43c0.73-2.02,1.48-4.12,3.04-5.46c1.55-1.34,3.73-1.79,5.83-2.23
		c1.9-0.39,3.86-0.8,4.74-1.82c0.88-1.01,1-3.01,1.12-4.94c0.13-2.15,0.27-4.37,1.39-6.1c1.11-1.73,3.07-2.77,4.97-3.78
		c1.71-0.91,3.48-1.85,4.05-3.09c0.55-1.21,0.11-3.14-0.31-5.01c-0.2-0.9-0.42-1.84-0.54-2.76c-0.2-1.35-0.15-2.5,0.14-3.51
		c0.57-1.96,2.15-3.5,3.67-5c1.39-1.36,2.83-2.77,3.02-4.14c0.19-1.31-0.78-3.03-1.71-4.7c-1.06-1.89-2.15-3.85-2.15-5.94
		c0-2.1,1.1-4.06,2.16-5.96c0.93-1.67,1.89-3.39,1.71-4.68c-0.11-0.81-0.64-1.68-1.71-2.82c-0.43-0.46-0.88-0.91-1.33-1.35
		c-1.51-1.49-3.08-3.03-3.65-4.97c-0.58-1.98-0.08-4.16,0.39-6.26c0.43-1.88,0.87-3.82,0.32-5.04c-0.57-1.23-2.34-2.17-4.05-3.08
		c-1.89-1-3.85-2.04-4.96-3.76c-1.12-1.74-1.25-3.96-1.39-6.11c-0.12-1.93-0.24-3.92-1.12-4.94c-0.88-1.02-2.84-1.42-4.73-1.81
		c-2.11-0.44-4.29-0.89-5.84-2.24c-1.55-1.34-2.31-3.43-3.04-5.46c-0.66-1.82-1.33-3.7-2.47-4.44c-1.12-0.72-3.11-0.56-5.04-0.41
		c-2.15,0.17-4.37,0.35-6.24-0.51c-1.85-0.85-3.15-2.63-4.42-4.35c-1.15-1.57-2.34-3.2-3.66-3.58c-1.28-0.37-3.13,0.34-4.92,1.03
		c-2.02,0.78-4.1,1.58-6.16,1.29c-2.01-0.29-3.75-1.63-5.44-2.92c-1.55-1.19-3.16-2.42-4.55-2.42c-1.39,0-2.99,1.23-4.55,2.42
		c-1.69,1.29-3.44,2.63-5.44,2.92c-2.07,0.3-4.15-0.51-6.16-1.29c-1.79-0.69-3.64-1.4-4.92-1.03c-1.31,0.38-2.49,2-3.64,3.57
		c-1.27,1.73-2.57,3.52-4.43,4.37c-1.88,0.86-4.1,0.68-6.24,0.51c-1.92-0.16-3.91-0.32-5.03,0.41c-1.14,0.74-1.82,2.62-2.48,4.44
		c-0.73,2.02-1.48,4.11-3.04,5.45c-1.55,1.35-3.73,1.8-5.83,2.24c-1.89,0.39-3.84,0.8-4.72,1.82c-0.89,1.02-1.01,3.02-1.13,4.95
		c-0.13,2.14-0.27,4.36-1.38,6.09c-1.1,1.72-3.06,2.76-4.95,3.76c-1.72,0.91-3.49,1.86-4.05,3.1c-0.55,1.21-0.11,3.15,0.31,5.02
		c0.48,2.11,0.97,4.29,0.39,6.28c-0.57,1.92-2.12,3.45-3.62,4.93c-0.46,0.45-0.92,0.9-1.34,1.37c-1.08,1.15-1.61,2.02-1.73,2.83
		c-0.18,1.28,0.78,3,1.71,4.67c1.06,1.9,2.16,3.86,2.16,5.96c0,2.09-1.1,4.05-2.16,5.95c-0.93,1.67-1.9,3.39-1.72,4.69
		c0.2,1.36,1.64,2.78,3.03,4.14c1.52,1.49,3.09,3.04,3.66,4.98c0.29,0.98,0.34,2.11,0.15,3.52c-0.12,0.93-0.34,1.86-0.54,2.77
		c-0.44,1.95-0.86,3.8-0.31,5c0.56,1.23,2.34,2.18,4.05,3.09c1.89,1.01,3.85,2.05,4.95,3.77c1.11,1.73,1.25,3.94,1.39,6.09
		c0.12,1.93,0.25,3.93,1.13,4.95c0.88,1.02,2.84,1.43,4.73,1.82c2.1,0.44,4.28,0.89,5.83,2.23c1.55,1.35,2.31,3.44,3.03,5.45
		c0.66,1.82,1.34,3.71,2.48,4.44c1.13,0.73,3.11,0.57,5.03,0.42c2.15-0.17,4.37-0.35,6.25,0.51c1.86,0.84,3.17,2.63,4.44,4.36
		c1.15,1.56,2.33,3.18,3.64,3.57c1.27,0.37,3.12-0.35,4.92-1.04C72.08,155.56,73.85,154.88,75.62,154.88z"/>
</g>
<g>
	<path d="M86.5,149.86c-26.33,0-49.75-15.77-59.65-40.19c-3.13-7.71-4.71-15.84-4.71-24.18c0-5.18,0.63-10.37,1.87-15.42
		C31.1,41.26,56.8,21.14,86.5,21.14c29.7,0,55.4,20.13,62.49,48.94l0,0c1.24,5.05,1.87,10.24,1.87,15.42
		c0,8.33-1.58,16.47-4.71,24.18C136.25,134.09,112.83,149.86,86.5,149.86z M86.5,24.14c-28.32,0-52.82,19.19-59.58,46.66
		c-1.19,4.82-1.79,9.77-1.79,14.71c0,7.95,1.51,15.7,4.49,23.05c9.44,23.28,31.77,38.32,56.87,38.32s47.43-15.04,56.87-38.32
		c2.98-7.35,4.49-15.1,4.49-23.05c0-4.94-0.6-9.89-1.79-14.71l0,0C139.32,43.32,114.82,24.14,86.5,24.14z"/>
</g>
<g>
	<path d="M63.67,77.22c-1.94-1.12-3.48-2.63-4.63-4.54c-1.15-1.91-1.72-4.01-1.72-6.3s0.57-4.39,1.72-6.3
		c1.15-1.91,2.69-3.42,4.63-4.54c1.94-1.12,4.05-1.67,6.35-1.67s4.41,0.56,6.35,1.67c1.94,1.12,3.47,2.63,4.58,4.54
		c1.12,1.91,1.67,4.01,1.67,6.3s-0.56,4.39-1.67,6.3c-1.12,1.91-2.64,3.42-4.58,4.54c-1.94,1.12-4.05,1.67-6.35,1.67
		S65.61,78.33,63.67,77.22z M75.97,72.37c1.62-1.64,2.42-3.64,2.42-5.99c0-2.35-0.81-4.35-2.42-5.99c-1.62-1.64-3.6-2.47-5.95-2.47
		c-2.35,0-4.35,0.81-5.99,2.42c-1.65,1.62-2.47,3.63-2.47,6.04c0,2.35,0.82,4.35,2.47,5.99c1.64,1.65,3.64,2.47,5.99,2.47
		C72.37,74.84,74.35,74.01,75.97,72.37z M67.29,116.04c-0.12-0.21-0.09-0.45,0.09-0.75l33.4-60.02c0.29-0.41,0.65-0.62,1.06-0.62
		h2.82c0.35,0,0.59,0.1,0.7,0.31c0.12,0.21,0.09,0.46-0.09,0.75l-33.32,60.02c-0.18,0.41-0.53,0.62-1.06,0.62h-2.91
		C67.64,116.35,67.4,116.25,67.29,116.04z M96.81,115.47c-1.94-1.12-3.48-2.64-4.63-4.58c-1.15-1.94-1.72-4.05-1.72-6.35
		c0-2.23,0.57-4.3,1.72-6.21c1.15-1.91,2.69-3.42,4.63-4.54c1.94-1.12,4.05-1.67,6.35-1.67c2.23,0,4.32,0.56,6.26,1.67
		c1.94,1.12,3.47,2.63,4.58,4.54c1.12,1.91,1.67,3.98,1.67,6.21c0,2.29-0.56,4.41-1.67,6.35c-1.12,1.94-2.63,3.47-4.54,4.58
		c-1.91,1.12-4.01,1.67-6.3,1.67C100.87,117.14,98.75,116.58,96.81,115.47z M109.11,110.62c1.62-1.64,2.42-3.67,2.42-6.08
		c0-2.35-0.82-4.33-2.47-5.95c-1.65-1.62-3.61-2.42-5.9-2.42c-2.41,0-4.44,0.81-6.08,2.42c-1.65,1.62-2.47,3.6-2.47,5.95
		c0,2.41,0.82,4.44,2.47,6.08c1.64,1.65,3.67,2.47,6.08,2.47C105.51,113.09,107.49,112.26,109.11,110.62z"/>
</g>
</svg>
