<svg width="23" height="19" viewBox="0 0 23 19" fill="none" xmlns="http://www.w3.org/2000/svg">
                                <path d="M18.9625 2.7749H3.23752C1.45224 2.7749 0 4.22714 0 6.01238V15.2624C0 17.0476 1.45224 18.4999 3.23752 18.4999H18.9625C20.7478 18.4999 22.2001 17.0477 22.2001 15.2624V6.01238C22.2 4.22714 20.7478 2.7749 18.9625 2.7749ZM21.275 15.2624C21.275 16.538 20.2381 17.5749 18.9625 17.5749H3.23752C1.96193 17.5749 0.92503 16.538 0.92503 15.2624V6.01238C0.92503 4.73679 1.96197 3.69989 3.23752 3.69989H18.9625C20.2381 3.69989 21.275 4.73683 21.275 6.01238V15.2624Z"
                                    fill="#4B4B4B" />
                                <path d="M13.4124 0H8.7874C8.02241 0 7.3999 0.622511 7.3999 1.3875V3.23751C7.3999 3.49281 7.60712 3.70003 7.86242 3.70003H14.3374C14.5927 3.70003 14.7999 3.49281 14.7999 3.23751V1.3875C14.7999 0.622511 14.1774 0 13.4124 0ZM13.8749 2.775H8.32489V1.3875C8.32489 1.13311 8.53301 0.924986 8.7874 0.924986H13.4124C13.6668 0.924986 13.8749 1.13311 13.8749 1.3875V2.775Z"
                                    fill="#4B4B4B" />
                                <path d="M6.01224 2.7749H4.16222C3.90692 2.7749 3.69971 2.98212 3.69971 3.23742V18.0374C3.69971 18.2927 3.90692 18.4999 4.16222 18.4999H6.01224C6.26754 18.4999 6.47475 18.2927 6.47475 18.0374V3.23737C6.47471 2.98207 6.26754 2.7749 6.01224 2.7749ZM5.54972 17.5749H4.62474V3.69989H5.54972V17.5749Z"
                                    fill="#4B4B4B" />
                                <path d="M18.0379 2.7749H16.1879C15.9326 2.7749 15.7253 2.98212 15.7253 3.23742V18.0374C15.7253 18.2927 15.9326 18.4999 16.1879 18.4999H18.0379C18.2932 18.4999 18.5004 18.2927 18.5004 18.0374V3.23737C18.5004 2.98207 18.2932 2.7749 18.0379 2.7749ZM17.5754 17.5749H16.6504V3.69989H17.5754V17.5749Z"
                                    fill="#4B4B4B" />
                            </svg>