<svg width="26" height="21" viewBox="0 0 26 21" fill="none" xmlns="http://www.w3.org/2000/svg">
                                <path d="M3.7507 14.5228C3.54073 14.6614 3.48016 14.9422 3.61386 15.1551L4.96639 17.2151C5.03305 17.3178 5.13786 17.39 5.25753 17.4157C5.3099 17.4265 5.364 17.4281 5.41702 17.4204C5.48346 17.4113 5.54688 17.3875 5.60321 17.3513L12.8521 12.5813L13.2236 20.0519C13.2312 20.1989 13.3079 20.3333 13.4305 20.4144C13.8128 20.6469 14.2614 20.7456 14.7058 20.6954C14.8277 20.6775 14.9467 20.6444 15.0605 20.5971C15.668 20.34 16.0755 19.7057 16.2692 18.6958L18.0066 9.18315L23.6569 5.46918C25.32 4.37573 25.9931 2.55278 25.183 1.32498C24.7318 0.687296 23.992 0.31674 23.2111 0.336968C22.3396 0.33282 21.4878 0.594243 20.7687 1.08655L14.2507 5.38963L6.29779 3.54589C5.29825 3.32743 4.54922 3.4462 4.07848 3.90298C3.68986 4.32975 3.51818 4.91102 3.61234 5.48054C3.63809 5.62475 3.73061 5.74809 3.86194 5.81351L9.43641 8.55601L6.73579 10.3526L1.69053 9.82744C1.48403 9.80755 1.28964 9.92771 1.21473 10.1213L0.321002 12.4812C0.274981 12.606 0.285145 12.7447 0.348904 12.8616C0.412397 12.9786 0.523284 13.0624 0.653294 13.0917L4.47204 14.0531L3.7507 14.5228ZM4.5169 5.11482C4.51558 4.91742 4.58773 4.72699 4.71943 4.58042C4.95297 4.35457 5.43292 4.31257 6.10367 4.45757L13.185 6.09211L10.3365 7.96641L4.5169 5.11482ZM1.36364 12.3243L1.95333 10.794L6.80457 11.2725C6.90918 11.2832 7.01426 11.2581 7.10283 11.2011L21.2808 1.87167C21.8421 1.48494 22.5075 1.27681 23.1893 1.27499C23.664 1.24973 24.1206 1.45907 24.4116 1.83489C24.916 2.60268 24.3368 3.91645 23.1468 4.69783L18.236 7.93919L18.4181 6.94483C18.4634 6.68923 18.2927 6.44515 18.0371 6.39993C17.7812 6.35475 17.5373 6.52548 17.4921 6.78105L15.3627 18.5382C15.2313 19.2073 15.0077 19.628 14.7085 19.7555C14.5212 19.8208 14.3162 19.8121 14.1349 19.732L13.6465 9.98802C13.6335 9.73187 13.4155 9.53465 13.159 9.54766C12.9028 9.56035 12.7057 9.77869 12.7185 10.0349L12.7913 11.5245L5.47299 16.3325L4.62757 15.0538L5.82958 14.2614C5.98497 14.1639 6.06804 13.9841 6.04156 13.8028C6.01506 13.6213 5.88402 13.4727 5.70725 13.4239L1.36364 12.3243Z"
                                    fill="#4B4B4B" />
                            </svg>