<svg width="60" height="21" viewBox="0 0 60 21" fill="none" xmlns="http://www.w3.org/2000/svg">
                                <path d="M58.2484 18.2081H50.6357L50.2073 17.137H58.2484C58.4456 17.137 58.6054 16.9772 58.6054 16.78V16.066C58.604 15.6108 58.3144 15.2064 57.8839 15.0585C57.7245 10.1904 53.8329 6.27158 48.966 6.07844V5.35548H49.68C50.2715 5.35548 50.751 4.87596 50.751 4.28443C50.751 3.6929 50.2715 3.21338 49.68 3.21338H47.5379C46.9464 3.21338 46.4668 3.6929 46.4668 4.28443C46.4668 4.87596 46.9464 5.35548 47.5379 5.35548H48.2519V6.07844C43.385 6.27158 39.4934 10.1904 39.334 15.0585C38.9035 15.2064 38.6139 15.6108 38.6125 16.066V16.78C38.6125 16.9772 38.7723 17.137 38.9695 17.137H47.0106L46.5822 18.2081H38.9695C38.378 18.2081 37.8984 18.6876 37.8984 19.2791V19.9932C37.8984 20.1903 38.0583 20.3502 38.2555 20.3502H58.9624C59.1596 20.3502 59.3194 20.1903 59.3194 19.9932V19.2791C59.3194 18.6876 58.8399 18.2081 58.2484 18.2081ZM47.5379 4.64145C47.3407 4.64145 47.1809 4.48159 47.1809 4.28443C47.1809 4.08727 47.3407 3.92741 47.5379 3.92741H49.68C49.8772 3.92741 50.037 4.08727 50.037 4.28443C50.037 4.48159 49.8772 4.64145 49.68 4.64145H47.5379ZM48.6089 6.78355C53.2 6.78908 56.973 10.4081 57.1698 14.9949H40.048C40.2448 10.4081 44.0178 6.78908 48.6089 6.78355ZM39.3265 16.423V16.066C39.3265 15.8688 39.4864 15.709 39.6835 15.709H57.5344C57.7315 15.709 57.8914 15.8688 57.8914 16.066V16.423H39.3265ZM49.8667 18.2081H47.3512L47.7796 17.137H49.4383L49.8667 18.2081ZM58.6054 19.6361H38.6125V19.2791C38.6125 19.082 38.7723 18.9221 38.9695 18.9221H58.2484C58.4456 18.9221 58.6054 19.082 58.6054 19.2791V19.6361Z"
                                    fill="#4B4B4B" />
                                <path d="M48.9662 0H48.2522V2.1421H48.9662V0Z" fill="#4B4B4B" />
                                <path d="M45.7524 3.92725H43.6104V4.64128H45.7524V3.92725Z" fill="#4B4B4B" />
                                <path d="M45.2048 0.733389L44.7 1.23828L46.2146 2.75296L46.7195 2.24807L45.2048 0.733389Z" fill="#4B4B4B" />
                                <path d="M52.0135 0.731903L50.4988 2.24658L51.0037 2.75147L52.5183 1.2368L52.0135 0.731903Z" fill="#4B4B4B" />
                                <path d="M53.6072 3.92725H51.4651V4.64128H53.6072V3.92725Z" fill="#4B4B4B" />
                                <path d="M0.799672 11.6653L4.67424 15.1889C5.54679 15.9824 6.63364 16.4767 7.77218 16.6352C8.59637 16.7501 9.44767 16.689 10.2639 16.438L14.7578 15.054C15.0674 14.9586 15.2411 14.6302 15.1457 14.3207C15.0504 14.0111 14.7221 13.8374 14.4124 13.9327L9.91884 15.3167C8.36955 15.7928 6.66249 15.4113 5.46353 14.3209L2.25892 11.4066L3.98925 10.6509L7.90214 12.5832C8.03707 12.65 8.19251 12.6621 8.33628 12.6174L13.5453 10.9958C13.7394 10.9353 13.8883 10.7788 13.939 10.5819C13.9897 10.3851 13.9349 10.1761 13.7941 10.0294L8.99249 5.02751L11.2394 4.2494L20.514 8.67073C20.6472 8.73424 20.7994 8.74514 20.9403 8.70152L27.8566 6.55566C28.6319 6.35107 29.4721 6.80971 29.7328 7.58179C29.8661 7.97659 29.8348 8.39823 29.6448 8.76908C29.4548 9.13993 29.1309 9.41156 28.7324 9.53409L19.4445 12.3929C19.1349 12.4882 18.9611 12.8165 19.0564 13.1261C19.1517 13.4358 19.48 13.6097 19.7897 13.5143L29.0774 10.6555C29.781 10.4392 30.3534 9.9593 30.689 9.30412C31.0248 8.64895 31.0799 7.90399 30.8444 7.20655C30.388 5.8547 28.9056 5.05586 27.5404 5.42585C27.5335 5.42768 27.5267 5.42969 27.5199 5.43177L20.8118 7.51304L11.5271 3.08681C11.3881 3.02054 11.2284 3.01155 11.0827 3.06203L7.74294 4.21864C7.554 4.28407 7.41138 4.4413 7.36457 4.63569C7.31776 4.83008 7.37321 5.03498 7.51173 5.17926L12.2908 10.1576L8.21148 11.4274L4.26424 9.47812C4.10911 9.4016 3.92823 9.39731 3.76968 9.46649L0.959561 10.6937C0.777299 10.7733 0.647773 10.9398 0.615466 11.136C0.583201 11.3323 0.652586 11.5315 0.799672 11.6653Z"
                                    fill="#4B4B4B" />
                            </svg>