<svg width="18" height="18" viewBox="0 0 18 18" fill="none" xmlns="http://www.w3.org/2000/svg">
<g clip-path="url(#clip0_319_10563)">
<path d="M3.66802 11.9652C5.44341 14.0874 7.58058 15.7584 10.0199 16.9407C10.9486 17.3809 12.1906 17.903 13.5744 17.9925C13.6601 17.9963 13.7422 18 13.828 18C14.7567 18 15.5027 17.6792 16.1106 17.0191C16.1144 17.0153 16.1218 17.0079 16.1255 17.0004C16.3419 16.7393 16.588 16.5044 16.8454 16.2545C17.0207 16.0866 17.1997 15.9113 17.3713 15.7323C18.1657 14.9043 18.1657 13.8525 17.3638 13.0506L15.1222 10.809C14.7418 10.4136 14.2868 10.2047 13.8093 10.2047C13.3319 10.2047 12.8732 10.4136 12.4815 10.8052L11.1463 12.1405C11.0232 12.0696 10.8964 12.0062 10.777 11.9465C10.6278 11.8719 10.4898 11.8011 10.3667 11.7228C9.15082 10.9507 8.0468 9.94364 6.99127 8.6494C6.45791 7.97431 6.09985 7.40738 5.84995 6.82926C6.20055 6.51223 6.52878 6.18027 6.84581 5.85578C6.9577 5.74016 7.07333 5.62453 7.18895 5.50891C7.59177 5.10609 7.8081 4.63987 7.8081 4.16618C7.8081 3.6925 7.5955 3.22627 7.18895 2.82346L6.07747 1.71198C5.94693 1.58143 5.82385 1.45462 5.69703 1.32408C5.45087 1.07045 5.19351 0.809366 4.93988 0.574389C4.55571 0.197679 4.10441 0 3.627 0C3.15331 0 2.69828 0.197679 2.29919 0.578119L0.904244 1.97306C0.396992 2.48031 0.109797 3.09573 0.0501205 3.80812C-0.0207456 4.69954 0.143365 5.64691 0.568562 6.79196C1.22128 8.56361 2.20594 10.2085 3.66802 11.9652ZM0.960191 3.88645C1.00495 3.39039 1.19517 2.97638 1.55323 2.61832L2.94071 1.23083C3.15704 1.02196 3.39575 0.9138 3.627 0.9138C3.85451 0.9138 4.08576 1.02196 4.29836 1.23829C4.54825 1.46954 4.78323 1.71198 5.03686 1.96933C5.16367 2.09988 5.29421 2.23042 5.42476 2.36469L6.53624 3.47617C6.76748 3.70742 6.88684 3.9424 6.88684 4.17364C6.88684 4.40489 6.76748 4.63987 6.53624 4.87111C6.42061 4.98674 6.30499 5.10609 6.18937 5.22172C5.84249 5.57232 5.518 5.90427 5.15994 6.2213C5.15248 6.22876 5.14875 6.23249 5.14129 6.23995C4.83172 6.54952 4.88021 6.84418 4.9548 7.06797C4.95853 7.07915 4.96226 7.08661 4.96599 7.0978C5.25319 7.78782 5.65227 8.44426 6.27515 9.22752C7.39409 10.6075 8.57271 11.678 9.87067 12.5023C10.0311 12.6067 10.2026 12.6888 10.363 12.7708C10.5122 12.8454 10.6502 12.9163 10.7733 12.9946C10.7882 13.0021 10.7994 13.0095 10.8143 13.017C10.9374 13.0804 11.0567 13.1102 11.1761 13.1102C11.4745 13.1102 11.6684 12.92 11.7318 12.8566L13.1268 11.4617C13.3431 11.2453 13.5781 11.1297 13.8093 11.1297C14.0928 11.1297 14.3241 11.305 14.4695 11.4617L16.7186 13.707C17.1662 14.1546 17.1624 14.6395 16.7074 15.1131C16.5507 15.281 16.3866 15.4414 16.2113 15.6092C15.9502 15.8628 15.678 16.1239 15.4318 16.4186C15.0029 16.8811 14.4919 17.0974 13.8317 17.0974C13.7683 17.0974 13.7012 17.0937 13.6378 17.0899C12.4144 17.0116 11.2768 16.5342 10.4227 16.1276C8.10275 15.005 6.06628 13.4123 4.37668 11.3908C2.98547 9.71612 2.04929 8.15707 1.43015 6.48612C1.04598 5.46042 0.900514 4.63614 0.960191 3.88645Z" fill="#009AED"/>
</g>
<defs>
<clipPath id="clip0_319_10563">
<rect width="18" height="18" fill="white"/>
</clipPath>
</defs>
</svg>
