<svg width="21" height="21" viewBox="0 0 21 21" fill="none" xmlns="http://www.w3.org/2000/svg">
<path d="M19.0133 17.027H1.9863C1.61012 17.0265 1.24947 16.8769 0.983472 16.6109C0.717471 16.3449 0.567833 15.9842 0.567383 15.608V5.39182C0.567833 5.01564 0.717471 4.65499 0.983472 4.38899C1.24947 4.12299 1.61012 3.97335 1.9863 3.9729H19.0133C19.3895 3.97335 19.7502 4.12299 20.0162 4.38899C20.2822 4.65499 20.4318 5.01564 20.4322 5.39182V15.608C20.4318 15.9842 20.2822 16.3449 20.0162 16.6109C19.7502 16.8769 19.3895 17.0265 19.0133 17.027ZM1.9863 4.54047C1.76051 4.54047 1.54396 4.63016 1.38431 4.78982C1.22465 4.94948 1.13495 5.16603 1.13495 5.39182V15.608C1.13495 15.8338 1.22465 16.0504 1.38431 16.21C1.54396 16.3697 1.76051 16.4594 1.9863 16.4594H19.0133C19.2391 16.4594 19.4557 16.3697 19.6153 16.21C19.775 16.0504 19.8647 15.8338 19.8647 15.608V5.39182C19.8647 5.16603 19.775 4.94948 19.6153 4.78982C19.4557 4.63016 19.2391 4.54047 19.0133 4.54047H1.9863Z" fill="#009AED"/>
<path d="M10.5 13.3377C10.4321 13.3377 10.3665 13.3133 10.315 13.269L0.796875 5.08187L1.16579 4.65137L10.5 12.6796L19.8331 4.65137L20.202 5.08187L10.6839 13.269C10.6327 13.3131 10.5675 13.3374 10.5 13.3377Z" fill="#009AED"/>
<path d="M13.7236 10.2844L14.1419 9.90075L19.9736 16.2587L19.5553 16.6423L13.7236 10.2844Z" fill="#009AED"/>
<path d="M0.974609 16.22L6.79651 9.86331L7.21481 10.2464L1.39291 16.6031L0.974609 16.22Z" fill="#009AED"/>
</svg>
