<svg width="230" height="48" viewBox="0 0 230 48" fill="none" xmlns="http://www.w3.org/2000/svg">
<g id="Logo_nmviajes">
<g id="Vector">
<path id="Vector_2" d="M34.1377 19.5438V37.7354H26.9498V21.2134C26.9498 18.295 25.9586 16.8857 23.4591 16.8857C21.3769 16.8857 19.0308 17.8775 16.7917 19.5972V37.7354H9.50027V11.6769H16.2176V14.4383C19.1342 12.2477 22.311 10.999 25.5948 10.999C30.9075 10.9955 34.1377 13.9674 34.1377 19.5438Z" fill="#B50A27"/>
<path id="Vector_3" d="M82.0686 19.5438V37.7354H74.827V21.1099C74.827 18.3985 74.0462 16.8893 71.4399 16.8893C69.1472 16.8893 67.0116 17.7741 64.8259 19.7042V37.739H57.5845V21.1135C57.5845 18.4021 56.7502 16.8929 54.1473 16.8929C51.9616 16.8929 49.8259 17.8847 47.5334 19.8648V37.7426H40.2954V11.6769H47.0163V14.9592C49.9329 12.5082 53.1633 10.999 56.6003 10.999C60.0375 10.999 62.5369 12.3012 63.8419 14.8058C66.7084 12.4618 70.0386 10.999 73.5827 10.999C78.6849 10.9955 82.0686 13.9175 82.0686 19.5438Z" fill="#B50A27"/>
<path id="Vector_4" d="M111.982 11.6738L102.869 35.4419C102.138 37.422 100.993 38.0463 98.3372 38.0463C95.6274 38.0463 94.4829 37.3685 93.7021 35.4419L84.5352 11.6738H91.88L98.3907 31.5852L105.005 11.6738H111.982Z" fill="#CFD1D3"/>
<path id="Vector_5" d="M116.283 4.27411C116.283 1.66968 117.898 0 120.451 0C123.004 0 124.669 1.66968 124.669 4.27411C124.669 6.87853 123.004 8.54823 120.451 8.54823C117.894 8.54823 116.283 6.87853 116.283 4.27411ZM116.907 11.6735H123.938V37.7321H116.907V11.6735Z" fill="#CFD1D3"/>
<path id="Vector_6" d="M152.512 21.8377V37.7354H146.26V34.346C144.439 36.797 141.626 38.3597 137.821 38.3597C132.455 38.3597 128.861 35.1809 128.861 30.2824C128.861 23.8713 134.955 21.6807 141.572 21.6807C143.084 21.6807 144.592 21.7843 146 21.9948V21.6308C146 18.2415 143.708 16.6289 140.478 16.6289C138.028 16.6289 135.269 17.5136 132.562 19.6008L129.542 15.1697C132.356 12.5117 136.677 10.999 141.002 10.999C147.876 10.999 152.512 14.8521 152.512 21.8377ZM146 26.1653C144.646 26.0618 143.344 26.0083 142.093 26.0083C138.706 26.0083 135.896 26.9966 135.896 29.8115C135.896 31.7417 137.301 33.0938 139.544 33.0938C143.397 33.0974 145.74 30.1755 146 26.1653Z" fill="#CFD1D3"/>
<path id="Vector_7" d="M152.59 46.8547L153.63 40.8609C154.465 41.1749 155.404 41.3818 156.288 41.3818C158.266 41.3818 159.204 40.3401 159.204 38.0996V11.6735H166.339V38.3065C166.339 44.5107 163.472 48 157.482 48C155.609 48.0034 153.998 47.4826 152.59 46.8547ZM158.531 4.27411C158.531 1.66969 160.195 0 162.802 0C165.457 0 167.126 1.66969 167.126 4.27411C167.126 6.87853 165.461 8.54823 162.802 8.54823C160.195 8.54823 158.531 6.87853 158.531 4.27411Z" fill="#CFD1D3"/>
<path id="Vector_8" d="M192.676 29.9151L195.539 34.503C192.309 37.0576 188.194 38.3597 184.34 38.3597C176.215 38.3597 171.265 32.68 171.265 25.0701C171.265 17.5636 176.162 10.999 184.862 10.999C190.64 10.999 195.799 14.1779 195.799 20.0681C195.799 24.0284 193.507 27.5211 187.621 27.5211H177.933C178.61 30.6998 180.8 32.68 184.807 32.68C187.364 32.68 190.334 31.6382 192.676 29.9151ZM177.78 22.7225H186.116C188.251 22.7225 189.397 21.5237 189.397 19.8576C189.397 17.9811 187.625 16.3649 184.811 16.3649C181.53 16.3649 178.507 18.5555 177.78 22.7225Z" fill="#CFD1D3"/>
<path id="Vector_9" d="M198.264 34.3463L201.077 29.8617C203.836 32.1022 206.753 32.9372 208.838 32.9372C211.028 32.9372 212.9 32.0523 212.9 30.3827C212.9 28.2992 210.087 27.7247 207.273 26.7864C203.106 25.3771 199.721 23.554 199.721 19.1765C199.721 13.9142 204.254 10.9922 210.244 10.9922C213.941 10.9922 217.536 12.1909 220.038 14.0141L217.329 18.4451C214.933 16.9859 212.59 16.2546 210.557 16.2546C208.214 16.2546 206.757 17.2463 206.757 18.5985C206.757 20.3717 208.946 20.996 211.341 21.7774C215.614 23.1831 220.302 24.6957 220.302 29.9617C220.302 35.4345 215.043 38.303 209.157 38.303C205.034 38.3101 200.973 36.9544 198.264 34.3463Z" fill="#CFD1D3"/>
</g>
</g>
</svg>
