<svg width="30" height="30" viewBox="0 0 30 30" fill="none" xmlns="http://www.w3.org/2000/svg">
<circle cx="15" cy="15" r="15" fill="white"/>
<path d="M15.369 13.8998C16.717 13.8998 17.8841 13.4164 18.838 12.4625C19.7915 11.5088 20.2751 10.3418 20.2751 8.9937C20.2751 7.64603 19.7917 6.47894 18.8378 5.52492C17.8839 4.57135 16.7168 4.08789 15.369 4.08789C14.0209 4.08789 12.8539 4.57135 11.9002 5.52507C10.9465 6.47879 10.4629 7.64588 10.4629 8.9937C10.4629 10.3418 10.9465 11.5089 11.9002 12.4626C12.8543 13.4162 14.0213 13.8998 15.369 13.8998ZM12.7444 6.36907C13.4762 5.63727 14.3346 5.28155 15.369 5.28155C16.4032 5.28155 17.2618 5.63727 17.9938 6.36907C18.7256 7.10103 19.0815 7.95964 19.0815 8.9937C19.0815 10.0281 18.7256 10.8865 17.9938 11.6185C17.2618 12.3504 16.4032 12.7062 15.369 12.7062C14.335 12.7062 13.4765 12.3503 12.7444 11.6185C12.0124 10.8867 11.6566 10.0281 11.6566 8.9937C11.6566 7.95964 12.0124 7.10103 12.7444 6.36907Z" fill="#B50A27"/>
<path d="M23.9529 19.7508C23.9254 19.3539 23.8698 18.9209 23.7879 18.4637C23.7052 18.0031 23.5988 17.5677 23.4713 17.1697C23.3396 16.7583 23.1607 16.3521 22.9392 15.9628C22.7097 15.5587 22.4399 15.2069 22.1372 14.9174C21.8206 14.6145 21.4331 14.371 20.9849 14.1934C20.5382 14.0167 20.0433 13.9272 19.5138 13.9272C19.3059 13.9272 19.1048 14.0125 18.7164 14.2653C18.4774 14.4212 18.1978 14.6015 17.8858 14.8008C17.619 14.9709 17.2575 15.1301 16.811 15.2744C16.3754 15.4153 15.9331 15.4868 15.4964 15.4868C15.0601 15.4868 14.6178 15.4153 14.1819 15.2744C13.7359 15.1303 13.3742 14.971 13.1079 14.801C12.7988 14.6035 12.519 14.4232 12.2765 14.2652C11.8884 14.0123 11.6873 13.927 11.4794 13.927C10.9498 13.927 10.455 14.0167 10.0085 14.1935C9.5606 14.3708 9.17287 14.6144 8.856 14.9176C8.55327 15.2072 8.28349 15.5589 8.05411 15.9628C7.83297 16.3521 7.65394 16.7582 7.52216 17.1698C7.39488 17.5678 7.28843 18.0031 7.20576 18.4637C7.1237 18.9203 7.06822 19.3534 7.04072 19.7513C7.01368 20.1402 7 20.5451 7 20.9541C7 22.0174 7.33801 22.8781 8.00454 23.513C8.66283 24.1394 9.53372 24.4571 10.5931 24.4571H20.401C21.4601 24.4571 22.331 24.1394 22.9894 23.513C23.6561 22.8786 23.9941 22.0175 23.9941 20.9539C23.994 20.5435 23.9801 20.1387 23.9529 19.7508ZM22.1664 22.6481C21.7314 23.0621 21.154 23.2634 20.4009 23.2634H10.5931C9.83987 23.2634 9.26238 23.0621 8.82756 22.6483C8.40097 22.2422 8.19366 21.6879 8.19366 20.9541C8.19366 20.5724 8.20625 20.1956 8.23143 19.8338C8.25598 19.4788 8.30618 19.0889 8.38062 18.6746C8.45412 18.2654 8.54768 17.8814 8.65895 17.5338C8.76571 17.2004 8.91132 16.8704 9.0919 16.5524C9.26425 16.2494 9.46254 15.9894 9.68135 15.7799C9.88602 15.5839 10.144 15.4235 10.448 15.3033C10.7291 15.192 11.045 15.1311 11.388 15.1219C11.4298 15.1441 11.5043 15.1866 11.6248 15.2652C11.8702 15.4251 12.1531 15.6075 12.4657 15.8072C12.8182 16.032 13.2723 16.2349 13.8148 16.4101C14.3694 16.5894 14.9351 16.6805 15.4966 16.6805C16.0581 16.6805 16.6239 16.5894 17.1782 16.4102C17.7212 16.2348 18.1752 16.032 18.5281 15.8069C18.8481 15.6024 19.123 15.4253 19.3684 15.2652C19.4889 15.1867 19.5634 15.1441 19.6052 15.1219C19.9483 15.1311 20.2643 15.192 20.5455 15.3033C20.8494 15.4235 21.1073 15.5841 21.312 15.7799C21.5308 15.9892 21.7291 16.2492 21.9015 16.5526C22.0822 16.8704 22.228 17.2006 22.3346 17.5336C22.446 17.8817 22.5397 18.2656 22.613 18.6745C22.6873 19.0895 22.7377 19.4796 22.7622 19.8339V19.8342C22.7876 20.1946 22.8003 20.5713 22.8005 20.9541C22.8003 21.6881 22.593 22.2422 22.1664 22.6481Z" fill="#B50A27"/>
</svg>
