<svg width="129" height="103" viewBox="0 0 129 103" fill="none" xmlns="http://www.w3.org/2000/svg">
<path d="M64.5425 17C46.0956 17 31.0787 32.0026 31.072 50.4477C31.0686 56.3437 32.6131 62.0996 35.5413 67.1715L31 84L48.5303 79.8583C53.4184 82.5249 58.9212 83.9247 64.5229 83.928H64.536C82.9795 83.928 97.9899 68.9221 98 50.4804C98.0067 41.5392 94.5295 33.1327 88.2108 26.8079C81.892 20.4865 73.4946 17.0034 64.5425 17ZM64.536 23.7C71.6923 23.7033 78.4175 26.4932 83.4732 31.545C88.5288 36.6035 91.306 43.3249 91.2993 50.4738C91.2926 65.2272 79.291 77.228 64.5294 77.228C60.0635 77.2247 55.6397 76.1034 51.7432 73.9762L49.4857 72.7461L46.9926 73.335L40.3966 74.8922L42.0063 68.9119L42.7327 66.2293L41.3454 63.8215C39.0069 59.7747 37.7693 55.1477 37.7726 50.4477C37.7793 35.701 49.7845 23.7 64.536 23.7ZM52.6986 35.0062C52.1391 35.0062 51.2345 35.2156 50.4672 36.0531C49.7 36.8873 47.5357 38.9076 47.5357 43.0214C47.5357 47.1352 50.5327 51.1117 50.9515 51.6712C51.3669 52.2273 56.7364 60.936 65.2361 64.286C72.2986 67.0699 73.733 66.5205 75.2675 66.3798C76.8019 66.2424 80.2178 64.3613 80.9146 62.4082C81.6115 60.4552 81.6131 58.7751 81.4054 58.4301C81.1977 58.0817 80.6398 57.8739 79.8022 57.4552C78.968 57.0364 74.8569 55.0179 74.0896 54.7398C73.3224 54.4618 72.7612 54.3211 72.2051 55.1586C71.6489 55.9961 70.0506 57.874 69.5615 58.4301C69.0723 58.9895 68.5865 59.0647 67.7489 58.646C66.9113 58.2239 64.2183 57.3387 61.0221 54.4912C58.5361 52.2769 56.8587 49.5447 56.3696 48.7072C55.8838 47.8731 56.3238 47.4149 56.7425 46.9995C57.1178 46.6243 57.5736 46.023 57.9924 45.5339C58.4078 45.0448 58.5519 44.6963 58.83 44.1402C59.108 43.5841 58.9657 43.0934 58.758 42.6746C58.5503 42.2559 56.9236 38.1268 56.1798 36.4719C55.5533 35.0816 54.8916 35.0493 54.2952 35.0259C53.8094 35.0058 53.2548 35.0062 52.6986 35.0062Z" fill="white"/>
</svg>
