<svg width="33" height="32" viewBox="0 0 33 32" fill="none" xmlns="http://www.w3.org/2000/svg">
<mask id="path-1-inside-1_1333_490" fill="white">
<path fill-rule="evenodd" clip-rule="evenodd" d="M13.396 4.33333H18.8894C21.344 4.33333 23.2894 4.33333 24.8094 4.53733C26.376 4.748 27.6427 5.19067 28.6427 6.188C30.128 7.67067 30.4027 9.77067 30.476 12.6333C30.5 13.6147 29.724 14.2173 29.0747 14.388C28.7179 14.4811 28.402 14.6899 28.1766 14.9817C27.9512 15.2736 27.8289 15.6319 27.8289 16.0007C27.8289 16.3694 27.9512 16.7278 28.1766 17.0196C28.402 17.3114 28.7179 17.5202 29.0747 17.6133C29.724 17.7827 30.5014 18.3853 30.4747 19.3667C30.4027 22.2293 30.128 24.3293 28.6427 25.812C27.6427 26.8093 26.376 27.252 24.8107 27.4627C23.2894 27.6667 21.344 27.6667 18.8907 27.6667H13.396C10.9414 27.6667 8.99605 27.6667 7.47605 27.4627C5.90938 27.252 4.64271 26.8093 3.64271 25.812C2.15738 24.3293 1.88271 22.2293 1.80938 19.3667C1.78538 18.3853 2.56138 17.7827 3.21071 17.612C3.56753 17.5189 3.88338 17.3101 4.10883 17.0183C4.33427 16.7264 4.45657 16.3681 4.45657 15.9993C4.45657 15.6306 4.33427 15.2722 4.10883 14.9804C3.88338 14.6886 3.56753 14.4798 3.21071 14.3867C2.56138 14.2173 1.78405 13.6147 1.81071 12.6333C1.88271 9.77067 2.15738 7.67067 3.64271 6.188C4.64271 5.19067 5.90938 4.748 7.47471 4.53733C8.99738 4.33333 10.9427 4.33333 13.396 4.33333ZM7.74138 6.52C6.39738 6.7 5.62138 7.03867 5.05605 7.60267C4.21871 8.43867 3.89871 9.704 3.81605 12.48C4.57692 12.7029 5.24507 13.1664 5.7204 13.801C6.19572 14.4356 6.45263 15.2071 6.45263 16C6.45263 16.7929 6.19572 17.5644 5.7204 18.199C5.24507 18.8336 4.57692 19.2971 3.81605 19.52C3.89871 22.296 4.21871 23.56 5.05605 24.3973C5.62138 24.9613 6.39738 25.3 7.74138 25.48C9.11471 25.664 10.924 25.6667 13.4707 25.6667H18.8147C21.3614 25.6667 23.1707 25.664 24.544 25.48C25.8894 25.3 26.664 24.9613 27.2294 24.3973C28.0667 23.5613 28.3867 22.296 28.4694 19.52C27.708 19.2975 27.0392 18.8342 26.5632 18.1996C26.0873 17.565 25.8298 16.7932 25.8294 16C25.8294 14.3307 26.9454 12.924 28.4694 12.48C28.3867 9.704 28.0667 8.44 27.2294 7.60267C26.664 7.03867 25.888 6.7 24.544 6.52C23.1707 6.336 21.3614 6.33333 18.8147 6.33333H13.4707C10.924 6.33333 9.11471 6.336 7.74138 6.52ZM16.1427 13.3787C16.0654 13.5133 15.9787 13.668 15.8774 13.8507L15.7467 14.0853L15.716 14.1387C15.612 14.3307 15.4387 14.648 15.1494 14.868C14.8547 15.092 14.4987 15.1693 14.292 15.2147L14.2334 15.2267L13.98 15.284C13.7454 15.3373 13.5547 15.38 13.3934 15.4213C13.4987 15.5507 13.636 15.7133 13.8147 15.9213L13.988 16.1253L14.028 16.1707C14.172 16.3373 14.404 16.604 14.512 16.9507C14.6187 17.292 14.5814 17.644 14.5587 17.8653L14.552 17.928L14.5254 18.1987C14.5054 18.403 14.4867 18.6074 14.4694 18.812C14.6094 18.7507 14.7667 18.6787 14.9547 18.592L15.1934 18.4827L15.2467 18.456C15.4387 18.3667 15.7707 18.2107 16.1427 18.2107C16.5147 18.2107 16.8467 18.3667 17.0387 18.4573L17.092 18.4827L17.3307 18.592C17.5174 18.6787 17.6774 18.752 17.816 18.812C17.7987 18.6074 17.78 18.403 17.76 18.1987L17.7334 17.928C17.7312 17.9071 17.729 17.8862 17.7267 17.8653C17.704 17.6427 17.6667 17.292 17.7734 16.9507C17.88 16.604 18.1134 16.3373 18.2574 16.1707L18.2974 16.1253L18.4707 15.9227C18.6494 15.7133 18.7867 15.5507 18.892 15.4213C18.7307 15.3813 18.54 15.3373 18.3054 15.284L18.052 15.2267L17.9947 15.2133C17.7867 15.1693 17.4307 15.092 17.136 14.8667C16.8467 14.648 16.6734 14.3307 16.5694 14.14C16.5592 14.1217 16.549 14.1035 16.5387 14.0853L16.408 13.8507C16.3067 13.668 16.2214 13.5133 16.1427 13.3787ZM14.828 11.7333C15.0574 11.4333 15.4734 11 16.1427 11C16.812 11 17.228 11.4333 17.4574 11.7333C17.6774 12.0187 17.8974 12.4147 18.124 12.8213L18.1547 12.876L18.2854 13.112L18.3614 13.2453L18.4934 13.276L18.7467 13.3333L18.8107 13.3467C19.2467 13.4467 19.6814 13.544 20.0147 13.676C20.3827 13.8213 20.8814 14.1027 21.0747 14.7227C21.264 15.3293 21.0254 15.844 20.8174 16.176C20.624 16.4827 20.3307 16.824 20.0307 17.1747L19.9907 17.2213L19.8174 17.4253L19.708 17.5547L19.724 17.7347L19.7507 18.0053L19.756 18.0667C19.8014 18.536 19.8454 18.9893 19.8294 19.352C19.8134 19.7333 19.7227 20.3093 19.2054 20.7C18.672 21.1053 18.0854 21.0173 17.712 20.9093C17.368 20.812 16.9614 20.624 16.552 20.436L16.4947 20.4093L16.2547 20.2987L16.1427 20.2467L16.0294 20.3L15.7907 20.4093L15.732 20.436C15.324 20.624 14.9187 20.812 14.5734 20.9093C14.2 21.016 13.6134 21.1053 13.08 20.7C12.564 20.3093 12.472 19.7333 12.456 19.3533C12.44 18.9893 12.4827 18.536 12.5294 18.0667L12.5347 18.0053L12.5614 17.7347C12.5676 17.6747 12.5734 17.6147 12.5787 17.5547C12.5421 17.5113 12.5052 17.4682 12.468 17.4253L12.2947 17.2213C12.2814 17.2058 12.268 17.1902 12.2547 17.1747C11.9547 16.824 11.6614 16.4813 11.468 16.1747C11.26 15.844 11.0214 15.3293 11.2107 14.7213C11.4027 14.104 11.9027 13.8213 12.2707 13.676C12.604 13.544 13.0387 13.4467 13.4747 13.348L13.5374 13.3347L13.792 13.276L13.9254 13.2453L14 13.112L14.1307 12.876L14.1614 12.8213C14.388 12.4147 14.608 12.0187 14.828 11.7333Z"/>
</mask>
<path fill-rule="evenodd" clip-rule="evenodd" d="M13.396 4.33333H18.8894C21.344 4.33333 23.2894 4.33333 24.8094 4.53733C26.376 4.748 27.6427 5.19067 28.6427 6.188C30.128 7.67067 30.4027 9.77067 30.476 12.6333C30.5 13.6147 29.724 14.2173 29.0747 14.388C28.7179 14.4811 28.402 14.6899 28.1766 14.9817C27.9512 15.2736 27.8289 15.6319 27.8289 16.0007C27.8289 16.3694 27.9512 16.7278 28.1766 17.0196C28.402 17.3114 28.7179 17.5202 29.0747 17.6133C29.724 17.7827 30.5014 18.3853 30.4747 19.3667C30.4027 22.2293 30.128 24.3293 28.6427 25.812C27.6427 26.8093 26.376 27.252 24.8107 27.4627C23.2894 27.6667 21.344 27.6667 18.8907 27.6667H13.396C10.9414 27.6667 8.99605 27.6667 7.47605 27.4627C5.90938 27.252 4.64271 26.8093 3.64271 25.812C2.15738 24.3293 1.88271 22.2293 1.80938 19.3667C1.78538 18.3853 2.56138 17.7827 3.21071 17.612C3.56753 17.5189 3.88338 17.3101 4.10883 17.0183C4.33427 16.7264 4.45657 16.3681 4.45657 15.9993C4.45657 15.6306 4.33427 15.2722 4.10883 14.9804C3.88338 14.6886 3.56753 14.4798 3.21071 14.3867C2.56138 14.2173 1.78405 13.6147 1.81071 12.6333C1.88271 9.77067 2.15738 7.67067 3.64271 6.188C4.64271 5.19067 5.90938 4.748 7.47471 4.53733C8.99738 4.33333 10.9427 4.33333 13.396 4.33333ZM7.74138 6.52C6.39738 6.7 5.62138 7.03867 5.05605 7.60267C4.21871 8.43867 3.89871 9.704 3.81605 12.48C4.57692 12.7029 5.24507 13.1664 5.7204 13.801C6.19572 14.4356 6.45263 15.2071 6.45263 16C6.45263 16.7929 6.19572 17.5644 5.7204 18.199C5.24507 18.8336 4.57692 19.2971 3.81605 19.52C3.89871 22.296 4.21871 23.56 5.05605 24.3973C5.62138 24.9613 6.39738 25.3 7.74138 25.48C9.11471 25.664 10.924 25.6667 13.4707 25.6667H18.8147C21.3614 25.6667 23.1707 25.664 24.544 25.48C25.8894 25.3 26.664 24.9613 27.2294 24.3973C28.0667 23.5613 28.3867 22.296 28.4694 19.52C27.708 19.2975 27.0392 18.8342 26.5632 18.1996C26.0873 17.565 25.8298 16.7932 25.8294 16C25.8294 14.3307 26.9454 12.924 28.4694 12.48C28.3867 9.704 28.0667 8.44 27.2294 7.60267C26.664 7.03867 25.888 6.7 24.544 6.52C23.1707 6.336 21.3614 6.33333 18.8147 6.33333H13.4707C10.924 6.33333 9.11471 6.336 7.74138 6.52ZM16.1427 13.3787C16.0654 13.5133 15.9787 13.668 15.8774 13.8507L15.7467 14.0853L15.716 14.1387C15.612 14.3307 15.4387 14.648 15.1494 14.868C14.8547 15.092 14.4987 15.1693 14.292 15.2147L14.2334 15.2267L13.98 15.284C13.7454 15.3373 13.5547 15.38 13.3934 15.4213C13.4987 15.5507 13.636 15.7133 13.8147 15.9213L13.988 16.1253L14.028 16.1707C14.172 16.3373 14.404 16.604 14.512 16.9507C14.6187 17.292 14.5814 17.644 14.5587 17.8653L14.552 17.928L14.5254 18.1987C14.5054 18.403 14.4867 18.6074 14.4694 18.812C14.6094 18.7507 14.7667 18.6787 14.9547 18.592L15.1934 18.4827L15.2467 18.456C15.4387 18.3667 15.7707 18.2107 16.1427 18.2107C16.5147 18.2107 16.8467 18.3667 17.0387 18.4573L17.092 18.4827L17.3307 18.592C17.5174 18.6787 17.6774 18.752 17.816 18.812C17.7987 18.6074 17.78 18.403 17.76 18.1987L17.7334 17.928C17.7312 17.9071 17.729 17.8862 17.7267 17.8653C17.704 17.6427 17.6667 17.292 17.7734 16.9507C17.88 16.604 18.1134 16.3373 18.2574 16.1707L18.2974 16.1253L18.4707 15.9227C18.6494 15.7133 18.7867 15.5507 18.892 15.4213C18.7307 15.3813 18.54 15.3373 18.3054 15.284L18.052 15.2267L17.9947 15.2133C17.7867 15.1693 17.4307 15.092 17.136 14.8667C16.8467 14.648 16.6734 14.3307 16.5694 14.14C16.5592 14.1217 16.549 14.1035 16.5387 14.0853L16.408 13.8507C16.3067 13.668 16.2214 13.5133 16.1427 13.3787ZM14.828 11.7333C15.0574 11.4333 15.4734 11 16.1427 11C16.812 11 17.228 11.4333 17.4574 11.7333C17.6774 12.0187 17.8974 12.4147 18.124 12.8213L18.1547 12.876L18.2854 13.112L18.3614 13.2453L18.4934 13.276L18.7467 13.3333L18.8107 13.3467C19.2467 13.4467 19.6814 13.544 20.0147 13.676C20.3827 13.8213 20.8814 14.1027 21.0747 14.7227C21.264 15.3293 21.0254 15.844 20.8174 16.176C20.624 16.4827 20.3307 16.824 20.0307 17.1747L19.9907 17.2213L19.8174 17.4253L19.708 17.5547L19.724 17.7347L19.7507 18.0053L19.756 18.0667C19.8014 18.536 19.8454 18.9893 19.8294 19.352C19.8134 19.7333 19.7227 20.3093 19.2054 20.7C18.672 21.1053 18.0854 21.0173 17.712 20.9093C17.368 20.812 16.9614 20.624 16.552 20.436L16.4947 20.4093L16.2547 20.2987L16.1427 20.2467L16.0294 20.3L15.7907 20.4093L15.732 20.436C15.324 20.624 14.9187 20.812 14.5734 20.9093C14.2 21.016 13.6134 21.1053 13.08 20.7C12.564 20.3093 12.472 19.7333 12.456 19.3533C12.44 18.9893 12.4827 18.536 12.5294 18.0667L12.5347 18.0053L12.5614 17.7347C12.5676 17.6747 12.5734 17.6147 12.5787 17.5547C12.5421 17.5113 12.5052 17.4682 12.468 17.4253L12.2947 17.2213C12.2814 17.2058 12.268 17.1902 12.2547 17.1747C11.9547 16.824 11.6614 16.4813 11.468 16.1747C11.26 15.844 11.0214 15.3293 11.2107 14.7213C11.4027 14.104 11.9027 13.8213 12.2707 13.676C12.604 13.544 13.0387 13.4467 13.4747 13.348L13.5374 13.3347L13.792 13.276L13.9254 13.2453L14 13.112L14.1307 12.876L14.1614 12.8213C14.388 12.4147 14.608 12.0187 14.828 11.7333Z" fill="#282A2C" stroke="#282A2C" stroke-width="4" mask="url(#path-1-inside-1_1333_490)"/>
</svg>
