<svg width="33" height="32" viewBox="0 0 33 32" fill="none" xmlns="http://www.w3.org/2000/svg">
<mask id="path-1-inside-1_8654_25736" fill="white">
<path fill-rule="evenodd" clip-rule="evenodd" d="M13.8962 4.33333H19.3895C21.8442 4.33333 23.7895 4.33333 25.3095 4.53733C26.8762 4.748 28.1428 5.19067 29.1428 6.188C30.6282 7.67067 30.9028 9.77067 30.9762 12.6333C31.0002 13.6147 30.2242 14.2173 29.5748 14.388C29.218 14.4811 28.9022 14.6899 28.6767 14.9817C28.4513 15.2736 28.329 15.6319 28.329 16.0007C28.329 16.3694 28.4513 16.7278 28.6767 17.0196C28.9022 17.3114 29.218 17.5202 29.5748 17.6133C30.2242 17.7827 31.0015 18.3853 30.9748 19.3667C30.9028 22.2293 30.6282 24.3293 29.1428 25.812C28.1428 26.8093 26.8762 27.252 25.3108 27.4627C23.7895 27.6667 21.8442 27.6667 19.3908 27.6667H13.8962C11.4415 27.6667 9.49617 27.6667 7.97617 27.4627C6.4095 27.252 5.14284 26.8093 4.14284 25.812C2.6575 24.3293 2.38284 22.2293 2.3095 19.3667C2.2855 18.3853 3.0615 17.7827 3.71084 17.612C4.06765 17.5189 4.38351 17.3101 4.60895 17.0183C4.83439 16.7264 4.95669 16.3681 4.95669 15.9993C4.95669 15.6306 4.83439 15.2722 4.60895 14.9804C4.38351 14.6886 4.06765 14.4798 3.71084 14.3867C3.0615 14.2173 2.28417 13.6147 2.31084 12.6333C2.38284 9.77067 2.6575 7.67067 4.14284 6.188C5.14284 5.19067 6.4095 4.748 7.97484 4.53733C9.4975 4.33333 11.4428 4.33333 13.8962 4.33333ZM8.2415 6.52C6.8975 6.7 6.1215 7.03867 5.55617 7.60267C4.71884 8.43867 4.39884 9.704 4.31617 12.48C5.07704 12.7029 5.74519 13.1664 6.22052 13.801C6.69584 14.4356 6.95275 15.2071 6.95275 16C6.95275 16.7929 6.69584 17.5644 6.22052 18.199C5.74519 18.8336 5.07704 19.2971 4.31617 19.52C4.39884 22.296 4.71884 23.56 5.55617 24.3973C6.1215 24.9613 6.8975 25.3 8.2415 25.48C9.61484 25.664 11.4242 25.6667 13.9708 25.6667H19.3148C21.8615 25.6667 23.6708 25.664 25.0442 25.48C26.3895 25.3 27.1642 24.9613 27.7295 24.3973C28.5668 23.5613 28.8868 22.296 28.9695 19.52C28.2081 19.2975 27.5393 18.8342 27.0634 18.1996C26.5874 17.565 26.3299 16.7933 26.3295 16C26.3295 14.3307 27.4455 12.924 28.9695 12.48C28.8868 9.704 28.5668 8.44 27.7295 7.60267C27.1642 7.03867 26.3882 6.7 25.0442 6.52C23.6708 6.336 21.8615 6.33333 19.3148 6.33333H13.9708C11.4242 6.33333 9.61484 6.336 8.2415 6.52ZM16.6428 13.3787C16.5655 13.5133 16.4788 13.668 16.3775 13.8507L16.2468 14.0853L16.2162 14.1387C16.1122 14.3307 15.9388 14.648 15.6495 14.868C15.3548 15.092 14.9988 15.1693 14.7922 15.2147L14.7335 15.2267L14.4802 15.284C14.2455 15.3373 14.0548 15.38 13.8935 15.4213C13.9988 15.5507 14.1362 15.7133 14.3148 15.9213L14.4882 16.1253L14.5282 16.1707C14.6722 16.3373 14.9042 16.604 15.0122 16.9507C15.1188 17.292 15.0815 17.644 15.0588 17.8653L15.0522 17.928L15.0255 18.1987C15.0055 18.403 14.9868 18.6074 14.9695 18.812C15.1095 18.7507 15.2668 18.6787 15.4548 18.592L15.6935 18.4827L15.7468 18.456C15.9388 18.3667 16.2708 18.2107 16.6428 18.2107C17.0148 18.2107 17.3468 18.3667 17.5388 18.4573L17.5922 18.4827L17.8308 18.592C18.0175 18.6787 18.1775 18.752 18.3162 18.812C18.2988 18.6074 18.2802 18.403 18.2602 18.1987L18.2335 17.928C18.2313 17.9071 18.2291 17.8862 18.2268 17.8653C18.2042 17.6427 18.1668 17.292 18.2735 16.9507C18.3802 16.604 18.6135 16.3373 18.7575 16.1707L18.7975 16.1253L18.9708 15.9227C19.1495 15.7133 19.2868 15.5507 19.3922 15.4213C19.2308 15.3813 19.0402 15.3373 18.8055 15.284L18.5522 15.2267L18.4948 15.2133C18.2868 15.1693 17.9308 15.092 17.6362 14.8667C17.3468 14.648 17.1735 14.3307 17.0695 14.14C17.0594 14.1217 17.0491 14.1035 17.0388 14.0853L16.9082 13.8507C16.8068 13.668 16.7215 13.5133 16.6428 13.3787ZM15.3282 11.7333C15.5575 11.4333 15.9735 11 16.6428 11C17.3122 11 17.7282 11.4333 17.9575 11.7333C18.1775 12.0187 18.3975 12.4147 18.6242 12.8213L18.6548 12.876L18.7855 13.112L18.8615 13.2453L18.9935 13.276L19.2468 13.3333L19.3108 13.3467C19.7468 13.4467 20.1815 13.544 20.5148 13.676C20.8828 13.8213 21.3815 14.1027 21.5748 14.7227C21.7642 15.3293 21.5255 15.844 21.3175 16.176C21.1242 16.4827 20.8308 16.824 20.5308 17.1747L20.4908 17.2213L20.3175 17.4253L20.2082 17.5547L20.2242 17.7347L20.2508 18.0053L20.2562 18.0667C20.3015 18.536 20.3455 18.9893 20.3295 19.352C20.3135 19.7333 20.2228 20.3093 19.7055 20.7C19.1722 21.1053 18.5855 21.0173 18.2122 20.9093C17.8682 20.812 17.4615 20.624 17.0522 20.436L16.9948 20.4093L16.7548 20.2987L16.6428 20.2467L16.5295 20.3L16.2908 20.4093L16.2322 20.436C15.8242 20.624 15.4188 20.812 15.0735 20.9093C14.7002 21.016 14.1135 21.1053 13.5802 20.7C13.0642 20.3093 12.9722 19.7333 12.9562 19.3533C12.9402 18.9893 12.9828 18.536 13.0295 18.0667L13.0348 18.0053L13.0615 17.7347C13.0677 17.6747 13.0735 17.6147 13.0788 17.5547C13.0422 17.5113 13.0053 17.4682 12.9682 17.4253L12.7948 17.2213C12.7815 17.2058 12.7682 17.1902 12.7548 17.1747C12.4548 16.824 12.1615 16.4813 11.9682 16.1747C11.7602 15.844 11.5215 15.3293 11.7108 14.7213C11.9028 14.104 12.4028 13.8213 12.7708 13.676C13.1042 13.544 13.5388 13.4467 13.9748 13.348L14.0375 13.3347L14.2922 13.276L14.4255 13.2453L14.5002 13.112L14.6308 12.876L14.6615 12.8213C14.8882 12.4147 15.1082 12.0187 15.3282 11.7333Z"/>
</mask>
<path fill-rule="evenodd" clip-rule="evenodd" d="M13.8962 4.33333H19.3895C21.8442 4.33333 23.7895 4.33333 25.3095 4.53733C26.8762 4.748 28.1428 5.19067 29.1428 6.188C30.6282 7.67067 30.9028 9.77067 30.9762 12.6333C31.0002 13.6147 30.2242 14.2173 29.5748 14.388C29.218 14.4811 28.9022 14.6899 28.6767 14.9817C28.4513 15.2736 28.329 15.6319 28.329 16.0007C28.329 16.3694 28.4513 16.7278 28.6767 17.0196C28.9022 17.3114 29.218 17.5202 29.5748 17.6133C30.2242 17.7827 31.0015 18.3853 30.9748 19.3667C30.9028 22.2293 30.6282 24.3293 29.1428 25.812C28.1428 26.8093 26.8762 27.252 25.3108 27.4627C23.7895 27.6667 21.8442 27.6667 19.3908 27.6667H13.8962C11.4415 27.6667 9.49617 27.6667 7.97617 27.4627C6.4095 27.252 5.14284 26.8093 4.14284 25.812C2.6575 24.3293 2.38284 22.2293 2.3095 19.3667C2.2855 18.3853 3.0615 17.7827 3.71084 17.612C4.06765 17.5189 4.38351 17.3101 4.60895 17.0183C4.83439 16.7264 4.95669 16.3681 4.95669 15.9993C4.95669 15.6306 4.83439 15.2722 4.60895 14.9804C4.38351 14.6886 4.06765 14.4798 3.71084 14.3867C3.0615 14.2173 2.28417 13.6147 2.31084 12.6333C2.38284 9.77067 2.6575 7.67067 4.14284 6.188C5.14284 5.19067 6.4095 4.748 7.97484 4.53733C9.4975 4.33333 11.4428 4.33333 13.8962 4.33333ZM8.2415 6.52C6.8975 6.7 6.1215 7.03867 5.55617 7.60267C4.71884 8.43867 4.39884 9.704 4.31617 12.48C5.07704 12.7029 5.74519 13.1664 6.22052 13.801C6.69584 14.4356 6.95275 15.2071 6.95275 16C6.95275 16.7929 6.69584 17.5644 6.22052 18.199C5.74519 18.8336 5.07704 19.2971 4.31617 19.52C4.39884 22.296 4.71884 23.56 5.55617 24.3973C6.1215 24.9613 6.8975 25.3 8.2415 25.48C9.61484 25.664 11.4242 25.6667 13.9708 25.6667H19.3148C21.8615 25.6667 23.6708 25.664 25.0442 25.48C26.3895 25.3 27.1642 24.9613 27.7295 24.3973C28.5668 23.5613 28.8868 22.296 28.9695 19.52C28.2081 19.2975 27.5393 18.8342 27.0634 18.1996C26.5874 17.565 26.3299 16.7933 26.3295 16C26.3295 14.3307 27.4455 12.924 28.9695 12.48C28.8868 9.704 28.5668 8.44 27.7295 7.60267C27.1642 7.03867 26.3882 6.7 25.0442 6.52C23.6708 6.336 21.8615 6.33333 19.3148 6.33333H13.9708C11.4242 6.33333 9.61484 6.336 8.2415 6.52ZM16.6428 13.3787C16.5655 13.5133 16.4788 13.668 16.3775 13.8507L16.2468 14.0853L16.2162 14.1387C16.1122 14.3307 15.9388 14.648 15.6495 14.868C15.3548 15.092 14.9988 15.1693 14.7922 15.2147L14.7335 15.2267L14.4802 15.284C14.2455 15.3373 14.0548 15.38 13.8935 15.4213C13.9988 15.5507 14.1362 15.7133 14.3148 15.9213L14.4882 16.1253L14.5282 16.1707C14.6722 16.3373 14.9042 16.604 15.0122 16.9507C15.1188 17.292 15.0815 17.644 15.0588 17.8653L15.0522 17.928L15.0255 18.1987C15.0055 18.403 14.9868 18.6074 14.9695 18.812C15.1095 18.7507 15.2668 18.6787 15.4548 18.592L15.6935 18.4827L15.7468 18.456C15.9388 18.3667 16.2708 18.2107 16.6428 18.2107C17.0148 18.2107 17.3468 18.3667 17.5388 18.4573L17.5922 18.4827L17.8308 18.592C18.0175 18.6787 18.1775 18.752 18.3162 18.812C18.2988 18.6074 18.2802 18.403 18.2602 18.1987L18.2335 17.928C18.2313 17.9071 18.2291 17.8862 18.2268 17.8653C18.2042 17.6427 18.1668 17.292 18.2735 16.9507C18.3802 16.604 18.6135 16.3373 18.7575 16.1707L18.7975 16.1253L18.9708 15.9227C19.1495 15.7133 19.2868 15.5507 19.3922 15.4213C19.2308 15.3813 19.0402 15.3373 18.8055 15.284L18.5522 15.2267L18.4948 15.2133C18.2868 15.1693 17.9308 15.092 17.6362 14.8667C17.3468 14.648 17.1735 14.3307 17.0695 14.14C17.0594 14.1217 17.0491 14.1035 17.0388 14.0853L16.9082 13.8507C16.8068 13.668 16.7215 13.5133 16.6428 13.3787ZM15.3282 11.7333C15.5575 11.4333 15.9735 11 16.6428 11C17.3122 11 17.7282 11.4333 17.9575 11.7333C18.1775 12.0187 18.3975 12.4147 18.6242 12.8213L18.6548 12.876L18.7855 13.112L18.8615 13.2453L18.9935 13.276L19.2468 13.3333L19.3108 13.3467C19.7468 13.4467 20.1815 13.544 20.5148 13.676C20.8828 13.8213 21.3815 14.1027 21.5748 14.7227C21.7642 15.3293 21.5255 15.844 21.3175 16.176C21.1242 16.4827 20.8308 16.824 20.5308 17.1747L20.4908 17.2213L20.3175 17.4253L20.2082 17.5547L20.2242 17.7347L20.2508 18.0053L20.2562 18.0667C20.3015 18.536 20.3455 18.9893 20.3295 19.352C20.3135 19.7333 20.2228 20.3093 19.7055 20.7C19.1722 21.1053 18.5855 21.0173 18.2122 20.9093C17.8682 20.812 17.4615 20.624 17.0522 20.436L16.9948 20.4093L16.7548 20.2987L16.6428 20.2467L16.5295 20.3L16.2908 20.4093L16.2322 20.436C15.8242 20.624 15.4188 20.812 15.0735 20.9093C14.7002 21.016 14.1135 21.1053 13.5802 20.7C13.0642 20.3093 12.9722 19.7333 12.9562 19.3533C12.9402 18.9893 12.9828 18.536 13.0295 18.0667L13.0348 18.0053L13.0615 17.7347C13.0677 17.6747 13.0735 17.6147 13.0788 17.5547C13.0422 17.5113 13.0053 17.4682 12.9682 17.4253L12.7948 17.2213C12.7815 17.2058 12.7682 17.1902 12.7548 17.1747C12.4548 16.824 12.1615 16.4813 11.9682 16.1747C11.7602 15.844 11.5215 15.3293 11.7108 14.7213C11.9028 14.104 12.4028 13.8213 12.7708 13.676C13.1042 13.544 13.5388 13.4467 13.9748 13.348L14.0375 13.3347L14.2922 13.276L14.4255 13.2453L14.5002 13.112L14.6308 12.876L14.6615 12.8213C14.8882 12.4147 15.1082 12.0187 15.3282 11.7333Z" fill="#787D83" stroke="#787D83" stroke-width="4" mask="url(#path-1-inside-1_8654_25736)"/>
</svg>
