<svg width="33" height="32" viewBox="0 0 33 32" fill="none" xmlns="http://www.w3.org/2000/svg">
<path d="M20.8572 10.6667V8C20.8572 7.29276 20.5762 6.61448 20.0761 6.11438C19.576 5.61428 18.8978 5.33333 18.1905 5.33333H15.5238C14.8166 5.33333 14.1383 5.61428 13.6382 6.11438C13.1381 6.61448 12.8572 7.29276 12.8572 8V10.6667M20.8572 10.6667H26.1905C26.8978 10.6667 27.576 10.9476 28.0761 11.4477C28.5762 11.9478 28.8572 12.6261 28.8572 13.3333V24C28.8572 24.7072 28.5762 25.3855 28.0761 25.8856C27.576 26.3857 26.8978 26.6667 26.1905 26.6667H10.1905M20.8572 10.6667H12.8572M12.8572 10.6667H10.1905M10.1905 26.6667H7.52384C6.8166 26.6667 6.13832 26.3857 5.63823 25.8856C5.13813 25.3855 4.85718 24.7072 4.85718 24V13.3333C4.85718 12.6261 5.13813 11.9478 5.63823 11.4477C6.13832 10.9476 6.8166 10.6667 7.52384 10.6667H10.1905M10.1905 26.6667V10.6667M23.5238 10.6667V26.6667" stroke="#282A2C" stroke-width="2" stroke-linecap="round" stroke-linejoin="round"/>
</svg>
