<svg width="33" height="32" viewBox="0 0 33 32" fill="none" xmlns="http://www.w3.org/2000/svg">
<path d="M20.3571 10.6667V8C20.3571 7.29276 20.0762 6.61448 19.5761 6.11438C19.076 5.61429 18.3977 5.33333 17.6905 5.33333H15.0238C14.3166 5.33333 13.6383 5.61429 13.1382 6.11438C12.6381 6.61448 12.3571 7.29276 12.3571 8V10.6667M20.3571 10.6667H25.6905C26.3977 10.6667 27.076 10.9476 27.5761 11.4477C28.0762 11.9478 28.3571 12.6261 28.3571 13.3333V24C28.3571 24.7072 28.0762 25.3855 27.5761 25.8856C27.076 26.3857 26.3977 26.6667 25.6905 26.6667H9.69048M20.3571 10.6667H12.3571M12.3571 10.6667H9.69048M9.69048 26.6667H7.02381C6.31657 26.6667 5.63829 26.3857 5.1382 25.8856C4.6381 25.3855 4.35715 24.7072 4.35715 24V13.3333C4.35715 12.6261 4.6381 11.9478 5.1382 11.4477C5.63829 10.9476 6.31657 10.6667 7.02381 10.6667H9.69048M9.69048 26.6667V10.6667M23.0238 10.6667V26.6667" stroke="#787D83" stroke-width="2" stroke-linecap="round" stroke-linejoin="round"/>
</svg>
