<svg width="33" height="32" viewBox="0 0 33 32" fill="none" xmlns="http://www.w3.org/2000/svg">
<g clip-path="url(#clip0_8712_18014)">
<mask id="path-1-inside-1_8712_18014" fill="white">
<path d="M6.87963 6C5.54363 6 4.30963 6.668 3.56663 7.781L0.785631 11.938C0.458343 12.4282 0.284292 13.0046 0.285631 13.594V20.219C0.283787 20.6629 0.430426 21.0947 0.702226 21.4457C0.974026 21.7967 1.35538 22.0467 1.78563 22.156L4.37963 22.813C4.56619 23.7117 5.05618 24.519 5.76738 25.0993C6.47859 25.6796 7.36773 25.9976 8.28563 26C10.1376 26 11.6836 24.719 12.1296 23H21.4416C21.8876 24.719 23.4336 26 25.2856 26C27.1376 26 28.6836 24.719 29.1296 23H30.2856C31.3796 23 32.2856 22.094 32.2856 21V17.344C32.2847 16.4527 31.9859 15.5872 31.4367 14.8851C30.8876 14.183 30.1195 13.6846 29.2546 13.469L23.8476 12.094L19.9416 7.438C19.568 6.98838 19.1 6.62648 18.5708 6.37796C18.0416 6.12945 17.4643 6.00041 16.8796 6H6.87963ZM6.87963 8H11.2856V12H3.16063L5.22363 8.906V8.875C5.40481 8.60287 5.65109 8.38031 5.94011 8.2275C6.22912 8.0747 6.55273 7.9965 6.87963 8ZM13.2856 8H16.8796C17.4726 8 18.0316 8.262 18.4106 8.719L21.1606 12H13.2856V8ZM2.28563 14H23.1606L28.7856 15.406C29.2173 15.5131 29.6002 15.7627 29.8724 16.1144C30.1446 16.4661 30.2902 16.8993 30.2856 17.344V21H29.1296C28.6836 19.281 27.1376 18 25.2856 18C23.4336 18 21.8876 19.281 21.4416 21H12.1296C11.6836 19.281 10.1376 18 8.28563 18C6.51263 18 5.02363 19.172 4.50463 20.781L2.28563 20.22V14ZM8.28563 20C9.40263 20 10.2856 20.883 10.2856 22C10.2856 23.117 9.40263 24 8.28563 24C7.16863 24 6.28563 23.117 6.28563 22C6.28563 20.883 7.16863 20 8.28563 20ZM25.2856 20C26.4026 20 27.2856 20.883 27.2856 22C27.2856 23.117 26.4026 24 25.2856 24C24.1686 24 23.2856 23.117 23.2856 22C23.2856 20.883 24.1686 20 25.2856 20Z"/>
</mask>
<path d="M6.87963 6C5.54363 6 4.30963 6.668 3.56663 7.781L0.785631 11.938C0.458343 12.4282 0.284292 13.0046 0.285631 13.594V20.219C0.283787 20.6629 0.430426 21.0947 0.702226 21.4457C0.974026 21.7967 1.35538 22.0467 1.78563 22.156L4.37963 22.813C4.56619 23.7117 5.05618 24.519 5.76738 25.0993C6.47859 25.6796 7.36773 25.9976 8.28563 26C10.1376 26 11.6836 24.719 12.1296 23H21.4416C21.8876 24.719 23.4336 26 25.2856 26C27.1376 26 28.6836 24.719 29.1296 23H30.2856C31.3796 23 32.2856 22.094 32.2856 21V17.344C32.2847 16.4527 31.9859 15.5872 31.4367 14.8851C30.8876 14.183 30.1195 13.6846 29.2546 13.469L23.8476 12.094L19.9416 7.438C19.568 6.98838 19.1 6.62648 18.5708 6.37796C18.0416 6.12945 17.4643 6.00041 16.8796 6H6.87963ZM6.87963 8H11.2856V12H3.16063L5.22363 8.906V8.875C5.40481 8.60287 5.65109 8.38031 5.94011 8.2275C6.22912 8.0747 6.55273 7.9965 6.87963 8ZM13.2856 8H16.8796C17.4726 8 18.0316 8.262 18.4106 8.719L21.1606 12H13.2856V8ZM2.28563 14H23.1606L28.7856 15.406C29.2173 15.5131 29.6002 15.7627 29.8724 16.1144C30.1446 16.4661 30.2902 16.8993 30.2856 17.344V21H29.1296C28.6836 19.281 27.1376 18 25.2856 18C23.4336 18 21.8876 19.281 21.4416 21H12.1296C11.6836 19.281 10.1376 18 8.28563 18C6.51263 18 5.02363 19.172 4.50463 20.781L2.28563 20.22V14ZM8.28563 20C9.40263 20 10.2856 20.883 10.2856 22C10.2856 23.117 9.40263 24 8.28563 24C7.16863 24 6.28563 23.117 6.28563 22C6.28563 20.883 7.16863 20 8.28563 20ZM25.2856 20C26.4026 20 27.2856 20.883 27.2856 22C27.2856 23.117 26.4026 24 25.2856 24C24.1686 24 23.2856 23.117 23.2856 22C23.2856 20.883 24.1686 20 25.2856 20Z" fill="#787D83" stroke="#787D83" stroke-width="4" mask="url(#path-1-inside-1_8712_18014)"/>
</g>
<defs>
<clipPath id="clip0_8712_18014">
<rect width="32" height="32" fill="white" transform="translate(0.285645)"/>
</clipPath>
</defs>
</svg>
