<svg width="33" height="32" viewBox="0 0 33 32" fill="none" xmlns="http://www.w3.org/2000/svg">
<g clip-path="url(#clip0_1333_486)">
<path d="M31.2857 17.3451C31.2857 17.3462 31.2857 17.3473 31.2857 17.3484C31.2857 17.3485 31.2857 17.3486 31.2857 17.3486C31.2857 17.3505 31.2856 17.3524 31.2856 17.3542L30.2857 17.344H31.2857H31.2857M31.2857 17.3451C31.2857 17.3447 31.2857 17.3444 31.2857 17.344M31.2857 17.3451L32.2857 17.344M31.2857 17.3451L29.0276 14.4357C29.6742 14.5964 30.248 14.9694 30.6573 15.4948C30.6593 15.4973 30.6612 15.4998 30.6632 15.5023C31.0711 16.0293 31.2902 16.6778 31.2857 17.344M31.2857 17.344H32.2857M32.2857 17.344C32.2847 16.4527 31.9859 15.5872 31.4367 14.8851C30.8876 14.183 30.1195 13.6846 29.2547 13.469L8.28566 26C10.1377 26 11.6837 24.719 12.1297 23H21.4417C21.8877 24.719 23.4337 26 25.2857 26C27.1377 26 28.6837 24.719 29.1297 23H30.2857C31.3797 23 32.2857 22.094 32.2857 21V17.344ZM1.61731 12.4933L4.22366 8.59736V8.60318L2.32865 11.4452L1.51301 12.6685C1.5446 12.6086 1.57935 12.5502 1.61719 12.4935C1.61723 12.4934 1.61727 12.4934 1.61731 12.4933ZM1.28566 13.5917C1.28565 13.5884 1.28565 13.585 1.28566 13.5817V13.593L1.28566 13.5917ZM1.28565 20.2232H1.28566V20.219L1.28566 13.594L1.28566 14V20.22V20.2331C1.28564 20.2298 1.28564 20.2265 1.28565 20.2232ZM4.62519 21.8436L3.15725 21.4718L4.25956 21.7505L5.16855 21.9803L5.32931 21.4819C5.30061 21.65 5.28566 21.8231 5.28566 22C5.28566 22.1205 5.2926 22.2393 5.30611 22.356L5.23164 21.9972L4.62519 21.8436ZM11.356 22L11.2664 22.3452C11.2791 22.232 11.2857 22.1168 11.2857 22C11.2857 21.8832 11.2791 21.768 11.2664 21.6548L11.356 22ZM0.285662 13.594V20.219V13.594ZM22.2857 22C22.2857 22.1168 22.2922 22.232 22.3049 22.3452L22.2153 22L22.3049 21.6548C22.2922 21.768 22.2857 21.8832 22.2857 22ZM28.356 22L28.2664 22.3452C28.2791 22.232 28.2857 22.1168 28.2857 22C28.2857 21.8832 28.2791 21.768 28.2664 21.6548L28.356 22ZM23.6012 13.0632L27.3294 14.0112L23.4032 13.0298L23.2837 13H23.3036L23.2903 12.9841L23.6012 13.0632Z" stroke="#282A2C" stroke-width="2"/>
</g>
<defs>
<clipPath id="clip0_1333_486">
<rect width="32" height="32" fill="white" transform="translate(0.285645)"/>
</clipPath>
</defs>
</svg>
