<svg width="33" height="32" viewBox="0 0 33 32" fill="none" xmlns="http://www.w3.org/2000/svg">
<g clip-path="url(#clip0_8654_26667)">
<path d="M31.7857 17.3451C31.7857 17.3462 31.7857 17.3473 31.7857 17.3484C31.7857 17.3485 31.7857 17.3486 31.7857 17.3486C31.7857 17.3505 31.7856 17.3524 31.7856 17.3542L30.7857 17.344H31.7857H31.7857M31.7857 17.3451C31.7857 17.3447 31.7857 17.3444 31.7857 17.344M31.7857 17.3451L32.7857 17.344H31.7857M31.7857 17.3451L29.5276 14.4357C30.1742 14.5964 30.748 14.9694 31.1573 15.4948C31.1593 15.4973 31.1612 15.4998 31.1632 15.5023C31.5711 16.0293 31.7902 16.6778 31.7857 17.344M2.11731 12.4933L4.72366 8.59736V8.60318L2.82865 11.4452L2.01301 12.6685C2.04458 12.6086 2.07932 12.5502 2.11714 12.4936C2.1172 12.4935 2.11725 12.4934 2.11731 12.4933ZM1.78566 13.5917C1.78565 13.5884 1.78565 13.585 1.78566 13.5817V13.593L1.78566 13.5917ZM1.78565 20.2232H1.78566V20.219L1.78566 13.594L1.78566 14V20.22V20.2331C1.78564 20.2298 1.78564 20.2265 1.78565 20.2232ZM5.12519 21.8436L3.65725 21.4718L4.75956 21.7505L5.66855 21.9803L5.82931 21.4819C5.80061 21.65 5.78566 21.8231 5.78566 22C5.78566 22.1205 5.7926 22.2393 5.80611 22.356L5.73164 21.9972L5.12519 21.8436ZM11.856 22L11.7664 22.3452C11.7791 22.232 11.7857 22.1168 11.7857 22C11.7857 21.8832 11.7791 21.768 11.7664 21.6548L11.856 22ZM22.7857 22C22.7857 22.1168 22.7922 22.232 22.8049 22.3452L22.7153 22L22.8049 21.6548C22.7922 21.768 22.7857 21.8832 22.7857 22ZM28.856 22L28.7664 22.3452C28.7791 22.232 28.7857 22.1168 28.7857 22C28.7857 21.8832 28.7791 21.768 28.7664 21.6548L28.856 22ZM24.1012 13.0632L27.8294 14.0112L23.9032 13.0298L23.7837 13H23.8036L23.7903 12.9841L24.1012 13.0632Z" fill="#787D83" stroke="#787D83" stroke-width="2"/>
</g>
<defs>
<clipPath id="clip0_8654_26667">
<rect width="32" height="32" fill="white" transform="translate(0.785645)"/>
</clipPath>
</defs>
</svg>
