<svg width="33" height="32" viewBox="0 0 33 32" fill="none" xmlns="http://www.w3.org/2000/svg">
<mask id="path-1-inside-1_8654_26691" fill="white">
<path fill-rule="evenodd" clip-rule="evenodd" d="M15.1688 1.66667H17.9741C19.1728 1.66667 20.1714 1.66667 20.9634 1.77333C21.8008 1.88533 22.5568 2.13333 23.1634 2.74C23.7714 3.348 24.0194 4.104 24.1314 4.94C24.2381 5.73333 24.2381 6.73333 24.2381 7.93067V9.66667C25.0074 9.66667 25.6581 9.67333 26.1968 9.728C26.8274 9.792 27.4141 9.932 27.9421 10.284C28.3421 10.552 28.6861 10.896 28.9541 11.2973C29.3061 11.824 29.4461 12.4107 29.5101 13.0413C29.5714 13.644 29.5714 14.3893 29.5714 15.2813V28.3333H29.9048C30.17 28.3333 30.4243 28.4387 30.6119 28.6262C30.7994 28.8138 30.9048 29.0681 30.9048 29.3333C30.9048 29.5986 30.7994 29.8529 30.6119 30.0404C30.4243 30.228 30.17 30.3333 29.9048 30.3333H3.2381C2.97288 30.3333 2.71853 30.228 2.53099 30.0404C2.34346 29.8529 2.2381 29.5986 2.2381 29.3333C2.2381 29.0681 2.34346 28.8138 2.53099 28.6262C2.71853 28.4387 2.97288 28.3333 3.2381 28.3333H3.57143V15.2827C3.57143 14.3893 3.57143 13.644 3.63276 13.0413C3.69676 12.4107 3.83676 11.824 4.18876 11.296C4.45676 10.896 4.80077 10.552 5.2021 10.284C5.72877 9.932 6.31543 9.792 6.9461 9.728C7.48477 9.67333 8.13543 9.668 8.90477 9.66667V7.93067C8.90477 6.73333 8.90477 5.73333 9.01143 4.94133C9.12343 4.104 9.37143 3.348 9.9781 2.74133C10.5861 2.13333 11.3421 1.88533 12.1781 1.77333C12.9714 1.66667 13.9714 1.66667 15.1688 1.66667ZM8.90477 11.6667C8.12743 11.6667 7.57943 11.6733 7.14877 11.7173C6.67543 11.7653 6.45677 11.8507 6.31277 11.948C6.13071 12.0696 5.97439 12.2259 5.85276 12.408C5.75543 12.552 5.6701 12.7707 5.6221 13.244C5.57277 13.7333 5.57143 14.3773 5.57143 15.3333V28.3333H8.90477V11.6667ZM10.9048 28.3333H15.5714V25.3333C15.5714 25.0681 15.6768 24.8138 15.8643 24.6262C16.0519 24.4387 16.3062 24.3333 16.5714 24.3333C16.8366 24.3333 17.091 24.4387 17.2785 24.6262C17.4661 24.8138 17.5714 25.0681 17.5714 25.3333V28.3333H22.2381V8C22.2381 6.71467 22.2354 5.85067 22.1488 5.20667C22.0661 4.592 21.9234 4.328 21.7488 4.15467C21.5754 3.98133 21.3128 3.83867 20.6981 3.75467C20.0541 3.66933 19.1901 3.66667 17.9048 3.66667H15.2381C13.9528 3.66667 13.0888 3.66933 12.4448 3.756C11.8301 3.83867 11.5661 3.98133 11.3928 4.156C11.2194 4.32933 11.0768 4.592 10.9928 5.20667C10.9088 5.85067 10.9048 6.71467 10.9048 8V28.3333ZM24.2381 28.3333H27.5714V15.3333C27.5714 14.376 27.5714 13.7333 27.5208 13.244C27.4728 12.7707 27.3874 12.552 27.2901 12.408C27.1685 12.2259 27.0122 12.0696 26.8301 11.948C26.6861 11.8507 26.4674 11.7653 25.9941 11.7173C25.5634 11.6733 25.0154 11.668 24.2381 11.6667V28.3333ZM12.9048 6.66667C12.9048 6.40145 13.0101 6.1471 13.1977 5.95956C13.3852 5.77202 13.6395 5.66667 13.9048 5.66667H19.2381C19.5033 5.66667 19.7577 5.77202 19.9452 5.95956C20.1327 6.1471 20.2381 6.40145 20.2381 6.66667C20.2381 6.93188 20.1327 7.18624 19.9452 7.37377C19.7577 7.56131 19.5033 7.66667 19.2381 7.66667H13.9048C13.6395 7.66667 13.3852 7.56131 13.1977 7.37377C13.0101 7.18624 12.9048 6.93188 12.9048 6.66667ZM12.9048 10.6667C12.9048 10.4015 13.0101 10.1471 13.1977 9.95956C13.3852 9.77202 13.6395 9.66667 13.9048 9.66667H19.2381C19.5033 9.66667 19.7577 9.77202 19.9452 9.95956C20.1327 10.1471 20.2381 10.4015 20.2381 10.6667C20.2381 10.9319 20.1327 11.1862 19.9452 11.3738C19.7577 11.5613 19.5033 11.6667 19.2381 11.6667H13.9048C13.6395 11.6667 13.3852 11.5613 13.1977 11.3738C13.0101 11.1862 12.9048 10.9319 12.9048 10.6667ZM12.9048 14.6667C12.9048 14.4015 13.0101 14.1471 13.1977 13.9596C13.3852 13.772 13.6395 13.6667 13.9048 13.6667H19.2381C19.5033 13.6667 19.7577 13.772 19.9452 13.9596C20.1327 14.1471 20.2381 14.4015 20.2381 14.6667C20.2381 14.9319 20.1327 15.1862 19.9452 15.3738C19.7577 15.5613 19.5033 15.6667 19.2381 15.6667H13.9048C13.6395 15.6667 13.3852 15.5613 13.1977 15.3738C13.0101 15.1862 12.9048 14.9319 12.9048 14.6667ZM12.9048 18.6667C12.9048 18.4015 13.0101 18.1471 13.1977 17.9596C13.3852 17.772 13.6395 17.6667 13.9048 17.6667H19.2381C19.5033 17.6667 19.7577 17.772 19.9452 17.9596C20.1327 18.1471 20.2381 18.4015 20.2381 18.6667C20.2381 18.9319 20.1327 19.1862 19.9452 19.3738C19.7577 19.5613 19.5033 19.6667 19.2381 19.6667H13.9048C13.6395 19.6667 13.3852 19.5613 13.1977 19.3738C13.0101 19.1862 12.9048 18.9319 12.9048 18.6667Z"/>
</mask>
<path fill-rule="evenodd" clip-rule="evenodd" d="M15.1688 1.66667H17.9741C19.1728 1.66667 20.1714 1.66667 20.9634 1.77333C21.8008 1.88533 22.5568 2.13333 23.1634 2.74C23.7714 3.348 24.0194 4.104 24.1314 4.94C24.2381 5.73333 24.2381 6.73333 24.2381 7.93067V9.66667C25.0074 9.66667 25.6581 9.67333 26.1968 9.728C26.8274 9.792 27.4141 9.932 27.9421 10.284C28.3421 10.552 28.6861 10.896 28.9541 11.2973C29.3061 11.824 29.4461 12.4107 29.5101 13.0413C29.5714 13.644 29.5714 14.3893 29.5714 15.2813V28.3333H29.9048C30.17 28.3333 30.4243 28.4387 30.6119 28.6262C30.7994 28.8138 30.9048 29.0681 30.9048 29.3333C30.9048 29.5986 30.7994 29.8529 30.6119 30.0404C30.4243 30.228 30.17 30.3333 29.9048 30.3333H3.2381C2.97288 30.3333 2.71853 30.228 2.53099 30.0404C2.34346 29.8529 2.2381 29.5986 2.2381 29.3333C2.2381 29.0681 2.34346 28.8138 2.53099 28.6262C2.71853 28.4387 2.97288 28.3333 3.2381 28.3333H3.57143V15.2827C3.57143 14.3893 3.57143 13.644 3.63276 13.0413C3.69676 12.4107 3.83676 11.824 4.18876 11.296C4.45676 10.896 4.80077 10.552 5.2021 10.284C5.72877 9.932 6.31543 9.792 6.9461 9.728C7.48477 9.67333 8.13543 9.668 8.90477 9.66667V7.93067C8.90477 6.73333 8.90477 5.73333 9.01143 4.94133C9.12343 4.104 9.37143 3.348 9.9781 2.74133C10.5861 2.13333 11.3421 1.88533 12.1781 1.77333C12.9714 1.66667 13.9714 1.66667 15.1688 1.66667ZM8.90477 11.6667C8.12743 11.6667 7.57943 11.6733 7.14877 11.7173C6.67543 11.7653 6.45677 11.8507 6.31277 11.948C6.13071 12.0696 5.97439 12.2259 5.85276 12.408C5.75543 12.552 5.6701 12.7707 5.6221 13.244C5.57277 13.7333 5.57143 14.3773 5.57143 15.3333V28.3333H8.90477V11.6667ZM10.9048 28.3333H15.5714V25.3333C15.5714 25.0681 15.6768 24.8138 15.8643 24.6262C16.0519 24.4387 16.3062 24.3333 16.5714 24.3333C16.8366 24.3333 17.091 24.4387 17.2785 24.6262C17.4661 24.8138 17.5714 25.0681 17.5714 25.3333V28.3333H22.2381V8C22.2381 6.71467 22.2354 5.85067 22.1488 5.20667C22.0661 4.592 21.9234 4.328 21.7488 4.15467C21.5754 3.98133 21.3128 3.83867 20.6981 3.75467C20.0541 3.66933 19.1901 3.66667 17.9048 3.66667H15.2381C13.9528 3.66667 13.0888 3.66933 12.4448 3.756C11.8301 3.83867 11.5661 3.98133 11.3928 4.156C11.2194 4.32933 11.0768 4.592 10.9928 5.20667C10.9088 5.85067 10.9048 6.71467 10.9048 8V28.3333ZM24.2381 28.3333H27.5714V15.3333C27.5714 14.376 27.5714 13.7333 27.5208 13.244C27.4728 12.7707 27.3874 12.552 27.2901 12.408C27.1685 12.2259 27.0122 12.0696 26.8301 11.948C26.6861 11.8507 26.4674 11.7653 25.9941 11.7173C25.5634 11.6733 25.0154 11.668 24.2381 11.6667V28.3333ZM12.9048 6.66667C12.9048 6.40145 13.0101 6.1471 13.1977 5.95956C13.3852 5.77202 13.6395 5.66667 13.9048 5.66667H19.2381C19.5033 5.66667 19.7577 5.77202 19.9452 5.95956C20.1327 6.1471 20.2381 6.40145 20.2381 6.66667C20.2381 6.93188 20.1327 7.18624 19.9452 7.37377C19.7577 7.56131 19.5033 7.66667 19.2381 7.66667H13.9048C13.6395 7.66667 13.3852 7.56131 13.1977 7.37377C13.0101 7.18624 12.9048 6.93188 12.9048 6.66667ZM12.9048 10.6667C12.9048 10.4015 13.0101 10.1471 13.1977 9.95956C13.3852 9.77202 13.6395 9.66667 13.9048 9.66667H19.2381C19.5033 9.66667 19.7577 9.77202 19.9452 9.95956C20.1327 10.1471 20.2381 10.4015 20.2381 10.6667C20.2381 10.9319 20.1327 11.1862 19.9452 11.3738C19.7577 11.5613 19.5033 11.6667 19.2381 11.6667H13.9048C13.6395 11.6667 13.3852 11.5613 13.1977 11.3738C13.0101 11.1862 12.9048 10.9319 12.9048 10.6667ZM12.9048 14.6667C12.9048 14.4015 13.0101 14.1471 13.1977 13.9596C13.3852 13.772 13.6395 13.6667 13.9048 13.6667H19.2381C19.5033 13.6667 19.7577 13.772 19.9452 13.9596C20.1327 14.1471 20.2381 14.4015 20.2381 14.6667C20.2381 14.9319 20.1327 15.1862 19.9452 15.3738C19.7577 15.5613 19.5033 15.6667 19.2381 15.6667H13.9048C13.6395 15.6667 13.3852 15.5613 13.1977 15.3738C13.0101 15.1862 12.9048 14.9319 12.9048 14.6667ZM12.9048 18.6667C12.9048 18.4015 13.0101 18.1471 13.1977 17.9596C13.3852 17.772 13.6395 17.6667 13.9048 17.6667H19.2381C19.5033 17.6667 19.7577 17.772 19.9452 17.9596C20.1327 18.1471 20.2381 18.4015 20.2381 18.6667C20.2381 18.9319 20.1327 19.1862 19.9452 19.3738C19.7577 19.5613 19.5033 19.6667 19.2381 19.6667H13.9048C13.6395 19.6667 13.3852 19.5613 13.1977 19.3738C13.0101 19.1862 12.9048 18.9319 12.9048 18.6667Z" fill="#787D83" stroke="#787D83" stroke-width="4" mask="url(#path-1-inside-1_8654_26691)"/>
</svg>
