<svg width="33" height="32" viewBox="0 0 33 32" fill="none" xmlns="http://www.w3.org/2000/svg">
<mask id="path-1-inside-1_1333_476" fill="white">
<path fill-rule="evenodd" clip-rule="evenodd" d="M14.6687 1.66667H17.474C18.6727 1.66667 19.6714 1.66667 20.4634 1.77333C21.3007 1.88533 22.0567 2.13333 22.6634 2.74C23.2714 3.348 23.5194 4.104 23.6314 4.94C23.738 5.73333 23.738 6.73333 23.738 7.93067V9.66667C24.5074 9.66667 25.158 9.67333 25.6967 9.728C26.3274 9.792 26.914 9.932 27.442 10.284C27.842 10.552 28.186 10.896 28.454 11.2973C28.806 11.824 28.946 12.4107 29.01 13.0413C29.0714 13.644 29.0714 14.3893 29.0714 15.2813V28.3333H29.4047C29.6699 28.3333 29.9243 28.4387 30.1118 28.6262C30.2993 28.8138 30.4047 29.0681 30.4047 29.3333C30.4047 29.5986 30.2993 29.8529 30.1118 30.0404C29.9243 30.228 29.6699 30.3333 29.4047 30.3333H2.73804C2.47282 30.3333 2.21847 30.228 2.03093 30.0404C1.84339 29.8529 1.73804 29.5986 1.73804 29.3333C1.73804 29.0681 1.84339 28.8138 2.03093 28.6262C2.21847 28.4387 2.47282 28.3333 2.73804 28.3333H3.07137V15.2827C3.07137 14.3893 3.07137 13.644 3.1327 13.0413C3.1967 12.4107 3.3367 11.824 3.6887 11.296C3.9567 10.896 4.3007 10.552 4.70204 10.284C5.2287 9.932 5.81537 9.792 6.44604 9.728C6.9847 9.67333 7.63537 9.668 8.4047 9.66667V7.93067C8.4047 6.73333 8.4047 5.73333 8.51137 4.94133C8.62337 4.104 8.87137 3.348 9.47804 2.74133C10.086 2.13333 10.842 1.88533 11.678 1.77333C12.4714 1.66667 13.4714 1.66667 14.6687 1.66667ZM8.4047 11.6667C7.62737 11.6667 7.07937 11.6733 6.6487 11.7173C6.17537 11.7653 5.9567 11.8507 5.8127 11.948C5.63064 12.0696 5.47433 12.2259 5.3527 12.408C5.25537 12.552 5.17004 12.7707 5.12204 13.244C5.0727 13.7333 5.07137 14.3773 5.07137 15.3333V28.3333H8.4047V11.6667ZM10.4047 28.3333H15.0714V25.3333C15.0714 25.0681 15.1767 24.8138 15.3643 24.6262C15.5518 24.4387 15.8062 24.3333 16.0714 24.3333C16.3366 24.3333 16.5909 24.4387 16.7785 24.6262C16.966 24.8138 17.0714 25.0681 17.0714 25.3333V28.3333H21.738V8C21.738 6.71467 21.7354 5.85067 21.6487 5.20667C21.566 4.592 21.4234 4.328 21.2487 4.15467C21.0754 3.98133 20.8127 3.83867 20.198 3.75467C19.554 3.66933 18.69 3.66667 17.4047 3.66667H14.738C13.4527 3.66667 12.5887 3.66933 11.9447 3.756C11.33 3.83867 11.066 3.98133 10.8927 4.156C10.7194 4.32933 10.5767 4.592 10.4927 5.20667C10.4087 5.85067 10.4047 6.71467 10.4047 8V28.3333ZM23.738 28.3333H27.0714V15.3333C27.0714 14.376 27.0714 13.7333 27.0207 13.244C26.9727 12.7707 26.8874 12.552 26.79 12.408C26.6684 12.2259 26.5121 12.0696 26.33 11.948C26.186 11.8507 25.9674 11.7653 25.494 11.7173C25.0634 11.6733 24.5154 11.668 23.738 11.6667V28.3333ZM12.4047 6.66667C12.4047 6.40145 12.5101 6.1471 12.6976 5.95956C12.8851 5.77202 13.1395 5.66667 13.4047 5.66667H18.738C19.0033 5.66667 19.2576 5.77202 19.4451 5.95956C19.6327 6.1471 19.738 6.40145 19.738 6.66667C19.738 6.93188 19.6327 7.18624 19.4451 7.37377C19.2576 7.56131 19.0033 7.66667 18.738 7.66667H13.4047C13.1395 7.66667 12.8851 7.56131 12.6976 7.37377C12.5101 7.18624 12.4047 6.93188 12.4047 6.66667ZM12.4047 10.6667C12.4047 10.4015 12.5101 10.1471 12.6976 9.95956C12.8851 9.77202 13.1395 9.66667 13.4047 9.66667H18.738C19.0033 9.66667 19.2576 9.77202 19.4451 9.95956C19.6327 10.1471 19.738 10.4015 19.738 10.6667C19.738 10.9319 19.6327 11.1862 19.4451 11.3738C19.2576 11.5613 19.0033 11.6667 18.738 11.6667H13.4047C13.1395 11.6667 12.8851 11.5613 12.6976 11.3738C12.5101 11.1862 12.4047 10.9319 12.4047 10.6667ZM12.4047 14.6667C12.4047 14.4015 12.5101 14.1471 12.6976 13.9596C12.8851 13.772 13.1395 13.6667 13.4047 13.6667H18.738C19.0033 13.6667 19.2576 13.772 19.4451 13.9596C19.6327 14.1471 19.738 14.4015 19.738 14.6667C19.738 14.9319 19.6327 15.1862 19.4451 15.3738C19.2576 15.5613 19.0033 15.6667 18.738 15.6667H13.4047C13.1395 15.6667 12.8851 15.5613 12.6976 15.3738C12.5101 15.1862 12.4047 14.9319 12.4047 14.6667ZM12.4047 18.6667C12.4047 18.4015 12.5101 18.1471 12.6976 17.9596C12.8851 17.772 13.1395 17.6667 13.4047 17.6667H18.738C19.0033 17.6667 19.2576 17.772 19.4451 17.9596C19.6327 18.1471 19.738 18.4015 19.738 18.6667C19.738 18.9319 19.6327 19.1862 19.4451 19.3738C19.2576 19.5613 19.0033 19.6667 18.738 19.6667H13.4047C13.1395 19.6667 12.8851 19.5613 12.6976 19.3738C12.5101 19.1862 12.4047 18.9319 12.4047 18.6667Z"/>
</mask>
<path fill-rule="evenodd" clip-rule="evenodd" d="M14.6687 1.66667H17.474C18.6727 1.66667 19.6714 1.66667 20.4634 1.77333C21.3007 1.88533 22.0567 2.13333 22.6634 2.74C23.2714 3.348 23.5194 4.104 23.6314 4.94C23.738 5.73333 23.738 6.73333 23.738 7.93067V9.66667C24.5074 9.66667 25.158 9.67333 25.6967 9.728C26.3274 9.792 26.914 9.932 27.442 10.284C27.842 10.552 28.186 10.896 28.454 11.2973C28.806 11.824 28.946 12.4107 29.01 13.0413C29.0714 13.644 29.0714 14.3893 29.0714 15.2813V28.3333H29.4047C29.6699 28.3333 29.9243 28.4387 30.1118 28.6262C30.2993 28.8138 30.4047 29.0681 30.4047 29.3333C30.4047 29.5986 30.2993 29.8529 30.1118 30.0404C29.9243 30.228 29.6699 30.3333 29.4047 30.3333H2.73804C2.47282 30.3333 2.21847 30.228 2.03093 30.0404C1.84339 29.8529 1.73804 29.5986 1.73804 29.3333C1.73804 29.0681 1.84339 28.8138 2.03093 28.6262C2.21847 28.4387 2.47282 28.3333 2.73804 28.3333H3.07137V15.2827C3.07137 14.3893 3.07137 13.644 3.1327 13.0413C3.1967 12.4107 3.3367 11.824 3.6887 11.296C3.9567 10.896 4.3007 10.552 4.70204 10.284C5.2287 9.932 5.81537 9.792 6.44604 9.728C6.9847 9.67333 7.63537 9.668 8.4047 9.66667V7.93067C8.4047 6.73333 8.4047 5.73333 8.51137 4.94133C8.62337 4.104 8.87137 3.348 9.47804 2.74133C10.086 2.13333 10.842 1.88533 11.678 1.77333C12.4714 1.66667 13.4714 1.66667 14.6687 1.66667ZM8.4047 11.6667C7.62737 11.6667 7.07937 11.6733 6.6487 11.7173C6.17537 11.7653 5.9567 11.8507 5.8127 11.948C5.63064 12.0696 5.47433 12.2259 5.3527 12.408C5.25537 12.552 5.17004 12.7707 5.12204 13.244C5.0727 13.7333 5.07137 14.3773 5.07137 15.3333V28.3333H8.4047V11.6667ZM10.4047 28.3333H15.0714V25.3333C15.0714 25.0681 15.1767 24.8138 15.3643 24.6262C15.5518 24.4387 15.8062 24.3333 16.0714 24.3333C16.3366 24.3333 16.5909 24.4387 16.7785 24.6262C16.966 24.8138 17.0714 25.0681 17.0714 25.3333V28.3333H21.738V8C21.738 6.71467 21.7354 5.85067 21.6487 5.20667C21.566 4.592 21.4234 4.328 21.2487 4.15467C21.0754 3.98133 20.8127 3.83867 20.198 3.75467C19.554 3.66933 18.69 3.66667 17.4047 3.66667H14.738C13.4527 3.66667 12.5887 3.66933 11.9447 3.756C11.33 3.83867 11.066 3.98133 10.8927 4.156C10.7194 4.32933 10.5767 4.592 10.4927 5.20667C10.4087 5.85067 10.4047 6.71467 10.4047 8V28.3333ZM23.738 28.3333H27.0714V15.3333C27.0714 14.376 27.0714 13.7333 27.0207 13.244C26.9727 12.7707 26.8874 12.552 26.79 12.408C26.6684 12.2259 26.5121 12.0696 26.33 11.948C26.186 11.8507 25.9674 11.7653 25.494 11.7173C25.0634 11.6733 24.5154 11.668 23.738 11.6667V28.3333ZM12.4047 6.66667C12.4047 6.40145 12.5101 6.1471 12.6976 5.95956C12.8851 5.77202 13.1395 5.66667 13.4047 5.66667H18.738C19.0033 5.66667 19.2576 5.77202 19.4451 5.95956C19.6327 6.1471 19.738 6.40145 19.738 6.66667C19.738 6.93188 19.6327 7.18624 19.4451 7.37377C19.2576 7.56131 19.0033 7.66667 18.738 7.66667H13.4047C13.1395 7.66667 12.8851 7.56131 12.6976 7.37377C12.5101 7.18624 12.4047 6.93188 12.4047 6.66667ZM12.4047 10.6667C12.4047 10.4015 12.5101 10.1471 12.6976 9.95956C12.8851 9.77202 13.1395 9.66667 13.4047 9.66667H18.738C19.0033 9.66667 19.2576 9.77202 19.4451 9.95956C19.6327 10.1471 19.738 10.4015 19.738 10.6667C19.738 10.9319 19.6327 11.1862 19.4451 11.3738C19.2576 11.5613 19.0033 11.6667 18.738 11.6667H13.4047C13.1395 11.6667 12.8851 11.5613 12.6976 11.3738C12.5101 11.1862 12.4047 10.9319 12.4047 10.6667ZM12.4047 14.6667C12.4047 14.4015 12.5101 14.1471 12.6976 13.9596C12.8851 13.772 13.1395 13.6667 13.4047 13.6667H18.738C19.0033 13.6667 19.2576 13.772 19.4451 13.9596C19.6327 14.1471 19.738 14.4015 19.738 14.6667C19.738 14.9319 19.6327 15.1862 19.4451 15.3738C19.2576 15.5613 19.0033 15.6667 18.738 15.6667H13.4047C13.1395 15.6667 12.8851 15.5613 12.6976 15.3738C12.5101 15.1862 12.4047 14.9319 12.4047 14.6667ZM12.4047 18.6667C12.4047 18.4015 12.5101 18.1471 12.6976 17.9596C12.8851 17.772 13.1395 17.6667 13.4047 17.6667H18.738C19.0033 17.6667 19.2576 17.772 19.4451 17.9596C19.6327 18.1471 19.738 18.4015 19.738 18.6667C19.738 18.9319 19.6327 19.1862 19.4451 19.3738C19.2576 19.5613 19.0033 19.6667 18.738 19.6667H13.4047C13.1395 19.6667 12.8851 19.5613 12.6976 19.3738C12.5101 19.1862 12.4047 18.9319 12.4047 18.6667Z" fill="#282A2C" stroke="#282A2C" stroke-width="4" mask="url(#path-1-inside-1_1333_476)"/>
</svg>
