<svg width="33" height="32" viewBox="0 0 33 32" fill="none" xmlns="http://www.w3.org/2000/svg">
<mask id="path-1-inside-1_8698_5007" fill="white">
<path fill-rule="evenodd" clip-rule="evenodd" d="M14.6687 1.66669H17.474C18.6727 1.66669 19.6714 1.66669 20.4634 1.77335C21.3007 1.88535 22.0567 2.13335 22.6634 2.74002C23.2714 3.34802 23.5194 4.10402 23.6314 4.94002C23.738 5.73335 23.738 6.73335 23.738 7.93069V9.66669C24.5074 9.66669 25.158 9.67335 25.6967 9.72802C26.3274 9.79202 26.914 9.93202 27.442 10.284C27.842 10.552 28.186 10.896 28.454 11.2974C28.806 11.824 28.946 12.4107 29.01 13.0414C29.0714 13.644 29.0714 14.3894 29.0714 15.2814V28.3334H29.4047C29.6699 28.3334 29.9243 28.4387 30.1118 28.6262C30.2993 28.8138 30.4047 29.0681 30.4047 29.3334C30.4047 29.5986 30.2993 29.8529 30.1118 30.0405C29.9243 30.228 29.6699 30.3334 29.4047 30.3334H2.73804C2.47282 30.3334 2.21847 30.228 2.03093 30.0405C1.84339 29.8529 1.73804 29.5986 1.73804 29.3334C1.73804 29.0681 1.84339 28.8138 2.03093 28.6262C2.21847 28.4387 2.47282 28.3334 2.73804 28.3334H3.07137V15.2827C3.07137 14.3894 3.07137 13.644 3.1327 13.0414C3.1967 12.4107 3.3367 11.824 3.6887 11.296C3.9567 10.896 4.3007 10.552 4.70204 10.284C5.2287 9.93202 5.81537 9.79202 6.44604 9.72802C6.9847 9.67335 7.63537 9.66802 8.4047 9.66669V7.93069C8.4047 6.73335 8.4047 5.73335 8.51137 4.94135C8.62337 4.10402 8.87137 3.34802 9.47804 2.74135C10.086 2.13335 10.842 1.88535 11.678 1.77335C12.4714 1.66669 13.4714 1.66669 14.6687 1.66669ZM8.4047 11.6667C7.62737 11.6667 7.07937 11.6734 6.6487 11.7174C6.17537 11.7654 5.9567 11.8507 5.8127 11.948C5.63064 12.0697 5.47433 12.226 5.3527 12.408C5.25537 12.552 5.17004 12.7707 5.12204 13.244C5.0727 13.7334 5.07137 14.3774 5.07137 15.3334V28.3334H8.4047V11.6667ZM10.4047 28.3334H15.0714V25.3334C15.0714 25.0681 15.1767 24.8138 15.3643 24.6262C15.5518 24.4387 15.8062 24.3334 16.0714 24.3334C16.3366 24.3334 16.5909 24.4387 16.7785 24.6262C16.966 24.8138 17.0714 25.0681 17.0714 25.3334V28.3334H21.738V8.00002C21.738 6.71469 21.7354 5.85069 21.6487 5.20669C21.566 4.59202 21.4234 4.32802 21.2487 4.15469C21.0754 3.98135 20.8127 3.83869 20.198 3.75469C19.554 3.66935 18.69 3.66669 17.4047 3.66669H14.738C13.4527 3.66669 12.5887 3.66935 11.9447 3.75602C11.33 3.83869 11.066 3.98135 10.8927 4.15602C10.7194 4.32935 10.5767 4.59202 10.4927 5.20669C10.4087 5.85069 10.4047 6.71469 10.4047 8.00002V28.3334ZM23.738 28.3334H27.0714V15.3334C27.0714 14.376 27.0714 13.7334 27.0207 13.244C26.9727 12.7707 26.8874 12.552 26.79 12.408C26.6684 12.226 26.5121 12.0697 26.33 11.948C26.186 11.8507 25.9674 11.7654 25.494 11.7174C25.0634 11.6734 24.5154 11.668 23.738 11.6667V28.3334ZM12.4047 6.66669C12.4047 6.40147 12.5101 6.14712 12.6976 5.95958C12.8851 5.77204 13.1395 5.66669 13.4047 5.66669H18.738C19.0033 5.66669 19.2576 5.77204 19.4451 5.95958C19.6327 6.14712 19.738 6.40147 19.738 6.66669C19.738 6.9319 19.6327 7.18626 19.4451 7.37379C19.2576 7.56133 19.0033 7.66669 18.738 7.66669H13.4047C13.1395 7.66669 12.8851 7.56133 12.6976 7.37379C12.5101 7.18626 12.4047 6.9319 12.4047 6.66669ZM12.4047 10.6667C12.4047 10.4015 12.5101 10.1471 12.6976 9.95958C12.8851 9.77204 13.1395 9.66669 13.4047 9.66669H18.738C19.0033 9.66669 19.2576 9.77204 19.4451 9.95958C19.6327 10.1471 19.738 10.4015 19.738 10.6667C19.738 10.9319 19.6327 11.1863 19.4451 11.3738C19.2576 11.5613 19.0033 11.6667 18.738 11.6667H13.4047C13.1395 11.6667 12.8851 11.5613 12.6976 11.3738C12.5101 11.1863 12.4047 10.9319 12.4047 10.6667ZM12.4047 14.6667C12.4047 14.4015 12.5101 14.1471 12.6976 13.9596C12.8851 13.772 13.1395 13.6667 13.4047 13.6667H18.738C19.0033 13.6667 19.2576 13.772 19.4451 13.9596C19.6327 14.1471 19.738 14.4015 19.738 14.6667C19.738 14.9319 19.6327 15.1863 19.4451 15.3738C19.2576 15.5613 19.0033 15.6667 18.738 15.6667H13.4047C13.1395 15.6667 12.8851 15.5613 12.6976 15.3738C12.5101 15.1863 12.4047 14.9319 12.4047 14.6667ZM12.4047 18.6667C12.4047 18.4015 12.5101 18.1471 12.6976 17.9596C12.8851 17.772 13.1395 17.6667 13.4047 17.6667H18.738C19.0033 17.6667 19.2576 17.772 19.4451 17.9596C19.6327 18.1471 19.738 18.4015 19.738 18.6667C19.738 18.9319 19.6327 19.1863 19.4451 19.3738C19.2576 19.5613 19.0033 19.6667 18.738 19.6667H13.4047C13.1395 19.6667 12.8851 19.5613 12.6976 19.3738C12.5101 19.1863 12.4047 18.9319 12.4047 18.6667Z"/>
</mask>
<path fill-rule="evenodd" clip-rule="evenodd" d="M14.6687 1.66669H17.474C18.6727 1.66669 19.6714 1.66669 20.4634 1.77335C21.3007 1.88535 22.0567 2.13335 22.6634 2.74002C23.2714 3.34802 23.5194 4.10402 23.6314 4.94002C23.738 5.73335 23.738 6.73335 23.738 7.93069V9.66669C24.5074 9.66669 25.158 9.67335 25.6967 9.72802C26.3274 9.79202 26.914 9.93202 27.442 10.284C27.842 10.552 28.186 10.896 28.454 11.2974C28.806 11.824 28.946 12.4107 29.01 13.0414C29.0714 13.644 29.0714 14.3894 29.0714 15.2814V28.3334H29.4047C29.6699 28.3334 29.9243 28.4387 30.1118 28.6262C30.2993 28.8138 30.4047 29.0681 30.4047 29.3334C30.4047 29.5986 30.2993 29.8529 30.1118 30.0405C29.9243 30.228 29.6699 30.3334 29.4047 30.3334H2.73804C2.47282 30.3334 2.21847 30.228 2.03093 30.0405C1.84339 29.8529 1.73804 29.5986 1.73804 29.3334C1.73804 29.0681 1.84339 28.8138 2.03093 28.6262C2.21847 28.4387 2.47282 28.3334 2.73804 28.3334H3.07137V15.2827C3.07137 14.3894 3.07137 13.644 3.1327 13.0414C3.1967 12.4107 3.3367 11.824 3.6887 11.296C3.9567 10.896 4.3007 10.552 4.70204 10.284C5.2287 9.93202 5.81537 9.79202 6.44604 9.72802C6.9847 9.67335 7.63537 9.66802 8.4047 9.66669V7.93069C8.4047 6.73335 8.4047 5.73335 8.51137 4.94135C8.62337 4.10402 8.87137 3.34802 9.47804 2.74135C10.086 2.13335 10.842 1.88535 11.678 1.77335C12.4714 1.66669 13.4714 1.66669 14.6687 1.66669ZM8.4047 11.6667C7.62737 11.6667 7.07937 11.6734 6.6487 11.7174C6.17537 11.7654 5.9567 11.8507 5.8127 11.948C5.63064 12.0697 5.47433 12.226 5.3527 12.408C5.25537 12.552 5.17004 12.7707 5.12204 13.244C5.0727 13.7334 5.07137 14.3774 5.07137 15.3334V28.3334H8.4047V11.6667ZM10.4047 28.3334H15.0714V25.3334C15.0714 25.0681 15.1767 24.8138 15.3643 24.6262C15.5518 24.4387 15.8062 24.3334 16.0714 24.3334C16.3366 24.3334 16.5909 24.4387 16.7785 24.6262C16.966 24.8138 17.0714 25.0681 17.0714 25.3334V28.3334H21.738V8.00002C21.738 6.71469 21.7354 5.85069 21.6487 5.20669C21.566 4.59202 21.4234 4.32802 21.2487 4.15469C21.0754 3.98135 20.8127 3.83869 20.198 3.75469C19.554 3.66935 18.69 3.66669 17.4047 3.66669H14.738C13.4527 3.66669 12.5887 3.66935 11.9447 3.75602C11.33 3.83869 11.066 3.98135 10.8927 4.15602C10.7194 4.32935 10.5767 4.59202 10.4927 5.20669C10.4087 5.85069 10.4047 6.71469 10.4047 8.00002V28.3334ZM23.738 28.3334H27.0714V15.3334C27.0714 14.376 27.0714 13.7334 27.0207 13.244C26.9727 12.7707 26.8874 12.552 26.79 12.408C26.6684 12.226 26.5121 12.0697 26.33 11.948C26.186 11.8507 25.9674 11.7654 25.494 11.7174C25.0634 11.6734 24.5154 11.668 23.738 11.6667V28.3334ZM12.4047 6.66669C12.4047 6.40147 12.5101 6.14712 12.6976 5.95958C12.8851 5.77204 13.1395 5.66669 13.4047 5.66669H18.738C19.0033 5.66669 19.2576 5.77204 19.4451 5.95958C19.6327 6.14712 19.738 6.40147 19.738 6.66669C19.738 6.9319 19.6327 7.18626 19.4451 7.37379C19.2576 7.56133 19.0033 7.66669 18.738 7.66669H13.4047C13.1395 7.66669 12.8851 7.56133 12.6976 7.37379C12.5101 7.18626 12.4047 6.9319 12.4047 6.66669ZM12.4047 10.6667C12.4047 10.4015 12.5101 10.1471 12.6976 9.95958C12.8851 9.77204 13.1395 9.66669 13.4047 9.66669H18.738C19.0033 9.66669 19.2576 9.77204 19.4451 9.95958C19.6327 10.1471 19.738 10.4015 19.738 10.6667C19.738 10.9319 19.6327 11.1863 19.4451 11.3738C19.2576 11.5613 19.0033 11.6667 18.738 11.6667H13.4047C13.1395 11.6667 12.8851 11.5613 12.6976 11.3738C12.5101 11.1863 12.4047 10.9319 12.4047 10.6667ZM12.4047 14.6667C12.4047 14.4015 12.5101 14.1471 12.6976 13.9596C12.8851 13.772 13.1395 13.6667 13.4047 13.6667H18.738C19.0033 13.6667 19.2576 13.772 19.4451 13.9596C19.6327 14.1471 19.738 14.4015 19.738 14.6667C19.738 14.9319 19.6327 15.1863 19.4451 15.3738C19.2576 15.5613 19.0033 15.6667 18.738 15.6667H13.4047C13.1395 15.6667 12.8851 15.5613 12.6976 15.3738C12.5101 15.1863 12.4047 14.9319 12.4047 14.6667ZM12.4047 18.6667C12.4047 18.4015 12.5101 18.1471 12.6976 17.9596C12.8851 17.772 13.1395 17.6667 13.4047 17.6667H18.738C19.0033 17.6667 19.2576 17.772 19.4451 17.9596C19.6327 18.1471 19.738 18.4015 19.738 18.6667C19.738 18.9319 19.6327 19.1863 19.4451 19.3738C19.2576 19.5613 19.0033 19.6667 18.738 19.6667H13.4047C13.1395 19.6667 12.8851 19.5613 12.6976 19.3738C12.5101 19.1863 12.4047 18.9319 12.4047 18.6667Z" fill="#B50A27" stroke="#B50A27" stroke-width="4" mask="url(#path-1-inside-1_8698_5007)"/>
</svg>
