<svg width="33" height="32" viewBox="0 0 33 32" fill="none" xmlns="http://www.w3.org/2000/svg">
<path d="M22.5477 8H26.881C27.2346 8 27.5738 8.14048 27.8238 8.39052C28.0739 8.64057 28.2144 8.97971 28.2144 9.33333V13.6667C28.2144 13.9319 28.109 14.1862 27.9215 14.3738C27.7339 14.5613 27.4796 14.6667 27.2144 14.6667H26.881C26.1738 14.6667 25.4955 14.9476 24.9954 15.4477C24.4953 15.9478 24.2144 16.6261 24.2144 17.3333C24.2144 18.0406 24.4953 18.7189 24.9954 19.219C25.4955 19.719 26.1738 20 26.881 20H27.2144C27.4796 20 27.7339 20.1054 27.9215 20.2929C28.109 20.4804 28.2144 20.7348 28.2144 21V26.6667C28.2144 27.0203 28.0739 27.3594 27.8238 27.6095C27.5738 27.8595 27.2346 28 26.881 28H22.5477C22.2825 28 22.0281 27.8946 21.8406 27.7071C21.653 27.5196 21.5477 27.2652 21.5477 27V26.6667C21.5477 25.9594 21.2667 25.2811 20.7666 24.781C20.2665 24.281 19.5883 24 18.881 24C18.1738 24 17.4955 24.281 16.9954 24.781C16.4953 25.2811 16.2144 25.9594 16.2144 26.6667V27C16.2144 27.2652 16.109 27.5196 15.9215 27.7071C15.7339 27.8946 15.4796 28 15.2144 28H9.54769C9.19407 28 8.85493 27.8595 8.60488 27.6095C8.35483 27.3594 8.21436 27.0203 8.21436 26.6667V21C8.21436 20.7348 8.109 20.4804 7.92146 20.2929C7.73393 20.1054 7.47957 20 7.21436 20H6.88102C6.17378 20 5.4955 19.719 4.9954 19.219C4.49531 18.7189 4.21436 18.0406 4.21436 17.3333C4.21436 16.6261 4.49531 15.9478 4.9954 15.4477C5.4955 14.9476 6.17378 14.6667 6.88102 14.6667H7.21436C7.47957 14.6667 7.73393 14.5613 7.92146 14.3738C8.109 14.1862 8.21436 13.9319 8.21436 13.6667V9.33333C8.21436 8.97971 8.35483 8.64057 8.60488 8.39052C8.85493 8.14048 9.19407 8 9.54769 8H15.2144C15.4796 8 15.7339 7.89464 15.9215 7.70711C16.109 7.51957 16.2144 7.26522 16.2144 7V6.66667C16.2144 5.95942 16.4953 5.28115 16.9954 4.78105C17.4955 4.28095 18.1738 4 18.881 4C19.5883 4 20.2665 4.28095 20.7666 4.78105C21.2667 5.28115 21.5477 5.95942 21.5477 6.66667V7C21.5477 7.552 21.9957 8 22.5477 8Z" stroke="#282A2C" stroke-width="2" stroke-linecap="round" stroke-linejoin="round"/>
</svg>
