<svg width="33" height="32" viewBox="0 0 33 32" fill="none" xmlns="http://www.w3.org/2000/svg">
<path d="M23.0476 8H27.381C27.7346 8 28.0737 8.14048 28.3238 8.39052C28.5738 8.64057 28.7143 8.97971 28.7143 9.33333V13.6667C28.7143 13.9319 28.6089 14.1862 28.4214 14.3738C28.2339 14.5613 27.9795 14.6667 27.7143 14.6667H27.381C26.6737 14.6667 25.9954 14.9476 25.4953 15.4477C24.9952 15.9478 24.7143 16.6261 24.7143 17.3333C24.7143 18.0406 24.9952 18.7189 25.4953 19.219C25.9954 19.719 26.6737 20 27.381 20H27.7143C27.9795 20 28.2339 20.1054 28.4214 20.2929C28.6089 20.4804 28.7143 20.7348 28.7143 21V26.6667C28.7143 27.0203 28.5738 27.3594 28.3238 27.6095C28.0737 27.8595 27.7346 28 27.381 28H23.0476C22.7824 28 22.5281 27.8946 22.3405 27.7071C22.153 27.5196 22.0476 27.2652 22.0476 27V26.6667C22.0476 25.9594 21.7667 25.2811 21.2666 24.781C20.7665 24.281 20.0882 24 19.381 24C18.6737 24 17.9954 24.281 17.4953 24.781C16.9952 25.2811 16.7143 25.9594 16.7143 26.6667V27C16.7143 27.2652 16.6089 27.5196 16.4214 27.7071C16.2339 27.8946 15.9795 28 15.7143 28H10.0476C9.69401 28 9.35487 27.8595 9.10482 27.6095C8.85477 27.3594 8.71429 27.0203 8.71429 26.6667V21C8.71429 20.7348 8.60894 20.4804 8.4214 20.2929C8.23387 20.1054 7.97951 20 7.71429 20H7.38096C6.67372 20 5.99544 19.719 5.49534 19.219C4.99525 18.7189 4.71429 18.0406 4.71429 17.3333C4.71429 16.6261 4.99525 15.9478 5.49534 15.4477C5.99544 14.9476 6.67372 14.6667 7.38096 14.6667H7.71429C7.97951 14.6667 8.23387 14.5613 8.4214 14.3738C8.60894 14.1862 8.71429 13.9319 8.71429 13.6667V9.33333C8.71429 8.97971 8.85477 8.64057 9.10482 8.39052C9.35487 8.14048 9.69401 8 10.0476 8H15.7143C15.9795 8 16.2339 7.89464 16.4214 7.70711C16.6089 7.51957 16.7143 7.26522 16.7143 7V6.66667C16.7143 5.95942 16.9952 5.28115 17.4953 4.78105C17.9954 4.28095 18.6737 4 19.381 4C20.0882 4 20.7665 4.28095 21.2666 4.78105C21.7667 5.28115 22.0476 5.95942 22.0476 6.66667V7C22.0476 7.552 22.4956 8 23.0476 8Z" stroke="#787D83" stroke-width="2" stroke-linecap="round" stroke-linejoin="round"/>
</svg>
