<svg width="32" height="32" viewBox="0 0 32 32" fill="none" xmlns="http://www.w3.org/2000/svg">
<path d="M20 12H27.3333C28.2174 12 29.0652 12.3512 29.6904 12.9763C30.3155 13.6015 30.6667 14.4493 30.6667 15.3334C30.6667 16.2174 30.3155 17.0653 29.6904 17.6904C29.0652 18.3155 28.2174 18.6667 27.3333 18.6667H21.9733C21.7736 18.6668 21.5765 18.7118 21.3964 18.7984C21.2164 18.8849 21.0582 19.0108 20.9333 19.1667L16.4 24.8334C16.2752 24.9893 16.1169 25.1151 15.9369 25.2017C15.7569 25.2882 15.5597 25.3332 15.36 25.3334H12.6347C12.4169 25.3332 12.2025 25.2797 12.0101 25.1776C11.8178 25.0755 11.6534 24.9278 11.5313 24.7474C11.4093 24.5671 11.3332 24.3596 11.3099 24.143C11.2865 23.9265 11.3165 23.7076 11.3973 23.5054L12.6 20.4947C12.6808 20.2926 12.7108 20.0737 12.6875 19.8573C12.6642 19.6409 12.5883 19.4335 12.4664 19.2532C12.3445 19.0729 12.1802 18.9251 11.9881 18.8229C11.7959 18.7207 11.5817 18.667 11.364 18.6667H6.212C5.95111 18.6667 5.69596 18.5901 5.47815 18.4465C5.26035 18.3028 5.08946 18.0985 4.98667 17.8587L2.12934 11.192C2.04236 10.9891 2.00712 10.7678 2.02678 10.5479C2.04645 10.3281 2.12039 10.1165 2.24199 9.93225C2.36359 9.74801 2.52903 9.59684 2.72347 9.49231C2.9179 9.38778 3.13525 9.33316 3.356 9.33335H5.84267C6.09022 9.33349 6.33285 9.40253 6.54337 9.53276C6.7539 9.66298 6.92402 9.84925 7.03467 10.0707L7.632 11.2627C7.74266 11.4841 7.91278 11.6704 8.1233 11.8006C8.33383 11.9308 8.57646 11.9999 8.824 12H13.3333M20 12L16.4 7.20002C16.2758 7.03443 16.1148 6.90002 15.9296 6.80745C15.7445 6.71488 15.5403 6.66669 15.3333 6.66669H12.824C12.5968 6.66681 12.3734 6.72498 12.175 6.83568C11.9766 6.94638 11.8098 7.10594 11.6904 7.29921C11.571 7.49249 11.503 7.71307 11.4927 7.94003C11.4825 8.16699 11.5305 8.39279 11.632 8.59602L13.3333 12M20 12H13.3333" stroke="#787D83" stroke-width="2" stroke-linecap="round" stroke-linejoin="round"/>
</svg>
