<svg width="33" height="32" viewBox="0 0 33 32" fill="none" xmlns="http://www.w3.org/2000/svg">
<path d="M4.92847 23.3333V26M28.9285 23.3333V26M6.2618 8C6.2618 7.46957 6.47251 6.96086 6.84759 6.58579C7.22266 6.21071 7.73137 6 8.2618 6H25.5951C26.1256 6 26.6343 6.21071 27.0093 6.58579C27.3844 6.96086 27.5951 7.46957 27.5951 8V15.3333H6.2618V8Z" stroke="#B50A27" stroke-width="2" stroke-linecap="round" stroke-linejoin="round"/>
<path d="M20.2619 12H13.5952C13.0648 12 12.5561 12.2107 12.181 12.5858C11.8059 12.9609 11.5952 13.4696 11.5952 14V15.3333H22.2619V14C22.2619 13.4696 22.0512 12.9609 21.6761 12.5858C21.301 12.2107 20.7923 12 20.2619 12ZM3.59521 17.3333C3.59521 16.8029 3.80593 16.2942 4.181 15.9191C4.55607 15.544 5.06478 15.3333 5.59521 15.3333H28.2619C28.7923 15.3333 29.301 15.544 29.6761 15.9191C30.0512 16.2942 30.2619 16.8029 30.2619 17.3333V23.3333H3.59521V17.3333Z" stroke="#B50A27" stroke-width="1.5" stroke-linecap="round" stroke-linejoin="round"/>
</svg>
