<svg width="33" height="32" viewBox="0 0 33 32" fill="none" xmlns="http://www.w3.org/2000/svg">
<path d="M4.42853 23.3333V26M28.4285 23.3333V26M5.76186 8C5.76186 7.46957 5.97257 6.96086 6.34765 6.58579C6.72272 6.21071 7.23143 6 7.76186 6H25.0952C25.6256 6 26.1343 6.21071 26.5094 6.58579C26.8845 6.96086 27.0952 7.46957 27.0952 8V15.3333H5.76186V8Z" stroke="#787D83" stroke-width="2" stroke-linecap="round" stroke-linejoin="round"/>
<path d="M19.7619 12H13.0952C12.5648 12 12.0561 12.2107 11.681 12.5858C11.3059 12.9609 11.0952 13.4696 11.0952 14V15.3333H21.7619V14C21.7619 13.4696 21.5512 12.9609 21.1761 12.5858C20.801 12.2107 20.2923 12 19.7619 12ZM3.09521 17.3333C3.09521 16.8029 3.30593 16.2942 3.681 15.9191C4.05607 15.544 4.56478 15.3333 5.09521 15.3333H27.7619C28.2923 15.3333 28.801 15.544 29.1761 15.9191C29.5512 16.2942 29.7619 16.8029 29.7619 17.3333V23.3333H3.09521V17.3333Z" stroke="#787D83" stroke-width="1.5" stroke-linecap="round" stroke-linejoin="round"/>
</svg>
