<svg width="32" height="32" viewBox="0 0 32 32" fill="none" xmlns="http://www.w3.org/2000/svg">
<path d="M13.8261 17.8315L14.572 18.6666L14.5713 18.6673L14.5712 18.6674L12.724 16.5977L13.8261 17.8315ZM15.3504 17.7948L19.3325 13.3327L19.3331 13.3324L19.3339 13.3326L19.3342 13.3333L19.3339 13.334L15.3504 17.7948Z" fill="#B50A27" stroke="#B50A27" stroke-width="2"/>
<path fill-rule="evenodd" clip-rule="evenodd" d="M16 1.66667C14.7493 1.66667 13.556 2.07601 11.6307 2.73467L10.6613 3.06801C8.68667 3.74267 7.16133 4.26534 6.07067 4.708C5.52133 4.93067 5.048 5.14801 4.668 5.36801C4.30133 5.58134 3.93467 5.84667 3.68533 6.20267C3.43867 6.55334 3.31067 6.98534 3.23067 7.40267C3.14667 7.83467 3.09733 8.35334 3.064 8.94934C3 10.1307 3 11.752 3 13.8533V15.988C3 24.1227 9.144 28.0227 12.7973 29.62L12.8333 29.6347C13.2867 29.8333 13.7133 30.0187 14.2027 30.144C14.7187 30.2773 15.268 30.3333 16 30.3333C16.7333 30.3333 17.28 30.2773 17.7973 30.144C18.2867 30.0187 18.7133 29.8333 19.1653 29.6347L19.2027 29.62C22.856 28.0227 29 24.1227 29 15.988V13.8533C29 11.752 29 10.1307 28.936 8.94801C28.9145 8.42935 28.8588 7.91267 28.7693 7.40134C28.6893 6.98534 28.5613 6.55334 28.316 6.20134C28.0653 5.84667 27.6987 5.58134 27.332 5.36801C26.88 5.11645 26.4113 4.89594 25.9293 4.708C24.8387 4.26534 23.3133 3.74267 21.3387 3.06801L20.3693 2.73467C18.444 2.07601 17.2493 1.66667 16 1.66667ZM12.1067 4.68534C14.26 3.94934 15.1227 3.66667 16 3.66667C16.8773 3.66667 17.74 3.94934 19.8933 4.68534L20.656 4.94667C22.6733 5.63734 24.144 6.14134 25.176 6.56001C25.692 6.77067 26.0653 6.94667 26.328 7.09867C26.4573 7.17334 26.5467 7.23467 26.6053 7.28401C26.656 7.32401 26.676 7.34801 26.6787 7.35067C26.6961 7.38207 26.7104 7.41512 26.7213 7.44934C26.748 7.524 26.7773 7.63067 26.8053 7.78001C26.8775 8.20244 26.922 8.62912 26.9387 9.05734C27 10.1787 27 11.744 27 13.8893V15.988C27 22.888 21.84 26.2853 18.4013 27.7867C17.9067 28.0027 17.62 28.1253 17.3013 28.2067C16.9973 28.2853 16.6267 28.3333 16 28.3333C15.3733 28.3333 15.0027 28.2853 14.6987 28.2067C14.3787 28.1267 14.0933 28.0027 13.5987 27.7867C10.1587 26.284 5 22.888 5 15.988V13.8893C5 11.744 5 10.1787 5.06133 9.05734C5.07799 8.62912 5.12253 8.20244 5.19467 7.78001C5.22267 7.63067 5.252 7.524 5.27867 7.44934C5.30267 7.38267 5.31867 7.35601 5.32133 7.35067C5.34358 7.32614 5.36813 7.30382 5.39467 7.28401C5.48199 7.21449 5.57473 7.15207 5.672 7.09734C5.93467 6.94534 6.308 6.77067 6.824 6.56134C7.856 6.14134 9.32667 5.63734 11.344 4.94801L12.108 4.68534H12.1067Z" fill="#B50A27"/>
</svg>
