<svg width="33" height="32" viewBox="0 0 33 32" fill="none" xmlns="http://www.w3.org/2000/svg">
<path d="M14.3262 17.8315L15.0721 18.6665L15.0714 18.6673L15.0713 18.6674L13.2241 16.5977L14.3262 17.8315ZM15.8505 17.7948L19.8326 13.3327L19.8333 13.3324L19.834 13.3326L19.8343 13.3333L19.8341 13.334L15.8505 17.7948Z" fill="#787D83" stroke="#787D83" stroke-width="2"/>
<path fill-rule="evenodd" clip-rule="evenodd" d="M16.5 1.66667C15.2493 1.66667 14.056 2.076 12.1307 2.73467L11.1613 3.068C9.18667 3.74267 7.66133 4.26533 6.57067 4.708C6.02133 4.93067 5.548 5.148 5.168 5.368C4.80133 5.58133 4.43467 5.84667 4.18533 6.20267C3.93867 6.55333 3.81067 6.98533 3.73067 7.40267C3.64667 7.83467 3.59733 8.35333 3.564 8.94933C3.5 10.1307 3.5 11.752 3.5 13.8533V15.988C3.5 24.1227 9.644 28.0227 13.2973 29.62L13.3333 29.6347C13.7867 29.8333 14.2133 30.0187 14.7027 30.144C15.2187 30.2773 15.768 30.3333 16.5 30.3333C17.2333 30.3333 17.78 30.2773 18.2973 30.144C18.7867 30.0187 19.2133 29.8333 19.6653 29.6347L19.7027 29.62C23.356 28.0227 29.5 24.1227 29.5 15.988V13.8533C29.5 11.752 29.5 10.1307 29.436 8.948C29.4145 8.42934 29.3588 7.91266 29.2693 7.40133C29.1893 6.98533 29.0613 6.55333 28.816 6.20133C28.5653 5.84667 28.1987 5.58133 27.832 5.368C27.38 5.11644 26.9113 4.89593 26.4293 4.708C25.3387 4.26533 23.8133 3.74267 21.8387 3.068L20.8693 2.73467C18.944 2.076 17.7493 1.66667 16.5 1.66667ZM12.6067 4.68533C14.76 3.94933 15.6227 3.66667 16.5 3.66667C17.3773 3.66667 18.24 3.94933 20.3933 4.68533L21.156 4.94667C23.1733 5.63733 24.644 6.14133 25.676 6.56C26.192 6.77067 26.5653 6.94667 26.828 7.09867C26.9573 7.17333 27.0467 7.23467 27.1053 7.284C27.156 7.324 27.176 7.348 27.1787 7.35067C27.1961 7.38207 27.2104 7.41512 27.2213 7.44933C27.248 7.524 27.2773 7.63067 27.3053 7.78C27.3775 8.20243 27.422 8.62911 27.4387 9.05733C27.5 10.1787 27.5 11.744 27.5 13.8893V15.988C27.5 22.888 22.34 26.2853 18.9013 27.7867C18.4067 28.0027 18.12 28.1253 17.8013 28.2067C17.4973 28.2853 17.1267 28.3333 16.5 28.3333C15.8733 28.3333 15.5027 28.2853 15.1987 28.2067C14.8787 28.1267 14.5933 28.0027 14.0987 27.7867C10.6587 26.284 5.5 22.888 5.5 15.988V13.8893C5.5 11.744 5.5 10.1787 5.56133 9.05733C5.57799 8.62911 5.62253 8.20243 5.69467 7.78C5.72267 7.63067 5.752 7.524 5.77867 7.44933C5.80267 7.38267 5.81867 7.356 5.82133 7.35067C5.84358 7.32614 5.86813 7.30381 5.89467 7.284C5.98199 7.21448 6.07473 7.15206 6.172 7.09733C6.43467 6.94533 6.808 6.77067 7.324 6.56133C8.356 6.14133 9.82667 5.63733 11.844 4.948L12.608 4.68533H12.6067Z" fill="#787D83"/>
</svg>
