<svg width="32" height="32" viewBox="0 0 32 32" fill="none" xmlns="http://www.w3.org/2000/svg">
<path d="M13.8263 17.8315L14.5722 18.6665L14.5716 18.6673L14.5714 18.6674L12.7237 16.5971L13.8263 17.8315ZM15.3508 17.7947L19.3327 13.3327L19.3334 13.3324L19.3341 13.3326L19.3344 13.3333L19.3342 13.334L15.3508 17.7947Z" fill="#282A2C" stroke="#282A2C" stroke-width="2"/>
<path fill-rule="evenodd" clip-rule="evenodd" d="M16 1.66667C14.7493 1.66667 13.556 2.076 11.6307 2.73467L10.6613 3.068C8.68667 3.74267 7.16133 4.26533 6.07067 4.708C5.52133 4.93067 5.048 5.148 4.668 5.368C4.30133 5.58133 3.93467 5.84667 3.68533 6.20267C3.43867 6.55333 3.31067 6.98533 3.23067 7.40267C3.14667 7.83467 3.09733 8.35333 3.064 8.94933C3 10.1307 3 11.752 3 13.8533V15.988C3 24.1227 9.144 28.0227 12.7973 29.62L12.8333 29.6347C13.2867 29.8333 13.7133 30.0187 14.2027 30.144C14.7187 30.2773 15.268 30.3333 16 30.3333C16.7333 30.3333 17.28 30.2773 17.7973 30.144C18.2867 30.0187 18.7133 29.8333 19.1653 29.6347L19.2027 29.62C22.856 28.0227 29 24.1227 29 15.988V13.8533C29 11.752 29 10.1307 28.936 8.948C28.9145 8.42934 28.8588 7.91266 28.7693 7.40133C28.6893 6.98533 28.5613 6.55333 28.316 6.20133C28.0653 5.84667 27.6987 5.58133 27.332 5.368C26.88 5.11644 26.4113 4.89593 25.9293 4.708C24.8387 4.26533 23.3133 3.74267 21.3387 3.068L20.3693 2.73467C18.444 2.076 17.2493 1.66667 16 1.66667ZM12.1067 4.68533C14.26 3.94933 15.1227 3.66667 16 3.66667C16.8773 3.66667 17.74 3.94933 19.8933 4.68533L20.656 4.94667C22.6733 5.63733 24.144 6.14133 25.176 6.56C25.692 6.77067 26.0653 6.94667 26.328 7.09867C26.4573 7.17333 26.5467 7.23467 26.6053 7.284C26.656 7.324 26.676 7.348 26.6787 7.35067C26.6961 7.38207 26.7104 7.41512 26.7213 7.44933C26.748 7.524 26.7773 7.63067 26.8053 7.78C26.8775 8.20243 26.922 8.62911 26.9387 9.05733C27 10.1787 27 11.744 27 13.8893V15.988C27 22.888 21.84 26.2853 18.4013 27.7867C17.9067 28.0027 17.62 28.1253 17.3013 28.2067C16.9973 28.2853 16.6267 28.3333 16 28.3333C15.3733 28.3333 15.0027 28.2853 14.6987 28.2067C14.3787 28.1267 14.0933 28.0027 13.5987 27.7867C10.1587 26.284 5 22.888 5 15.988V13.8893C5 11.744 5 10.1787 5.06133 9.05733C5.07799 8.62911 5.12253 8.20243 5.19467 7.78C5.22267 7.63067 5.252 7.524 5.27867 7.44933C5.30267 7.38267 5.31867 7.356 5.32133 7.35067C5.34358 7.32614 5.36813 7.30381 5.39467 7.284C5.48199 7.21448 5.57473 7.15206 5.672 7.09733C5.93467 6.94533 6.308 6.77067 6.824 6.56133C7.856 6.14133 9.32667 5.63733 11.344 4.948L12.108 4.68533H12.1067Z" fill="#282A2C"/>
</svg>
